%TF.GenerationSoftware,KiCad,Pcbnew,9.0.1*%
%TF.CreationDate,2025-04-15T01:41:33+09:00*%
%TF.ProjectId,STM32-FC_v2,53544d33-322d-4464-935f-76322e6b6963,rev?*%
%TF.SameCoordinates,Original*%
%TF.FileFunction,Paste,Bot*%
%TF.FilePolarity,Positive*%
%FSLAX46Y46*%
G04 Gerber Fmt 4.6, Leading zero omitted, Abs format (unit mm)*
G04 Created by KiCad (PCBNEW 9.0.1) date 2025-04-15 01:41:33*
%MOMM*%
%LPD*%
G01*
G04 APERTURE LIST*
G04 Aperture macros list*
%AMRoundRect*
0 Rectangle with rounded corners*
0 $1 Rounding radius*
0 $2 $3 $4 $5 $6 $7 $8 $9 X,Y pos of 4 corners*
0 Add a 4 corners polygon primitive as box body*
4,1,4,$2,$3,$4,$5,$6,$7,$8,$9,$2,$3,0*
0 Add four circle primitives for the rounded corners*
1,1,$1+$1,$2,$3*
1,1,$1+$1,$4,$5*
1,1,$1+$1,$6,$7*
1,1,$1+$1,$8,$9*
0 Add four rect primitives between the rounded corners*
20,1,$1+$1,$2,$3,$4,$5,0*
20,1,$1+$1,$4,$5,$6,$7,0*
20,1,$1+$1,$6,$7,$8,$9,0*
20,1,$1+$1,$8,$9,$2,$3,0*%
G04 Aperture macros list end*
%ADD10C,0.100000*%
%ADD11R,1.800000X0.600000*%
%ADD12R,2.800000X1.000000*%
%ADD13RoundRect,0.097500X-0.702500X0.227500X-0.702500X-0.227500X0.702500X-0.227500X0.702500X0.227500X0*%
%ADD14RoundRect,0.135000X-0.135000X-0.185000X0.135000X-0.185000X0.135000X0.185000X-0.135000X0.185000X0*%
%ADD15RoundRect,0.135000X0.135000X0.185000X-0.135000X0.185000X-0.135000X-0.185000X0.135000X-0.185000X0*%
%ADD16RoundRect,0.140000X0.140000X0.170000X-0.140000X0.170000X-0.140000X-0.170000X0.140000X-0.170000X0*%
%ADD17RoundRect,0.140000X-0.140000X-0.170000X0.140000X-0.170000X0.140000X0.170000X-0.140000X0.170000X0*%
%ADD18RoundRect,0.140000X-0.170000X0.140000X-0.170000X-0.140000X0.170000X-0.140000X0.170000X0.140000X0*%
%ADD19R,1.000000X2.800000*%
%ADD20R,0.600000X1.800000*%
%ADD21RoundRect,0.140000X0.170000X-0.140000X0.170000X0.140000X-0.170000X0.140000X-0.170000X-0.140000X0*%
%ADD22RoundRect,0.135000X0.185000X-0.135000X0.185000X0.135000X-0.185000X0.135000X-0.185000X-0.135000X0*%
%ADD23R,1.080000X0.500000*%
%ADD24R,1.200000X1.050000*%
%ADD25RoundRect,0.075000X0.075000X-0.725000X0.075000X0.725000X-0.075000X0.725000X-0.075000X-0.725000X0*%
%ADD26RoundRect,0.075000X0.725000X-0.075000X0.725000X0.075000X-0.725000X0.075000X-0.725000X-0.075000X0*%
%ADD27RoundRect,0.112500X0.187500X0.112500X-0.187500X0.112500X-0.187500X-0.112500X0.187500X-0.112500X0*%
%ADD28RoundRect,0.112500X-0.187500X-0.112500X0.187500X-0.112500X0.187500X0.112500X-0.187500X0.112500X0*%
G04 APERTURE END LIST*
%TO.C,U4*%
D10*
X139975000Y-104175000D02*
X140125000Y-104175000D01*
X140125000Y-104025000D01*
X139975000Y-104025000D01*
X139975000Y-104175000D01*
G36*
X139975000Y-104175000D02*
G01*
X140125000Y-104175000D01*
X140125000Y-104025000D01*
X139975000Y-104025000D01*
X139975000Y-104175000D01*
G37*
X139975000Y-104575000D02*
X140125000Y-104575000D01*
X140125000Y-104425000D01*
X139975000Y-104425000D01*
X139975000Y-104575000D01*
G36*
X139975000Y-104575000D02*
G01*
X140125000Y-104575000D01*
X140125000Y-104425000D01*
X139975000Y-104425000D01*
X139975000Y-104575000D01*
G37*
X139975000Y-104975000D02*
X140125000Y-104975000D01*
X140125000Y-104825000D01*
X139975000Y-104825000D01*
X139975000Y-104975000D01*
G36*
X139975000Y-104975000D02*
G01*
X140125000Y-104975000D01*
X140125000Y-104825000D01*
X139975000Y-104825000D01*
X139975000Y-104975000D01*
G37*
X140375000Y-104175000D02*
X140525000Y-104175000D01*
X140525000Y-104025000D01*
X140375000Y-104025000D01*
X140375000Y-104175000D01*
G36*
X140375000Y-104175000D02*
G01*
X140525000Y-104175000D01*
X140525000Y-104025000D01*
X140375000Y-104025000D01*
X140375000Y-104175000D01*
G37*
X140375000Y-104575000D02*
X140525000Y-104575000D01*
X140525000Y-104425000D01*
X140375000Y-104425000D01*
X140375000Y-104575000D01*
G36*
X140375000Y-104575000D02*
G01*
X140525000Y-104575000D01*
X140525000Y-104425000D01*
X140375000Y-104425000D01*
X140375000Y-104575000D01*
G37*
X140375000Y-104975000D02*
X140525000Y-104975000D01*
X140525000Y-104825000D01*
X140375000Y-104825000D01*
X140375000Y-104975000D01*
G36*
X140375000Y-104975000D02*
G01*
X140525000Y-104975000D01*
X140525000Y-104825000D01*
X140375000Y-104825000D01*
X140375000Y-104975000D01*
G37*
%TO.C,U3*%
X129475000Y-104175000D02*
X129625000Y-104175000D01*
X129625000Y-104025000D01*
X129475000Y-104025000D01*
X129475000Y-104175000D01*
G36*
X129475000Y-104175000D02*
G01*
X129625000Y-104175000D01*
X129625000Y-104025000D01*
X129475000Y-104025000D01*
X129475000Y-104175000D01*
G37*
X129475000Y-104575000D02*
X129625000Y-104575000D01*
X129625000Y-104425000D01*
X129475000Y-104425000D01*
X129475000Y-104575000D01*
G36*
X129475000Y-104575000D02*
G01*
X129625000Y-104575000D01*
X129625000Y-104425000D01*
X129475000Y-104425000D01*
X129475000Y-104575000D01*
G37*
X129475000Y-104975000D02*
X129625000Y-104975000D01*
X129625000Y-104825000D01*
X129475000Y-104825000D01*
X129475000Y-104975000D01*
G36*
X129475000Y-104975000D02*
G01*
X129625000Y-104975000D01*
X129625000Y-104825000D01*
X129475000Y-104825000D01*
X129475000Y-104975000D01*
G37*
X129875000Y-104175000D02*
X130025000Y-104175000D01*
X130025000Y-104025000D01*
X129875000Y-104025000D01*
X129875000Y-104175000D01*
G36*
X129875000Y-104175000D02*
G01*
X130025000Y-104175000D01*
X130025000Y-104025000D01*
X129875000Y-104025000D01*
X129875000Y-104175000D01*
G37*
X129875000Y-104575000D02*
X130025000Y-104575000D01*
X130025000Y-104425000D01*
X129875000Y-104425000D01*
X129875000Y-104575000D01*
G36*
X129875000Y-104575000D02*
G01*
X130025000Y-104575000D01*
X130025000Y-104425000D01*
X129875000Y-104425000D01*
X129875000Y-104575000D01*
G37*
X129875000Y-104975000D02*
X130025000Y-104975000D01*
X130025000Y-104825000D01*
X129875000Y-104825000D01*
X129875000Y-104975000D01*
G36*
X129875000Y-104975000D02*
G01*
X130025000Y-104975000D01*
X130025000Y-104825000D01*
X129875000Y-104825000D01*
X129875000Y-104975000D01*
G37*
%TO.C,U5*%
X134725000Y-104175000D02*
X134875000Y-104175000D01*
X134875000Y-104025000D01*
X134725000Y-104025000D01*
X134725000Y-104175000D01*
G36*
X134725000Y-104175000D02*
G01*
X134875000Y-104175000D01*
X134875000Y-104025000D01*
X134725000Y-104025000D01*
X134725000Y-104175000D01*
G37*
X134725000Y-104575000D02*
X134875000Y-104575000D01*
X134875000Y-104425000D01*
X134725000Y-104425000D01*
X134725000Y-104575000D01*
G36*
X134725000Y-104575000D02*
G01*
X134875000Y-104575000D01*
X134875000Y-104425000D01*
X134725000Y-104425000D01*
X134725000Y-104575000D01*
G37*
X134725000Y-104975000D02*
X134875000Y-104975000D01*
X134875000Y-104825000D01*
X134725000Y-104825000D01*
X134725000Y-104975000D01*
G36*
X134725000Y-104975000D02*
G01*
X134875000Y-104975000D01*
X134875000Y-104825000D01*
X134725000Y-104825000D01*
X134725000Y-104975000D01*
G37*
X135125000Y-104175000D02*
X135275000Y-104175000D01*
X135275000Y-104025000D01*
X135125000Y-104025000D01*
X135125000Y-104175000D01*
G36*
X135125000Y-104175000D02*
G01*
X135275000Y-104175000D01*
X135275000Y-104025000D01*
X135125000Y-104025000D01*
X135125000Y-104175000D01*
G37*
X135125000Y-104575000D02*
X135275000Y-104575000D01*
X135275000Y-104425000D01*
X135125000Y-104425000D01*
X135125000Y-104575000D01*
G36*
X135125000Y-104575000D02*
G01*
X135275000Y-104575000D01*
X135275000Y-104425000D01*
X135125000Y-104425000D01*
X135125000Y-104575000D01*
G37*
X135125000Y-104975000D02*
X135275000Y-104975000D01*
X135275000Y-104825000D01*
X135125000Y-104825000D01*
X135125000Y-104975000D01*
G36*
X135125000Y-104975000D02*
G01*
X135275000Y-104975000D01*
X135275000Y-104825000D01*
X135125000Y-104825000D01*
X135125000Y-104975000D01*
G37*
%TD*%
D11*
%TO.C,J16*%
X153800000Y-100475000D03*
X153800000Y-99225000D03*
X153800000Y-97975000D03*
X153800000Y-96725000D03*
D12*
X157000000Y-102200000D03*
X157000000Y-95000000D03*
%TD*%
D13*
%TO.C,L1*%
X131750000Y-104825000D03*
X131750000Y-106175000D03*
%TD*%
D14*
%TO.C,R2*%
X147740000Y-94500000D03*
X148760000Y-94500000D03*
%TD*%
D13*
%TO.C,L3*%
X137000000Y-104825000D03*
X137000000Y-106175000D03*
%TD*%
D15*
%TO.C,R21*%
X141260000Y-102750000D03*
X140240000Y-102750000D03*
%TD*%
D16*
%TO.C,C18*%
X140730000Y-106500000D03*
X139770000Y-106500000D03*
%TD*%
D17*
%TO.C,C8*%
X136770000Y-100000000D03*
X137730000Y-100000000D03*
%TD*%
D15*
%TO.C,R22*%
X136010000Y-102750000D03*
X134990000Y-102750000D03*
%TD*%
D18*
%TO.C,C2*%
X126500000Y-95520000D03*
X126500000Y-96480000D03*
%TD*%
D15*
%TO.C,R45*%
X138910000Y-76400000D03*
X137890000Y-76400000D03*
%TD*%
D17*
%TO.C,C13*%
X131270000Y-100980000D03*
X132230000Y-100980000D03*
%TD*%
D19*
%TO.C,J11*%
X146850000Y-71000000D03*
X156550000Y-71000000D03*
D20*
X148575000Y-74200000D03*
X149825000Y-74200000D03*
X151075000Y-74200000D03*
X152325000Y-74200000D03*
X153575000Y-74200000D03*
X154825000Y-74200000D03*
%TD*%
D21*
%TO.C,C11*%
X145000000Y-96980000D03*
X145000000Y-96020000D03*
%TD*%
D18*
%TO.C,C16*%
X133500000Y-104520000D03*
X133500000Y-105480000D03*
%TD*%
D17*
%TO.C,C6*%
X126540000Y-81250000D03*
X127500000Y-81250000D03*
%TD*%
D22*
%TO.C,R4*%
X134250000Y-80010000D03*
X134250000Y-78990000D03*
%TD*%
D16*
%TO.C,C17*%
X130230000Y-106500000D03*
X129270000Y-106500000D03*
%TD*%
D23*
%TO.C,J4*%
X153345000Y-90850000D03*
X153345000Y-89750000D03*
X153345000Y-88650000D03*
X153345000Y-87900000D03*
X153345000Y-86450000D03*
X153345000Y-85350000D03*
X153345000Y-84250000D03*
X153345000Y-83150000D03*
X153345000Y-87200000D03*
D24*
X151705000Y-92225000D03*
X151705000Y-81775000D03*
X147255000Y-92225000D03*
X147255000Y-81775000D03*
%TD*%
D15*
%TO.C,R20*%
X130760000Y-102750000D03*
X129740000Y-102750000D03*
%TD*%
D18*
%TO.C,C14*%
X128250000Y-104520000D03*
X128250000Y-105480000D03*
%TD*%
D17*
%TO.C,C9*%
X136770000Y-101000000D03*
X137730000Y-101000000D03*
%TD*%
D25*
%TO.C,U1*%
X141750000Y-98425000D03*
X141250000Y-98425000D03*
X140750000Y-98425000D03*
X140250000Y-98425000D03*
X139750000Y-98425000D03*
X139250000Y-98425000D03*
X138750000Y-98425000D03*
X138250000Y-98425000D03*
X137750000Y-98425000D03*
X137250000Y-98425000D03*
X136750000Y-98425000D03*
X136250000Y-98425000D03*
X135750000Y-98425000D03*
X135250000Y-98425000D03*
X134750000Y-98425000D03*
X134250000Y-98425000D03*
X133750000Y-98425000D03*
X133250000Y-98425000D03*
X132750000Y-98425000D03*
X132250000Y-98425000D03*
X131750000Y-98425000D03*
X131250000Y-98425000D03*
X130750000Y-98425000D03*
X130250000Y-98425000D03*
X129750000Y-98425000D03*
D26*
X128075000Y-96750000D03*
X128075000Y-96250000D03*
X128075000Y-95750000D03*
X128075000Y-95250000D03*
X128075000Y-94750000D03*
X128075000Y-94250000D03*
X128075000Y-93750000D03*
X128075000Y-93250000D03*
X128075000Y-92750000D03*
X128075000Y-92250000D03*
X128075000Y-91750000D03*
X128075000Y-91250000D03*
X128075000Y-90750000D03*
X128075000Y-90250000D03*
X128075000Y-89750000D03*
X128075000Y-89250000D03*
X128075000Y-88750000D03*
X128075000Y-88250000D03*
X128075000Y-87750000D03*
X128075000Y-87250000D03*
X128075000Y-86750000D03*
X128075000Y-86250000D03*
X128075000Y-85750000D03*
X128075000Y-85250000D03*
X128075000Y-84750000D03*
D25*
X129750000Y-83075000D03*
X130250000Y-83075000D03*
X130750000Y-83075000D03*
X131250000Y-83075000D03*
X131750000Y-83075000D03*
X132250000Y-83075000D03*
X132750000Y-83075000D03*
X133250000Y-83075000D03*
X133750000Y-83075000D03*
X134250000Y-83075000D03*
X134750000Y-83075000D03*
X135250000Y-83075000D03*
X135750000Y-83075000D03*
X136250000Y-83075000D03*
X136750000Y-83075000D03*
X137250000Y-83075000D03*
X137750000Y-83075000D03*
X138250000Y-83075000D03*
X138750000Y-83075000D03*
X139250000Y-83075000D03*
X139750000Y-83075000D03*
X140250000Y-83075000D03*
X140750000Y-83075000D03*
X141250000Y-83075000D03*
X141750000Y-83075000D03*
D26*
X143425000Y-84750000D03*
X143425000Y-85250000D03*
X143425000Y-85750000D03*
X143425000Y-86250000D03*
X143425000Y-86750000D03*
X143425000Y-87250000D03*
X143425000Y-87750000D03*
X143425000Y-88250000D03*
X143425000Y-88750000D03*
X143425000Y-89250000D03*
X143425000Y-89750000D03*
X143425000Y-90250000D03*
X143425000Y-90750000D03*
X143425000Y-91250000D03*
X143425000Y-91750000D03*
X143425000Y-92250000D03*
X143425000Y-92750000D03*
X143425000Y-93250000D03*
X143425000Y-93750000D03*
X143425000Y-94250000D03*
X143425000Y-94750000D03*
X143425000Y-95250000D03*
X143425000Y-95750000D03*
X143425000Y-96250000D03*
X143425000Y-96750000D03*
%TD*%
D19*
%TO.C,J12*%
X134600000Y-71000000D03*
X144300000Y-71000000D03*
D20*
X136325000Y-74200000D03*
X137575000Y-74200000D03*
X138825000Y-74200000D03*
X140075000Y-74200000D03*
X141325000Y-74200000D03*
X142575000Y-74200000D03*
%TD*%
D14*
%TO.C,R44*%
X151390000Y-78900000D03*
X152410000Y-78900000D03*
%TD*%
D12*
%TO.C,J13*%
X121000000Y-103600000D03*
X121000000Y-96400000D03*
D11*
X124200000Y-101875000D03*
X124200000Y-100625000D03*
X124200000Y-99375000D03*
X124200000Y-98125000D03*
%TD*%
D16*
%TO.C,C10*%
X139980000Y-100000000D03*
X139020000Y-100000000D03*
%TD*%
%TO.C,C19*%
X135480000Y-106500000D03*
X134520000Y-106500000D03*
%TD*%
D27*
%TO.C,D1*%
X137550000Y-79500000D03*
X135450000Y-79500000D03*
%TD*%
D16*
%TO.C,C3*%
X139980000Y-101000000D03*
X139020000Y-101000000D03*
%TD*%
D15*
%TO.C,R47*%
X127310000Y-100200000D03*
X126290000Y-100200000D03*
%TD*%
D28*
%TO.C,D6*%
X125450000Y-76750000D03*
X127550000Y-76750000D03*
%TD*%
D21*
%TO.C,C7*%
X140500000Y-81480000D03*
X140500000Y-80520000D03*
%TD*%
D19*
%TO.C,J3*%
X122100000Y-71000000D03*
X131800000Y-71000000D03*
D20*
X123825000Y-74200000D03*
X125075000Y-74200000D03*
X126325000Y-74200000D03*
X127575000Y-74200000D03*
X128825000Y-74200000D03*
X130075000Y-74200000D03*
%TD*%
D18*
%TO.C,C15*%
X138750000Y-104520000D03*
X138750000Y-105480000D03*
%TD*%
D12*
%TO.C,J1*%
X121000000Y-90850000D03*
X121000000Y-81150000D03*
D11*
X124200000Y-89125000D03*
X124200000Y-87875000D03*
X124200000Y-86625000D03*
X124200000Y-85375000D03*
X124200000Y-84125000D03*
X124200000Y-82875000D03*
%TD*%
D15*
%TO.C,R46*%
X127310000Y-98950000D03*
X126290000Y-98950000D03*
%TD*%
D13*
%TO.C,L2*%
X142250000Y-104825000D03*
X142250000Y-106175000D03*
%TD*%
D17*
%TO.C,C12*%
X131270000Y-100000000D03*
X132230000Y-100000000D03*
%TD*%
M02*
