M48
; DRILL file {KiCad 9.0.1} date 2025-04-15T01:41:31+0900
; FORMAT={-:-/ absolute / metric / decimal}
; #@! TF.CreationDate,2025-04-15T01:41:31+09:00
; #@! TF.GenerationSoftware,Kicad,Pcbnew,9.0.1
; #@! TF.FileFunction,Plated,3,4,Blind
FMAT,2
METRIC
; #@! TA.AperFunction,Plated,Buried,ViaDrill
T1C0.300
; #@! TA.AperFunction,Plated,Buried,ViaDrill
T2C0.400
%
G90
G05
T1
X123.3Y-87.875
X123.75Y-86.6
X125.0Y-85.75
X127.8Y-107.0
X128.1Y-98.33
X128.1Y-99.575
X129.5Y-95.75
X130.1Y-85.6
X130.5Y-106.0
X130.75Y-85.6
X131.3Y-81.3
X131.4Y-85.6
X131.713Y-101.696
X132.75Y-84.25
X134.262Y-84.25
X135.11Y-99.81
X135.285Y-107.215
X137.25Y-81.9
X137.75Y-84.2
X137.75Y-84.9
X139.0Y-80.0
X139.98Y-101.0
X140.3Y-85.1
X140.75Y-107.095
X141.9Y-82.0
X142.1Y-84.754
X142.25Y-94.0
X145.0Y-88.5
X145.5Y-86.75
X146.6Y-100.866
X151.0Y-78.9
T2
X124.2Y-89.725
X154.35Y-88.1
M30
