M48
; DRILL file {KiCad 9.0.1} date 2025-04-15T01:41:31+0900
; FORMAT={-:-/ absolute / metric / decimal}
; #@! TF.CreationDate,2025-04-15T01:41:31+09:00
; #@! TF.GenerationSoftware,Kicad,Pcbnew,9.0.1
; #@! TF.FileFunction,Plated,2,4,Blind
FMAT,2
METRIC
; #@! TA.AperFunction,Plated,Buried,ViaDrill
T1C0.300
; #@! TA.AperFunction,Plated,Buried,ViaDrill
T2C0.500
%
G90
G05
T1
X123.75Y-84.25
X124.21Y-102.781
X126.299Y-101.737
X126.6Y-85.75
X126.6Y-86.5
X126.94Y-102.415
X128.513Y-103.987
X129.004Y-95.25
X129.25Y-88.25
X129.25Y-89.75
X129.527Y-89.195
X129.628Y-100.75
X129.75Y-86.25
X130.25Y-99.42
X130.595Y-99.935
X133.2Y-99.7
X133.57Y-103.593
X133.835Y-99.838
X136.8Y-101.6
X137.02Y-105.685
X139.51Y-92.716
X139.628Y-89.12
X139.709Y-88.224
X144.431Y-90.761
X144.8Y-90.2
X155.0Y-99.25
T2
X125.5Y-77.5
M30
