M48
; DRILL file {KiCad 9.0.1} date 2025-04-15T01:41:31+0900
; FORMAT={-:-/ absolute / metric / decimal}
; #@! TF.CreationDate,2025-04-15T01:41:31+09:00
; #@! TF.GenerationSoftware,Kicad,Pcbnew,9.0.1
; #@! TF.FileFunction,Plated,1,2,Blind
FMAT,2
METRIC
; #@! TA.AperFunction,Plated,Buried,ViaDrill
T1C0.300
; #@! TA.AperFunction,Plated,Buried,ViaDrill
T2C0.400
%
G90
G05
T1
X126.6Y-99.4
X126.6Y-100.6
X128.3Y-94.3
X128.7Y-93.0
X130.2Y-95.2
X130.25Y-82.9
X131.8Y-93.1
X131.8Y-94.4
X132.3Y-82.8
X133.0Y-95.22
X137.8Y-95.3
X138.2Y-97.7
X139.225Y-80.775
X139.3Y-94.7
X141.15Y-104.25
X141.2Y-94.2
X142.1Y-104.75
X142.5Y-83.0
X143.75Y-102.26
X143.75Y-103.25
X145.5Y-105.75
X146.35Y-106.25
X146.8Y-83.0
X148.667Y-87.252
T2
X124.0Y-94.775
X131.5Y-89.825
X143.8Y-82.9
X144.763Y-79.763
X149.0Y-83.1
X153.3Y-92.0
M30
