%TF.GenerationSoftware,KiCad,Pcbnew,9.0.1*%
%TF.CreationDate,2025-04-15T01:41:33+09:00*%
%TF.ProjectId,STM32-FC_v2,53544d33-322d-4464-935f-76322e6b6963,rev?*%
%TF.SameCoordinates,Original*%
%TF.FileFunction,Legend,Bot*%
%TF.FilePolarity,Positive*%
%FSLAX46Y46*%
G04 Gerber Fmt 4.6, Leading zero omitted, Abs format (unit mm)*
G04 Created by KiCad (PCBNEW 9.0.1) date 2025-04-15 01:41:33*
%MOMM*%
%LPD*%
G01*
G04 APERTURE LIST*
%ADD10C,0.160000*%
%ADD11C,0.120000*%
%ADD12C,0.200000*%
%ADD13C,0.100000*%
G04 APERTURE END LIST*
D10*
X150985584Y-97423810D02*
X151023680Y-97385714D01*
X151023680Y-97385714D02*
X151061775Y-97271429D01*
X151061775Y-97271429D02*
X151061775Y-97195238D01*
X151061775Y-97195238D02*
X151023680Y-97080952D01*
X151023680Y-97080952D02*
X150947489Y-97004762D01*
X150947489Y-97004762D02*
X150871299Y-96966667D01*
X150871299Y-96966667D02*
X150718918Y-96928571D01*
X150718918Y-96928571D02*
X150604632Y-96928571D01*
X150604632Y-96928571D02*
X150452251Y-96966667D01*
X150452251Y-96966667D02*
X150376060Y-97004762D01*
X150376060Y-97004762D02*
X150299870Y-97080952D01*
X150299870Y-97080952D02*
X150261775Y-97195238D01*
X150261775Y-97195238D02*
X150261775Y-97271429D01*
X150261775Y-97271429D02*
X150299870Y-97385714D01*
X150299870Y-97385714D02*
X150337965Y-97423810D01*
X151061775Y-98223810D02*
X150680822Y-97957143D01*
X151061775Y-97766667D02*
X150261775Y-97766667D01*
X150261775Y-97766667D02*
X150261775Y-98071429D01*
X150261775Y-98071429D02*
X150299870Y-98147619D01*
X150299870Y-98147619D02*
X150337965Y-98185714D01*
X150337965Y-98185714D02*
X150414156Y-98223810D01*
X150414156Y-98223810D02*
X150528441Y-98223810D01*
X150528441Y-98223810D02*
X150604632Y-98185714D01*
X150604632Y-98185714D02*
X150642727Y-98147619D01*
X150642727Y-98147619D02*
X150680822Y-98071429D01*
X150680822Y-98071429D02*
X150680822Y-97766667D01*
X151023680Y-98528571D02*
X151061775Y-98642857D01*
X151061775Y-98642857D02*
X151061775Y-98833333D01*
X151061775Y-98833333D02*
X151023680Y-98909524D01*
X151023680Y-98909524D02*
X150985584Y-98947619D01*
X150985584Y-98947619D02*
X150909394Y-98985714D01*
X150909394Y-98985714D02*
X150833203Y-98985714D01*
X150833203Y-98985714D02*
X150757013Y-98947619D01*
X150757013Y-98947619D02*
X150718918Y-98909524D01*
X150718918Y-98909524D02*
X150680822Y-98833333D01*
X150680822Y-98833333D02*
X150642727Y-98680952D01*
X150642727Y-98680952D02*
X150604632Y-98604762D01*
X150604632Y-98604762D02*
X150566537Y-98566667D01*
X150566537Y-98566667D02*
X150490346Y-98528571D01*
X150490346Y-98528571D02*
X150414156Y-98528571D01*
X150414156Y-98528571D02*
X150337965Y-98566667D01*
X150337965Y-98566667D02*
X150299870Y-98604762D01*
X150299870Y-98604762D02*
X150261775Y-98680952D01*
X150261775Y-98680952D02*
X150261775Y-98871429D01*
X150261775Y-98871429D02*
X150299870Y-98985714D01*
X150642727Y-99595238D02*
X150642727Y-99328572D01*
X151061775Y-99328572D02*
X150261775Y-99328572D01*
X150261775Y-99328572D02*
X150261775Y-99709524D01*
X139385713Y-77438224D02*
X139842856Y-77438224D01*
X139614284Y-76638224D02*
X139614284Y-77438224D01*
X140109523Y-77057272D02*
X140376189Y-77057272D01*
X140490475Y-76638224D02*
X140109523Y-76638224D01*
X140109523Y-76638224D02*
X140109523Y-77438224D01*
X140109523Y-77438224D02*
X140490475Y-77438224D01*
X141214285Y-76638224D02*
X140833333Y-76638224D01*
X140833333Y-76638224D02*
X140833333Y-77438224D01*
X141480952Y-77057272D02*
X141747618Y-77057272D01*
X141861904Y-76638224D02*
X141480952Y-76638224D01*
X141480952Y-76638224D02*
X141480952Y-77438224D01*
X141480952Y-77438224D02*
X141861904Y-77438224D01*
X142204762Y-76638224D02*
X142204762Y-77438224D01*
X142204762Y-77438224D02*
X142471428Y-76866796D01*
X142471428Y-76866796D02*
X142738095Y-77438224D01*
X142738095Y-77438224D02*
X142738095Y-76638224D01*
X143080952Y-77362034D02*
X143119048Y-77400129D01*
X143119048Y-77400129D02*
X143195238Y-77438224D01*
X143195238Y-77438224D02*
X143385714Y-77438224D01*
X143385714Y-77438224D02*
X143461905Y-77400129D01*
X143461905Y-77400129D02*
X143500000Y-77362034D01*
X143500000Y-77362034D02*
X143538095Y-77285843D01*
X143538095Y-77285843D02*
X143538095Y-77209653D01*
X143538095Y-77209653D02*
X143500000Y-77095367D01*
X143500000Y-77095367D02*
X143042857Y-76638224D01*
X143042857Y-76638224D02*
X143538095Y-76638224D01*
X125888224Y-87790475D02*
X126688224Y-87790475D01*
X126688224Y-87790475D02*
X126688224Y-87599999D01*
X126688224Y-87599999D02*
X126650129Y-87485713D01*
X126650129Y-87485713D02*
X126573939Y-87409523D01*
X126573939Y-87409523D02*
X126497748Y-87371428D01*
X126497748Y-87371428D02*
X126345367Y-87333332D01*
X126345367Y-87333332D02*
X126231081Y-87333332D01*
X126231081Y-87333332D02*
X126078700Y-87371428D01*
X126078700Y-87371428D02*
X126002510Y-87409523D01*
X126002510Y-87409523D02*
X125926320Y-87485713D01*
X125926320Y-87485713D02*
X125888224Y-87599999D01*
X125888224Y-87599999D02*
X125888224Y-87790475D01*
X126307272Y-86990475D02*
X126307272Y-86723809D01*
X125888224Y-86609523D02*
X125888224Y-86990475D01*
X125888224Y-86990475D02*
X126688224Y-86990475D01*
X126688224Y-86990475D02*
X126688224Y-86609523D01*
X126307272Y-85999999D02*
X126269177Y-85885713D01*
X126269177Y-85885713D02*
X126231081Y-85847618D01*
X126231081Y-85847618D02*
X126154891Y-85809522D01*
X126154891Y-85809522D02*
X126040605Y-85809522D01*
X126040605Y-85809522D02*
X125964415Y-85847618D01*
X125964415Y-85847618D02*
X125926320Y-85885713D01*
X125926320Y-85885713D02*
X125888224Y-85961903D01*
X125888224Y-85961903D02*
X125888224Y-86266665D01*
X125888224Y-86266665D02*
X126688224Y-86266665D01*
X126688224Y-86266665D02*
X126688224Y-85999999D01*
X126688224Y-85999999D02*
X126650129Y-85923808D01*
X126650129Y-85923808D02*
X126612034Y-85885713D01*
X126612034Y-85885713D02*
X126535843Y-85847618D01*
X126535843Y-85847618D02*
X126459653Y-85847618D01*
X126459653Y-85847618D02*
X126383462Y-85885713D01*
X126383462Y-85885713D02*
X126345367Y-85923808D01*
X126345367Y-85923808D02*
X126307272Y-85999999D01*
X126307272Y-85999999D02*
X126307272Y-86266665D01*
X126688224Y-85466665D02*
X126040605Y-85466665D01*
X126040605Y-85466665D02*
X125964415Y-85428570D01*
X125964415Y-85428570D02*
X125926320Y-85390475D01*
X125926320Y-85390475D02*
X125888224Y-85314284D01*
X125888224Y-85314284D02*
X125888224Y-85161903D01*
X125888224Y-85161903D02*
X125926320Y-85085713D01*
X125926320Y-85085713D02*
X125964415Y-85047618D01*
X125964415Y-85047618D02*
X126040605Y-85009522D01*
X126040605Y-85009522D02*
X126688224Y-85009522D01*
X126650129Y-84209523D02*
X126688224Y-84285713D01*
X126688224Y-84285713D02*
X126688224Y-84399999D01*
X126688224Y-84399999D02*
X126650129Y-84514285D01*
X126650129Y-84514285D02*
X126573939Y-84590475D01*
X126573939Y-84590475D02*
X126497748Y-84628570D01*
X126497748Y-84628570D02*
X126345367Y-84666666D01*
X126345367Y-84666666D02*
X126231081Y-84666666D01*
X126231081Y-84666666D02*
X126078700Y-84628570D01*
X126078700Y-84628570D02*
X126002510Y-84590475D01*
X126002510Y-84590475D02*
X125926320Y-84514285D01*
X125926320Y-84514285D02*
X125888224Y-84399999D01*
X125888224Y-84399999D02*
X125888224Y-84323808D01*
X125888224Y-84323808D02*
X125926320Y-84209523D01*
X125926320Y-84209523D02*
X125964415Y-84171427D01*
X125964415Y-84171427D02*
X126231081Y-84171427D01*
X126231081Y-84171427D02*
X126231081Y-84323808D01*
X127652381Y-76638224D02*
X127652381Y-77438224D01*
X127652381Y-77438224D02*
X127957143Y-77438224D01*
X127957143Y-77438224D02*
X128033333Y-77400129D01*
X128033333Y-77400129D02*
X128071428Y-77362034D01*
X128071428Y-77362034D02*
X128109524Y-77285843D01*
X128109524Y-77285843D02*
X128109524Y-77171558D01*
X128109524Y-77171558D02*
X128071428Y-77095367D01*
X128071428Y-77095367D02*
X128033333Y-77057272D01*
X128033333Y-77057272D02*
X127957143Y-77019177D01*
X127957143Y-77019177D02*
X127652381Y-77019177D01*
X128604762Y-77438224D02*
X128757143Y-77438224D01*
X128757143Y-77438224D02*
X128833333Y-77400129D01*
X128833333Y-77400129D02*
X128909524Y-77323939D01*
X128909524Y-77323939D02*
X128947619Y-77171558D01*
X128947619Y-77171558D02*
X128947619Y-76904891D01*
X128947619Y-76904891D02*
X128909524Y-76752510D01*
X128909524Y-76752510D02*
X128833333Y-76676320D01*
X128833333Y-76676320D02*
X128757143Y-76638224D01*
X128757143Y-76638224D02*
X128604762Y-76638224D01*
X128604762Y-76638224D02*
X128528571Y-76676320D01*
X128528571Y-76676320D02*
X128452381Y-76752510D01*
X128452381Y-76752510D02*
X128414285Y-76904891D01*
X128414285Y-76904891D02*
X128414285Y-77171558D01*
X128414285Y-77171558D02*
X128452381Y-77323939D01*
X128452381Y-77323939D02*
X128528571Y-77400129D01*
X128528571Y-77400129D02*
X128604762Y-77438224D01*
X129214285Y-77438224D02*
X129404761Y-76638224D01*
X129404761Y-76638224D02*
X129557142Y-77209653D01*
X129557142Y-77209653D02*
X129709523Y-76638224D01*
X129709523Y-76638224D02*
X129900000Y-77438224D01*
X130204762Y-77057272D02*
X130471428Y-77057272D01*
X130585714Y-76638224D02*
X130204762Y-76638224D01*
X130204762Y-76638224D02*
X130204762Y-77438224D01*
X130204762Y-77438224D02*
X130585714Y-77438224D01*
X131385715Y-76638224D02*
X131119048Y-77019177D01*
X130928572Y-76638224D02*
X130928572Y-77438224D01*
X130928572Y-77438224D02*
X131233334Y-77438224D01*
X131233334Y-77438224D02*
X131309524Y-77400129D01*
X131309524Y-77400129D02*
X131347619Y-77362034D01*
X131347619Y-77362034D02*
X131385715Y-77285843D01*
X131385715Y-77285843D02*
X131385715Y-77171558D01*
X131385715Y-77171558D02*
X131347619Y-77095367D01*
X131347619Y-77095367D02*
X131309524Y-77057272D01*
X131309524Y-77057272D02*
X131233334Y-77019177D01*
X131233334Y-77019177D02*
X130928572Y-77019177D01*
X148885713Y-77438224D02*
X149342856Y-77438224D01*
X149114284Y-76638224D02*
X149114284Y-77438224D01*
X149609523Y-77057272D02*
X149876189Y-77057272D01*
X149990475Y-76638224D02*
X149609523Y-76638224D01*
X149609523Y-76638224D02*
X149609523Y-77438224D01*
X149609523Y-77438224D02*
X149990475Y-77438224D01*
X150714285Y-76638224D02*
X150333333Y-76638224D01*
X150333333Y-76638224D02*
X150333333Y-77438224D01*
X150980952Y-77057272D02*
X151247618Y-77057272D01*
X151361904Y-76638224D02*
X150980952Y-76638224D01*
X150980952Y-76638224D02*
X150980952Y-77438224D01*
X150980952Y-77438224D02*
X151361904Y-77438224D01*
X151704762Y-76638224D02*
X151704762Y-77438224D01*
X151704762Y-77438224D02*
X151971428Y-76866796D01*
X151971428Y-76866796D02*
X152238095Y-77438224D01*
X152238095Y-77438224D02*
X152238095Y-76638224D01*
X153038095Y-76638224D02*
X152580952Y-76638224D01*
X152809524Y-76638224D02*
X152809524Y-77438224D01*
X152809524Y-77438224D02*
X152733333Y-77323939D01*
X152733333Y-77323939D02*
X152657143Y-77247748D01*
X152657143Y-77247748D02*
X152580952Y-77209653D01*
X124688224Y-96888787D02*
X125488224Y-96888787D01*
X125412034Y-96545931D02*
X125450129Y-96507835D01*
X125450129Y-96507835D02*
X125488224Y-96431645D01*
X125488224Y-96431645D02*
X125488224Y-96241169D01*
X125488224Y-96241169D02*
X125450129Y-96164978D01*
X125450129Y-96164978D02*
X125412034Y-96126883D01*
X125412034Y-96126883D02*
X125335843Y-96088788D01*
X125335843Y-96088788D02*
X125259653Y-96088788D01*
X125259653Y-96088788D02*
X125145367Y-96126883D01*
X125145367Y-96126883D02*
X124688224Y-96584026D01*
X124688224Y-96584026D02*
X124688224Y-96088788D01*
X124764415Y-95288787D02*
X124726320Y-95326883D01*
X124726320Y-95326883D02*
X124688224Y-95441168D01*
X124688224Y-95441168D02*
X124688224Y-95517359D01*
X124688224Y-95517359D02*
X124726320Y-95631645D01*
X124726320Y-95631645D02*
X124802510Y-95707835D01*
X124802510Y-95707835D02*
X124878700Y-95745930D01*
X124878700Y-95745930D02*
X125031081Y-95784026D01*
X125031081Y-95784026D02*
X125145367Y-95784026D01*
X125145367Y-95784026D02*
X125297748Y-95745930D01*
X125297748Y-95745930D02*
X125373939Y-95707835D01*
X125373939Y-95707835D02*
X125450129Y-95631645D01*
X125450129Y-95631645D02*
X125488224Y-95517359D01*
X125488224Y-95517359D02*
X125488224Y-95441168D01*
X125488224Y-95441168D02*
X125450129Y-95326883D01*
X125450129Y-95326883D02*
X125412034Y-95288787D01*
D11*
%TO.C,J16*%
X155050000Y-102800000D02*
X153950000Y-102800000D01*
X153950000Y-102800000D02*
X153950000Y-101250000D01*
X155050000Y-102300000D02*
X155050000Y-102800000D01*
X154450000Y-102300000D02*
X155050000Y-102300000D01*
X154450000Y-101250000D02*
X154450000Y-102300000D01*
X153950000Y-101250000D02*
X154450000Y-101250000D01*
X158250000Y-96100000D02*
X158250000Y-101100000D01*
X154450000Y-95950000D02*
X154450000Y-94900000D01*
X153950000Y-95950000D02*
X154450000Y-95950000D01*
X153250000Y-95725000D02*
X152950000Y-95125000D01*
X153550000Y-95125000D02*
X153250000Y-95725000D01*
X152950000Y-95125000D02*
X153550000Y-95125000D01*
X155050000Y-94900000D02*
X155050000Y-94400000D01*
X154450000Y-94900000D02*
X155050000Y-94900000D01*
X155050000Y-94400000D02*
X153950000Y-94400000D01*
X153950000Y-94400000D02*
X153950000Y-95950000D01*
%TO.C,R2*%
X148403641Y-94120000D02*
X148096359Y-94120000D01*
X148403641Y-94880000D02*
X148096359Y-94880000D01*
%TO.C,R21*%
X140903641Y-102370000D02*
X140596359Y-102370000D01*
X140903641Y-103130000D02*
X140596359Y-103130000D01*
%TO.C,C18*%
X140357836Y-106140000D02*
X140142164Y-106140000D01*
X140357836Y-106860000D02*
X140142164Y-106860000D01*
%TO.C,J6*%
X121231235Y-107630000D02*
X121231235Y-115370000D01*
X154228765Y-107630000D02*
X121231235Y-107630000D01*
X154228765Y-110230000D02*
X154228765Y-107630000D01*
X156828765Y-107630000D02*
X155498765Y-107630000D01*
X156828765Y-108960000D02*
X156828765Y-107630000D01*
X156828765Y-110230000D02*
X154228765Y-110230000D01*
X156828765Y-110230000D02*
X156828765Y-115370000D01*
X156828765Y-115370000D02*
X121231235Y-115370000D01*
%TO.C,C8*%
X137142164Y-99640000D02*
X137357836Y-99640000D01*
X137142164Y-100360000D02*
X137357836Y-100360000D01*
%TO.C,R22*%
X135653641Y-102370000D02*
X135346359Y-102370000D01*
X135653641Y-103130000D02*
X135346359Y-103130000D01*
%TO.C,C2*%
X126140000Y-95892164D02*
X126140000Y-96107836D01*
X126860000Y-95892164D02*
X126860000Y-96107836D01*
%TO.C,R45*%
X138246359Y-76020000D02*
X138553641Y-76020000D01*
X138246359Y-76780000D02*
X138553641Y-76780000D01*
%TO.C,U4*%
X139700000Y-103750000D02*
X139700000Y-104930000D01*
X140800000Y-103750000D02*
X139700000Y-103750000D01*
X140800000Y-105250000D02*
X140020000Y-105250000D01*
X140800000Y-105250000D02*
X140800000Y-103750000D01*
X139700000Y-105750000D02*
X139200000Y-105250000D01*
X139700000Y-105250000D01*
X139700000Y-105750000D01*
G36*
X139700000Y-105750000D02*
G01*
X139200000Y-105250000D01*
X139700000Y-105250000D01*
X139700000Y-105750000D01*
G37*
%TO.C,C13*%
X131857836Y-100620000D02*
X131642164Y-100620000D01*
X131857836Y-101340000D02*
X131642164Y-101340000D01*
%TO.C,J11*%
X146250000Y-72950000D02*
X146750000Y-72950000D01*
X146250000Y-74050000D02*
X146250000Y-72950000D01*
X146750000Y-72950000D02*
X146750000Y-73550000D01*
X146750000Y-73550000D02*
X147800000Y-73550000D01*
X146975000Y-74450000D02*
X146975000Y-75050000D01*
X146975000Y-75050000D02*
X147575000Y-74750000D01*
X147575000Y-74750000D02*
X146975000Y-74450000D01*
X147800000Y-73550000D02*
X147800000Y-74050000D01*
X147800000Y-74050000D02*
X146250000Y-74050000D01*
X155450000Y-69750000D02*
X147950000Y-69750000D01*
X155600000Y-73550000D02*
X155600000Y-74050000D01*
X155600000Y-74050000D02*
X157150000Y-74050000D01*
X156650000Y-72950000D02*
X156650000Y-73550000D01*
X156650000Y-73550000D02*
X155600000Y-73550000D01*
X157150000Y-72950000D02*
X156650000Y-72950000D01*
X157150000Y-74050000D02*
X157150000Y-72950000D01*
%TO.C,U3*%
X129200000Y-103750000D02*
X129200000Y-104930000D01*
X130300000Y-103750000D02*
X129200000Y-103750000D01*
X130300000Y-105250000D02*
X129520000Y-105250000D01*
X130300000Y-105250000D02*
X130300000Y-103750000D01*
X129200000Y-105750000D02*
X128700000Y-105250000D01*
X129200000Y-105250000D01*
X129200000Y-105750000D01*
G36*
X129200000Y-105750000D02*
G01*
X128700000Y-105250000D01*
X129200000Y-105250000D01*
X129200000Y-105750000D01*
G37*
%TO.C,C11*%
X144640000Y-96607836D02*
X144640000Y-96392164D01*
X145360000Y-96607836D02*
X145360000Y-96392164D01*
%TO.C,C16*%
X133140000Y-104892164D02*
X133140000Y-105107836D01*
X133860000Y-104892164D02*
X133860000Y-105107836D01*
%TO.C,C6*%
X127127836Y-80890000D02*
X126912164Y-80890000D01*
X127127836Y-81610000D02*
X126912164Y-81610000D01*
%TO.C,R4*%
X133870000Y-79346359D02*
X133870000Y-79653641D01*
X134630000Y-79346359D02*
X134630000Y-79653641D01*
%TO.C,C17*%
X129642164Y-106140000D02*
X129857836Y-106140000D01*
X129642164Y-106860000D02*
X129857836Y-106860000D01*
D12*
%TO.C,J4*%
X146655000Y-82600000D02*
X146655000Y-91400000D01*
X148200000Y-81375000D02*
X150800000Y-81375000D01*
X148200000Y-92625000D02*
X150800000Y-92625000D01*
X152600000Y-81375000D02*
X152705000Y-81375000D01*
X152705000Y-81375000D02*
X152705000Y-82600000D01*
X152705000Y-91400000D02*
X152705000Y-92625000D01*
X152705000Y-92625000D02*
X152600000Y-92625000D01*
D13*
X154300000Y-90850000D02*
X154300000Y-90850000D01*
X154400000Y-90850000D02*
X154400000Y-90850000D01*
X154300000Y-90850000D02*
G75*
G02*
X154400000Y-90850000I50000J0D01*
G01*
X154400000Y-90850000D02*
G75*
G02*
X154300000Y-90850000I-50000J0D01*
G01*
D11*
%TO.C,R20*%
X130403641Y-102370000D02*
X130096359Y-102370000D01*
X130403641Y-103130000D02*
X130096359Y-103130000D01*
%TO.C,C14*%
X127890000Y-105107836D02*
X127890000Y-104892164D01*
X128610000Y-105107836D02*
X128610000Y-104892164D01*
%TO.C,C9*%
X137142164Y-100640000D02*
X137357836Y-100640000D01*
X137142164Y-101360000D02*
X137357836Y-101360000D01*
%TO.C,U1*%
X128640000Y-83640000D02*
X128640000Y-84340000D01*
X128640000Y-97860000D02*
X128640000Y-97160000D01*
X129340000Y-83640000D02*
X128640000Y-83640000D01*
X129340000Y-97860000D02*
X128640000Y-97860000D01*
X142160000Y-83640000D02*
X142860000Y-83640000D01*
X142160000Y-97860000D02*
X142860000Y-97860000D01*
X142860000Y-83640000D02*
X142860000Y-84340000D01*
X142860000Y-97860000D02*
X142860000Y-97160000D01*
X142630000Y-98827500D02*
X142160000Y-98487500D01*
X142630000Y-98147500D01*
X142630000Y-98827500D01*
G36*
X142630000Y-98827500D02*
G01*
X142160000Y-98487500D01*
X142630000Y-98147500D01*
X142630000Y-98827500D01*
G37*
%TO.C,J12*%
X134000000Y-72950000D02*
X134500000Y-72950000D01*
X134000000Y-74050000D02*
X134000000Y-72950000D01*
X134500000Y-72950000D02*
X134500000Y-73550000D01*
X134500000Y-73550000D02*
X135550000Y-73550000D01*
X134725000Y-74450000D02*
X134725000Y-75050000D01*
X134725000Y-75050000D02*
X135325000Y-74750000D01*
X135325000Y-74750000D02*
X134725000Y-74450000D01*
X135550000Y-73550000D02*
X135550000Y-74050000D01*
X135550000Y-74050000D02*
X134000000Y-74050000D01*
X143200000Y-69750000D02*
X135700000Y-69750000D01*
X143350000Y-73550000D02*
X143350000Y-74050000D01*
X143350000Y-74050000D02*
X144900000Y-74050000D01*
X144400000Y-72950000D02*
X144400000Y-73550000D01*
X144400000Y-73550000D02*
X143350000Y-73550000D01*
X144900000Y-72950000D02*
X144400000Y-72950000D01*
X144900000Y-74050000D02*
X144900000Y-72950000D01*
%TO.C,R44*%
X152053641Y-78520000D02*
X151746359Y-78520000D01*
X152053641Y-79280000D02*
X151746359Y-79280000D01*
%TO.C,J13*%
X119750000Y-97500000D02*
X119750000Y-102500000D01*
X122950000Y-95800000D02*
X122950000Y-96300000D01*
X122950000Y-96300000D02*
X123550000Y-96300000D01*
X122950000Y-103700000D02*
X123550000Y-103700000D01*
X122950000Y-104200000D02*
X122950000Y-103700000D01*
X123550000Y-96300000D02*
X123550000Y-97350000D01*
X123550000Y-97350000D02*
X124050000Y-97350000D01*
X123550000Y-102650000D02*
X124050000Y-102650000D01*
X123550000Y-103700000D02*
X123550000Y-102650000D01*
X124050000Y-95800000D02*
X122950000Y-95800000D01*
X124050000Y-97350000D02*
X124050000Y-95800000D01*
X124050000Y-102650000D02*
X124050000Y-104200000D01*
X124050000Y-104200000D02*
X122950000Y-104200000D01*
X124450000Y-103475000D02*
X125050000Y-103475000D01*
X124750000Y-102875000D02*
X124450000Y-103475000D01*
X125050000Y-103475000D02*
X124750000Y-102875000D01*
%TO.C,C10*%
X139607836Y-99640000D02*
X139392164Y-99640000D01*
X139607836Y-100360000D02*
X139392164Y-100360000D01*
%TO.C,C19*%
X135107836Y-106140000D02*
X134892164Y-106140000D01*
X135107836Y-106860000D02*
X134892164Y-106860000D01*
%TO.C,D1*%
X135450000Y-78650000D02*
X138110000Y-78650000D01*
X135450000Y-80350000D02*
X138110000Y-80350000D01*
X138110000Y-80350000D02*
X138110000Y-78650000D01*
%TO.C,C3*%
X139607836Y-100640000D02*
X139392164Y-100640000D01*
X139607836Y-101360000D02*
X139392164Y-101360000D01*
%TO.C,R47*%
X126646359Y-99820000D02*
X126953641Y-99820000D01*
X126646359Y-100580000D02*
X126953641Y-100580000D01*
%TO.C,D6*%
X124890000Y-75900000D02*
X127550000Y-75900000D01*
X124890000Y-77600000D02*
X124890000Y-75900000D01*
X124890000Y-77600000D02*
X127550000Y-77600000D01*
%TO.C,C7*%
X140140000Y-80892164D02*
X140140000Y-81107836D01*
X140860000Y-80892164D02*
X140860000Y-81107836D01*
%TO.C,J3*%
X121500000Y-72950000D02*
X122000000Y-72950000D01*
X121500000Y-74050000D02*
X121500000Y-72950000D01*
X122000000Y-72950000D02*
X122000000Y-73550000D01*
X122000000Y-73550000D02*
X123050000Y-73550000D01*
X122225000Y-74450000D02*
X122225000Y-75050000D01*
X122225000Y-75050000D02*
X122825000Y-74750000D01*
X122825000Y-74750000D02*
X122225000Y-74450000D01*
X123050000Y-73550000D02*
X123050000Y-74050000D01*
X123050000Y-74050000D02*
X121500000Y-74050000D01*
X130700000Y-69750000D02*
X123200000Y-69750000D01*
X130850000Y-73550000D02*
X130850000Y-74050000D01*
X130850000Y-74050000D02*
X132400000Y-74050000D01*
X131900000Y-72950000D02*
X131900000Y-73550000D01*
X131900000Y-73550000D02*
X130850000Y-73550000D01*
X132400000Y-72950000D02*
X131900000Y-72950000D01*
X132400000Y-74050000D02*
X132400000Y-72950000D01*
%TO.C,C15*%
X138390000Y-104892164D02*
X138390000Y-105107836D01*
X139110000Y-104892164D02*
X139110000Y-105107836D01*
%TO.C,J1*%
X119750000Y-82250000D02*
X119750000Y-89750000D01*
X122950000Y-80550000D02*
X122950000Y-81050000D01*
X122950000Y-81050000D02*
X123550000Y-81050000D01*
X122950000Y-90950000D02*
X123550000Y-90950000D01*
X122950000Y-91450000D02*
X122950000Y-90950000D01*
X123550000Y-81050000D02*
X123550000Y-82100000D01*
X123550000Y-82100000D02*
X124050000Y-82100000D01*
X123550000Y-89900000D02*
X124050000Y-89900000D01*
X123550000Y-90950000D02*
X123550000Y-89900000D01*
X124050000Y-80550000D02*
X122950000Y-80550000D01*
X124050000Y-82100000D02*
X124050000Y-80550000D01*
X124050000Y-89900000D02*
X124050000Y-91450000D01*
X124050000Y-91450000D02*
X122950000Y-91450000D01*
X124450000Y-90725000D02*
X125050000Y-90725000D01*
X124750000Y-90125000D02*
X124450000Y-90725000D01*
X125050000Y-90725000D02*
X124750000Y-90125000D01*
%TO.C,R46*%
X126646359Y-98570000D02*
X126953641Y-98570000D01*
X126646359Y-99330000D02*
X126953641Y-99330000D01*
%TO.C,U5*%
X134450000Y-103750000D02*
X134450000Y-104930000D01*
X135550000Y-103750000D02*
X134450000Y-103750000D01*
X135550000Y-105250000D02*
X134770000Y-105250000D01*
X135550000Y-105250000D02*
X135550000Y-103750000D01*
X134450000Y-105750000D02*
X133950000Y-105250000D01*
X134450000Y-105250000D01*
X134450000Y-105750000D01*
G36*
X134450000Y-105750000D02*
G01*
X133950000Y-105250000D01*
X134450000Y-105250000D01*
X134450000Y-105750000D01*
G37*
%TO.C,C12*%
X131857836Y-99640000D02*
X131642164Y-99640000D01*
X131857836Y-100360000D02*
X131642164Y-100360000D01*
%TD*%
M02*
