M48
; DRILL file {KiCad 9.0.1} date 2025-04-15T01:41:31+0900
; FORMAT={-:-/ absolute / metric / decimal}
; #@! TF.CreationDate,2025-04-15T01:41:31+09:00
; #@! TF.GenerationSoftware,Kicad,Pcbnew,9.0.1
; #@! TF.FileFunction,Plated,1,4,PTH
FMAT,2
METRIC
; #@! TA.AperFunction,Plated,PTH,ViaDrill
T1C0.300
; #@! TA.AperFunction,Plated,PTH,ViaDrill
T2C0.400
; #@! TA.AperFunction,Plated,PTH,ComponentDrill
T3C1.000
%
G90
G05
T1
X123.0Y-83.0
X123.75Y-96.75
X124.6Y-92.2
X125.0Y-72.875
X125.163Y-92.524
X125.587Y-93.018
X126.1Y-93.4
X126.4Y-97.275
X126.5Y-95.0
X127.1Y-78.3
X127.625Y-72.85
X127.9Y-78.9
X128.001Y-100.293
X128.5Y-84.271
X128.503Y-99.05
X128.875Y-72.85
X129.103Y-100.188
X129.295Y-76.826
X129.4Y-91.4
X130.125Y-72.85
X130.3Y-88.5
X130.49Y-77.775
X131.0Y-80.25
X131.233Y-90.641
X131.505Y-78.239
X131.508Y-77.619
X131.8Y-96.0
X132.15Y-76.85
X132.335Y-88.665
X132.379Y-91.527
X132.745Y-90.641
X132.78Y-92.0
X132.8Y-76.35
X134.25Y-102.25
X134.262Y-78.205
X134.454Y-100.169
X134.5Y-100.865
X134.681Y-94.609
X134.976Y-88.924
X135.2Y-95.0
X135.269Y-96.476
X135.436Y-89.384
X135.504Y-93.396
X135.6Y-78.9
X135.7Y-94.563
X136.0Y-92.0
X136.077Y-100.716
X136.25Y-102.75
X136.7Y-78.3
X136.9Y-95.875
X137.536Y-96.008
X137.7Y-101.6
X138.375Y-96.813
X138.376Y-99.551
X138.897Y-97.2
X139.15Y-84.369
X139.475Y-104.775
X139.5Y-78.75
X139.505Y-102.25
X139.85Y-84.369
X139.9Y-96.1
X140.2Y-95.3
X140.496Y-96.504
X141.25Y-89.75
X141.477Y-96.151
X141.5Y-100.6
X141.561Y-88.881
X141.704Y-95.203
X141.837Y-92.955
X141.858Y-96.677
X141.979Y-89.379
X141.995Y-90.105
X142.236Y-95.827
X142.354Y-95.188
X142.5Y-79.0
X143.75Y-104.76
X144.5Y-85.25
X144.671Y-86.275
X144.843Y-87.775
X145.106Y-85.75
X145.493Y-87.775
X145.5Y-82.7
X145.5Y-99.25
X146.0Y-91.5
X146.2Y-85.4
X147.4Y-91.25
X147.5Y-83.0
X148.635Y-98.495
X148.677Y-97.625
X148.7Y-91.25
X149.5Y-95.775
X150.0Y-85.545
X150.336Y-101.462
X150.5Y-95.75
X151.35Y-78.0
X151.9Y-91.2
X152.1Y-78.0
X152.3Y-88.0
X152.453Y-76.95
X152.55Y-89.7
X152.75Y-87.2
X152.95Y-77.7
X153.9Y-96.4
X154.025Y-93.725
X154.25Y-82.0
X154.75Y-84.5
T2
X122.0Y-117.0
X124.0Y-117.0
X126.0Y-117.0
X126.375Y-72.75
X128.0Y-117.0
X130.0Y-117.0
X132.0Y-117.0
X134.0Y-117.0
X135.1Y-90.2
X136.0Y-117.0
X136.375Y-75.625
X138.0Y-117.0
X138.4Y-78.3
X139.525Y-76.4
X139.573Y-91.8
X140.0Y-117.0
X140.3Y-80.155
X142.0Y-117.0
X144.0Y-117.0
X144.779Y-75.629
X144.8Y-82.9
X146.0Y-117.0
X147.998Y-116.995
X148.625Y-73.225
X148.8Y-86.0
X150.0Y-117.0
X150.9Y-100.702
X151.9Y-98.4
X152.0Y-117.0
X153.2Y-103.0
X154.0Y-117.0
X154.875Y-72.75
X156.0Y-117.0
T3
X122.49Y-108.96
X122.49Y-111.5
X122.49Y-114.04
X125.03Y-108.96
X125.03Y-111.5
X125.03Y-114.04
X127.57Y-108.96
X127.57Y-111.5
X127.57Y-114.04
X130.11Y-108.96
X130.11Y-111.5
X130.11Y-114.04
X132.65Y-108.96
X132.65Y-111.5
X132.65Y-114.04
X135.19Y-108.96
X135.19Y-111.5
X135.19Y-114.04
X137.73Y-108.96
X137.73Y-111.5
X137.73Y-114.04
X140.27Y-108.96
X140.27Y-111.5
X140.27Y-114.04
X142.81Y-108.96
X142.81Y-111.5
X142.81Y-114.04
X145.35Y-108.96
X145.35Y-111.5
X145.35Y-114.04
X147.89Y-108.96
X147.89Y-111.5
X147.89Y-114.04
X150.43Y-108.96
X150.43Y-111.5
X150.43Y-114.04
X152.97Y-108.96
X152.97Y-111.5
X152.97Y-114.04
X155.51Y-108.96
X155.51Y-111.5
X155.51Y-114.04
M30
