%TF.GenerationSoftware,KiCad,Pcbnew,8.0.8-8.0.8-0~ubuntu24.04.1*%
%TF.CreationDate,2025-02-06T20:59:43+09:00*%
%TF.ProjectId,STM32-FC,53544d33-322d-4464-932e-6b696361645f,rev?*%
%TF.SameCoordinates,Original*%
%TF.FileFunction,Legend,Bot*%
%TF.FilePolarity,Positive*%
%FSLAX46Y46*%
G04 Gerber Fmt 4.6, Leading zero omitted, Abs format (unit mm)*
G04 Created by KiCad (PCBNEW 8.0.8-8.0.8-0~ubuntu24.04.1) date 2025-02-06 20:59:43*
%MOMM*%
%LPD*%
G01*
G04 APERTURE LIST*
%ADD10C,0.160000*%
%ADD11C,0.120000*%
G04 APERTURE END LIST*
D10*
X144450000Y-100553680D02*
X144335714Y-100591775D01*
X144335714Y-100591775D02*
X144145238Y-100591775D01*
X144145238Y-100591775D02*
X144069047Y-100553680D01*
X144069047Y-100553680D02*
X144030952Y-100515584D01*
X144030952Y-100515584D02*
X143992857Y-100439394D01*
X143992857Y-100439394D02*
X143992857Y-100363203D01*
X143992857Y-100363203D02*
X144030952Y-100287013D01*
X144030952Y-100287013D02*
X144069047Y-100248918D01*
X144069047Y-100248918D02*
X144145238Y-100210822D01*
X144145238Y-100210822D02*
X144297619Y-100172727D01*
X144297619Y-100172727D02*
X144373809Y-100134632D01*
X144373809Y-100134632D02*
X144411904Y-100096537D01*
X144411904Y-100096537D02*
X144450000Y-100020346D01*
X144450000Y-100020346D02*
X144450000Y-99944156D01*
X144450000Y-99944156D02*
X144411904Y-99867965D01*
X144411904Y-99867965D02*
X144373809Y-99829870D01*
X144373809Y-99829870D02*
X144297619Y-99791775D01*
X144297619Y-99791775D02*
X144107142Y-99791775D01*
X144107142Y-99791775D02*
X143992857Y-99829870D01*
X143649999Y-100591775D02*
X143649999Y-99791775D01*
X143649999Y-99791775D02*
X143345237Y-99791775D01*
X143345237Y-99791775D02*
X143269047Y-99829870D01*
X143269047Y-99829870D02*
X143230952Y-99867965D01*
X143230952Y-99867965D02*
X143192856Y-99944156D01*
X143192856Y-99944156D02*
X143192856Y-100058441D01*
X143192856Y-100058441D02*
X143230952Y-100134632D01*
X143230952Y-100134632D02*
X143269047Y-100172727D01*
X143269047Y-100172727D02*
X143345237Y-100210822D01*
X143345237Y-100210822D02*
X143649999Y-100210822D01*
X142849999Y-100591775D02*
X142849999Y-99791775D01*
X142050000Y-100591775D02*
X142507143Y-100591775D01*
X142278571Y-100591775D02*
X142278571Y-99791775D01*
X142278571Y-99791775D02*
X142354762Y-99906060D01*
X142354762Y-99906060D02*
X142430952Y-99982251D01*
X142430952Y-99982251D02*
X142507143Y-100020346D01*
X145803680Y-97299999D02*
X145841775Y-97414285D01*
X145841775Y-97414285D02*
X145841775Y-97604761D01*
X145841775Y-97604761D02*
X145803680Y-97680952D01*
X145803680Y-97680952D02*
X145765584Y-97719047D01*
X145765584Y-97719047D02*
X145689394Y-97757142D01*
X145689394Y-97757142D02*
X145613203Y-97757142D01*
X145613203Y-97757142D02*
X145537013Y-97719047D01*
X145537013Y-97719047D02*
X145498918Y-97680952D01*
X145498918Y-97680952D02*
X145460822Y-97604761D01*
X145460822Y-97604761D02*
X145422727Y-97452380D01*
X145422727Y-97452380D02*
X145384632Y-97376190D01*
X145384632Y-97376190D02*
X145346537Y-97338095D01*
X145346537Y-97338095D02*
X145270346Y-97299999D01*
X145270346Y-97299999D02*
X145194156Y-97299999D01*
X145194156Y-97299999D02*
X145117965Y-97338095D01*
X145117965Y-97338095D02*
X145079870Y-97376190D01*
X145079870Y-97376190D02*
X145041775Y-97452380D01*
X145041775Y-97452380D02*
X145041775Y-97642857D01*
X145041775Y-97642857D02*
X145079870Y-97757142D01*
X145841775Y-98100000D02*
X145041775Y-98100000D01*
X145041775Y-98100000D02*
X145041775Y-98404762D01*
X145041775Y-98404762D02*
X145079870Y-98480952D01*
X145079870Y-98480952D02*
X145117965Y-98519047D01*
X145117965Y-98519047D02*
X145194156Y-98557143D01*
X145194156Y-98557143D02*
X145308441Y-98557143D01*
X145308441Y-98557143D02*
X145384632Y-98519047D01*
X145384632Y-98519047D02*
X145422727Y-98480952D01*
X145422727Y-98480952D02*
X145460822Y-98404762D01*
X145460822Y-98404762D02*
X145460822Y-98100000D01*
X145841775Y-98900000D02*
X145041775Y-98900000D01*
X145041775Y-99204761D02*
X145041775Y-99699999D01*
X145041775Y-99699999D02*
X145346537Y-99433333D01*
X145346537Y-99433333D02*
X145346537Y-99547618D01*
X145346537Y-99547618D02*
X145384632Y-99623809D01*
X145384632Y-99623809D02*
X145422727Y-99661904D01*
X145422727Y-99661904D02*
X145498918Y-99699999D01*
X145498918Y-99699999D02*
X145689394Y-99699999D01*
X145689394Y-99699999D02*
X145765584Y-99661904D01*
X145765584Y-99661904D02*
X145803680Y-99623809D01*
X145803680Y-99623809D02*
X145841775Y-99547618D01*
X145841775Y-99547618D02*
X145841775Y-99319047D01*
X145841775Y-99319047D02*
X145803680Y-99242856D01*
X145803680Y-99242856D02*
X145765584Y-99204761D01*
X145573680Y-94299999D02*
X145611775Y-94414285D01*
X145611775Y-94414285D02*
X145611775Y-94604761D01*
X145611775Y-94604761D02*
X145573680Y-94680952D01*
X145573680Y-94680952D02*
X145535584Y-94719047D01*
X145535584Y-94719047D02*
X145459394Y-94757142D01*
X145459394Y-94757142D02*
X145383203Y-94757142D01*
X145383203Y-94757142D02*
X145307013Y-94719047D01*
X145307013Y-94719047D02*
X145268918Y-94680952D01*
X145268918Y-94680952D02*
X145230822Y-94604761D01*
X145230822Y-94604761D02*
X145192727Y-94452380D01*
X145192727Y-94452380D02*
X145154632Y-94376190D01*
X145154632Y-94376190D02*
X145116537Y-94338095D01*
X145116537Y-94338095D02*
X145040346Y-94299999D01*
X145040346Y-94299999D02*
X144964156Y-94299999D01*
X144964156Y-94299999D02*
X144887965Y-94338095D01*
X144887965Y-94338095D02*
X144849870Y-94376190D01*
X144849870Y-94376190D02*
X144811775Y-94452380D01*
X144811775Y-94452380D02*
X144811775Y-94642857D01*
X144811775Y-94642857D02*
X144849870Y-94757142D01*
X145611775Y-95100000D02*
X144811775Y-95100000D01*
X144811775Y-95100000D02*
X144811775Y-95404762D01*
X144811775Y-95404762D02*
X144849870Y-95480952D01*
X144849870Y-95480952D02*
X144887965Y-95519047D01*
X144887965Y-95519047D02*
X144964156Y-95557143D01*
X144964156Y-95557143D02*
X145078441Y-95557143D01*
X145078441Y-95557143D02*
X145154632Y-95519047D01*
X145154632Y-95519047D02*
X145192727Y-95480952D01*
X145192727Y-95480952D02*
X145230822Y-95404762D01*
X145230822Y-95404762D02*
X145230822Y-95100000D01*
X145611775Y-95900000D02*
X144811775Y-95900000D01*
X144887965Y-96242856D02*
X144849870Y-96280952D01*
X144849870Y-96280952D02*
X144811775Y-96357142D01*
X144811775Y-96357142D02*
X144811775Y-96547618D01*
X144811775Y-96547618D02*
X144849870Y-96623809D01*
X144849870Y-96623809D02*
X144887965Y-96661904D01*
X144887965Y-96661904D02*
X144964156Y-96699999D01*
X144964156Y-96699999D02*
X145040346Y-96699999D01*
X145040346Y-96699999D02*
X145154632Y-96661904D01*
X145154632Y-96661904D02*
X145611775Y-96204761D01*
X145611775Y-96204761D02*
X145611775Y-96699999D01*
X139385713Y-77438224D02*
X139842856Y-77438224D01*
X139614284Y-76638224D02*
X139614284Y-77438224D01*
X140109523Y-77057272D02*
X140376189Y-77057272D01*
X140490475Y-76638224D02*
X140109523Y-76638224D01*
X140109523Y-76638224D02*
X140109523Y-77438224D01*
X140109523Y-77438224D02*
X140490475Y-77438224D01*
X141214285Y-76638224D02*
X140833333Y-76638224D01*
X140833333Y-76638224D02*
X140833333Y-77438224D01*
X141480952Y-77057272D02*
X141747618Y-77057272D01*
X141861904Y-76638224D02*
X141480952Y-76638224D01*
X141480952Y-76638224D02*
X141480952Y-77438224D01*
X141480952Y-77438224D02*
X141861904Y-77438224D01*
X142204762Y-76638224D02*
X142204762Y-77438224D01*
X142204762Y-77438224D02*
X142471428Y-76866796D01*
X142471428Y-76866796D02*
X142738095Y-77438224D01*
X142738095Y-77438224D02*
X142738095Y-76638224D01*
X143080952Y-77362034D02*
X143119048Y-77400129D01*
X143119048Y-77400129D02*
X143195238Y-77438224D01*
X143195238Y-77438224D02*
X143385714Y-77438224D01*
X143385714Y-77438224D02*
X143461905Y-77400129D01*
X143461905Y-77400129D02*
X143500000Y-77362034D01*
X143500000Y-77362034D02*
X143538095Y-77285843D01*
X143538095Y-77285843D02*
X143538095Y-77209653D01*
X143538095Y-77209653D02*
X143500000Y-77095367D01*
X143500000Y-77095367D02*
X143042857Y-76638224D01*
X143042857Y-76638224D02*
X143538095Y-76638224D01*
X125888224Y-87790475D02*
X126688224Y-87790475D01*
X126688224Y-87790475D02*
X126688224Y-87599999D01*
X126688224Y-87599999D02*
X126650129Y-87485713D01*
X126650129Y-87485713D02*
X126573939Y-87409523D01*
X126573939Y-87409523D02*
X126497748Y-87371428D01*
X126497748Y-87371428D02*
X126345367Y-87333332D01*
X126345367Y-87333332D02*
X126231081Y-87333332D01*
X126231081Y-87333332D02*
X126078700Y-87371428D01*
X126078700Y-87371428D02*
X126002510Y-87409523D01*
X126002510Y-87409523D02*
X125926320Y-87485713D01*
X125926320Y-87485713D02*
X125888224Y-87599999D01*
X125888224Y-87599999D02*
X125888224Y-87790475D01*
X126307272Y-86990475D02*
X126307272Y-86723809D01*
X125888224Y-86609523D02*
X125888224Y-86990475D01*
X125888224Y-86990475D02*
X126688224Y-86990475D01*
X126688224Y-86990475D02*
X126688224Y-86609523D01*
X126307272Y-85999999D02*
X126269177Y-85885713D01*
X126269177Y-85885713D02*
X126231081Y-85847618D01*
X126231081Y-85847618D02*
X126154891Y-85809522D01*
X126154891Y-85809522D02*
X126040605Y-85809522D01*
X126040605Y-85809522D02*
X125964415Y-85847618D01*
X125964415Y-85847618D02*
X125926320Y-85885713D01*
X125926320Y-85885713D02*
X125888224Y-85961903D01*
X125888224Y-85961903D02*
X125888224Y-86266665D01*
X125888224Y-86266665D02*
X126688224Y-86266665D01*
X126688224Y-86266665D02*
X126688224Y-85999999D01*
X126688224Y-85999999D02*
X126650129Y-85923808D01*
X126650129Y-85923808D02*
X126612034Y-85885713D01*
X126612034Y-85885713D02*
X126535843Y-85847618D01*
X126535843Y-85847618D02*
X126459653Y-85847618D01*
X126459653Y-85847618D02*
X126383462Y-85885713D01*
X126383462Y-85885713D02*
X126345367Y-85923808D01*
X126345367Y-85923808D02*
X126307272Y-85999999D01*
X126307272Y-85999999D02*
X126307272Y-86266665D01*
X126688224Y-85466665D02*
X126040605Y-85466665D01*
X126040605Y-85466665D02*
X125964415Y-85428570D01*
X125964415Y-85428570D02*
X125926320Y-85390475D01*
X125926320Y-85390475D02*
X125888224Y-85314284D01*
X125888224Y-85314284D02*
X125888224Y-85161903D01*
X125888224Y-85161903D02*
X125926320Y-85085713D01*
X125926320Y-85085713D02*
X125964415Y-85047618D01*
X125964415Y-85047618D02*
X126040605Y-85009522D01*
X126040605Y-85009522D02*
X126688224Y-85009522D01*
X126650129Y-84209523D02*
X126688224Y-84285713D01*
X126688224Y-84285713D02*
X126688224Y-84399999D01*
X126688224Y-84399999D02*
X126650129Y-84514285D01*
X126650129Y-84514285D02*
X126573939Y-84590475D01*
X126573939Y-84590475D02*
X126497748Y-84628570D01*
X126497748Y-84628570D02*
X126345367Y-84666666D01*
X126345367Y-84666666D02*
X126231081Y-84666666D01*
X126231081Y-84666666D02*
X126078700Y-84628570D01*
X126078700Y-84628570D02*
X126002510Y-84590475D01*
X126002510Y-84590475D02*
X125926320Y-84514285D01*
X125926320Y-84514285D02*
X125888224Y-84399999D01*
X125888224Y-84399999D02*
X125888224Y-84323808D01*
X125888224Y-84323808D02*
X125926320Y-84209523D01*
X125926320Y-84209523D02*
X125964415Y-84171427D01*
X125964415Y-84171427D02*
X126231081Y-84171427D01*
X126231081Y-84171427D02*
X126231081Y-84323808D01*
X127652381Y-76638224D02*
X127652381Y-77438224D01*
X127652381Y-77438224D02*
X127957143Y-77438224D01*
X127957143Y-77438224D02*
X128033333Y-77400129D01*
X128033333Y-77400129D02*
X128071428Y-77362034D01*
X128071428Y-77362034D02*
X128109524Y-77285843D01*
X128109524Y-77285843D02*
X128109524Y-77171558D01*
X128109524Y-77171558D02*
X128071428Y-77095367D01*
X128071428Y-77095367D02*
X128033333Y-77057272D01*
X128033333Y-77057272D02*
X127957143Y-77019177D01*
X127957143Y-77019177D02*
X127652381Y-77019177D01*
X128604762Y-77438224D02*
X128757143Y-77438224D01*
X128757143Y-77438224D02*
X128833333Y-77400129D01*
X128833333Y-77400129D02*
X128909524Y-77323939D01*
X128909524Y-77323939D02*
X128947619Y-77171558D01*
X128947619Y-77171558D02*
X128947619Y-76904891D01*
X128947619Y-76904891D02*
X128909524Y-76752510D01*
X128909524Y-76752510D02*
X128833333Y-76676320D01*
X128833333Y-76676320D02*
X128757143Y-76638224D01*
X128757143Y-76638224D02*
X128604762Y-76638224D01*
X128604762Y-76638224D02*
X128528571Y-76676320D01*
X128528571Y-76676320D02*
X128452381Y-76752510D01*
X128452381Y-76752510D02*
X128414285Y-76904891D01*
X128414285Y-76904891D02*
X128414285Y-77171558D01*
X128414285Y-77171558D02*
X128452381Y-77323939D01*
X128452381Y-77323939D02*
X128528571Y-77400129D01*
X128528571Y-77400129D02*
X128604762Y-77438224D01*
X129214285Y-77438224D02*
X129404761Y-76638224D01*
X129404761Y-76638224D02*
X129557142Y-77209653D01*
X129557142Y-77209653D02*
X129709523Y-76638224D01*
X129709523Y-76638224D02*
X129900000Y-77438224D01*
X130204762Y-77057272D02*
X130471428Y-77057272D01*
X130585714Y-76638224D02*
X130204762Y-76638224D01*
X130204762Y-76638224D02*
X130204762Y-77438224D01*
X130204762Y-77438224D02*
X130585714Y-77438224D01*
X131385715Y-76638224D02*
X131119048Y-77019177D01*
X130928572Y-76638224D02*
X130928572Y-77438224D01*
X130928572Y-77438224D02*
X131233334Y-77438224D01*
X131233334Y-77438224D02*
X131309524Y-77400129D01*
X131309524Y-77400129D02*
X131347619Y-77362034D01*
X131347619Y-77362034D02*
X131385715Y-77285843D01*
X131385715Y-77285843D02*
X131385715Y-77171558D01*
X131385715Y-77171558D02*
X131347619Y-77095367D01*
X131347619Y-77095367D02*
X131309524Y-77057272D01*
X131309524Y-77057272D02*
X131233334Y-77019177D01*
X131233334Y-77019177D02*
X130928572Y-77019177D01*
X148885713Y-77438224D02*
X149342856Y-77438224D01*
X149114284Y-76638224D02*
X149114284Y-77438224D01*
X149609523Y-77057272D02*
X149876189Y-77057272D01*
X149990475Y-76638224D02*
X149609523Y-76638224D01*
X149609523Y-76638224D02*
X149609523Y-77438224D01*
X149609523Y-77438224D02*
X149990475Y-77438224D01*
X150714285Y-76638224D02*
X150333333Y-76638224D01*
X150333333Y-76638224D02*
X150333333Y-77438224D01*
X150980952Y-77057272D02*
X151247618Y-77057272D01*
X151361904Y-76638224D02*
X150980952Y-76638224D01*
X150980952Y-76638224D02*
X150980952Y-77438224D01*
X150980952Y-77438224D02*
X151361904Y-77438224D01*
X151704762Y-76638224D02*
X151704762Y-77438224D01*
X151704762Y-77438224D02*
X151971428Y-76866796D01*
X151971428Y-76866796D02*
X152238095Y-77438224D01*
X152238095Y-77438224D02*
X152238095Y-76638224D01*
X153038095Y-76638224D02*
X152580952Y-76638224D01*
X152809524Y-76638224D02*
X152809524Y-77438224D01*
X152809524Y-77438224D02*
X152733333Y-77323939D01*
X152733333Y-77323939D02*
X152657143Y-77247748D01*
X152657143Y-77247748D02*
X152580952Y-77209653D01*
X126138224Y-96780951D02*
X126938224Y-96780951D01*
X126862034Y-96438095D02*
X126900129Y-96399999D01*
X126900129Y-96399999D02*
X126938224Y-96323809D01*
X126938224Y-96323809D02*
X126938224Y-96133333D01*
X126938224Y-96133333D02*
X126900129Y-96057142D01*
X126900129Y-96057142D02*
X126862034Y-96019047D01*
X126862034Y-96019047D02*
X126785843Y-95980952D01*
X126785843Y-95980952D02*
X126709653Y-95980952D01*
X126709653Y-95980952D02*
X126595367Y-96019047D01*
X126595367Y-96019047D02*
X126138224Y-96476190D01*
X126138224Y-96476190D02*
X126138224Y-95980952D01*
X126214415Y-95180951D02*
X126176320Y-95219047D01*
X126176320Y-95219047D02*
X126138224Y-95333332D01*
X126138224Y-95333332D02*
X126138224Y-95409523D01*
X126138224Y-95409523D02*
X126176320Y-95523809D01*
X126176320Y-95523809D02*
X126252510Y-95599999D01*
X126252510Y-95599999D02*
X126328700Y-95638094D01*
X126328700Y-95638094D02*
X126481081Y-95676190D01*
X126481081Y-95676190D02*
X126595367Y-95676190D01*
X126595367Y-95676190D02*
X126747748Y-95638094D01*
X126747748Y-95638094D02*
X126823939Y-95599999D01*
X126823939Y-95599999D02*
X126900129Y-95523809D01*
X126900129Y-95523809D02*
X126938224Y-95409523D01*
X126938224Y-95409523D02*
X126938224Y-95333332D01*
X126938224Y-95333332D02*
X126900129Y-95219047D01*
X126900129Y-95219047D02*
X126862034Y-95180951D01*
D11*
%TO.C,R1*%
X152503641Y-94120000D02*
X152196359Y-94120000D01*
X152503641Y-94880000D02*
X152196359Y-94880000D01*
%TO.C,TP1*%
X146240000Y-94290000D02*
X147000000Y-94290000D01*
X146240000Y-95400000D02*
X146240000Y-94290000D01*
X147760000Y-94836529D02*
X147760000Y-94290000D01*
X147760000Y-96510000D02*
X147760000Y-95963471D01*
X150235000Y-94290000D02*
X147760000Y-94290000D01*
X150235000Y-95092470D02*
X150235000Y-94290000D01*
X150235000Y-96510000D02*
X147760000Y-96510000D01*
X150235000Y-96510000D02*
X150235000Y-95707530D01*
%TO.C,C14*%
X135107836Y-106040000D02*
X134892164Y-106040000D01*
X135107836Y-106760000D02*
X134892164Y-106760000D01*
%TO.C,U3*%
X126640000Y-101640000D02*
X127620000Y-101640000D01*
X126640000Y-104360000D02*
X126640000Y-101640000D01*
X131360000Y-101640000D02*
X130380000Y-101640000D01*
X131360000Y-101640000D02*
X131360000Y-104220000D01*
X131540000Y-105010000D02*
X131210000Y-104770000D01*
X131540000Y-104530000D01*
X131540000Y-105010000D01*
G36*
X131540000Y-105010000D02*
G01*
X131210000Y-104770000D01*
X131540000Y-104530000D01*
X131540000Y-105010000D01*
G37*
%TO.C,J6*%
X121231235Y-107630000D02*
X154228765Y-107630000D01*
X121231235Y-115370000D02*
X121231235Y-107630000D01*
X121231235Y-115370000D02*
X156828765Y-115370000D01*
X154228765Y-107630000D02*
X154228765Y-110230000D01*
X154228765Y-110230000D02*
X156828765Y-110230000D01*
X155498765Y-107630000D02*
X156828765Y-107630000D01*
X156828765Y-107630000D02*
X156828765Y-108960000D01*
X156828765Y-115370000D02*
X156828765Y-110230000D01*
%TO.C,R30*%
X138246359Y-76020000D02*
X138553641Y-76020000D01*
X138246359Y-76780000D02*
X138553641Y-76780000D01*
%TO.C,U4*%
X133640000Y-101640000D02*
X134620000Y-101640000D01*
X133640000Y-104360000D02*
X133640000Y-101640000D01*
X138360000Y-101640000D02*
X137380000Y-101640000D01*
X138360000Y-101640000D02*
X138360000Y-104220000D01*
X138540000Y-105010000D02*
X138210000Y-104770000D01*
X138540000Y-104530000D01*
X138540000Y-105010000D01*
G36*
X138540000Y-105010000D02*
G01*
X138210000Y-104770000D01*
X138540000Y-104530000D01*
X138540000Y-105010000D01*
G37*
%TO.C,TP2*%
X142140000Y-101035000D02*
X142140000Y-103510000D01*
X142140000Y-105030000D02*
X142140000Y-104270000D01*
X142686529Y-103510000D02*
X142140000Y-103510000D01*
X142942470Y-101035000D02*
X142140000Y-101035000D01*
X143250000Y-105030000D02*
X142140000Y-105030000D01*
X144360000Y-101035000D02*
X143557530Y-101035000D01*
X144360000Y-101035000D02*
X144360000Y-103510000D01*
X144360000Y-103510000D02*
X143813471Y-103510000D01*
%TO.C,C12*%
X141892164Y-80160000D02*
X142107836Y-80160000D01*
X141892164Y-80880000D02*
X142107836Y-80880000D01*
%TO.C,J11*%
X146300000Y-73100000D02*
X146800000Y-73100000D01*
X146300000Y-74200000D02*
X146300000Y-73100000D01*
X146800000Y-73100000D02*
X146800000Y-73700000D01*
X146800000Y-73700000D02*
X147850000Y-73700000D01*
X147025000Y-74600000D02*
X147025000Y-75200000D01*
X147025000Y-75200000D02*
X147625000Y-74900000D01*
X147625000Y-74900000D02*
X147025000Y-74600000D01*
X147850000Y-73700000D02*
X147850000Y-74200000D01*
X147850000Y-74200000D02*
X146300000Y-74200000D01*
X155500000Y-69900000D02*
X148000000Y-69900000D01*
X155650000Y-73700000D02*
X155650000Y-74200000D01*
X155650000Y-74200000D02*
X157200000Y-74200000D01*
X156700000Y-73100000D02*
X156700000Y-73700000D01*
X156700000Y-73700000D02*
X155650000Y-73700000D01*
X157200000Y-73100000D02*
X156700000Y-73100000D01*
X157200000Y-74200000D02*
X157200000Y-73100000D01*
%TO.C,C5*%
X127127836Y-80890000D02*
X126912164Y-80890000D01*
X127127836Y-81610000D02*
X126912164Y-81610000D01*
%TO.C,R5*%
X133870000Y-79346359D02*
X133870000Y-79653641D01*
X134630000Y-79346359D02*
X134630000Y-79653641D01*
%TO.C,C17*%
X132607836Y-104640000D02*
X132392164Y-104640000D01*
X132607836Y-105360000D02*
X132392164Y-105360000D01*
%TO.C,J4*%
X145465000Y-80465000D02*
X146625000Y-80465000D01*
X145465000Y-91725000D02*
X145465000Y-80465000D01*
X145465000Y-93335000D02*
X145465000Y-93225000D01*
X147275000Y-93335000D02*
X145465000Y-93335000D01*
X155475000Y-80465000D02*
X149875000Y-80465000D01*
X155475000Y-93335000D02*
X149175000Y-93335000D01*
%TO.C,C13*%
X128107836Y-106140000D02*
X127892164Y-106140000D01*
X128107836Y-106860000D02*
X127892164Y-106860000D01*
%TO.C,U1*%
X128640000Y-83640000D02*
X128640000Y-84340000D01*
X128640000Y-97860000D02*
X128640000Y-97160000D01*
X129340000Y-83640000D02*
X128640000Y-83640000D01*
X129340000Y-97860000D02*
X128640000Y-97860000D01*
X142160000Y-83640000D02*
X142860000Y-83640000D01*
X142160000Y-97860000D02*
X142860000Y-97860000D01*
X142860000Y-83640000D02*
X142860000Y-84340000D01*
X142860000Y-97860000D02*
X142860000Y-97160000D01*
X142630000Y-98827500D02*
X142160000Y-98487500D01*
X142630000Y-98147500D01*
X142630000Y-98827500D01*
G36*
X142630000Y-98827500D02*
G01*
X142160000Y-98487500D01*
X142630000Y-98147500D01*
X142630000Y-98827500D01*
G37*
%TO.C,C16*%
X132607836Y-102640000D02*
X132392164Y-102640000D01*
X132607836Y-103360000D02*
X132392164Y-103360000D01*
%TO.C,J12*%
X134050000Y-73100000D02*
X134550000Y-73100000D01*
X134050000Y-74200000D02*
X134050000Y-73100000D01*
X134550000Y-73100000D02*
X134550000Y-73700000D01*
X134550000Y-73700000D02*
X135600000Y-73700000D01*
X134775000Y-74600000D02*
X134775000Y-75200000D01*
X134775000Y-75200000D02*
X135375000Y-74900000D01*
X135375000Y-74900000D02*
X134775000Y-74600000D01*
X135600000Y-73700000D02*
X135600000Y-74200000D01*
X135600000Y-74200000D02*
X134050000Y-74200000D01*
X143250000Y-69900000D02*
X135750000Y-69900000D01*
X143400000Y-73700000D02*
X143400000Y-74200000D01*
X143400000Y-74200000D02*
X144950000Y-74200000D01*
X144450000Y-73100000D02*
X144450000Y-73700000D01*
X144450000Y-73700000D02*
X143400000Y-73700000D01*
X144950000Y-73100000D02*
X144450000Y-73100000D01*
X144950000Y-74200000D02*
X144950000Y-73100000D01*
%TO.C,R29*%
X152053641Y-78520000D02*
X151746359Y-78520000D01*
X152053641Y-79280000D02*
X151746359Y-79280000D01*
%TO.C,C15*%
X132607836Y-103640000D02*
X132392164Y-103640000D01*
X132607836Y-104360000D02*
X132392164Y-104360000D01*
%TO.C,J13*%
X119900000Y-97500000D02*
X119900000Y-102500000D01*
X123100000Y-95800000D02*
X123100000Y-96300000D01*
X123100000Y-96300000D02*
X123700000Y-96300000D01*
X123100000Y-103700000D02*
X123700000Y-103700000D01*
X123100000Y-104200000D02*
X123100000Y-103700000D01*
X123700000Y-96300000D02*
X123700000Y-97350000D01*
X123700000Y-97350000D02*
X124200000Y-97350000D01*
X123700000Y-102650000D02*
X124200000Y-102650000D01*
X123700000Y-103700000D02*
X123700000Y-102650000D01*
X124200000Y-95800000D02*
X123100000Y-95800000D01*
X124200000Y-97350000D02*
X124200000Y-95800000D01*
X124200000Y-102650000D02*
X124200000Y-104200000D01*
X124200000Y-104200000D02*
X123100000Y-104200000D01*
X124600000Y-103475000D02*
X125200000Y-103475000D01*
X124900000Y-102875000D02*
X124600000Y-103475000D01*
X125200000Y-103475000D02*
X124900000Y-102875000D01*
%TO.C,D3*%
X135450000Y-78650000D02*
X138110000Y-78650000D01*
X135450000Y-80350000D02*
X138110000Y-80350000D01*
X138110000Y-80350000D02*
X138110000Y-78650000D01*
%TO.C,TP3*%
X146240000Y-97490000D02*
X147000000Y-97490000D01*
X146240000Y-98600000D02*
X146240000Y-97490000D01*
X147760000Y-98036529D02*
X147760000Y-97490000D01*
X147760000Y-99710000D02*
X147760000Y-99163471D01*
X150235000Y-97490000D02*
X147760000Y-97490000D01*
X150235000Y-98292470D02*
X150235000Y-97490000D01*
X150235000Y-99710000D02*
X147760000Y-99710000D01*
X150235000Y-99710000D02*
X150235000Y-98907530D01*
%TO.C,SW2*%
X151134000Y-96440000D02*
X151134000Y-101961000D01*
X151134000Y-96440000D02*
X152110000Y-96440000D01*
X151134000Y-101961000D02*
X152110000Y-101961000D01*
X155890000Y-96440000D02*
X156865000Y-96440000D01*
X155950000Y-101961000D02*
X155950000Y-103151000D01*
X155950000Y-101961000D02*
X156865000Y-101961000D01*
X156865000Y-96440000D02*
X156865000Y-101961000D01*
%TO.C,R32*%
X126646359Y-99820000D02*
X126953641Y-99820000D01*
X126646359Y-100580000D02*
X126953641Y-100580000D01*
%TO.C,C6*%
X140140000Y-80892164D02*
X140140000Y-81107836D01*
X140860000Y-80892164D02*
X140860000Y-81107836D01*
%TO.C,J3*%
X121550000Y-73100000D02*
X122050000Y-73100000D01*
X121550000Y-74200000D02*
X121550000Y-73100000D01*
X122050000Y-73100000D02*
X122050000Y-73700000D01*
X122050000Y-73700000D02*
X123100000Y-73700000D01*
X122275000Y-74600000D02*
X122275000Y-75200000D01*
X122275000Y-75200000D02*
X122875000Y-74900000D01*
X122875000Y-74900000D02*
X122275000Y-74600000D01*
X123100000Y-73700000D02*
X123100000Y-74200000D01*
X123100000Y-74200000D02*
X121550000Y-74200000D01*
X130750000Y-69900000D02*
X123250000Y-69900000D01*
X130900000Y-73700000D02*
X130900000Y-74200000D01*
X130900000Y-74200000D02*
X132450000Y-74200000D01*
X131950000Y-73100000D02*
X131950000Y-73700000D01*
X131950000Y-73700000D02*
X130900000Y-73700000D01*
X132450000Y-73100000D02*
X131950000Y-73100000D01*
X132450000Y-74200000D02*
X132450000Y-73100000D01*
%TO.C,J1*%
X119900000Y-82250000D02*
X119900000Y-89750000D01*
X123100000Y-80550000D02*
X123100000Y-81050000D01*
X123100000Y-81050000D02*
X123700000Y-81050000D01*
X123100000Y-90950000D02*
X123700000Y-90950000D01*
X123100000Y-91450000D02*
X123100000Y-90950000D01*
X123700000Y-81050000D02*
X123700000Y-82100000D01*
X123700000Y-82100000D02*
X124200000Y-82100000D01*
X123700000Y-89900000D02*
X124200000Y-89900000D01*
X123700000Y-90950000D02*
X123700000Y-89900000D01*
X124200000Y-80550000D02*
X123100000Y-80550000D01*
X124200000Y-82100000D02*
X124200000Y-80550000D01*
X124200000Y-89900000D02*
X124200000Y-91450000D01*
X124200000Y-91450000D02*
X123100000Y-91450000D01*
X124600000Y-90725000D02*
X125200000Y-90725000D01*
X124900000Y-90125000D02*
X124600000Y-90725000D01*
X125200000Y-90725000D02*
X124900000Y-90125000D01*
%TO.C,R31*%
X126646359Y-98570000D02*
X126953641Y-98570000D01*
X126646359Y-99330000D02*
X126953641Y-99330000D01*
%TO.C,C18*%
X132607836Y-101640000D02*
X132392164Y-101640000D01*
X132607836Y-102360000D02*
X132392164Y-102360000D01*
%TO.C,R2*%
X154446359Y-94120000D02*
X154753641Y-94120000D01*
X154446359Y-94880000D02*
X154753641Y-94880000D01*
%TO.C,C11*%
X141892164Y-81140000D02*
X142107836Y-81140000D01*
X141892164Y-81860000D02*
X142107836Y-81860000D01*
%TD*%
M02*
