  0
SECTION
  2
HEADER
  9
$ANGBASE
  50
0.0
  9
$ANGDIR
  70
1
  9
$MEASUREMENT
  70
0
  0
ENDSEC
  0
SECTION
  2
TABLES
  0
TABLE
  2
LTYPE
  70
4
  0
LTYPE
  5
40F
  2
CONTINUOUS
  70
0
  3
Solid line
  72
65
  73
0
  40
0.0
  0
LTYPE
  5
410
  2
DASHDOT
 70
0
  3
Dash Dot ____ _ ____ _
 72
65
 73
4
 40
2.0
 49
1.25
 49
-0.25
 49
0.25
 49
-0.25
  0
LTYPE
  5
411
  2
DASHED
 70
0
  3
Dashed __ __ __ __ __
 72
65
 73
2
 40
0.75
 49
0.5
 49
-0.25
  0
LTYPE
  5
43B
  2
DOTTED
 70
0
  3
Dotted .  .  .  .
 72
65
 73
2
 40
0.2
 49
0.0
 49
-0.2
  0
ENDTAB
  0
TABLE
  2
STYLE
  70
4
  0
STYLE
  2
KICAD
  70
0
  40
0
  41
1
  42
1
  50
0
  71
0
  3
isocp.shx
  0
STYLE
  2
KICADB
  70
0
  40
0
  41
1
  42
1
  50
0
  71
0
  3
isocp.shx
  0
STYLE
  2
KICADI
  70
0
  40
0
  41
1
  42
1
  50
15
  71
0
  3
isocp.shx
  0
STYLE
  2
KICADBI
  70
0
  40
0
  41
1
  42
1
  50
15
  71
0
  3
isocp.shx
  0
ENDTAB
  0
TABLE
  2
LAYER
  70
1
  0
LAYER
  2
BLACK
  70
0
  62
7
  6
CONTINUOUS
  0
ENDTAB
  0
ENDSEC
  0
SECTION
  2
ENTITIES
0
LINE
8
BLACK
6
CONTINUOUS
10
4.7244094488188972
20
-2.7559055118110236
11
6.2204724409448815
21
-2.7559055118110236
0
LINE
8
BLACK
6
CONTINUOUS
10
6.2204724409448815
20
-2.7559055118110236
11
6.2204724409448815
21
-4.6456692913385824
0
LINE
8
BLACK
6
CONTINUOUS
10
6.2204724409448815
20
-4.6456692913385824
11
4.7244094488188972
21
-4.6456692913385824
0
LINE
8
BLACK
6
CONTINUOUS
10
4.7244094488188972
20
-4.6456692913385824
11
4.7244094488188972
21
-2.7559055118110236
0
LINE
8
BLACK
6
CONTINUOUS
10
4.9618110236220474
20
-3.2494094488188976
11
4.9874015748031493
21
-3.2749999999999999
0
LINE
8
BLACK
6
CONTINUOUS
10
4.9874015748031493
20
-3.2494094488188976
11
4.9618110236220474
21
-3.2749999999999999
0
LINE
8
BLACK
6
CONTINUOUS
10
4.9618110236220474
20
-3.476968503937008
11
4.9874015748031493
21
-3.5025590551181103
0
LINE
8
BLACK
6
CONTINUOUS
10
4.9874015748031493
20
-3.476968503937008
11
4.9618110236220474
21
-3.5025590551181103
0
CIRCLE
8
BLACK
10
4.8425196850393704
20
-3.0511811023622046
40
0.0433070866141732
0
CIRCLE
8
BLACK
10
4.8425196850393704
20
-4.1732283464566926
40
0.0433070866141732
0
CIRCLE
8
BLACK
10
6.1023622047244093
20
-3.0511811023622046
40
0.0433070866141732
0
CIRCLE
8
BLACK
10
6.1023622047244093
20
-4.1732283464566926
40
0.0433070866141732
0
LINE
8
BLACK
6
CONTINUOUS
10
4.8268806299212601
20
-4.7684975590551177
11
4.8268806299212601
21
-4.6897574015748029
0
LINE
8
BLACK
6
CONTINUOUS
10
4.8268806299212601
20
-4.6897574015748029
11
4.8456282677165357
21
-4.6897574015748029
0
LINE
8
BLACK
6
CONTINUOUS
10
4.8456282677165357
20
-4.6897574015748029
11
4.8568768897637797
21
-4.693506929133858
0
LINE
8
BLACK
6
CONTINUOUS
10
4.8568768897637797
20
-4.693506929133858
11
4.86437594488189
21
-4.7010059842519683
0
LINE
8
BLACK
6
CONTINUOUS
10
4.86437594488189
20
-4.7010059842519683
11
4.8681254724409451
21
-4.7085050393700785
0
LINE
8
BLACK
6
CONTINUOUS
10
4.8681254724409451
20
-4.7085050393700785
11
4.8718750000000002
21
-4.7235031496062989
0
LINE
8
BLACK
6
CONTINUOUS
10
4.8718750000000002
20
-4.7235031496062989
11
4.8718750000000002
21
-4.734751771653543
0
LINE
8
BLACK
6
CONTINUOUS
10
4.8718750000000002
20
-4.734751771653543
11
4.8681254724409451
21
-4.7497498818897634
0
LINE
8
BLACK
6
CONTINUOUS
10
4.8681254724409451
20
-4.7497498818897634
11
4.86437594488189
21
-4.7572489370078737
0
LINE
8
BLACK
6
CONTINUOUS
10
4.86437594488189
20
-4.7572489370078737
11
4.8568768897637797
21
-4.7647480314960626
0
LINE
8
BLACK
6
CONTINUOUS
10
4.8568768897637797
20
-4.7647480314960626
11
4.8456282677165357
21
-4.7684975590551177
0
LINE
8
BLACK
6
CONTINUOUS
10
4.8456282677165357
20
-4.7684975590551177
11
4.8268806299212601
21
-4.7684975590551177
0
LINE
8
BLACK
6
CONTINUOUS
10
4.9056207874015749
20
-4.7684975590551177
11
4.9056207874015749
21
-4.7160040944881887
0
LINE
8
BLACK
6
CONTINUOUS
10
4.9056207874015749
20
-4.7310022440944879
11
4.90937031496063
21
-4.7235031496062989
0
LINE
8
BLACK
6
CONTINUOUS
10
4.90937031496063
20
-4.7235031496062989
11
4.9131198425196851
21
-4.7197536220472438
0
LINE
8
BLACK
6
CONTINUOUS
10
4.9131198425196851
20
-4.7197536220472438
11
4.9206188976377954
21
-4.7160040944881887
0
LINE
8
BLACK
6
CONTINUOUS
10
4.9206188976377954
20
-4.7160040944881887
11
4.9281179921259843
21
-4.7160040944881887
0
LINE
8
BLACK
6
CONTINUOUS
10
4.9543646850393701
20
-4.7684975590551177
11
4.9543646850393701
21
-4.7160040944881887
0
LINE
8
BLACK
6
CONTINUOUS
10
4.9543646850393701
20
-4.6897574015748029
11
4.950615157480315
21
-4.693506929133858
0
LINE
8
BLACK
6
CONTINUOUS
10
4.950615157480315
20
-4.693506929133858
11
4.9543646850393701
21
-4.6972564566929131
0
LINE
8
BLACK
6
CONTINUOUS
10
4.9543646850393701
20
-4.6972564566929131
11
4.9581142125984252
21
-4.693506929133858
0
LINE
8
BLACK
6
CONTINUOUS
10
4.9581142125984252
20
-4.693506929133858
11
4.9543646850393701
21
-4.6897574015748029
0
LINE
8
BLACK
6
CONTINUOUS
10
4.9543646850393701
20
-4.6897574015748029
11
4.9543646850393701
21
-4.6972564566929131
0
LINE
8
BLACK
6
CONTINUOUS
10
5.0031085826771653
20
-4.7684975590551177
11
4.9956095275590551
21
-4.7647480314960626
0
LINE
8
BLACK
6
CONTINUOUS
10
4.9956095275590551
20
-4.7647480314960626
11
4.99186
21
-4.7572489370078737
0
LINE
8
BLACK
6
CONTINUOUS
10
4.99186
20
-4.7572489370078737
11
4.99186
21
-4.6897574015748029
0
LINE
8
BLACK
6
CONTINUOUS
10
5.0443534251968503
20
-4.7684975590551177
11
5.03685437007874
21
-4.7647480314960626
0
LINE
8
BLACK
6
CONTINUOUS
10
5.03685437007874
20
-4.7647480314960626
11
5.0331048425196849
21
-4.7572489370078737
0
LINE
8
BLACK
6
CONTINUOUS
10
5.0331048425196849
20
-4.7572489370078737
11
5.0331048425196849
21
-4.6897574015748029
0
LINE
8
BLACK
6
CONTINUOUS
10
5.1343422047244092
20
-4.7684975590551177
11
5.1343422047244092
21
-4.6897574015748029
0
LINE
8
BLACK
6
CONTINUOUS
10
5.1343422047244092
20
-4.6897574015748029
11
5.1605889370078737
21
-4.7460003543307083
0
LINE
8
BLACK
6
CONTINUOUS
10
5.1605889370078737
20
-4.7460003543307083
11
5.1868356299212595
21
-4.6897574015748029
0
LINE
8
BLACK
6
CONTINUOUS
10
5.1868356299212595
20
-4.6897574015748029
11
5.1868356299212595
21
-4.7684975590551177
0
LINE
8
BLACK
6
CONTINUOUS
10
5.2580767322834641
20
-4.7684975590551177
11
5.2580767322834641
21
-4.7272527165354328
0
LINE
8
BLACK
6
CONTINUOUS
10
5.2580767322834641
20
-4.7272527165354328
11
5.254327204724409
21
-4.7197536220472438
0
LINE
8
BLACK
6
CONTINUOUS
10
5.254327204724409
20
-4.7197536220472438
11
5.2468281496062987
21
-4.7160040944881887
0
LINE
8
BLACK
6
CONTINUOUS
10
5.2468281496062987
20
-4.7160040944881887
11
5.2318299999999995
21
-4.7160040944881887
0
LINE
8
BLACK
6
CONTINUOUS
10
5.2318299999999995
20
-4.7160040944881887
11
5.2243309448818893
21
-4.7197536220472438
0
LINE
8
BLACK
6
CONTINUOUS
10
5.2580767322834641
20
-4.7647480314960626
11
5.2505776771653538
21
-4.7684975590551177
0
LINE
8
BLACK
6
CONTINUOUS
10
5.2505776771653538
20
-4.7684975590551177
11
5.2318299999999995
21
-4.7684975590551177
0
LINE
8
BLACK
6
CONTINUOUS
10
5.2318299999999995
20
-4.7684975590551177
11
5.2243309448818893
21
-4.7647480314960626
0
LINE
8
BLACK
6
CONTINUOUS
10
5.2243309448818893
20
-4.7647480314960626
11
5.2205814173228342
21
-4.7572489370078737
0
LINE
8
BLACK
6
CONTINUOUS
10
5.2205814173228342
20
-4.7572489370078737
11
5.2205814173228342
21
-4.7497498818897634
0
LINE
8
BLACK
6
CONTINUOUS
10
5.2205814173228342
20
-4.7497498818897634
11
5.2243309448818893
21
-4.7422508267716532
0
LINE
8
BLACK
6
CONTINUOUS
10
5.2243309448818893
20
-4.7422508267716532
11
5.2318299999999995
21
-4.7385012992125981
0
LINE
8
BLACK
6
CONTINUOUS
10
5.2318299999999995
20
-4.7385012992125981
11
5.2505776771653538
21
-4.7385012992125981
0
LINE
8
BLACK
6
CONTINUOUS
10
5.2505776771653538
20
-4.7385012992125981
11
5.2580767322834641
21
-4.734751771653543
0
LINE
8
BLACK
6
CONTINUOUS
10
5.2955720472440948
20
-4.7160040944881887
11
5.2955720472440948
21
-4.7947442519685035
0
LINE
8
BLACK
6
CONTINUOUS
10
5.2955720472440948
20
-4.7197536220472438
11
5.303071102362205
21
-4.7160040944881887
0
LINE
8
BLACK
6
CONTINUOUS
10
5.303071102362205
20
-4.7160040944881887
11
5.3180692519685042
21
-4.7160040944881887
0
LINE
8
BLACK
6
CONTINUOUS
10
5.3180692519685042
20
-4.7160040944881887
11
5.3255683070866144
21
-4.7197536220472438
0
LINE
8
BLACK
6
CONTINUOUS
10
5.3255683070866144
20
-4.7197536220472438
11
5.3293178346456695
21
-4.7235031496062989
0
LINE
8
BLACK
6
CONTINUOUS
10
5.3293178346456695
20
-4.7235031496062989
11
5.3330673622047247
21
-4.7310022440944879
0
LINE
8
BLACK
6
CONTINUOUS
10
5.3330673622047247
20
-4.7310022440944879
11
5.3330673622047247
21
-4.7534994094488185
0
LINE
8
BLACK
6
CONTINUOUS
10
5.3330673622047247
20
-4.7534994094488185
11
5.3293178346456695
21
-4.7609984645669288
0
LINE
8
BLACK
6
CONTINUOUS
10
5.3293178346456695
20
-4.7609984645669288
11
5.3255683070866144
21
-4.7647480314960626
0
LINE
8
BLACK
6
CONTINUOUS
10
5.3255683070866144
20
-4.7647480314960626
11
5.3180692519685042
21
-4.7684975590551177
0
LINE
8
BLACK
6
CONTINUOUS
10
5.3180692519685042
20
-4.7684975590551177
11
5.303071102362205
21
-4.7684975590551177
0
LINE
8
BLACK
6
CONTINUOUS
10
5.303071102362205
20
-4.7684975590551177
11
5.2955720472440948
21
-4.7647480314960626
0
LINE
8
BLACK
6
CONTINUOUS
10
5.3668131496062994
20
-4.7609984645669288
11
5.3705626771653545
21
-4.7647480314960626
0
LINE
8
BLACK
6
CONTINUOUS
10
5.3705626771653545
20
-4.7647480314960626
11
5.3668131496062994
21
-4.7684975590551177
0
LINE
8
BLACK
6
CONTINUOUS
10
5.3668131496062994
20
-4.7684975590551177
11
5.3630636220472443
21
-4.7647480314960626
0
LINE
8
BLACK
6
CONTINUOUS
10
5.3630636220472443
20
-4.7647480314960626
11
5.3668131496062994
21
-4.7609984645669288
0
LINE
8
BLACK
6
CONTINUOUS
10
5.3668131496062994
20
-4.7609984645669288
11
5.3668131496062994
21
-4.7684975590551177
0
LINE
8
BLACK
6
CONTINUOUS
10
5.3668131496062994
20
-4.7197536220472438
11
5.3705626771653545
21
-4.7235031496062989
0
LINE
8
BLACK
6
CONTINUOUS
10
5.3705626771653545
20
-4.7235031496062989
11
5.3668131496062994
21
-4.7272527165354328
0
LINE
8
BLACK
6
CONTINUOUS
10
5.3668131496062994
20
-4.7272527165354328
11
5.3630636220472443
21
-4.7235031496062989
0
LINE
8
BLACK
6
CONTINUOUS
10
5.3630636220472443
20
-4.7235031496062989
11
5.3668131496062994
21
-4.7197536220472438
0
LINE
8
BLACK
6
CONTINUOUS
10
5.3668131496062994
20
-4.7197536220472438
11
5.3668131496062994
21
-4.7272527165354328
0
LINE
8
BLACK
6
CONTINUOUS
10
4.6986220472440943
20
-4.88503937007874
11
4.724212598425197
21
-4.9106299212598428
0
LINE
8
BLACK
6
CONTINUOUS
10
4.724212598425197
20
-4.88503937007874
11
4.6986220472440943
21
-4.9106299212598428
0
LINE
8
BLACK
6
CONTINUOUS
10
4.8418787401574805
20
-4.855111732283464
11
4.8493778346456695
21
-4.855111732283464
0
LINE
8
BLACK
6
CONTINUOUS
10
4.8493778346456695
20
-4.855111732283464
11
4.8568768897637797
21
-4.8588612598425192
0
LINE
8
BLACK
6
CONTINUOUS
10
4.8568768897637797
20
-4.8588612598425192
11
4.8606264173228348
21
-4.8626107874015743
0
LINE
8
BLACK
6
CONTINUOUS
10
4.8606264173228348
20
-4.8626107874015743
11
4.86437594488189
21
-4.8701098425196854
0
LINE
8
BLACK
6
CONTINUOUS
10
4.86437594488189
20
-4.8701098425196854
11
4.8681254724409451
21
-4.8851079527559058
0
LINE
8
BLACK
6
CONTINUOUS
10
4.8681254724409451
20
-4.8851079527559058
11
4.8681254724409451
21
-4.9038556299212601
0
LINE
8
BLACK
6
CONTINUOUS
10
4.8681254724409451
20
-4.9038556299212601
11
4.86437594488189
21
-4.9188537401574806
0
LINE
8
BLACK
6
CONTINUOUS
10
4.86437594488189
20
-4.9188537401574806
11
4.8606264173228348
21
-4.9263527952755908
0
LINE
8
BLACK
6
CONTINUOUS
10
4.8606264173228348
20
-4.9263527952755908
11
4.8568768897637797
21
-4.9301023622047246
0
LINE
8
BLACK
6
CONTINUOUS
10
4.8568768897637797
20
-4.9301023622047246
11
4.8493778346456695
21
-4.9338518897637798
0
LINE
8
BLACK
6
CONTINUOUS
10
4.8493778346456695
20
-4.9338518897637798
11
4.8418787401574805
21
-4.9338518897637798
0
LINE
8
BLACK
6
CONTINUOUS
10
4.8418787401574805
20
-4.9338518897637798
11
4.8343796850393703
21
-4.9301023622047246
0
LINE
8
BLACK
6
CONTINUOUS
10
4.8343796850393703
20
-4.9301023622047246
11
4.8306301574803152
21
-4.9263527952755908
0
LINE
8
BLACK
6
CONTINUOUS
10
4.8306301574803152
20
-4.9263527952755908
11
4.8268806299212601
21
-4.9188537401574806
0
LINE
8
BLACK
6
CONTINUOUS
10
4.8268806299212601
20
-4.9188537401574806
11
4.823131102362205
21
-4.9038556299212601
0
LINE
8
BLACK
6
CONTINUOUS
10
4.823131102362205
20
-4.9038556299212601
11
4.823131102362205
21
-4.8851079527559058
0
LINE
8
BLACK
6
CONTINUOUS
10
4.823131102362205
20
-4.8851079527559058
11
4.8268806299212601
21
-4.8701098425196854
0
LINE
8
BLACK
6
CONTINUOUS
10
4.8268806299212601
20
-4.8701098425196854
11
4.8306301574803152
21
-4.8626107874015743
0
LINE
8
BLACK
6
CONTINUOUS
10
4.8306301574803152
20
-4.8626107874015743
11
4.8343796850393703
21
-4.8588612598425192
0
LINE
8
BLACK
6
CONTINUOUS
10
4.8343796850393703
20
-4.8588612598425192
11
4.8418787401574805
21
-4.855111732283464
0
LINE
8
BLACK
6
CONTINUOUS
10
4.9018712598425198
20
-4.9263527952755908
11
4.9056207874015749
21
-4.9301023622047246
0
LINE
8
BLACK
6
CONTINUOUS
10
4.9056207874015749
20
-4.9301023622047246
11
4.9018712598425198
21
-4.9338518897637798
0
LINE
8
BLACK
6
CONTINUOUS
10
4.9018712598425198
20
-4.9338518897637798
11
4.8981217322834647
21
-4.9301023622047246
0
LINE
8
BLACK
6
CONTINUOUS
10
4.8981217322834647
20
-4.9301023622047246
11
4.9018712598425198
21
-4.9263527952755908
0
LINE
8
BLACK
6
CONTINUOUS
10
4.9018712598425198
20
-4.9263527952755908
11
4.9018712598425198
21
-4.9338518897637798
0
LINE
8
BLACK
6
CONTINUOUS
10
4.9731123622047244
20
-4.855111732283464
11
4.9581142125984252
21
-4.855111732283464
0
LINE
8
BLACK
6
CONTINUOUS
10
4.9581142125984252
20
-4.855111732283464
11
4.950615157480315
21
-4.8588612598425192
0
LINE
8
BLACK
6
CONTINUOUS
10
4.950615157480315
20
-4.8588612598425192
11
4.9468656299212599
21
-4.8626107874015743
0
LINE
8
BLACK
6
CONTINUOUS
10
4.9468656299212599
20
-4.8626107874015743
11
4.9393665748031497
21
-4.8738593700787405
0
LINE
8
BLACK
6
CONTINUOUS
10
4.9393665748031497
20
-4.8738593700787405
11
4.9356170472440946
21
-4.8888574803149609
0
LINE
8
BLACK
6
CONTINUOUS
10
4.9356170472440946
20
-4.8888574803149609
11
4.9356170472440946
21
-4.9188537401574806
0
LINE
8
BLACK
6
CONTINUOUS
10
4.9356170472440946
20
-4.9188537401574806
11
4.9393665748031497
21
-4.9263527952755908
0
LINE
8
BLACK
6
CONTINUOUS
10
4.9393665748031497
20
-4.9263527952755908
11
4.9431161023622048
21
-4.9301023622047246
0
LINE
8
BLACK
6
CONTINUOUS
10
4.9431161023622048
20
-4.9301023622047246
11
4.950615157480315
21
-4.9338518897637798
0
LINE
8
BLACK
6
CONTINUOUS
10
4.950615157480315
20
-4.9338518897637798
11
4.9656133070866142
21
-4.9338518897637798
0
LINE
8
BLACK
6
CONTINUOUS
10
4.9656133070866142
20
-4.9338518897637798
11
4.9731123622047244
21
-4.9301023622047246
0
LINE
8
BLACK
6
CONTINUOUS
10
4.9731123622047244
20
-4.9301023622047246
11
4.9768618897637795
21
-4.9263527952755908
0
LINE
8
BLACK
6
CONTINUOUS
10
4.9768618897637795
20
-4.9263527952755908
11
4.9806114173228346
21
-4.9188537401574806
0
LINE
8
BLACK
6
CONTINUOUS
10
4.9806114173228346
20
-4.9188537401574806
11
4.9806114173228346
21
-4.900106102362205
0
LINE
8
BLACK
6
CONTINUOUS
10
4.9806114173228346
20
-4.900106102362205
11
4.9768618897637795
21
-4.8926070472440948
0
LINE
8
BLACK
6
CONTINUOUS
10
4.9768618897637795
20
-4.8926070472440948
11
4.9731123622047244
21
-4.8888574803149609
0
LINE
8
BLACK
6
CONTINUOUS
10
4.9731123622047244
20
-4.8888574803149609
11
4.9656133070866142
21
-4.8851079527559058
0
LINE
8
BLACK
6
CONTINUOUS
10
4.9656133070866142
20
-4.8851079527559058
11
4.950615157480315
21
-4.8851079527559058
0
LINE
8
BLACK
6
CONTINUOUS
10
4.950615157480315
20
-4.8851079527559058
11
4.9431161023622048
21
-4.8888574803149609
0
LINE
8
BLACK
6
CONTINUOUS
10
4.9431161023622048
20
-4.8888574803149609
11
4.9393665748031497
21
-4.8926070472440948
0
LINE
8
BLACK
6
CONTINUOUS
10
4.9393665748031497
20
-4.8926070472440948
11
4.9356170472440946
21
-4.900106102362205
0
LINE
8
BLACK
6
CONTINUOUS
10
5.0518525196850392
20
-4.855111732283464
11
5.0143572047244094
21
-4.855111732283464
0
LINE
8
BLACK
6
CONTINUOUS
10
5.0143572047244094
20
-4.855111732283464
11
5.0106076771653543
21
-4.8926070472440948
0
LINE
8
BLACK
6
CONTINUOUS
10
5.0106076771653543
20
-4.8926070472440948
11
5.0143572047244094
21
-4.8888574803149609
0
LINE
8
BLACK
6
CONTINUOUS
10
5.0143572047244094
20
-4.8888574803149609
11
5.0218562598425196
21
-4.8851079527559058
0
LINE
8
BLACK
6
CONTINUOUS
10
5.0218562598425196
20
-4.8851079527559058
11
5.0406039370078739
21
-4.8851079527559058
0
LINE
8
BLACK
6
CONTINUOUS
10
5.0406039370078739
20
-4.8851079527559058
11
5.0481029921259841
21
-4.8888574803149609
0
LINE
8
BLACK
6
CONTINUOUS
10
5.0481029921259841
20
-4.8888574803149609
11
5.0518525196850392
21
-4.8926070472440948
0
LINE
8
BLACK
6
CONTINUOUS
10
5.0518525196850392
20
-4.8926070472440948
11
5.0556020472440943
21
-4.900106102362205
0
LINE
8
BLACK
6
CONTINUOUS
10
5.0556020472440943
20
-4.900106102362205
11
5.0556020472440943
21
-4.9188537401574806
0
LINE
8
BLACK
6
CONTINUOUS
10
5.0556020472440943
20
-4.9188537401574806
11
5.0518525196850392
21
-4.9263527952755908
0
LINE
8
BLACK
6
CONTINUOUS
10
5.0518525196850392
20
-4.9263527952755908
11
5.0481029921259841
21
-4.9301023622047246
0
LINE
8
BLACK
6
CONTINUOUS
10
5.0481029921259841
20
-4.9301023622047246
11
5.0406039370078739
21
-4.9338518897637798
0
LINE
8
BLACK
6
CONTINUOUS
10
5.0406039370078739
20
-4.9338518897637798
11
5.0218562598425196
21
-4.9338518897637798
0
LINE
8
BLACK
6
CONTINUOUS
10
5.0218562598425196
20
-4.9338518897637798
11
5.0143572047244094
21
-4.9301023622047246
0
LINE
8
BLACK
6
CONTINUOUS
10
5.0143572047244094
20
-4.9301023622047246
11
5.0106076771653543
21
-4.9263527952755908
0
LINE
8
BLACK
6
CONTINUOUS
10
5.1043459448818895
20
-4.855111732283464
11
5.1118450393700785
21
-4.855111732283464
0
LINE
8
BLACK
6
CONTINUOUS
10
5.1118450393700785
20
-4.855111732283464
11
5.1193440944881887
21
-4.8588612598425192
0
LINE
8
BLACK
6
CONTINUOUS
10
5.1193440944881887
20
-4.8588612598425192
11
5.1230936220472438
21
-4.8626107874015743
0
LINE
8
BLACK
6
CONTINUOUS
10
5.1230936220472438
20
-4.8626107874015743
11
5.1268431496062989
21
-4.8701098425196854
0
LINE
8
BLACK
6
CONTINUOUS
10
5.1268431496062989
20
-4.8701098425196854
11
5.1305926771653541
21
-4.8851079527559058
0
LINE
8
BLACK
6
CONTINUOUS
10
5.1305926771653541
20
-4.8851079527559058
11
5.1305926771653541
21
-4.9038556299212601
0
LINE
8
BLACK
6
CONTINUOUS
10
5.1305926771653541
20
-4.9038556299212601
11
5.1268431496062989
21
-4.9188537401574806
0
LINE
8
BLACK
6
CONTINUOUS
10
5.1268431496062989
20
-4.9188537401574806
11
5.1230936220472438
21
-4.9263527952755908
0
LINE
8
BLACK
6
CONTINUOUS
10
5.1230936220472438
20
-4.9263527952755908
11
5.1193440944881887
21
-4.9301023622047246
0
LINE
8
BLACK
6
CONTINUOUS
10
5.1193440944881887
20
-4.9301023622047246
11
5.1118450393700785
21
-4.9338518897637798
0
LINE
8
BLACK
6
CONTINUOUS
10
5.1118450393700785
20
-4.9338518897637798
11
5.1043459448818895
21
-4.9338518897637798
0
LINE
8
BLACK
6
CONTINUOUS
10
5.1043459448818895
20
-4.9338518897637798
11
5.0968468897637793
21
-4.9301023622047246
0
LINE
8
BLACK
6
CONTINUOUS
10
5.0968468897637793
20
-4.9301023622047246
11
5.0930973622047242
21
-4.9263527952755908
0
LINE
8
BLACK
6
CONTINUOUS
10
5.0930973622047242
20
-4.9263527952755908
11
5.0893478346456691
21
-4.9188537401574806
0
LINE
8
BLACK
6
CONTINUOUS
10
5.0893478346456691
20
-4.9188537401574806
11
5.085598307086614
21
-4.9038556299212601
0
LINE
8
BLACK
6
CONTINUOUS
10
5.085598307086614
20
-4.9038556299212601
11
5.085598307086614
21
-4.8851079527559058
0
LINE
8
BLACK
6
CONTINUOUS
10
5.085598307086614
20
-4.8851079527559058
11
5.0893478346456691
21
-4.8701098425196854
0
LINE
8
BLACK
6
CONTINUOUS
10
5.0893478346456691
20
-4.8701098425196854
11
5.0930973622047242
21
-4.8626107874015743
0
LINE
8
BLACK
6
CONTINUOUS
10
5.0930973622047242
20
-4.8626107874015743
11
5.0968468897637793
21
-4.8588612598425192
0
LINE
8
BLACK
6
CONTINUOUS
10
5.0968468897637793
20
-4.8588612598425192
11
5.1043459448818895
21
-4.855111732283464
0
LINE
8
BLACK
6
CONTINUOUS
10
5.1643384645669288
20
-4.9338518897637798
11
5.1643384645669288
21
-4.8813584251968507
0
LINE
8
BLACK
6
CONTINUOUS
10
5.1643384645669288
20
-4.8888574803149609
11
5.1680879921259839
21
-4.8851079527559058
0
LINE
8
BLACK
6
CONTINUOUS
10
5.1680879921259839
20
-4.8851079527559058
11
5.1755870472440941
21
-4.8813584251968507
0
LINE
8
BLACK
6
CONTINUOUS
10
5.1755870472440941
20
-4.8813584251968507
11
5.1868356692913382
21
-4.8813584251968507
0
LINE
8
BLACK
6
CONTINUOUS
10
5.1868356692913382
20
-4.8813584251968507
11
5.1943347244094484
21
-4.8851079527559058
0
LINE
8
BLACK
6
CONTINUOUS
10
5.1943347244094484
20
-4.8851079527559058
11
5.1980842519685035
21
-4.8926070472440948
0
LINE
8
BLACK
6
CONTINUOUS
10
5.1980842519685035
20
-4.8926070472440948
11
5.1980842519685035
21
-4.9338518897637798
0
LINE
8
BLACK
6
CONTINUOUS
10
5.1980842519685035
20
-4.8926070472440948
11
5.2018337795275587
21
-4.8851079527559058
0
LINE
8
BLACK
6
CONTINUOUS
10
5.2018337795275587
20
-4.8851079527559058
11
5.2093328346456689
21
-4.8813584251968507
0
LINE
8
BLACK
6
CONTINUOUS
10
5.2093328346456689
20
-4.8813584251968507
11
5.2205814173228342
21
-4.8813584251968507
0
LINE
8
BLACK
6
CONTINUOUS
10
5.2205814173228342
20
-4.8813584251968507
11
5.2280805118110232
21
-4.8851079527559058
0
LINE
8
BLACK
6
CONTINUOUS
10
5.2280805118110232
20
-4.8851079527559058
11
5.2318300393700783
21
-4.8926070472440948
0
LINE
8
BLACK
6
CONTINUOUS
10
5.2318300393700783
20
-4.8926070472440948
11
5.2318300393700783
21
-4.9338518897637798
0
LINE
8
BLACK
6
CONTINUOUS
10
5.2693253543307081
20
-4.9338518897637798
11
5.2693253543307081
21
-4.8813584251968507
0
LINE
8
BLACK
6
CONTINUOUS
10
5.2693253543307081
20
-4.8888574803149609
11
5.2730748818897633
21
-4.8851079527559058
0
LINE
8
BLACK
6
CONTINUOUS
10
5.2730748818897633
20
-4.8851079527559058
11
5.2805739370078735
21
-4.8813584251968507
0
LINE
8
BLACK
6
CONTINUOUS
10
5.2805739370078735
20
-4.8813584251968507
11
5.2918225590551176
21
-4.8813584251968507
0
LINE
8
BLACK
6
CONTINUOUS
10
5.2918225590551176
20
-4.8813584251968507
11
5.2993216141732287
21
-4.8851079527559058
0
LINE
8
BLACK
6
CONTINUOUS
10
5.2993216141732287
20
-4.8851079527559058
11
5.3030711417322838
21
-4.8926070472440948
0
LINE
8
BLACK
6
CONTINUOUS
10
5.3030711417322838
20
-4.8926070472440948
11
5.3030711417322838
21
-4.9338518897637798
0
LINE
8
BLACK
6
CONTINUOUS
10
5.3030711417322838
20
-4.8926070472440948
11
5.3068206692913389
21
-4.8851079527559058
0
LINE
8
BLACK
6
CONTINUOUS
10
5.3068206692913389
20
-4.8851079527559058
11
5.3143197244094491
21
-4.8813584251968507
0
LINE
8
BLACK
6
CONTINUOUS
10
5.3143197244094491
20
-4.8813584251968507
11
5.3255683070866144
21
-4.8813584251968507
0
LINE
8
BLACK
6
CONTINUOUS
10
5.3255683070866144
20
-4.8813584251968507
11
5.3330674015748034
21
-4.8851079527559058
0
LINE
8
BLACK
6
CONTINUOUS
10
5.3330674015748034
20
-4.8851079527559058
11
5.3368169291338585
21
-4.8926070472440948
0
LINE
8
BLACK
6
CONTINUOUS
10
5.3368169291338585
20
-4.8926070472440948
11
5.3368169291338585
21
-4.9338518897637798
0
LINE
8
BLACK
6
CONTINUOUS
10
5.4905477165354331
20
-4.8513622047244089
11
5.4230561811023623
21
-4.9525995275590553
0
LINE
8
BLACK
6
CONTINUOUS
10
5.5917850787401573
20
-4.855111732283464
11
5.5992841732283463
21
-4.855111732283464
0
LINE
8
BLACK
6
CONTINUOUS
10
5.5992841732283463
20
-4.855111732283464
11
5.6067832283464565
21
-4.8588612598425192
0
LINE
8
BLACK
6
CONTINUOUS
10
5.6067832283464565
20
-4.8588612598425192
11
5.6105327559055116
21
-4.8626107874015743
0
LINE
8
BLACK
6
CONTINUOUS
10
5.6105327559055116
20
-4.8626107874015743
11
5.6142822834645667
21
-4.8701098425196854
0
LINE
8
BLACK
6
CONTINUOUS
10
5.6142822834645667
20
-4.8701098425196854
11
5.6180318110236218
21
-4.8851079527559058
0
LINE
8
BLACK
6
CONTINUOUS
10
5.6180318110236218
20
-4.8851079527559058
11
5.6180318110236218
21
-4.9038556299212601
0
LINE
8
BLACK
6
CONTINUOUS
10
5.6180318110236218
20
-4.9038556299212601
11
5.6142822834645667
21
-4.9188537401574806
0
LINE
8
BLACK
6
CONTINUOUS
10
5.6142822834645667
20
-4.9188537401574806
11
5.6105327559055116
21
-4.9263527952755908
0
LINE
8
BLACK
6
CONTINUOUS
10
5.6105327559055116
20
-4.9263527952755908
11
5.6067832283464565
21
-4.9301023622047246
0
LINE
8
BLACK
6
CONTINUOUS
10
5.6067832283464565
20
-4.9301023622047246
11
5.5992841732283463
21
-4.9338518897637798
0
LINE
8
BLACK
6
CONTINUOUS
10
5.5992841732283463
20
-4.9338518897637798
11
5.5917850787401573
21
-4.9338518897637798
0
LINE
8
BLACK
6
CONTINUOUS
10
5.5917850787401573
20
-4.9338518897637798
11
5.5842860236220471
21
-4.9301023622047246
0
LINE
8
BLACK
6
CONTINUOUS
10
5.5842860236220471
20
-4.9301023622047246
11
5.580536496062992
21
-4.9263527952755908
0
LINE
8
BLACK
6
CONTINUOUS
10
5.580536496062992
20
-4.9263527952755908
11
5.5767869685039368
21
-4.9188537401574806
0
LINE
8
BLACK
6
CONTINUOUS
10
5.5767869685039368
20
-4.9188537401574806
11
5.5730374409448817
21
-4.9038556299212601
0
LINE
8
BLACK
6
CONTINUOUS
10
5.5730374409448817
20
-4.9038556299212601
11
5.5730374409448817
21
-4.8851079527559058
0
LINE
8
BLACK
6
CONTINUOUS
10
5.5730374409448817
20
-4.8851079527559058
11
5.5767869685039368
21
-4.8701098425196854
0
LINE
8
BLACK
6
CONTINUOUS
10
5.5767869685039368
20
-4.8701098425196854
11
5.580536496062992
21
-4.8626107874015743
0
LINE
8
BLACK
6
CONTINUOUS
10
5.580536496062992
20
-4.8626107874015743
11
5.5842860236220471
21
-4.8588612598425192
0
LINE
8
BLACK
6
CONTINUOUS
10
5.5842860236220471
20
-4.8588612598425192
11
5.5917850787401573
21
-4.855111732283464
0
LINE
8
BLACK
6
CONTINUOUS
10
5.6517775984251966
20
-4.9263527952755908
11
5.6555271259842517
21
-4.9301023622047246
0
LINE
8
BLACK
6
CONTINUOUS
10
5.6555271259842517
20
-4.9301023622047246
11
5.6517775984251966
21
-4.9338518897637798
0
LINE
8
BLACK
6
CONTINUOUS
10
5.6517775984251966
20
-4.9338518897637798
11
5.6480280708661414
21
-4.9301023622047246
0
LINE
8
BLACK
6
CONTINUOUS
10
5.6480280708661414
20
-4.9301023622047246
11
5.6517775984251966
21
-4.9263527952755908
0
LINE
8
BLACK
6
CONTINUOUS
10
5.6517775984251966
20
-4.9263527952755908
11
5.6517775984251966
21
-4.9338518897637798
0
LINE
8
BLACK
6
CONTINUOUS
10
5.7042710236220469
20
-4.855111732283464
11
5.7117701181102358
21
-4.855111732283464
0
LINE
8
BLACK
6
CONTINUOUS
10
5.7117701181102358
20
-4.855111732283464
11
5.719269173228346
21
-4.8588612598425192
0
LINE
8
BLACK
6
CONTINUOUS
10
5.719269173228346
20
-4.8588612598425192
11
5.7230187007874012
21
-4.8626107874015743
0
LINE
8
BLACK
6
CONTINUOUS
10
5.7230187007874012
20
-4.8626107874015743
11
5.7267682283464563
21
-4.8701098425196854
0
LINE
8
BLACK
6
CONTINUOUS
10
5.7267682283464563
20
-4.8701098425196854
11
5.7305177559055114
21
-4.8851079527559058
0
LINE
8
BLACK
6
CONTINUOUS
10
5.7305177559055114
20
-4.8851079527559058
11
5.7305177559055114
21
-4.9038556299212601
0
LINE
8
BLACK
6
CONTINUOUS
10
5.7305177559055114
20
-4.9038556299212601
11
5.7267682283464563
21
-4.9188537401574806
0
LINE
8
BLACK
6
CONTINUOUS
10
5.7267682283464563
20
-4.9188537401574806
11
5.7230187007874012
21
-4.9263527952755908
0
LINE
8
BLACK
6
CONTINUOUS
10
5.7230187007874012
20
-4.9263527952755908
11
5.719269173228346
21
-4.9301023622047246
0
LINE
8
BLACK
6
CONTINUOUS
10
5.719269173228346
20
-4.9301023622047246
11
5.7117701181102358
21
-4.9338518897637798
0
LINE
8
BLACK
6
CONTINUOUS
10
5.7117701181102358
20
-4.9338518897637798
11
5.7042710236220469
21
-4.9338518897637798
0
LINE
8
BLACK
6
CONTINUOUS
10
5.7042710236220469
20
-4.9338518897637798
11
5.6967719685039366
21
-4.9301023622047246
0
LINE
8
BLACK
6
CONTINUOUS
10
5.6967719685039366
20
-4.9301023622047246
11
5.6930224409448815
21
-4.9263527952755908
0
LINE
8
BLACK
6
CONTINUOUS
10
5.6930224409448815
20
-4.9263527952755908
11
5.6892729133858264
21
-4.9188537401574806
0
LINE
8
BLACK
6
CONTINUOUS
10
5.6892729133858264
20
-4.9188537401574806
11
5.6855233858267713
21
-4.9038556299212601
0
LINE
8
BLACK
6
CONTINUOUS
10
5.6855233858267713
20
-4.9038556299212601
11
5.6855233858267713
21
-4.8851079527559058
0
LINE
8
BLACK
6
CONTINUOUS
10
5.6855233858267713
20
-4.8851079527559058
11
5.6892729133858264
21
-4.8701098425196854
0
LINE
8
BLACK
6
CONTINUOUS
10
5.6892729133858264
20
-4.8701098425196854
11
5.6930224409448815
21
-4.8626107874015743
0
LINE
8
BLACK
6
CONTINUOUS
10
5.6930224409448815
20
-4.8626107874015743
11
5.6967719685039366
21
-4.8588612598425192
0
LINE
8
BLACK
6
CONTINUOUS
10
5.6967719685039366
20
-4.8588612598425192
11
5.7042710236220469
21
-4.855111732283464
0
LINE
8
BLACK
6
CONTINUOUS
10
5.760514015748031
20
-4.8626107874015743
11
5.7642635433070861
21
-4.8588612598425192
0
LINE
8
BLACK
6
CONTINUOUS
10
5.7642635433070861
20
-4.8588612598425192
11
5.7717625984251963
21
-4.855111732283464
0
LINE
8
BLACK
6
CONTINUOUS
10
5.7717625984251963
20
-4.855111732283464
11
5.7905102755905506
21
-4.855111732283464
0
LINE
8
BLACK
6
CONTINUOUS
10
5.7905102755905506
20
-4.855111732283464
11
5.7980093307086609
21
-4.8588612598425192
0
LINE
8
BLACK
6
CONTINUOUS
10
5.7980093307086609
20
-4.8588612598425192
11
5.801758858267716
21
-4.8626107874015743
0
LINE
8
BLACK
6
CONTINUOUS
10
5.801758858267716
20
-4.8626107874015743
11
5.8055083858267711
21
-4.8701098425196854
0
LINE
8
BLACK
6
CONTINUOUS
10
5.8055083858267711
20
-4.8701098425196854
11
5.8055083858267711
21
-4.8776088976377956
0
LINE
8
BLACK
6
CONTINUOUS
10
5.8055083858267711
20
-4.8776088976377956
11
5.801758858267716
21
-4.8888574803149609
0
LINE
8
BLACK
6
CONTINUOUS
10
5.801758858267716
20
-4.8888574803149609
11
5.7567644881889759
21
-4.9338518897637798
0
LINE
8
BLACK
6
CONTINUOUS
10
5.7567644881889759
20
-4.9338518897637798
11
5.8055083858267711
21
-4.9338518897637798
0
LINE
8
BLACK
6
CONTINUOUS
10
5.8767494881889766
20
-4.855111732283464
11
5.8392541732283467
21
-4.855111732283464
0
LINE
8
BLACK
6
CONTINUOUS
10
5.8392541732283467
20
-4.855111732283464
11
5.8355046456692916
21
-4.8926070472440948
0
LINE
8
BLACK
6
CONTINUOUS
10
5.8355046456692916
20
-4.8926070472440948
11
5.8392541732283467
21
-4.8888574803149609
0
LINE
8
BLACK
6
CONTINUOUS
10
5.8392541732283467
20
-4.8888574803149609
11
5.8467532283464569
21
-4.8851079527559058
0
LINE
8
BLACK
6
CONTINUOUS
10
5.8467532283464569
20
-4.8851079527559058
11
5.8655009055118112
21
-4.8851079527559058
0
LINE
8
BLACK
6
CONTINUOUS
10
5.8655009055118112
20
-4.8851079527559058
11
5.8729999606299215
21
-4.8888574803149609
0
LINE
8
BLACK
6
CONTINUOUS
10
5.8729999606299215
20
-4.8888574803149609
11
5.8767494881889766
21
-4.8926070472440948
0
LINE
8
BLACK
6
CONTINUOUS
10
5.8767494881889766
20
-4.8926070472440948
11
5.8804990157480317
21
-4.900106102362205
0
LINE
8
BLACK
6
CONTINUOUS
10
5.8804990157480317
20
-4.900106102362205
11
5.8804990157480317
21
-4.9188537401574806
0
LINE
8
BLACK
6
CONTINUOUS
10
5.8804990157480317
20
-4.9188537401574806
11
5.8767494881889766
21
-4.9263527952755908
0
LINE
8
BLACK
6
CONTINUOUS
10
5.8767494881889766
20
-4.9263527952755908
11
5.8729999606299215
21
-4.9301023622047246
0
LINE
8
BLACK
6
CONTINUOUS
10
5.8729999606299215
20
-4.9301023622047246
11
5.8655009055118112
21
-4.9338518897637798
0
LINE
8
BLACK
6
CONTINUOUS
10
5.8655009055118112
20
-4.9338518897637798
11
5.8467532283464569
21
-4.9338518897637798
0
LINE
8
BLACK
6
CONTINUOUS
10
5.8467532283464569
20
-4.9338518897637798
11
5.8392541732283467
21
-4.9301023622047246
0
LINE
8
BLACK
6
CONTINUOUS
10
5.8392541732283467
20
-4.9301023622047246
11
5.8355046456692916
21
-4.9263527952755908
0
LINE
8
BLACK
6
CONTINUOUS
10
5.9479905905511812
20
-4.855111732283464
11
5.932992440944882
21
-4.855111732283464
0
LINE
8
BLACK
6
CONTINUOUS
10
5.932992440944882
20
-4.855111732283464
11
5.9254933858267718
21
-4.8588612598425192
0
LINE
8
BLACK
6
CONTINUOUS
10
5.9254933858267718
20
-4.8588612598425192
11
5.9217438582677167
21
-4.8626107874015743
0
LINE
8
BLACK
6
CONTINUOUS
10
5.9217438582677167
20
-4.8626107874015743
11
5.9142448031496064
21
-4.8738593700787405
0
LINE
8
BLACK
6
CONTINUOUS
10
5.9142448031496064
20
-4.8738593700787405
11
5.9104952755905513
21
-4.8888574803149609
0
LINE
8
BLACK
6
CONTINUOUS
10
5.9104952755905513
20
-4.8888574803149609
11
5.9104952755905513
21
-4.9188537401574806
0
LINE
8
BLACK
6
CONTINUOUS
10
5.9104952755905513
20
-4.9188537401574806
11
5.9142448031496064
21
-4.9263527952755908
0
LINE
8
BLACK
6
CONTINUOUS
10
5.9142448031496064
20
-4.9263527952755908
11
5.9179943307086615
21
-4.9301023622047246
0
LINE
8
BLACK
6
CONTINUOUS
10
5.9179943307086615
20
-4.9301023622047246
11
5.9254933858267718
21
-4.9338518897637798
0
LINE
8
BLACK
6
CONTINUOUS
10
5.9254933858267718
20
-4.9338518897637798
11
5.940491535433071
21
-4.9338518897637798
0
LINE
8
BLACK
6
CONTINUOUS
10
5.940491535433071
20
-4.9338518897637798
11
5.9479905905511812
21
-4.9301023622047246
0
LINE
8
BLACK
6
CONTINUOUS
10
5.9479905905511812
20
-4.9301023622047246
11
5.9517401181102363
21
-4.9263527952755908
0
LINE
8
BLACK
6
CONTINUOUS
10
5.9517401181102363
20
-4.9263527952755908
11
5.9554896456692914
21
-4.9188537401574806
0
LINE
8
BLACK
6
CONTINUOUS
10
5.9554896456692914
20
-4.9188537401574806
11
5.9554896456692914
21
-4.900106102362205
0
LINE
8
BLACK
6
CONTINUOUS
10
5.9554896456692914
20
-4.900106102362205
11
5.9517401181102363
21
-4.8926070472440948
0
LINE
8
BLACK
6
CONTINUOUS
10
5.9517401181102363
20
-4.8926070472440948
11
5.9479905905511812
21
-4.8888574803149609
0
LINE
8
BLACK
6
CONTINUOUS
10
5.9479905905511812
20
-4.8888574803149609
11
5.940491535433071
21
-4.8851079527559058
0
LINE
8
BLACK
6
CONTINUOUS
10
5.940491535433071
20
-4.8851079527559058
11
5.9254933858267718
21
-4.8851079527559058
0
LINE
8
BLACK
6
CONTINUOUS
10
5.9254933858267718
20
-4.8851079527559058
11
5.9179943307086615
21
-4.8888574803149609
0
LINE
8
BLACK
6
CONTINUOUS
10
5.9179943307086615
20
-4.8888574803149609
11
5.9142448031496064
21
-4.8926070472440948
0
LINE
8
BLACK
6
CONTINUOUS
10
5.9142448031496064
20
-4.8926070472440948
11
5.9104952755905513
21
-4.900106102362205
0
LINE
8
BLACK
6
CONTINUOUS
10
5.985485905511811
20
-4.855111732283464
11
5.985485905511811
21
-4.8701098425196854
0
LINE
8
BLACK
6
CONTINUOUS
10
6.0154821653543307
20
-4.855111732283464
11
6.0154821653543307
21
-4.8701098425196854
0
LINE
8
BLACK
6
CONTINUOUS
10
6.1317176771653541
20
-4.9638481102362206
11
6.1279681102362202
21
-4.9600985826771655
0
LINE
8
BLACK
6
CONTINUOUS
10
6.1279681102362202
20
-4.9600985826771655
11
6.12046905511811
21
-4.9488500000000002
0
LINE
8
BLACK
6
CONTINUOUS
10
6.12046905511811
20
-4.9488500000000002
11
6.1167195275590549
21
-4.94135094488189
0
LINE
8
BLACK
6
CONTINUOUS
10
6.1167195275590549
20
-4.94135094488189
11
6.1129699999999998
21
-4.9301023622047246
0
LINE
8
BLACK
6
CONTINUOUS
10
6.1129699999999998
20
-4.9301023622047246
11
6.1092204724409447
21
-4.9113546850393703
0
LINE
8
BLACK
6
CONTINUOUS
10
6.1092204724409447
20
-4.9113546850393703
11
6.1092204724409447
21
-4.8963565748031499
0
LINE
8
BLACK
6
CONTINUOUS
10
6.1092204724409447
20
-4.8963565748031499
11
6.1129699999999998
21
-4.8776088976377956
0
LINE
8
BLACK
6
CONTINUOUS
10
6.1129699999999998
20
-4.8776088976377956
11
6.1167195275590549
21
-4.8663603149606294
0
LINE
8
BLACK
6
CONTINUOUS
10
6.1167195275590549
20
-4.8663603149606294
11
6.12046905511811
21
-4.8588612598425192
0
LINE
8
BLACK
6
CONTINUOUS
10
6.12046905511811
20
-4.8588612598425192
11
6.1279681102362202
21
-4.8476126377952751
0
LINE
8
BLACK
6
CONTINUOUS
10
6.1279681102362202
20
-4.8476126377952751
11
6.1317176771653541
21
-4.84386311023622
0
LINE
8
BLACK
6
CONTINUOUS
10
6.1579643700787399
20
-4.8626107874015743
11
6.161713897637795
21
-4.8588612598425192
0
LINE
8
BLACK
6
CONTINUOUS
10
6.161713897637795
20
-4.8588612598425192
11
6.1692129527559052
21
-4.855111732283464
0
LINE
8
BLACK
6
CONTINUOUS
10
6.1692129527559052
20
-4.855111732283464
11
6.1879606299212595
21
-4.855111732283464
0
LINE
8
BLACK
6
CONTINUOUS
10
6.1879606299212595
20
-4.855111732283464
11
6.1954596850393697
21
-4.8588612598425192
0
LINE
8
BLACK
6
CONTINUOUS
10
6.1954596850393697
20
-4.8588612598425192
11
6.1992092125984248
21
-4.8626107874015743
0
LINE
8
BLACK
6
CONTINUOUS
10
6.1992092125984248
20
-4.8626107874015743
11
6.2029587401574799
21
-4.8701098425196854
0
LINE
8
BLACK
6
CONTINUOUS
10
6.2029587401574799
20
-4.8701098425196854
11
6.2029587401574799
21
-4.8776088976377956
0
LINE
8
BLACK
6
CONTINUOUS
10
6.2029587401574799
20
-4.8776088976377956
11
6.1992092125984248
21
-4.8888574803149609
0
LINE
8
BLACK
6
CONTINUOUS
10
6.1992092125984248
20
-4.8888574803149609
11
6.1542148425196848
21
-4.9338518897637798
0
LINE
8
BLACK
6
CONTINUOUS
10
6.1542148425196848
20
-4.9338518897637798
11
6.2029587401574799
21
-4.9338518897637798
0
LINE
8
BLACK
6
CONTINUOUS
10
6.296697047244094
20
-4.9338518897637798
11
6.296697047244094
21
-4.855111732283464
0
LINE
8
BLACK
6
CONTINUOUS
10
6.3304428346456687
20
-4.9338518897637798
11
6.3304428346456687
21
-4.8926070472440948
0
LINE
8
BLACK
6
CONTINUOUS
10
6.3304428346456687
20
-4.8926070472440948
11
6.3266933070866136
21
-4.8851079527559058
0
LINE
8
BLACK
6
CONTINUOUS
10
6.3266933070866136
20
-4.8851079527559058
11
6.3191942519685034
21
-4.8813584251968507
0
LINE
8
BLACK
6
CONTINUOUS
10
6.3191942519685034
20
-4.8813584251968507
11
6.3079456299212593
21
-4.8813584251968507
0
LINE
8
BLACK
6
CONTINUOUS
10
6.3079456299212593
20
-4.8813584251968507
11
6.3004465748031491
21
-4.8851079527559058
0
LINE
8
BLACK
6
CONTINUOUS
10
6.3004465748031491
20
-4.8851079527559058
11
6.296697047244094
21
-4.8888574803149609
0
LINE
8
BLACK
6
CONTINUOUS
10
6.3791867322834648
20
-4.9338518897637798
11
6.3716876771653546
21
-4.9301023622047246
0
LINE
8
BLACK
6
CONTINUOUS
10
6.3716876771653546
20
-4.9301023622047246
11
6.3679381496062994
21
-4.9263527952755908
0
LINE
8
BLACK
6
CONTINUOUS
10
6.3679381496062994
20
-4.9263527952755908
11
6.3641886220472443
21
-4.9188537401574806
0
LINE
8
BLACK
6
CONTINUOUS
10
6.3641886220472443
20
-4.9188537401574806
11
6.3641886220472443
21
-4.8963565748031499
0
LINE
8
BLACK
6
CONTINUOUS
10
6.3641886220472443
20
-4.8963565748031499
11
6.3679381496062994
21
-4.8888574803149609
0
LINE
8
BLACK
6
CONTINUOUS
10
6.3679381496062994
20
-4.8888574803149609
11
6.3716876771653546
21
-4.8851079527559058
0
LINE
8
BLACK
6
CONTINUOUS
10
6.3716876771653546
20
-4.8851079527559058
11
6.3791867322834648
21
-4.8813584251968507
0
LINE
8
BLACK
6
CONTINUOUS
10
6.3791867322834648
20
-4.8813584251968507
11
6.3904353543307089
21
-4.8813584251968507
0
LINE
8
BLACK
6
CONTINUOUS
10
6.3904353543307089
20
-4.8813584251968507
11
6.3979344094488191
21
-4.8851079527559058
0
LINE
8
BLACK
6
CONTINUOUS
10
6.3979344094488191
20
-4.8851079527559058
11
6.4016839370078742
21
-4.8888574803149609
0
LINE
8
BLACK
6
CONTINUOUS
10
6.4016839370078742
20
-4.8888574803149609
11
6.4054334645669293
21
-4.8963565748031499
0
LINE
8
BLACK
6
CONTINUOUS
10
6.4054334645669293
20
-4.8963565748031499
11
6.4054334645669293
21
-4.9188537401574806
0
LINE
8
BLACK
6
CONTINUOUS
10
6.4054334645669293
20
-4.9188537401574806
11
6.4016839370078742
21
-4.9263527952755908
0
LINE
8
BLACK
6
CONTINUOUS
10
6.4016839370078742
20
-4.9263527952755908
11
6.3979344094488191
21
-4.9301023622047246
0
LINE
8
BLACK
6
CONTINUOUS
10
6.3979344094488191
20
-4.9301023622047246
11
6.3904353543307089
21
-4.9338518897637798
0
LINE
8
BLACK
6
CONTINUOUS
10
6.3904353543307089
20
-4.9338518897637798
11
6.3791867322834648
21
-4.9338518897637798
0
LINE
8
BLACK
6
CONTINUOUS
10
6.4504278346456694
20
-4.9338518897637798
11
6.4429287795275592
21
-4.9301023622047246
0
LINE
8
BLACK
6
CONTINUOUS
10
6.4429287795275592
20
-4.9301023622047246
11
6.439179251968504
21
-4.9226032677165357
0
LINE
8
BLACK
6
CONTINUOUS
10
6.439179251968504
20
-4.9226032677165357
11
6.439179251968504
21
-4.855111732283464
0
LINE
8
BLACK
6
CONTINUOUS
10
6.5104203543307086
20
-4.9301023622047246
11
6.5029212992125984
21
-4.9338518897637798
0
LINE
8
BLACK
6
CONTINUOUS
10
6.5029212992125984
20
-4.9338518897637798
11
6.4879231496062992
21
-4.9338518897637798
0
LINE
8
BLACK
6
CONTINUOUS
10
6.4879231496062992
20
-4.9338518897637798
11
6.480424094488189
21
-4.9301023622047246
0
LINE
8
BLACK
6
CONTINUOUS
10
6.480424094488189
20
-4.9301023622047246
11
6.4766745669291339
21
-4.9226032677165357
0
LINE
8
BLACK
6
CONTINUOUS
10
6.4766745669291339
20
-4.9226032677165357
11
6.4766745669291339
21
-4.8926070472440948
0
LINE
8
BLACK
6
CONTINUOUS
10
6.4766745669291339
20
-4.8926070472440948
11
6.480424094488189
21
-4.8851079527559058
0
LINE
8
BLACK
6
CONTINUOUS
10
6.480424094488189
20
-4.8851079527559058
11
6.4879231496062992
21
-4.8813584251968507
0
LINE
8
BLACK
6
CONTINUOUS
10
6.4879231496062992
20
-4.8813584251968507
11
6.5029212992125984
21
-4.8813584251968507
0
LINE
8
BLACK
6
CONTINUOUS
10
6.5029212992125984
20
-4.8813584251968507
11
6.5104203543307086
21
-4.8851079527559058
0
LINE
8
BLACK
6
CONTINUOUS
10
6.5104203543307086
20
-4.8851079527559058
11
6.5141698818897638
21
-4.8926070472440948
0
LINE
8
BLACK
6
CONTINUOUS
10
6.5141698818897638
20
-4.8926070472440948
11
6.5141698818897638
21
-4.900106102362205
0
LINE
8
BLACK
6
CONTINUOUS
10
6.5141698818897638
20
-4.900106102362205
11
6.4766745669291339
21
-4.9076051574803152
0
LINE
8
BLACK
6
CONTINUOUS
10
6.5441661417322834
20
-4.9301023622047246
11
6.5516651968503936
21
-4.9338518897637798
0
LINE
8
BLACK
6
CONTINUOUS
10
6.5516651968503936
20
-4.9338518897637798
11
6.5666633070866141
21
-4.9338518897637798
0
LINE
8
BLACK
6
CONTINUOUS
10
6.5666633070866141
20
-4.9338518897637798
11
6.574162401574803
21
-4.9301023622047246
0
LINE
8
BLACK
6
CONTINUOUS
10
6.574162401574803
20
-4.9301023622047246
11
6.5779119291338581
21
-4.9226032677165357
0
LINE
8
BLACK
6
CONTINUOUS
10
6.5779119291338581
20
-4.9226032677165357
11
6.5779119291338581
21
-4.9188537401574806
0
LINE
8
BLACK
6
CONTINUOUS
10
6.5779119291338581
20
-4.9188537401574806
11
6.574162401574803
21
-4.9113546850393703
0
LINE
8
BLACK
6
CONTINUOUS
10
6.574162401574803
20
-4.9113546850393703
11
6.5666633070866141
21
-4.9076051574803152
0
LINE
8
BLACK
6
CONTINUOUS
10
6.5666633070866141
20
-4.9076051574803152
11
6.5554147244094487
21
-4.9076051574803152
0
LINE
8
BLACK
6
CONTINUOUS
10
6.5554147244094487
20
-4.9076051574803152
11
6.5479156692913385
21
-4.9038556299212601
0
LINE
8
BLACK
6
CONTINUOUS
10
6.5479156692913385
20
-4.9038556299212601
11
6.5441661417322834
21
-4.8963565748031499
0
LINE
8
BLACK
6
CONTINUOUS
10
6.5441661417322834
20
-4.8963565748031499
11
6.5441661417322834
21
-4.8926070472440948
0
LINE
8
BLACK
6
CONTINUOUS
10
6.5441661417322834
20
-4.8926070472440948
11
6.5479156692913385
21
-4.8851079527559058
0
LINE
8
BLACK
6
CONTINUOUS
10
6.5479156692913385
20
-4.8851079527559058
11
6.5554147244094487
21
-4.8813584251968507
0
LINE
8
BLACK
6
CONTINUOUS
10
6.5554147244094487
20
-4.8813584251968507
11
6.5666633070866141
21
-4.8813584251968507
0
LINE
8
BLACK
6
CONTINUOUS
10
6.5666633070866141
20
-4.8813584251968507
11
6.574162401574803
21
-4.8851079527559058
0
LINE
8
BLACK
6
CONTINUOUS
10
6.6041586614173227
20
-4.9638481102362206
11
6.6079081889763778
21
-4.9600985826771655
0
LINE
8
BLACK
6
CONTINUOUS
10
6.6079081889763778
20
-4.9600985826771655
11
6.615407244094488
21
-4.9488500000000002
0
LINE
8
BLACK
6
CONTINUOUS
10
6.615407244094488
20
-4.9488500000000002
11
6.6191567716535431
21
-4.94135094488189
0
LINE
8
BLACK
6
CONTINUOUS
10
6.6191567716535431
20
-4.94135094488189
11
6.6229062992125982
21
-4.9301023622047246
0
LINE
8
BLACK
6
CONTINUOUS
10
6.6229062992125982
20
-4.9301023622047246
11
6.6266558267716533
21
-4.9113546850393703
0
LINE
8
BLACK
6
CONTINUOUS
10
6.6266558267716533
20
-4.9113546850393703
11
6.6266558267716533
21
-4.8963565748031499
0
LINE
8
BLACK
6
CONTINUOUS
10
6.6266558267716533
20
-4.8963565748031499
11
6.6229062992125982
21
-4.8776088976377956
0
LINE
8
BLACK
6
CONTINUOUS
10
6.6229062992125982
20
-4.8776088976377956
11
6.6191567716535431
21
-4.8663603149606294
0
LINE
8
BLACK
6
CONTINUOUS
10
6.6191567716535431
20
-4.8663603149606294
11
6.615407244094488
21
-4.8588612598425192
0
LINE
8
BLACK
6
CONTINUOUS
10
6.615407244094488
20
-4.8588612598425192
11
6.6079081889763778
21
-4.8476126377952751
0
LINE
8
BLACK
6
CONTINUOUS
10
6.6079081889763778
20
-4.8476126377952751
11
6.6041586614173227
21
-4.84386311023622
0
LINE
8
BLACK
6
CONTINUOUS
10
6.7466408661417319
20
-4.9638481102362206
11
6.742891299212598
21
-4.9600985826771655
0
LINE
8
BLACK
6
CONTINUOUS
10
6.742891299212598
20
-4.9600985826771655
11
6.7353922440944878
21
-4.9488500000000002
0
LINE
8
BLACK
6
CONTINUOUS
10
6.7353922440944878
20
-4.9488500000000002
11
6.7316427165354327
21
-4.94135094488189
0
LINE
8
BLACK
6
CONTINUOUS
10
6.7316427165354327
20
-4.94135094488189
11
6.7278931889763776
21
-4.9301023622047246
0
LINE
8
BLACK
6
CONTINUOUS
10
6.7278931889763776
20
-4.9301023622047246
11
6.7241436614173224
21
-4.9113546850393703
0
LINE
8
BLACK
6
CONTINUOUS
10
6.7241436614173224
20
-4.9113546850393703
11
6.7241436614173224
21
-4.8963565748031499
0
LINE
8
BLACK
6
CONTINUOUS
10
6.7241436614173224
20
-4.8963565748031499
11
6.7278931889763776
21
-4.8776088976377956
0
LINE
8
BLACK
6
CONTINUOUS
10
6.7278931889763776
20
-4.8776088976377956
11
6.7316427165354327
21
-4.8663603149606294
0
LINE
8
BLACK
6
CONTINUOUS
10
6.7316427165354327
20
-4.8663603149606294
11
6.7353922440944878
21
-4.8588612598425192
0
LINE
8
BLACK
6
CONTINUOUS
10
6.7353922440944878
20
-4.8588612598425192
11
6.742891299212598
21
-4.8476126377952751
0
LINE
8
BLACK
6
CONTINUOUS
10
6.742891299212598
20
-4.8476126377952751
11
6.7466408661417319
21
-4.84386311023622
0
LINE
8
BLACK
6
CONTINUOUS
10
6.7766370866141727
20
-4.8813584251968507
11
6.7766370866141727
21
-4.9338518897637798
0
LINE
8
BLACK
6
CONTINUOUS
10
6.7766370866141727
20
-4.8888574803149609
11
6.7803866141732279
21
-4.8851079527559058
0
LINE
8
BLACK
6
CONTINUOUS
10
6.7803866141732279
20
-4.8851079527559058
11
6.7878856692913381
21
-4.8813584251968507
0
LINE
8
BLACK
6
CONTINUOUS
10
6.7878856692913381
20
-4.8813584251968507
11
6.7991342913385822
21
-4.8813584251968507
0
LINE
8
BLACK
6
CONTINUOUS
10
6.7991342913385822
20
-4.8813584251968507
11
6.8066333464566924
21
-4.8851079527559058
0
LINE
8
BLACK
6
CONTINUOUS
10
6.8066333464566924
20
-4.8851079527559058
11
6.8103828740157475
21
-4.8926070472440948
0
LINE
8
BLACK
6
CONTINUOUS
10
6.8103828740157475
20
-4.8926070472440948
11
6.8103828740157475
21
-4.9338518897637798
0
LINE
8
BLACK
6
CONTINUOUS
10
6.8591267716535436
20
-4.9338518897637798
11
6.8516277165354333
21
-4.9301023622047246
0
LINE
8
BLACK
6
CONTINUOUS
10
6.8516277165354333
20
-4.9301023622047246
11
6.8478781889763782
21
-4.9263527952755908
0
LINE
8
BLACK
6
CONTINUOUS
10
6.8478781889763782
20
-4.9263527952755908
11
6.8441286614173231
21
-4.9188537401574806
0
LINE
8
BLACK
6
CONTINUOUS
10
6.8441286614173231
20
-4.9188537401574806
11
6.8441286614173231
21
-4.8963565748031499
0
LINE
8
BLACK
6
CONTINUOUS
10
6.8441286614173231
20
-4.8963565748031499
11
6.8478781889763782
21
-4.8888574803149609
0
LINE
8
BLACK
6
CONTINUOUS
10
6.8478781889763782
20
-4.8888574803149609
11
6.8516277165354333
21
-4.8851079527559058
0
LINE
8
BLACK
6
CONTINUOUS
10
6.8516277165354333
20
-4.8851079527559058
11
6.8591267716535436
21
-4.8813584251968507
0
LINE
8
BLACK
6
CONTINUOUS
10
6.8591267716535436
20
-4.8813584251968507
11
6.8703753937007876
21
-4.8813584251968507
0
LINE
8
BLACK
6
CONTINUOUS
10
6.8703753937007876
20
-4.8813584251968507
11
6.8778744488188979
21
-4.8851079527559058
0
LINE
8
BLACK
6
CONTINUOUS
10
6.8778744488188979
20
-4.8851079527559058
11
6.881623976377953
21
-4.8888574803149609
0
LINE
8
BLACK
6
CONTINUOUS
10
6.881623976377953
20
-4.8888574803149609
11
6.8853735039370081
21
-4.8963565748031499
0
LINE
8
BLACK
6
CONTINUOUS
10
6.8853735039370081
20
-4.8963565748031499
11
6.8853735039370081
21
-4.9188537401574806
0
LINE
8
BLACK
6
CONTINUOUS
10
6.8853735039370081
20
-4.9188537401574806
11
6.881623976377953
21
-4.9263527952755908
0
LINE
8
BLACK
6
CONTINUOUS
10
6.881623976377953
20
-4.9263527952755908
11
6.8778744488188979
21
-4.9301023622047246
0
LINE
8
BLACK
6
CONTINUOUS
10
6.8778744488188979
20
-4.9301023622047246
11
6.8703753937007876
21
-4.9338518897637798
0
LINE
8
BLACK
6
CONTINUOUS
10
6.8703753937007876
20
-4.9338518897637798
11
6.8591267716535436
21
-4.9338518897637798
0
LINE
8
BLACK
6
CONTINUOUS
10
6.9078707086614175
20
-4.8813584251968507
11
6.9378669291338584
21
-4.8813584251968507
0
LINE
8
BLACK
6
CONTINUOUS
10
6.9191192913385828
20
-4.855111732283464
11
6.9191192913385828
21
-4.9226032677165357
0
LINE
8
BLACK
6
CONTINUOUS
10
6.9191192913385828
20
-4.9226032677165357
11
6.9228688188976379
21
-4.9301023622047246
0
LINE
8
BLACK
6
CONTINUOUS
10
6.9228688188976379
20
-4.9301023622047246
11
6.9303678740157482
21
-4.9338518897637798
0
LINE
8
BLACK
6
CONTINUOUS
10
6.9303678740157482
20
-4.9338518897637798
11
6.9378669291338584
21
-4.9338518897637798
0
LINE
8
BLACK
6
CONTINUOUS
10
7.0241061811023622
20
-4.8813584251968507
11
7.0241061811023622
21
-4.9600985826771655
0
LINE
8
BLACK
6
CONTINUOUS
10
7.0241061811023622
20
-4.8851079527559058
11
7.0316052362204724
21
-4.8813584251968507
0
LINE
8
BLACK
6
CONTINUOUS
10
7.0316052362204724
20
-4.8813584251968507
11
7.0466033858267716
21
-4.8813584251968507
0
LINE
8
BLACK
6
CONTINUOUS
10
7.0466033858267716
20
-4.8813584251968507
11
7.0541024409448818
21
-4.8851079527559058
0
LINE
8
BLACK
6
CONTINUOUS
10
7.0541024409448818
20
-4.8851079527559058
11
7.0578519685039369
21
-4.8888574803149609
0
LINE
8
BLACK
6
CONTINUOUS
10
7.0578519685039369
20
-4.8888574803149609
11
7.061601496062992
21
-4.8963565748031499
0
LINE
8
BLACK
6
CONTINUOUS
10
7.061601496062992
20
-4.8963565748031499
11
7.061601496062992
21
-4.9188537401574806
0
LINE
8
BLACK
6
CONTINUOUS
10
7.061601496062992
20
-4.9188537401574806
11
7.0578519685039369
21
-4.9263527952755908
0
LINE
8
BLACK
6
CONTINUOUS
10
7.0578519685039369
20
-4.9263527952755908
11
7.0541024409448818
21
-4.9301023622047246
0
LINE
8
BLACK
6
CONTINUOUS
10
7.0541024409448818
20
-4.9301023622047246
11
7.0466033858267716
21
-4.9338518897637798
0
LINE
8
BLACK
6
CONTINUOUS
10
7.0466033858267716
20
-4.9338518897637798
11
7.0316052362204724
21
-4.9338518897637798
0
LINE
8
BLACK
6
CONTINUOUS
10
7.0316052362204724
20
-4.9338518897637798
11
7.0241061811023622
21
-4.9301023622047246
0
LINE
8
BLACK
6
CONTINUOUS
10
7.1065958661417321
20
-4.9338518897637798
11
7.0990968110236219
21
-4.9301023622047246
0
LINE
8
BLACK
6
CONTINUOUS
10
7.0990968110236219
20
-4.9301023622047246
11
7.0953472834645668
21
-4.9226032677165357
0
LINE
8
BLACK
6
CONTINUOUS
10
7.0953472834645668
20
-4.9226032677165357
11
7.0953472834645668
21
-4.855111732283464
0
LINE
8
BLACK
6
CONTINUOUS
10
7.1703379133858265
20
-4.9338518897637798
11
7.1703379133858265
21
-4.8926070472440948
0
LINE
8
BLACK
6
CONTINUOUS
10
7.1703379133858265
20
-4.8926070472440948
11
7.1665883858267714
21
-4.8851079527559058
0
LINE
8
BLACK
6
CONTINUOUS
10
7.1665883858267714
20
-4.8851079527559058
11
7.1590893307086612
21
-4.8813584251968507
0
LINE
8
BLACK
6
CONTINUOUS
10
7.1590893307086612
20
-4.8813584251968507
11
7.144091181102362
21
-4.8813584251968507
0
LINE
8
BLACK
6
CONTINUOUS
10
7.144091181102362
20
-4.8813584251968507
11
7.1365921259842517
21
-4.8851079527559058
0
LINE
8
BLACK
6
CONTINUOUS
10
7.1703379133858265
20
-4.9301023622047246
11
7.1628388582677163
21
-4.9338518897637798
0
LINE
8
BLACK
6
CONTINUOUS
10
7.1628388582677163
20
-4.9338518897637798
11
7.144091181102362
21
-4.9338518897637798
0
LINE
8
BLACK
6
CONTINUOUS
10
7.144091181102362
20
-4.9338518897637798
11
7.1365921259842517
21
-4.9301023622047246
0
LINE
8
BLACK
6
CONTINUOUS
10
7.1365921259842517
20
-4.9301023622047246
11
7.1328425984251966
21
-4.9226032677165357
0
LINE
8
BLACK
6
CONTINUOUS
10
7.1328425984251966
20
-4.9226032677165357
11
7.1328425984251966
21
-4.9151042125984254
0
LINE
8
BLACK
6
CONTINUOUS
10
7.1328425984251966
20
-4.9151042125984254
11
7.1365921259842517
21
-4.9076051574803152
0
LINE
8
BLACK
6
CONTINUOUS
10
7.1365921259842517
20
-4.9076051574803152
11
7.144091181102362
21
-4.9038556299212601
0
LINE
8
BLACK
6
CONTINUOUS
10
7.144091181102362
20
-4.9038556299212601
11
7.1628388582677163
21
-4.9038556299212601
0
LINE
8
BLACK
6
CONTINUOUS
10
7.1628388582677163
20
-4.9038556299212601
11
7.1703379133858265
21
-4.900106102362205
0
LINE
8
BLACK
6
CONTINUOUS
10
7.196584645669291
20
-4.8813584251968507
11
7.2265808661417319
21
-4.8813584251968507
0
LINE
8
BLACK
6
CONTINUOUS
10
7.2078332283464563
20
-4.855111732283464
11
7.2078332283464563
21
-4.9226032677165357
0
LINE
8
BLACK
6
CONTINUOUS
10
7.2078332283464563
20
-4.9226032677165357
11
7.2115827559055115
21
-4.9301023622047246
0
LINE
8
BLACK
6
CONTINUOUS
10
7.2115827559055115
20
-4.9301023622047246
11
7.2190818110236217
21
-4.9338518897637798
0
LINE
8
BLACK
6
CONTINUOUS
10
7.2190818110236217
20
-4.9338518897637798
11
7.2265808661417319
21
-4.9338518897637798
0
LINE
8
BLACK
6
CONTINUOUS
10
7.2828238582677161
20
-4.9301023622047246
11
7.2753248031496058
21
-4.9338518897637798
0
LINE
8
BLACK
6
CONTINUOUS
10
7.2753248031496058
20
-4.9338518897637798
11
7.2603266535433066
21
-4.9338518897637798
0
LINE
8
BLACK
6
CONTINUOUS
10
7.2603266535433066
20
-4.9338518897637798
11
7.2528275984251964
21
-4.9301023622047246
0
LINE
8
BLACK
6
CONTINUOUS
10
7.2528275984251964
20
-4.9301023622047246
11
7.2490780708661413
21
-4.9226032677165357
0
LINE
8
BLACK
6
CONTINUOUS
10
7.2490780708661413
20
-4.9226032677165357
11
7.2490780708661413
21
-4.8926070472440948
0
LINE
8
BLACK
6
CONTINUOUS
10
7.2490780708661413
20
-4.8926070472440948
11
7.2528275984251964
21
-4.8851079527559058
0
LINE
8
BLACK
6
CONTINUOUS
10
7.2528275984251964
20
-4.8851079527559058
11
7.2603266535433066
21
-4.8813584251968507
0
LINE
8
BLACK
6
CONTINUOUS
10
7.2603266535433066
20
-4.8813584251968507
11
7.2753248031496058
21
-4.8813584251968507
0
LINE
8
BLACK
6
CONTINUOUS
10
7.2753248031496058
20
-4.8813584251968507
11
7.2828238582677161
21
-4.8851079527559058
0
LINE
8
BLACK
6
CONTINUOUS
10
7.2828238582677161
20
-4.8851079527559058
11
7.2865733858267712
21
-4.8926070472440948
0
LINE
8
BLACK
6
CONTINUOUS
10
7.2865733858267712
20
-4.8926070472440948
11
7.2865733858267712
21
-4.900106102362205
0
LINE
8
BLACK
6
CONTINUOUS
10
7.2865733858267712
20
-4.900106102362205
11
7.2490780708661413
21
-4.9076051574803152
0
LINE
8
BLACK
6
CONTINUOUS
10
7.3540649606299207
20
-4.9338518897637798
11
7.3540649606299207
21
-4.855111732283464
0
LINE
8
BLACK
6
CONTINUOUS
10
7.3540649606299207
20
-4.9301023622047246
11
7.3465659055118104
21
-4.9338518897637798
0
LINE
8
BLACK
6
CONTINUOUS
10
7.3465659055118104
20
-4.9338518897637798
11
7.3315677559055112
21
-4.9338518897637798
0
LINE
8
BLACK
6
CONTINUOUS
10
7.3315677559055112
20
-4.9338518897637798
11
7.324068700787401
21
-4.9301023622047246
0
LINE
8
BLACK
6
CONTINUOUS
10
7.324068700787401
20
-4.9301023622047246
11
7.3203191732283459
21
-4.9263527952755908
0
LINE
8
BLACK
6
CONTINUOUS
10
7.3203191732283459
20
-4.9263527952755908
11
7.3165696456692908
21
-4.9188537401574806
0
LINE
8
BLACK
6
CONTINUOUS
10
7.3165696456692908
20
-4.9188537401574806
11
7.3165696456692908
21
-4.8963565748031499
0
LINE
8
BLACK
6
CONTINUOUS
10
7.3165696456692908
20
-4.8963565748031499
11
7.3203191732283459
21
-4.8888574803149609
0
LINE
8
BLACK
6
CONTINUOUS
10
7.3203191732283459
20
-4.8888574803149609
11
7.324068700787401
21
-4.8851079527559058
0
LINE
8
BLACK
6
CONTINUOUS
10
7.324068700787401
20
-4.8851079527559058
11
7.3315677559055112
21
-4.8813584251968507
0
LINE
8
BLACK
6
CONTINUOUS
10
7.3315677559055112
20
-4.8813584251968507
11
7.3465659055118104
21
-4.8813584251968507
0
LINE
8
BLACK
6
CONTINUOUS
10
7.3465659055118104
20
-4.8813584251968507
11
7.3540649606299207
21
-4.8851079527559058
0
LINE
8
BLACK
6
CONTINUOUS
10
7.3840612204724412
20
-4.9638481102362206
11
7.3878107480314963
21
-4.9600985826771655
0
LINE
8
BLACK
6
CONTINUOUS
10
7.3878107480314963
20
-4.9600985826771655
11
7.3953098031496065
21
-4.9488500000000002
0
LINE
8
BLACK
6
CONTINUOUS
10
7.3953098031496065
20
-4.9488500000000002
11
7.3990593307086616
21
-4.94135094488189
0
LINE
8
BLACK
6
CONTINUOUS
10
7.3990593307086616
20
-4.94135094488189
11
7.4028088582677167
21
-4.9301023622047246
0
LINE
8
BLACK
6
CONTINUOUS
10
7.4028088582677167
20
-4.9301023622047246
11
7.4065583858267718
21
-4.9113546850393703
0
LINE
8
BLACK
6
CONTINUOUS
10
7.4065583858267718
20
-4.9113546850393703
11
7.4065583858267718
21
-4.8963565748031499
0
LINE
8
BLACK
6
CONTINUOUS
10
7.4065583858267718
20
-4.8963565748031499
11
7.4028088582677167
21
-4.8776088976377956
0
LINE
8
BLACK
6
CONTINUOUS
10
7.4028088582677167
20
-4.8776088976377956
11
7.3990593307086616
21
-4.8663603149606294
0
LINE
8
BLACK
6
CONTINUOUS
10
7.3990593307086616
20
-4.8663603149606294
11
7.3953098031496065
21
-4.8588612598425192
0
LINE
8
BLACK
6
CONTINUOUS
10
7.3953098031496065
20
-4.8588612598425192
11
7.3878107480314963
21
-4.8476126377952751
0
LINE
8
BLACK
6
CONTINUOUS
10
7.3878107480314963
20
-4.8476126377952751
11
7.3840612204724412
21
-4.84386311023622
0
CIRCLE
8
BLACK
10
4.6848425196850396
20
-5.0017716535433072
40
0.0393700787401575
0
LINE
8
BLACK
6
CONTINUOUS
10
4.823131102362205
20
-4.9665477952755905
11
4.8268806299212601
21
-4.9627982677165354
0
LINE
8
BLACK
6
CONTINUOUS
10
4.8268806299212601
20
-4.9627982677165354
11
4.8343796850393703
21
-4.9590487401574803
0
LINE
8
BLACK
6
CONTINUOUS
10
4.8343796850393703
20
-4.9590487401574803
11
4.8531273622047246
21
-4.9590487401574803
0
LINE
8
BLACK
6
CONTINUOUS
10
4.8531273622047246
20
-4.9590487401574803
11
4.8606264173228348
21
-4.9627982677165354
0
LINE
8
BLACK
6
CONTINUOUS
10
4.8606264173228348
20
-4.9627982677165354
11
4.86437594488189
21
-4.9665477952755905
0
LINE
8
BLACK
6
CONTINUOUS
10
4.86437594488189
20
-4.9665477952755905
11
4.8681254724409451
21
-4.9740468503937008
0
LINE
8
BLACK
6
CONTINUOUS
10
4.8681254724409451
20
-4.9740468503937008
11
4.8681254724409451
21
-4.981545905511811
0
LINE
8
BLACK
6
CONTINUOUS
10
4.8681254724409451
20
-4.981545905511811
11
4.86437594488189
21
-4.9927944881889763
0
LINE
8
BLACK
6
CONTINUOUS
10
4.86437594488189
20
-4.9927944881889763
11
4.8193815748031499
21
-5.0377888976377951
0
LINE
8
BLACK
6
CONTINUOUS
10
4.8193815748031499
20
-5.0377888976377951
11
4.8681254724409451
21
-5.0377888976377951
0
LINE
8
BLACK
6
CONTINUOUS
10
4.9018712598425198
20
-5.0302898031496062
11
4.9056207874015749
21
-5.03403937007874
0
LINE
8
BLACK
6
CONTINUOUS
10
4.9056207874015749
20
-5.03403937007874
11
4.9018712598425198
21
-5.0377888976377951
0
LINE
8
BLACK
6
CONTINUOUS
10
4.9018712598425198
20
-5.0377888976377951
11
4.8981217322834647
21
-5.03403937007874
0
LINE
8
BLACK
6
CONTINUOUS
10
4.8981217322834647
20
-5.03403937007874
11
4.9018712598425198
21
-5.0302898031496062
0
LINE
8
BLACK
6
CONTINUOUS
10
4.9018712598425198
20
-5.0302898031496062
11
4.9018712598425198
21
-5.0377888976377951
0
LINE
8
BLACK
6
CONTINUOUS
10
4.9356170472440946
20
-4.9665477952755905
11
4.9393665748031497
21
-4.9627982677165354
0
LINE
8
BLACK
6
CONTINUOUS
10
4.9393665748031497
20
-4.9627982677165354
11
4.9468656299212599
21
-4.9590487401574803
0
LINE
8
BLACK
6
CONTINUOUS
10
4.9468656299212599
20
-4.9590487401574803
11
4.9656133070866142
21
-4.9590487401574803
0
LINE
8
BLACK
6
CONTINUOUS
10
4.9656133070866142
20
-4.9590487401574803
11
4.9731123622047244
21
-4.9627982677165354
0
LINE
8
BLACK
6
CONTINUOUS
10
4.9731123622047244
20
-4.9627982677165354
11
4.9768618897637795
21
-4.9665477952755905
0
LINE
8
BLACK
6
CONTINUOUS
10
4.9768618897637795
20
-4.9665477952755905
11
4.9806114173228346
21
-4.9740468503937008
0
LINE
8
BLACK
6
CONTINUOUS
10
4.9806114173228346
20
-4.9740468503937008
11
4.9806114173228346
21
-4.981545905511811
0
LINE
8
BLACK
6
CONTINUOUS
10
4.9806114173228346
20
-4.981545905511811
11
4.9768618897637795
21
-4.9927944881889763
0
LINE
8
BLACK
6
CONTINUOUS
10
4.9768618897637795
20
-4.9927944881889763
11
4.9318675196850394
21
-5.0377888976377951
0
LINE
8
BLACK
6
CONTINUOUS
10
4.9318675196850394
20
-5.0377888976377951
11
4.9806114173228346
21
-5.0377888976377951
0
LINE
8
BLACK
6
CONTINUOUS
10
5.0293553149606298
20
-4.9590487401574803
11
5.0368544094488188
21
-4.9590487401574803
0
LINE
8
BLACK
6
CONTINUOUS
10
5.0368544094488188
20
-4.9590487401574803
11
5.044353464566929
21
-4.9627982677165354
0
LINE
8
BLACK
6
CONTINUOUS
10
5.044353464566929
20
-4.9627982677165354
11
5.0481029921259841
21
-4.9665477952755905
0
LINE
8
BLACK
6
CONTINUOUS
10
5.0481029921259841
20
-4.9665477952755905
11
5.0518525196850392
21
-4.9740468503937008
0
LINE
8
BLACK
6
CONTINUOUS
10
5.0518525196850392
20
-4.9740468503937008
11
5.0556020472440943
21
-4.9890449606299212
0
LINE
8
BLACK
6
CONTINUOUS
10
5.0556020472440943
20
-4.9890449606299212
11
5.0556020472440943
21
-5.0077926377952755
0
LINE
8
BLACK
6
CONTINUOUS
10
5.0556020472440943
20
-5.0077926377952755
11
5.0518525196850392
21
-5.0227907480314959
0
LINE
8
BLACK
6
CONTINUOUS
10
5.0518525196850392
20
-5.0227907480314959
11
5.0481029921259841
21
-5.0302898031496062
0
LINE
8
BLACK
6
CONTINUOUS
10
5.0481029921259841
20
-5.0302898031496062
11
5.044353464566929
21
-5.03403937007874
0
LINE
8
BLACK
6
CONTINUOUS
10
5.044353464566929
20
-5.03403937007874
11
5.0368544094488188
21
-5.0377888976377951
0
LINE
8
BLACK
6
CONTINUOUS
10
5.0368544094488188
20
-5.0377888976377951
11
5.0293553149606298
21
-5.0377888976377951
0
LINE
8
BLACK
6
CONTINUOUS
10
5.0293553149606298
20
-5.0377888976377951
11
5.0218562598425196
21
-5.03403937007874
0
LINE
8
BLACK
6
CONTINUOUS
10
5.0218562598425196
20
-5.03403937007874
11
5.0181067322834645
21
-5.0302898031496062
0
LINE
8
BLACK
6
CONTINUOUS
10
5.0181067322834645
20
-5.0302898031496062
11
5.0143572047244094
21
-5.0227907480314959
0
LINE
8
BLACK
6
CONTINUOUS
10
5.0143572047244094
20
-5.0227907480314959
11
5.0106076771653543
21
-5.0077926377952755
0
LINE
8
BLACK
6
CONTINUOUS
10
5.0106076771653543
20
-5.0077926377952755
11
5.0106076771653543
21
-4.9890449606299212
0
LINE
8
BLACK
6
CONTINUOUS
10
5.0106076771653543
20
-4.9890449606299212
11
5.0143572047244094
21
-4.9740468503937008
0
LINE
8
BLACK
6
CONTINUOUS
10
5.0143572047244094
20
-4.9740468503937008
11
5.0181067322834645
21
-4.9665477952755905
0
LINE
8
BLACK
6
CONTINUOUS
10
5.0181067322834645
20
-4.9665477952755905
11
5.0218562598425196
21
-4.9627982677165354
0
LINE
8
BLACK
6
CONTINUOUS
10
5.0218562598425196
20
-4.9627982677165354
11
5.0293553149606298
21
-4.9590487401574803
0
LINE
8
BLACK
6
CONTINUOUS
10
5.1043459448818895
20
-4.9590487401574803
11
5.1118450393700785
21
-4.9590487401574803
0
LINE
8
BLACK
6
CONTINUOUS
10
5.1118450393700785
20
-4.9590487401574803
11
5.1193440944881887
21
-4.9627982677165354
0
LINE
8
BLACK
6
CONTINUOUS
10
5.1193440944881887
20
-4.9627982677165354
11
5.1230936220472438
21
-4.9665477952755905
0
LINE
8
BLACK
6
CONTINUOUS
10
5.1230936220472438
20
-4.9665477952755905
11
5.1268431496062989
21
-4.9740468503937008
0
LINE
8
BLACK
6
CONTINUOUS
10
5.1268431496062989
20
-4.9740468503937008
11
5.1305926771653541
21
-4.9890449606299212
0
LINE
8
BLACK
6
CONTINUOUS
10
5.1305926771653541
20
-4.9890449606299212
11
5.1305926771653541
21
-5.0077926377952755
0
LINE
8
BLACK
6
CONTINUOUS
10
5.1305926771653541
20
-5.0077926377952755
11
5.1268431496062989
21
-5.0227907480314959
0
LINE
8
BLACK
6
CONTINUOUS
10
5.1268431496062989
20
-5.0227907480314959
11
5.1230936220472438
21
-5.0302898031496062
0
LINE
8
BLACK
6
CONTINUOUS
10
5.1230936220472438
20
-5.0302898031496062
11
5.1193440944881887
21
-5.03403937007874
0
LINE
8
BLACK
6
CONTINUOUS
10
5.1193440944881887
20
-5.03403937007874
11
5.1118450393700785
21
-5.0377888976377951
0
LINE
8
BLACK
6
CONTINUOUS
10
5.1118450393700785
20
-5.0377888976377951
11
5.1043459448818895
21
-5.0377888976377951
0
LINE
8
BLACK
6
CONTINUOUS
10
5.1043459448818895
20
-5.0377888976377951
11
5.0968468897637793
21
-5.03403937007874
0
LINE
8
BLACK
6
CONTINUOUS
10
5.0968468897637793
20
-5.03403937007874
11
5.0930973622047242
21
-5.0302898031496062
0
LINE
8
BLACK
6
CONTINUOUS
10
5.0930973622047242
20
-5.0302898031496062
11
5.0893478346456691
21
-5.0227907480314959
0
LINE
8
BLACK
6
CONTINUOUS
10
5.0893478346456691
20
-5.0227907480314959
11
5.085598307086614
21
-5.0077926377952755
0
LINE
8
BLACK
6
CONTINUOUS
10
5.085598307086614
20
-5.0077926377952755
11
5.085598307086614
21
-4.9890449606299212
0
LINE
8
BLACK
6
CONTINUOUS
10
5.085598307086614
20
-4.9890449606299212
11
5.0893478346456691
21
-4.9740468503937008
0
LINE
8
BLACK
6
CONTINUOUS
10
5.0893478346456691
20
-4.9740468503937008
11
5.0930973622047242
21
-4.9665477952755905
0
LINE
8
BLACK
6
CONTINUOUS
10
5.0930973622047242
20
-4.9665477952755905
11
5.0968468897637793
21
-4.9627982677165354
0
LINE
8
BLACK
6
CONTINUOUS
10
5.0968468897637793
20
-4.9627982677165354
11
5.1043459448818895
21
-4.9590487401574803
0
LINE
8
BLACK
6
CONTINUOUS
10
5.1643384645669288
20
-5.0377888976377951
11
5.1643384645669288
21
-4.9852954330708661
0
LINE
8
BLACK
6
CONTINUOUS
10
5.1643384645669288
20
-4.9927944881889763
11
5.1680879921259839
21
-4.9890449606299212
0
LINE
8
BLACK
6
CONTINUOUS
10
5.1680879921259839
20
-4.9890449606299212
11
5.1755870472440941
21
-4.9852954330708661
0
LINE
8
BLACK
6
CONTINUOUS
10
5.1755870472440941
20
-4.9852954330708661
11
5.1868356692913382
21
-4.9852954330708661
0
LINE
8
BLACK
6
CONTINUOUS
10
5.1868356692913382
20
-4.9852954330708661
11
5.1943347244094484
21
-4.9890449606299212
0
LINE
8
BLACK
6
CONTINUOUS
10
5.1943347244094484
20
-4.9890449606299212
11
5.1980842519685035
21
-4.9965440551181102
0
LINE
8
BLACK
6
CONTINUOUS
10
5.1980842519685035
20
-4.9965440551181102
11
5.1980842519685035
21
-5.0377888976377951
0
LINE
8
BLACK
6
CONTINUOUS
10
5.1980842519685035
20
-4.9965440551181102
11
5.2018337795275587
21
-4.9890449606299212
0
LINE
8
BLACK
6
CONTINUOUS
10
5.2018337795275587
20
-4.9890449606299212
11
5.2093328346456689
21
-4.9852954330708661
0
LINE
8
BLACK
6
CONTINUOUS
10
5.2093328346456689
20
-4.9852954330708661
11
5.2205814173228342
21
-4.9852954330708661
0
LINE
8
BLACK
6
CONTINUOUS
10
5.2205814173228342
20
-4.9852954330708661
11
5.2280805118110232
21
-4.9890449606299212
0
LINE
8
BLACK
6
CONTINUOUS
10
5.2280805118110232
20
-4.9890449606299212
11
5.2318300393700783
21
-4.9965440551181102
0
LINE
8
BLACK
6
CONTINUOUS
10
5.2318300393700783
20
-4.9965440551181102
11
5.2318300393700783
21
-5.0377888976377951
0
LINE
8
BLACK
6
CONTINUOUS
10
5.2693253543307081
20
-5.0377888976377951
11
5.2693253543307081
21
-4.9852954330708661
0
LINE
8
BLACK
6
CONTINUOUS
10
5.2693253543307081
20
-4.9927944881889763
11
5.2730748818897633
21
-4.9890449606299212
0
LINE
8
BLACK
6
CONTINUOUS
10
5.2730748818897633
20
-4.9890449606299212
11
5.2805739370078735
21
-4.9852954330708661
0
LINE
8
BLACK
6
CONTINUOUS
10
5.2805739370078735
20
-4.9852954330708661
11
5.2918225590551176
21
-4.9852954330708661
0
LINE
8
BLACK
6
CONTINUOUS
10
5.2918225590551176
20
-4.9852954330708661
11
5.2993216141732287
21
-4.9890449606299212
0
LINE
8
BLACK
6
CONTINUOUS
10
5.2993216141732287
20
-4.9890449606299212
11
5.3030711417322838
21
-4.9965440551181102
0
LINE
8
BLACK
6
CONTINUOUS
10
5.3030711417322838
20
-4.9965440551181102
11
5.3030711417322838
21
-5.0377888976377951
0
LINE
8
BLACK
6
CONTINUOUS
10
5.3030711417322838
20
-4.9965440551181102
11
5.3068206692913389
21
-4.9890449606299212
0
LINE
8
BLACK
6
CONTINUOUS
10
5.3068206692913389
20
-4.9890449606299212
11
5.3143197244094491
21
-4.9852954330708661
0
LINE
8
BLACK
6
CONTINUOUS
10
5.3143197244094491
20
-4.9852954330708661
11
5.3255683070866144
21
-4.9852954330708661
0
LINE
8
BLACK
6
CONTINUOUS
10
5.3255683070866144
20
-4.9852954330708661
11
5.3330674015748034
21
-4.9890449606299212
0
LINE
8
BLACK
6
CONTINUOUS
10
5.3330674015748034
20
-4.9890449606299212
11
5.3368169291338585
21
-4.9965440551181102
0
LINE
8
BLACK
6
CONTINUOUS
10
5.3368169291338585
20
-4.9965440551181102
11
5.3368169291338585
21
-5.0377888976377951
0
LINE
8
BLACK
6
CONTINUOUS
10
5.4905477165354331
20
-4.9552992125984252
11
5.4230561811023623
21
-5.0565365354330707
0
LINE
8
BLACK
6
CONTINUOUS
10
5.5917850787401573
20
-4.9590487401574803
11
5.5992841732283463
21
-4.9590487401574803
0
LINE
8
BLACK
6
CONTINUOUS
10
5.5992841732283463
20
-4.9590487401574803
11
5.6067832283464565
21
-4.9627982677165354
0
LINE
8
BLACK
6
CONTINUOUS
10
5.6067832283464565
20
-4.9627982677165354
11
5.6105327559055116
21
-4.9665477952755905
0
LINE
8
BLACK
6
CONTINUOUS
10
5.6105327559055116
20
-4.9665477952755905
11
5.6142822834645667
21
-4.9740468503937008
0
LINE
8
BLACK
6
CONTINUOUS
10
5.6142822834645667
20
-4.9740468503937008
11
5.6180318110236218
21
-4.9890449606299212
0
LINE
8
BLACK
6
CONTINUOUS
10
5.6180318110236218
20
-4.9890449606299212
11
5.6180318110236218
21
-5.0077926377952755
0
LINE
8
BLACK
6
CONTINUOUS
10
5.6180318110236218
20
-5.0077926377952755
11
5.6142822834645667
21
-5.0227907480314959
0
LINE
8
BLACK
6
CONTINUOUS
10
5.6142822834645667
20
-5.0227907480314959
11
5.6105327559055116
21
-5.0302898031496062
0
LINE
8
BLACK
6
CONTINUOUS
10
5.6105327559055116
20
-5.0302898031496062
11
5.6067832283464565
21
-5.03403937007874
0
LINE
8
BLACK
6
CONTINUOUS
10
5.6067832283464565
20
-5.03403937007874
11
5.5992841732283463
21
-5.0377888976377951
0
LINE
8
BLACK
6
CONTINUOUS
10
5.5992841732283463
20
-5.0377888976377951
11
5.5917850787401573
21
-5.0377888976377951
0
LINE
8
BLACK
6
CONTINUOUS
10
5.5917850787401573
20
-5.0377888976377951
11
5.5842860236220471
21
-5.03403937007874
0
LINE
8
BLACK
6
CONTINUOUS
10
5.5842860236220471
20
-5.03403937007874
11
5.580536496062992
21
-5.0302898031496062
0
LINE
8
BLACK
6
CONTINUOUS
10
5.580536496062992
20
-5.0302898031496062
11
5.5767869685039368
21
-5.0227907480314959
0
LINE
8
BLACK
6
CONTINUOUS
10
5.5767869685039368
20
-5.0227907480314959
11
5.5730374409448817
21
-5.0077926377952755
0
LINE
8
BLACK
6
CONTINUOUS
10
5.5730374409448817
20
-5.0077926377952755
11
5.5730374409448817
21
-4.9890449606299212
0
LINE
8
BLACK
6
CONTINUOUS
10
5.5730374409448817
20
-4.9890449606299212
11
5.5767869685039368
21
-4.9740468503937008
0
LINE
8
BLACK
6
CONTINUOUS
10
5.5767869685039368
20
-4.9740468503937008
11
5.580536496062992
21
-4.9665477952755905
0
LINE
8
BLACK
6
CONTINUOUS
10
5.580536496062992
20
-4.9665477952755905
11
5.5842860236220471
21
-4.9627982677165354
0
LINE
8
BLACK
6
CONTINUOUS
10
5.5842860236220471
20
-4.9627982677165354
11
5.5917850787401573
21
-4.9590487401574803
0
LINE
8
BLACK
6
CONTINUOUS
10
5.6517775984251966
20
-5.0302898031496062
11
5.6555271259842517
21
-5.03403937007874
0
LINE
8
BLACK
6
CONTINUOUS
10
5.6555271259842517
20
-5.03403937007874
11
5.6517775984251966
21
-5.0377888976377951
0
LINE
8
BLACK
6
CONTINUOUS
10
5.6517775984251966
20
-5.0377888976377951
11
5.6480280708661414
21
-5.03403937007874
0
LINE
8
BLACK
6
CONTINUOUS
10
5.6480280708661414
20
-5.03403937007874
11
5.6517775984251966
21
-5.0302898031496062
0
LINE
8
BLACK
6
CONTINUOUS
10
5.6517775984251966
20
-5.0302898031496062
11
5.6517775984251966
21
-5.0377888976377951
0
LINE
8
BLACK
6
CONTINUOUS
10
5.7042710236220469
20
-4.9590487401574803
11
5.7117701181102358
21
-4.9590487401574803
0
LINE
8
BLACK
6
CONTINUOUS
10
5.7117701181102358
20
-4.9590487401574803
11
5.719269173228346
21
-4.9627982677165354
0
LINE
8
BLACK
6
CONTINUOUS
10
5.719269173228346
20
-4.9627982677165354
11
5.7230187007874012
21
-4.9665477952755905
0
LINE
8
BLACK
6
CONTINUOUS
10
5.7230187007874012
20
-4.9665477952755905
11
5.7267682283464563
21
-4.9740468503937008
0
LINE
8
BLACK
6
CONTINUOUS
10
5.7267682283464563
20
-4.9740468503937008
11
5.7305177559055114
21
-4.9890449606299212
0
LINE
8
BLACK
6
CONTINUOUS
10
5.7305177559055114
20
-4.9890449606299212
11
5.7305177559055114
21
-5.0077926377952755
0
LINE
8
BLACK
6
CONTINUOUS
10
5.7305177559055114
20
-5.0077926377952755
11
5.7267682283464563
21
-5.0227907480314959
0
LINE
8
BLACK
6
CONTINUOUS
10
5.7267682283464563
20
-5.0227907480314959
11
5.7230187007874012
21
-5.0302898031496062
0
LINE
8
BLACK
6
CONTINUOUS
10
5.7230187007874012
20
-5.0302898031496062
11
5.719269173228346
21
-5.03403937007874
0
LINE
8
BLACK
6
CONTINUOUS
10
5.719269173228346
20
-5.03403937007874
11
5.7117701181102358
21
-5.0377888976377951
0
LINE
8
BLACK
6
CONTINUOUS
10
5.7117701181102358
20
-5.0377888976377951
11
5.7042710236220469
21
-5.0377888976377951
0
LINE
8
BLACK
6
CONTINUOUS
10
5.7042710236220469
20
-5.0377888976377951
11
5.6967719685039366
21
-5.03403937007874
0
LINE
8
BLACK
6
CONTINUOUS
10
5.6967719685039366
20
-5.03403937007874
11
5.6930224409448815
21
-5.0302898031496062
0
LINE
8
BLACK
6
CONTINUOUS
10
5.6930224409448815
20
-5.0302898031496062
11
5.6892729133858264
21
-5.0227907480314959
0
LINE
8
BLACK
6
CONTINUOUS
10
5.6892729133858264
20
-5.0227907480314959
11
5.6855233858267713
21
-5.0077926377952755
0
LINE
8
BLACK
6
CONTINUOUS
10
5.6855233858267713
20
-5.0077926377952755
11
5.6855233858267713
21
-4.9890449606299212
0
LINE
8
BLACK
6
CONTINUOUS
10
5.6855233858267713
20
-4.9890449606299212
11
5.6892729133858264
21
-4.9740468503937008
0
LINE
8
BLACK
6
CONTINUOUS
10
5.6892729133858264
20
-4.9740468503937008
11
5.6930224409448815
21
-4.9665477952755905
0
LINE
8
BLACK
6
CONTINUOUS
10
5.6930224409448815
20
-4.9665477952755905
11
5.6967719685039366
21
-4.9627982677165354
0
LINE
8
BLACK
6
CONTINUOUS
10
5.6967719685039366
20
-4.9627982677165354
11
5.7042710236220469
21
-4.9590487401574803
0
LINE
8
BLACK
6
CONTINUOUS
10
5.7755121259842515
20
-4.9927944881889763
11
5.7680130708661412
21
-4.9890449606299212
0
LINE
8
BLACK
6
CONTINUOUS
10
5.7680130708661412
20
-4.9890449606299212
11
5.7642635433070861
21
-4.9852954330708661
0
LINE
8
BLACK
6
CONTINUOUS
10
5.7642635433070861
20
-4.9852954330708661
11
5.760514015748031
21
-4.9777963779527559
0
LINE
8
BLACK
6
CONTINUOUS
10
5.760514015748031
20
-4.9777963779527559
11
5.760514015748031
21
-4.9740468503937008
0
LINE
8
BLACK
6
CONTINUOUS
10
5.760514015748031
20
-4.9740468503937008
11
5.7642635433070861
21
-4.9665477952755905
0
LINE
8
BLACK
6
CONTINUOUS
10
5.7642635433070861
20
-4.9665477952755905
11
5.7680130708661412
21
-4.9627982677165354
0
LINE
8
BLACK
6
CONTINUOUS
10
5.7680130708661412
20
-4.9627982677165354
11
5.7755121259842515
21
-4.9590487401574803
0
LINE
8
BLACK
6
CONTINUOUS
10
5.7755121259842515
20
-4.9590487401574803
11
5.7905102755905506
21
-4.9590487401574803
0
LINE
8
BLACK
6
CONTINUOUS
10
5.7905102755905506
20
-4.9590487401574803
11
5.7980093307086609
21
-4.9627982677165354
0
LINE
8
BLACK
6
CONTINUOUS
10
5.7980093307086609
20
-4.9627982677165354
11
5.801758858267716
21
-4.9665477952755905
0
LINE
8
BLACK
6
CONTINUOUS
10
5.801758858267716
20
-4.9665477952755905
11
5.8055083858267711
21
-4.9740468503937008
0
LINE
8
BLACK
6
CONTINUOUS
10
5.8055083858267711
20
-4.9740468503937008
11
5.8055083858267711
21
-4.9777963779527559
0
LINE
8
BLACK
6
CONTINUOUS
10
5.8055083858267711
20
-4.9777963779527559
11
5.801758858267716
21
-4.9852954330708661
0
LINE
8
BLACK
6
CONTINUOUS
10
5.801758858267716
20
-4.9852954330708661
11
5.7980093307086609
21
-4.9890449606299212
0
LINE
8
BLACK
6
CONTINUOUS
10
5.7980093307086609
20
-4.9890449606299212
11
5.7905102755905506
21
-4.9927944881889763
0
LINE
8
BLACK
6
CONTINUOUS
10
5.7905102755905506
20
-4.9927944881889763
11
5.7755121259842515
21
-4.9927944881889763
0
LINE
8
BLACK
6
CONTINUOUS
10
5.7755121259842515
20
-4.9927944881889763
11
5.7680130708661412
21
-4.9965440551181102
0
LINE
8
BLACK
6
CONTINUOUS
10
5.7680130708661412
20
-4.9965440551181102
11
5.7642635433070861
21
-5.0002935826771653
0
LINE
8
BLACK
6
CONTINUOUS
10
5.7642635433070861
20
-5.0002935826771653
11
5.760514015748031
21
-5.0077926377952755
0
LINE
8
BLACK
6
CONTINUOUS
10
5.760514015748031
20
-5.0077926377952755
11
5.760514015748031
21
-5.0227907480314959
0
LINE
8
BLACK
6
CONTINUOUS
10
5.760514015748031
20
-5.0227907480314959
11
5.7642635433070861
21
-5.0302898031496062
0
LINE
8
BLACK
6
CONTINUOUS
10
5.7642635433070861
20
-5.0302898031496062
11
5.7680130708661412
21
-5.03403937007874
0
LINE
8
BLACK
6
CONTINUOUS
10
5.7680130708661412
20
-5.03403937007874
11
5.7755121259842515
21
-5.0377888976377951
0
LINE
8
BLACK
6
CONTINUOUS
10
5.7755121259842515
20
-5.0377888976377951
11
5.7905102755905506
21
-5.0377888976377951
0
LINE
8
BLACK
6
CONTINUOUS
10
5.7905102755905506
20
-5.0377888976377951
11
5.7980093307086609
21
-5.03403937007874
0
LINE
8
BLACK
6
CONTINUOUS
10
5.7980093307086609
20
-5.03403937007874
11
5.801758858267716
21
-5.0302898031496062
0
LINE
8
BLACK
6
CONTINUOUS
10
5.801758858267716
20
-5.0302898031496062
11
5.8055083858267711
21
-5.0227907480314959
0
LINE
8
BLACK
6
CONTINUOUS
10
5.8055083858267711
20
-5.0227907480314959
11
5.8055083858267711
21
-5.0077926377952755
0
LINE
8
BLACK
6
CONTINUOUS
10
5.8055083858267711
20
-5.0077926377952755
11
5.801758858267716
21
-5.0002935826771653
0
LINE
8
BLACK
6
CONTINUOUS
10
5.801758858267716
20
-5.0002935826771653
11
5.7980093307086609
21
-4.9965440551181102
0
LINE
8
BLACK
6
CONTINUOUS
10
5.7980093307086609
20
-4.9965440551181102
11
5.7905102755905506
21
-4.9927944881889763
0
LINE
8
BLACK
6
CONTINUOUS
10
5.8729999606299215
20
-4.9590487401574803
11
5.8580018110236223
21
-4.9590487401574803
0
LINE
8
BLACK
6
CONTINUOUS
10
5.8580018110236223
20
-4.9590487401574803
11
5.8505027559055121
21
-4.9627982677165354
0
LINE
8
BLACK
6
CONTINUOUS
10
5.8505027559055121
20
-4.9627982677165354
11
5.8467532283464569
21
-4.9665477952755905
0
LINE
8
BLACK
6
CONTINUOUS
10
5.8467532283464569
20
-4.9665477952755905
11
5.8392541732283467
21
-4.9777963779527559
0
LINE
8
BLACK
6
CONTINUOUS
10
5.8392541732283467
20
-4.9777963779527559
11
5.8355046456692916
21
-4.9927944881889763
0
LINE
8
BLACK
6
CONTINUOUS
10
5.8355046456692916
20
-4.9927944881889763
11
5.8355046456692916
21
-5.0227907480314959
0
LINE
8
BLACK
6
CONTINUOUS
10
5.8355046456692916
20
-5.0227907480314959
11
5.8392541732283467
21
-5.0302898031496062
0
LINE
8
BLACK
6
CONTINUOUS
10
5.8392541732283467
20
-5.0302898031496062
11
5.8430037007874018
21
-5.03403937007874
0
LINE
8
BLACK
6
CONTINUOUS
10
5.8430037007874018
20
-5.03403937007874
11
5.8505027559055121
21
-5.0377888976377951
0
LINE
8
BLACK
6
CONTINUOUS
10
5.8505027559055121
20
-5.0377888976377951
11
5.8655009055118112
21
-5.0377888976377951
0
LINE
8
BLACK
6
CONTINUOUS
10
5.8655009055118112
20
-5.0377888976377951
11
5.8729999606299215
21
-5.03403937007874
0
LINE
8
BLACK
6
CONTINUOUS
10
5.8729999606299215
20
-5.03403937007874
11
5.8767494881889766
21
-5.0302898031496062
0
LINE
8
BLACK
6
CONTINUOUS
10
5.8767494881889766
20
-5.0302898031496062
11
5.8804990157480317
21
-5.0227907480314959
0
LINE
8
BLACK
6
CONTINUOUS
10
5.8804990157480317
20
-5.0227907480314959
11
5.8804990157480317
21
-5.0040431102362204
0
LINE
8
BLACK
6
CONTINUOUS
10
5.8804990157480317
20
-5.0040431102362204
11
5.8767494881889766
21
-4.9965440551181102
0
LINE
8
BLACK
6
CONTINUOUS
10
5.8767494881889766
20
-4.9965440551181102
11
5.8729999606299215
21
-4.9927944881889763
0
LINE
8
BLACK
6
CONTINUOUS
10
5.8729999606299215
20
-4.9927944881889763
11
5.8655009055118112
21
-4.9890449606299212
0
LINE
8
BLACK
6
CONTINUOUS
10
5.8655009055118112
20
-4.9890449606299212
11
5.8505027559055121
21
-4.9890449606299212
0
LINE
8
BLACK
6
CONTINUOUS
10
5.8505027559055121
20
-4.9890449606299212
11
5.8430037007874018
21
-4.9927944881889763
0
LINE
8
BLACK
6
CONTINUOUS
10
5.8430037007874018
20
-4.9927944881889763
11
5.8392541732283467
21
-4.9965440551181102
0
LINE
8
BLACK
6
CONTINUOUS
10
5.8392541732283467
20
-4.9965440551181102
11
5.8355046456692916
21
-5.0040431102362204
0
LINE
8
BLACK
6
CONTINUOUS
10
5.9479905905511812
20
-4.9590487401574803
11
5.932992440944882
21
-4.9590487401574803
0
LINE
8
BLACK
6
CONTINUOUS
10
5.932992440944882
20
-4.9590487401574803
11
5.9254933858267718
21
-4.9627982677165354
0
LINE
8
BLACK
6
CONTINUOUS
10
5.9254933858267718
20
-4.9627982677165354
11
5.9217438582677167
21
-4.9665477952755905
0
LINE
8
BLACK
6
CONTINUOUS
10
5.9217438582677167
20
-4.9665477952755905
11
5.9142448031496064
21
-4.9777963779527559
0
LINE
8
BLACK
6
CONTINUOUS
10
5.9142448031496064
20
-4.9777963779527559
11
5.9104952755905513
21
-4.9927944881889763
0
LINE
8
BLACK
6
CONTINUOUS
10
5.9104952755905513
20
-4.9927944881889763
11
5.9104952755905513
21
-5.0227907480314959
0
LINE
8
BLACK
6
CONTINUOUS
10
5.9104952755905513
20
-5.0227907480314959
11
5.9142448031496064
21
-5.0302898031496062
0
LINE
8
BLACK
6
CONTINUOUS
10
5.9142448031496064
20
-5.0302898031496062
11
5.9179943307086615
21
-5.03403937007874
0
LINE
8
BLACK
6
CONTINUOUS
10
5.9179943307086615
20
-5.03403937007874
11
5.9254933858267718
21
-5.0377888976377951
0
LINE
8
BLACK
6
CONTINUOUS
10
5.9254933858267718
20
-5.0377888976377951
11
5.940491535433071
21
-5.0377888976377951
0
LINE
8
BLACK
6
CONTINUOUS
10
5.940491535433071
20
-5.0377888976377951
11
5.9479905905511812
21
-5.03403937007874
0
LINE
8
BLACK
6
CONTINUOUS
10
5.9479905905511812
20
-5.03403937007874
11
5.9517401181102363
21
-5.0302898031496062
0
LINE
8
BLACK
6
CONTINUOUS
10
5.9517401181102363
20
-5.0302898031496062
11
5.9554896456692914
21
-5.0227907480314959
0
LINE
8
BLACK
6
CONTINUOUS
10
5.9554896456692914
20
-5.0227907480314959
11
5.9554896456692914
21
-5.0040431102362204
0
LINE
8
BLACK
6
CONTINUOUS
10
5.9554896456692914
20
-5.0040431102362204
11
5.9517401181102363
21
-4.9965440551181102
0
LINE
8
BLACK
6
CONTINUOUS
10
5.9517401181102363
20
-4.9965440551181102
11
5.9479905905511812
21
-4.9927944881889763
0
LINE
8
BLACK
6
CONTINUOUS
10
5.9479905905511812
20
-4.9927944881889763
11
5.940491535433071
21
-4.9890449606299212
0
LINE
8
BLACK
6
CONTINUOUS
10
5.940491535433071
20
-4.9890449606299212
11
5.9254933858267718
21
-4.9890449606299212
0
LINE
8
BLACK
6
CONTINUOUS
10
5.9254933858267718
20
-4.9890449606299212
11
5.9179943307086615
21
-4.9927944881889763
0
LINE
8
BLACK
6
CONTINUOUS
10
5.9179943307086615
20
-4.9927944881889763
11
5.9142448031496064
21
-4.9965440551181102
0
LINE
8
BLACK
6
CONTINUOUS
10
5.9142448031496064
20
-4.9965440551181102
11
5.9104952755905513
21
-5.0040431102362204
0
LINE
8
BLACK
6
CONTINUOUS
10
5.985485905511811
20
-4.9590487401574803
11
5.985485905511811
21
-4.9740468503937008
0
LINE
8
BLACK
6
CONTINUOUS
10
6.0154821653543307
20
-4.9590487401574803
11
6.0154821653543307
21
-4.9740468503937008
0
LINE
8
BLACK
6
CONTINUOUS
10
6.1317176771653541
20
-5.067785118110236
11
6.1279681102362202
21
-5.0640355905511809
0
LINE
8
BLACK
6
CONTINUOUS
10
6.1279681102362202
20
-5.0640355905511809
11
6.12046905511811
21
-5.0527870078740156
0
LINE
8
BLACK
6
CONTINUOUS
10
6.12046905511811
20
-5.0527870078740156
11
6.1167195275590549
21
-5.0452879527559054
0
LINE
8
BLACK
6
CONTINUOUS
10
6.1167195275590549
20
-5.0452879527559054
11
6.1129699999999998
21
-5.03403937007874
0
LINE
8
BLACK
6
CONTINUOUS
10
6.1129699999999998
20
-5.03403937007874
11
6.1092204724409447
21
-5.0152916929133857
0
LINE
8
BLACK
6
CONTINUOUS
10
6.1092204724409447
20
-5.0152916929133857
11
6.1092204724409447
21
-5.0002935826771653
0
LINE
8
BLACK
6
CONTINUOUS
10
6.1092204724409447
20
-5.0002935826771653
11
6.1129699999999998
21
-4.981545905511811
0
LINE
8
BLACK
6
CONTINUOUS
10
6.1129699999999998
20
-4.981545905511811
11
6.1167195275590549
21
-4.9702973228346456
0
LINE
8
BLACK
6
CONTINUOUS
10
6.1167195275590549
20
-4.9702973228346456
11
6.12046905511811
21
-4.9627982677165354
0
LINE
8
BLACK
6
CONTINUOUS
10
6.12046905511811
20
-4.9627982677165354
11
6.1279681102362202
21
-4.9515496456692913
0
LINE
8
BLACK
6
CONTINUOUS
10
6.1279681102362202
20
-4.9515496456692913
11
6.1317176771653541
21
-4.9478001181102362
0
LINE
8
BLACK
6
CONTINUOUS
10
6.1954596850393697
20
-4.9852954330708661
11
6.1954596850393697
21
-5.0377888976377951
0
LINE
8
BLACK
6
CONTINUOUS
10
6.1767120078740154
20
-4.9552992125984252
11
6.1579643700787399
21
-5.0115421653543306
0
LINE
8
BLACK
6
CONTINUOUS
10
6.1579643700787399
20
-5.0115421653543306
11
6.2067082677165351
21
-5.0115421653543306
0
LINE
8
BLACK
6
CONTINUOUS
10
6.296697047244094
20
-5.0377888976377951
11
6.296697047244094
21
-4.9590487401574803
0
LINE
8
BLACK
6
CONTINUOUS
10
6.3304428346456687
20
-5.0377888976377951
11
6.3304428346456687
21
-4.9965440551181102
0
LINE
8
BLACK
6
CONTINUOUS
10
6.3304428346456687
20
-4.9965440551181102
11
6.3266933070866136
21
-4.9890449606299212
0
LINE
8
BLACK
6
CONTINUOUS
10
6.3266933070866136
20
-4.9890449606299212
11
6.3191942519685034
21
-4.9852954330708661
0
LINE
8
BLACK
6
CONTINUOUS
10
6.3191942519685034
20
-4.9852954330708661
11
6.3079456299212593
21
-4.9852954330708661
0
LINE
8
BLACK
6
CONTINUOUS
10
6.3079456299212593
20
-4.9852954330708661
11
6.3004465748031491
21
-4.9890449606299212
0
LINE
8
BLACK
6
CONTINUOUS
10
6.3004465748031491
20
-4.9890449606299212
11
6.296697047244094
21
-4.9927944881889763
0
LINE
8
BLACK
6
CONTINUOUS
10
6.3791867322834648
20
-5.0377888976377951
11
6.3716876771653546
21
-5.03403937007874
0
LINE
8
BLACK
6
CONTINUOUS
10
6.3716876771653546
20
-5.03403937007874
11
6.3679381496062994
21
-5.0302898031496062
0
LINE
8
BLACK
6
CONTINUOUS
10
6.3679381496062994
20
-5.0302898031496062
11
6.3641886220472443
21
-5.0227907480314959
0
LINE
8
BLACK
6
CONTINUOUS
10
6.3641886220472443
20
-5.0227907480314959
11
6.3641886220472443
21
-5.0002935826771653
0
LINE
8
BLACK
6
CONTINUOUS
10
6.3641886220472443
20
-5.0002935826771653
11
6.3679381496062994
21
-4.9927944881889763
0
LINE
8
BLACK
6
CONTINUOUS
10
6.3679381496062994
20
-4.9927944881889763
11
6.3716876771653546
21
-4.9890449606299212
0
LINE
8
BLACK
6
CONTINUOUS
10
6.3716876771653546
20
-4.9890449606299212
11
6.3791867322834648
21
-4.9852954330708661
0
LINE
8
BLACK
6
CONTINUOUS
10
6.3791867322834648
20
-4.9852954330708661
11
6.3904353543307089
21
-4.9852954330708661
0
LINE
8
BLACK
6
CONTINUOUS
10
6.3904353543307089
20
-4.9852954330708661
11
6.3979344094488191
21
-4.9890449606299212
0
LINE
8
BLACK
6
CONTINUOUS
10
6.3979344094488191
20
-4.9890449606299212
11
6.4016839370078742
21
-4.9927944881889763
0
LINE
8
BLACK
6
CONTINUOUS
10
6.4016839370078742
20
-4.9927944881889763
11
6.4054334645669293
21
-5.0002935826771653
0
LINE
8
BLACK
6
CONTINUOUS
10
6.4054334645669293
20
-5.0002935826771653
11
6.4054334645669293
21
-5.0227907480314959
0
LINE
8
BLACK
6
CONTINUOUS
10
6.4054334645669293
20
-5.0227907480314959
11
6.4016839370078742
21
-5.0302898031496062
0
LINE
8
BLACK
6
CONTINUOUS
10
6.4016839370078742
20
-5.0302898031496062
11
6.3979344094488191
21
-5.03403937007874
0
LINE
8
BLACK
6
CONTINUOUS
10
6.3979344094488191
20
-5.03403937007874
11
6.3904353543307089
21
-5.0377888976377951
0
LINE
8
BLACK
6
CONTINUOUS
10
6.3904353543307089
20
-5.0377888976377951
11
6.3791867322834648
21
-5.0377888976377951
0
LINE
8
BLACK
6
CONTINUOUS
10
6.4504278346456694
20
-5.0377888976377951
11
6.4429287795275592
21
-5.03403937007874
0
LINE
8
BLACK
6
CONTINUOUS
10
6.4429287795275592
20
-5.03403937007874
11
6.439179251968504
21
-5.0265402755905511
0
LINE
8
BLACK
6
CONTINUOUS
10
6.439179251968504
20
-5.0265402755905511
11
6.439179251968504
21
-4.9590487401574803
0
LINE
8
BLACK
6
CONTINUOUS
10
6.5104203543307086
20
-5.03403937007874
11
6.5029212992125984
21
-5.0377888976377951
0
LINE
8
BLACK
6
CONTINUOUS
10
6.5029212992125984
20
-5.0377888976377951
11
6.4879231496062992
21
-5.0377888976377951
0
LINE
8
BLACK
6
CONTINUOUS
10
6.4879231496062992
20
-5.0377888976377951
11
6.480424094488189
21
-5.03403937007874
0
LINE
8
BLACK
6
CONTINUOUS
10
6.480424094488189
20
-5.03403937007874
11
6.4766745669291339
21
-5.0265402755905511
0
LINE
8
BLACK
6
CONTINUOUS
10
6.4766745669291339
20
-5.0265402755905511
11
6.4766745669291339
21
-4.9965440551181102
0
LINE
8
BLACK
6
CONTINUOUS
10
6.4766745669291339
20
-4.9965440551181102
11
6.480424094488189
21
-4.9890449606299212
0
LINE
8
BLACK
6
CONTINUOUS
10
6.480424094488189
20
-4.9890449606299212
11
6.4879231496062992
21
-4.9852954330708661
0
LINE
8
BLACK
6
CONTINUOUS
10
6.4879231496062992
20
-4.9852954330708661
11
6.5029212992125984
21
-4.9852954330708661
0
LINE
8
BLACK
6
CONTINUOUS
10
6.5029212992125984
20
-4.9852954330708661
11
6.5104203543307086
21
-4.9890449606299212
0
LINE
8
BLACK
6
CONTINUOUS
10
6.5104203543307086
20
-4.9890449606299212
11
6.5141698818897638
21
-4.9965440551181102
0
LINE
8
BLACK
6
CONTINUOUS
10
6.5141698818897638
20
-4.9965440551181102
11
6.5141698818897638
21
-5.0040431102362204
0
LINE
8
BLACK
6
CONTINUOUS
10
6.5141698818897638
20
-5.0040431102362204
11
6.4766745669291339
21
-5.0115421653543306
0
LINE
8
BLACK
6
CONTINUOUS
10
6.5441661417322834
20
-5.03403937007874
11
6.5516651968503936
21
-5.0377888976377951
0
LINE
8
BLACK
6
CONTINUOUS
10
6.5516651968503936
20
-5.0377888976377951
11
6.5666633070866141
21
-5.0377888976377951
0
LINE
8
BLACK
6
CONTINUOUS
10
6.5666633070866141
20
-5.0377888976377951
11
6.574162401574803
21
-5.03403937007874
0
LINE
8
BLACK
6
CONTINUOUS
10
6.574162401574803
20
-5.03403937007874
11
6.5779119291338581
21
-5.0265402755905511
0
LINE
8
BLACK
6
CONTINUOUS
10
6.5779119291338581
20
-5.0265402755905511
11
6.5779119291338581
21
-5.0227907480314959
0
LINE
8
BLACK
6
CONTINUOUS
10
6.5779119291338581
20
-5.0227907480314959
11
6.574162401574803
21
-5.0152916929133857
0
LINE
8
BLACK
6
CONTINUOUS
10
6.574162401574803
20
-5.0152916929133857
11
6.5666633070866141
21
-5.0115421653543306
0
LINE
8
BLACK
6
CONTINUOUS
10
6.5666633070866141
20
-5.0115421653543306
11
6.5554147244094487
21
-5.0115421653543306
0
LINE
8
BLACK
6
CONTINUOUS
10
6.5554147244094487
20
-5.0115421653543306
11
6.5479156692913385
21
-5.0077926377952755
0
LINE
8
BLACK
6
CONTINUOUS
10
6.5479156692913385
20
-5.0077926377952755
11
6.5441661417322834
21
-5.0002935826771653
0
LINE
8
BLACK
6
CONTINUOUS
10
6.5441661417322834
20
-5.0002935826771653
11
6.5441661417322834
21
-4.9965440551181102
0
LINE
8
BLACK
6
CONTINUOUS
10
6.5441661417322834
20
-4.9965440551181102
11
6.5479156692913385
21
-4.9890449606299212
0
LINE
8
BLACK
6
CONTINUOUS
10
6.5479156692913385
20
-4.9890449606299212
11
6.5554147244094487
21
-4.9852954330708661
0
LINE
8
BLACK
6
CONTINUOUS
10
6.5554147244094487
20
-4.9852954330708661
11
6.5666633070866141
21
-4.9852954330708661
0
LINE
8
BLACK
6
CONTINUOUS
10
6.5666633070866141
20
-4.9852954330708661
11
6.574162401574803
21
-4.9890449606299212
0
LINE
8
BLACK
6
CONTINUOUS
10
6.6041586614173227
20
-5.067785118110236
11
6.6079081889763778
21
-5.0640355905511809
0
LINE
8
BLACK
6
CONTINUOUS
10
6.6079081889763778
20
-5.0640355905511809
11
6.615407244094488
21
-5.0527870078740156
0
LINE
8
BLACK
6
CONTINUOUS
10
6.615407244094488
20
-5.0527870078740156
11
6.6191567716535431
21
-5.0452879527559054
0
LINE
8
BLACK
6
CONTINUOUS
10
6.6191567716535431
20
-5.0452879527559054
11
6.6229062992125982
21
-5.03403937007874
0
LINE
8
BLACK
6
CONTINUOUS
10
6.6229062992125982
20
-5.03403937007874
11
6.6266558267716533
21
-5.0152916929133857
0
LINE
8
BLACK
6
CONTINUOUS
10
6.6266558267716533
20
-5.0152916929133857
11
6.6266558267716533
21
-5.0002935826771653
0
LINE
8
BLACK
6
CONTINUOUS
10
6.6266558267716533
20
-5.0002935826771653
11
6.6229062992125982
21
-4.981545905511811
0
LINE
8
BLACK
6
CONTINUOUS
10
6.6229062992125982
20
-4.981545905511811
11
6.6191567716535431
21
-4.9702973228346456
0
LINE
8
BLACK
6
CONTINUOUS
10
6.6191567716535431
20
-4.9702973228346456
11
6.615407244094488
21
-4.9627982677165354
0
LINE
8
BLACK
6
CONTINUOUS
10
6.615407244094488
20
-4.9627982677165354
11
6.6079081889763778
21
-4.9515496456692913
0
LINE
8
BLACK
6
CONTINUOUS
10
6.6079081889763778
20
-4.9515496456692913
11
6.6041586614173227
21
-4.9478001181102362
0
LINE
8
BLACK
6
CONTINUOUS
10
6.7466408661417319
20
-5.067785118110236
11
6.742891299212598
21
-5.0640355905511809
0
LINE
8
BLACK
6
CONTINUOUS
10
6.742891299212598
20
-5.0640355905511809
11
6.7353922440944878
21
-5.0527870078740156
0
LINE
8
BLACK
6
CONTINUOUS
10
6.7353922440944878
20
-5.0527870078740156
11
6.7316427165354327
21
-5.0452879527559054
0
LINE
8
BLACK
6
CONTINUOUS
10
6.7316427165354327
20
-5.0452879527559054
11
6.7278931889763776
21
-5.03403937007874
0
LINE
8
BLACK
6
CONTINUOUS
10
6.7278931889763776
20
-5.03403937007874
11
6.7241436614173224
21
-5.0152916929133857
0
LINE
8
BLACK
6
CONTINUOUS
10
6.7241436614173224
20
-5.0152916929133857
11
6.7241436614173224
21
-5.0002935826771653
0
LINE
8
BLACK
6
CONTINUOUS
10
6.7241436614173224
20
-5.0002935826771653
11
6.7278931889763776
21
-4.981545905511811
0
LINE
8
BLACK
6
CONTINUOUS
10
6.7278931889763776
20
-4.981545905511811
11
6.7316427165354327
21
-4.9702973228346456
0
LINE
8
BLACK
6
CONTINUOUS
10
6.7316427165354327
20
-4.9702973228346456
11
6.7353922440944878
21
-4.9627982677165354
0
LINE
8
BLACK
6
CONTINUOUS
10
6.7353922440944878
20
-4.9627982677165354
11
6.742891299212598
21
-4.9515496456692913
0
LINE
8
BLACK
6
CONTINUOUS
10
6.742891299212598
20
-4.9515496456692913
11
6.7466408661417319
21
-4.9478001181102362
0
LINE
8
BLACK
6
CONTINUOUS
10
6.7766370866141727
20
-4.9852954330708661
11
6.7766370866141727
21
-5.0377888976377951
0
LINE
8
BLACK
6
CONTINUOUS
10
6.7766370866141727
20
-4.9927944881889763
11
6.7803866141732279
21
-4.9890449606299212
0
LINE
8
BLACK
6
CONTINUOUS
10
6.7803866141732279
20
-4.9890449606299212
11
6.7878856692913381
21
-4.9852954330708661
0
LINE
8
BLACK
6
CONTINUOUS
10
6.7878856692913381
20
-4.9852954330708661
11
6.7991342913385822
21
-4.9852954330708661
0
LINE
8
BLACK
6
CONTINUOUS
10
6.7991342913385822
20
-4.9852954330708661
11
6.8066333464566924
21
-4.9890449606299212
0
LINE
8
BLACK
6
CONTINUOUS
10
6.8066333464566924
20
-4.9890449606299212
11
6.8103828740157475
21
-4.9965440551181102
0
LINE
8
BLACK
6
CONTINUOUS
10
6.8103828740157475
20
-4.9965440551181102
11
6.8103828740157475
21
-5.0377888976377951
0
LINE
8
BLACK
6
CONTINUOUS
10
6.8591267716535436
20
-5.0377888976377951
11
6.8516277165354333
21
-5.03403937007874
0
LINE
8
BLACK
6
CONTINUOUS
10
6.8516277165354333
20
-5.03403937007874
11
6.8478781889763782
21
-5.0302898031496062
0
LINE
8
BLACK
6
CONTINUOUS
10
6.8478781889763782
20
-5.0302898031496062
11
6.8441286614173231
21
-5.0227907480314959
0
LINE
8
BLACK
6
CONTINUOUS
10
6.8441286614173231
20
-5.0227907480314959
11
6.8441286614173231
21
-5.0002935826771653
0
LINE
8
BLACK
6
CONTINUOUS
10
6.8441286614173231
20
-5.0002935826771653
11
6.8478781889763782
21
-4.9927944881889763
0
LINE
8
BLACK
6
CONTINUOUS
10
6.8478781889763782
20
-4.9927944881889763
11
6.8516277165354333
21
-4.9890449606299212
0
LINE
8
BLACK
6
CONTINUOUS
10
6.8516277165354333
20
-4.9890449606299212
11
6.8591267716535436
21
-4.9852954330708661
0
LINE
8
BLACK
6
CONTINUOUS
10
6.8591267716535436
20
-4.9852954330708661
11
6.8703753937007876
21
-4.9852954330708661
0
LINE
8
BLACK
6
CONTINUOUS
10
6.8703753937007876
20
-4.9852954330708661
11
6.8778744488188979
21
-4.9890449606299212
0
LINE
8
BLACK
6
CONTINUOUS
10
6.8778744488188979
20
-4.9890449606299212
11
6.881623976377953
21
-4.9927944881889763
0
LINE
8
BLACK
6
CONTINUOUS
10
6.881623976377953
20
-4.9927944881889763
11
6.8853735039370081
21
-5.0002935826771653
0
LINE
8
BLACK
6
CONTINUOUS
10
6.8853735039370081
20
-5.0002935826771653
11
6.8853735039370081
21
-5.0227907480314959
0
LINE
8
BLACK
6
CONTINUOUS
10
6.8853735039370081
20
-5.0227907480314959
11
6.881623976377953
21
-5.0302898031496062
0
LINE
8
BLACK
6
CONTINUOUS
10
6.881623976377953
20
-5.0302898031496062
11
6.8778744488188979
21
-5.03403937007874
0
LINE
8
BLACK
6
CONTINUOUS
10
6.8778744488188979
20
-5.03403937007874
11
6.8703753937007876
21
-5.0377888976377951
0
LINE
8
BLACK
6
CONTINUOUS
10
6.8703753937007876
20
-5.0377888976377951
11
6.8591267716535436
21
-5.0377888976377951
0
LINE
8
BLACK
6
CONTINUOUS
10
6.9078707086614175
20
-4.9852954330708661
11
6.9378669291338584
21
-4.9852954330708661
0
LINE
8
BLACK
6
CONTINUOUS
10
6.9191192913385828
20
-4.9590487401574803
11
6.9191192913385828
21
-5.0265402755905511
0
LINE
8
BLACK
6
CONTINUOUS
10
6.9191192913385828
20
-5.0265402755905511
11
6.9228688188976379
21
-5.03403937007874
0
LINE
8
BLACK
6
CONTINUOUS
10
6.9228688188976379
20
-5.03403937007874
11
6.9303678740157482
21
-5.0377888976377951
0
LINE
8
BLACK
6
CONTINUOUS
10
6.9303678740157482
20
-5.0377888976377951
11
6.9378669291338584
21
-5.0377888976377951
0
LINE
8
BLACK
6
CONTINUOUS
10
7.0241061811023622
20
-4.9852954330708661
11
7.0241061811023622
21
-5.0640355905511809
0
LINE
8
BLACK
6
CONTINUOUS
10
7.0241061811023622
20
-4.9890449606299212
11
7.0316052362204724
21
-4.9852954330708661
0
LINE
8
BLACK
6
CONTINUOUS
10
7.0316052362204724
20
-4.9852954330708661
11
7.0466033858267716
21
-4.9852954330708661
0
LINE
8
BLACK
6
CONTINUOUS
10
7.0466033858267716
20
-4.9852954330708661
11
7.0541024409448818
21
-4.9890449606299212
0
LINE
8
BLACK
6
CONTINUOUS
10
7.0541024409448818
20
-4.9890449606299212
11
7.0578519685039369
21
-4.9927944881889763
0
LINE
8
BLACK
6
CONTINUOUS
10
7.0578519685039369
20
-4.9927944881889763
11
7.061601496062992
21
-5.0002935826771653
0
LINE
8
BLACK
6
CONTINUOUS
10
7.061601496062992
20
-5.0002935826771653
11
7.061601496062992
21
-5.0227907480314959
0
LINE
8
BLACK
6
CONTINUOUS
10
7.061601496062992
20
-5.0227907480314959
11
7.0578519685039369
21
-5.0302898031496062
0
LINE
8
BLACK
6
CONTINUOUS
10
7.0578519685039369
20
-5.0302898031496062
11
7.0541024409448818
21
-5.03403937007874
0
LINE
8
BLACK
6
CONTINUOUS
10
7.0541024409448818
20
-5.03403937007874
11
7.0466033858267716
21
-5.0377888976377951
0
LINE
8
BLACK
6
CONTINUOUS
10
7.0466033858267716
20
-5.0377888976377951
11
7.0316052362204724
21
-5.0377888976377951
0
LINE
8
BLACK
6
CONTINUOUS
10
7.0316052362204724
20
-5.0377888976377951
11
7.0241061811023622
21
-5.03403937007874
0
LINE
8
BLACK
6
CONTINUOUS
10
7.1065958661417321
20
-5.0377888976377951
11
7.0990968110236219
21
-5.03403937007874
0
LINE
8
BLACK
6
CONTINUOUS
10
7.0990968110236219
20
-5.03403937007874
11
7.0953472834645668
21
-5.0265402755905511
0
LINE
8
BLACK
6
CONTINUOUS
10
7.0953472834645668
20
-5.0265402755905511
11
7.0953472834645668
21
-4.9590487401574803
0
LINE
8
BLACK
6
CONTINUOUS
10
7.1703379133858265
20
-5.0377888976377951
11
7.1703379133858265
21
-4.9965440551181102
0
LINE
8
BLACK
6
CONTINUOUS
10
7.1703379133858265
20
-4.9965440551181102
11
7.1665883858267714
21
-4.9890449606299212
0
LINE
8
BLACK
6
CONTINUOUS
10
7.1665883858267714
20
-4.9890449606299212
11
7.1590893307086612
21
-4.9852954330708661
0
LINE
8
BLACK
6
CONTINUOUS
10
7.1590893307086612
20
-4.9852954330708661
11
7.144091181102362
21
-4.9852954330708661
0
LINE
8
BLACK
6
CONTINUOUS
10
7.144091181102362
20
-4.9852954330708661
11
7.1365921259842517
21
-4.9890449606299212
0
LINE
8
BLACK
6
CONTINUOUS
10
7.1703379133858265
20
-5.03403937007874
11
7.1628388582677163
21
-5.0377888976377951
0
LINE
8
BLACK
6
CONTINUOUS
10
7.1628388582677163
20
-5.0377888976377951
11
7.144091181102362
21
-5.0377888976377951
0
LINE
8
BLACK
6
CONTINUOUS
10
7.144091181102362
20
-5.0377888976377951
11
7.1365921259842517
21
-5.03403937007874
0
LINE
8
BLACK
6
CONTINUOUS
10
7.1365921259842517
20
-5.03403937007874
11
7.1328425984251966
21
-5.0265402755905511
0
LINE
8
BLACK
6
CONTINUOUS
10
7.1328425984251966
20
-5.0265402755905511
11
7.1328425984251966
21
-5.0190412204724408
0
LINE
8
BLACK
6
CONTINUOUS
10
7.1328425984251966
20
-5.0190412204724408
11
7.1365921259842517
21
-5.0115421653543306
0
LINE
8
BLACK
6
CONTINUOUS
10
7.1365921259842517
20
-5.0115421653543306
11
7.144091181102362
21
-5.0077926377952755
0
LINE
8
BLACK
6
CONTINUOUS
10
7.144091181102362
20
-5.0077926377952755
11
7.1628388582677163
21
-5.0077926377952755
0
LINE
8
BLACK
6
CONTINUOUS
10
7.1628388582677163
20
-5.0077926377952755
11
7.1703379133858265
21
-5.0040431102362204
0
LINE
8
BLACK
6
CONTINUOUS
10
7.196584645669291
20
-4.9852954330708661
11
7.2265808661417319
21
-4.9852954330708661
0
LINE
8
BLACK
6
CONTINUOUS
10
7.2078332283464563
20
-4.9590487401574803
11
7.2078332283464563
21
-5.0265402755905511
0
LINE
8
BLACK
6
CONTINUOUS
10
7.2078332283464563
20
-5.0265402755905511
11
7.2115827559055115
21
-5.03403937007874
0
LINE
8
BLACK
6
CONTINUOUS
10
7.2115827559055115
20
-5.03403937007874
11
7.2190818110236217
21
-5.0377888976377951
0
LINE
8
BLACK
6
CONTINUOUS
10
7.2190818110236217
20
-5.0377888976377951
11
7.2265808661417319
21
-5.0377888976377951
0
LINE
8
BLACK
6
CONTINUOUS
10
7.2828238582677161
20
-5.03403937007874
11
7.2753248031496058
21
-5.0377888976377951
0
LINE
8
BLACK
6
CONTINUOUS
10
7.2753248031496058
20
-5.0377888976377951
11
7.2603266535433066
21
-5.0377888976377951
0
LINE
8
BLACK
6
CONTINUOUS
10
7.2603266535433066
20
-5.0377888976377951
11
7.2528275984251964
21
-5.03403937007874
0
LINE
8
BLACK
6
CONTINUOUS
10
7.2528275984251964
20
-5.03403937007874
11
7.2490780708661413
21
-5.0265402755905511
0
LINE
8
BLACK
6
CONTINUOUS
10
7.2490780708661413
20
-5.0265402755905511
11
7.2490780708661413
21
-4.9965440551181102
0
LINE
8
BLACK
6
CONTINUOUS
10
7.2490780708661413
20
-4.9965440551181102
11
7.2528275984251964
21
-4.9890449606299212
0
LINE
8
BLACK
6
CONTINUOUS
10
7.2528275984251964
20
-4.9890449606299212
11
7.2603266535433066
21
-4.9852954330708661
0
LINE
8
BLACK
6
CONTINUOUS
10
7.2603266535433066
20
-4.9852954330708661
11
7.2753248031496058
21
-4.9852954330708661
0
LINE
8
BLACK
6
CONTINUOUS
10
7.2753248031496058
20
-4.9852954330708661
11
7.2828238582677161
21
-4.9890449606299212
0
LINE
8
BLACK
6
CONTINUOUS
10
7.2828238582677161
20
-4.9890449606299212
11
7.2865733858267712
21
-4.9965440551181102
0
LINE
8
BLACK
6
CONTINUOUS
10
7.2865733858267712
20
-4.9965440551181102
11
7.2865733858267712
21
-5.0040431102362204
0
LINE
8
BLACK
6
CONTINUOUS
10
7.2865733858267712
20
-5.0040431102362204
11
7.2490780708661413
21
-5.0115421653543306
0
LINE
8
BLACK
6
CONTINUOUS
10
7.3540649606299207
20
-5.0377888976377951
11
7.3540649606299207
21
-4.9590487401574803
0
LINE
8
BLACK
6
CONTINUOUS
10
7.3540649606299207
20
-5.03403937007874
11
7.3465659055118104
21
-5.0377888976377951
0
LINE
8
BLACK
6
CONTINUOUS
10
7.3465659055118104
20
-5.0377888976377951
11
7.3315677559055112
21
-5.0377888976377951
0
LINE
8
BLACK
6
CONTINUOUS
10
7.3315677559055112
20
-5.0377888976377951
11
7.324068700787401
21
-5.03403937007874
0
LINE
8
BLACK
6
CONTINUOUS
10
7.324068700787401
20
-5.03403937007874
11
7.3203191732283459
21
-5.0302898031496062
0
LINE
8
BLACK
6
CONTINUOUS
10
7.3203191732283459
20
-5.0302898031496062
11
7.3165696456692908
21
-5.0227907480314959
0
LINE
8
BLACK
6
CONTINUOUS
10
7.3165696456692908
20
-5.0227907480314959
11
7.3165696456692908
21
-5.0002935826771653
0
LINE
8
BLACK
6
CONTINUOUS
10
7.3165696456692908
20
-5.0002935826771653
11
7.3203191732283459
21
-4.9927944881889763
0
LINE
8
BLACK
6
CONTINUOUS
10
7.3203191732283459
20
-4.9927944881889763
11
7.324068700787401
21
-4.9890449606299212
0
LINE
8
BLACK
6
CONTINUOUS
10
7.324068700787401
20
-4.9890449606299212
11
7.3315677559055112
21
-4.9852954330708661
0
LINE
8
BLACK
6
CONTINUOUS
10
7.3315677559055112
20
-4.9852954330708661
11
7.3465659055118104
21
-4.9852954330708661
0
LINE
8
BLACK
6
CONTINUOUS
10
7.3465659055118104
20
-4.9852954330708661
11
7.3540649606299207
21
-4.9890449606299212
0
LINE
8
BLACK
6
CONTINUOUS
10
7.3840612204724412
20
-5.067785118110236
11
7.3878107480314963
21
-5.0640355905511809
0
LINE
8
BLACK
6
CONTINUOUS
10
7.3878107480314963
20
-5.0640355905511809
11
7.3953098031496065
21
-5.0527870078740156
0
LINE
8
BLACK
6
CONTINUOUS
10
7.3953098031496065
20
-5.0527870078740156
11
7.3990593307086616
21
-5.0452879527559054
0
LINE
8
BLACK
6
CONTINUOUS
10
7.3990593307086616
20
-5.0452879527559054
11
7.4028088582677167
21
-5.03403937007874
0
LINE
8
BLACK
6
CONTINUOUS
10
7.4028088582677167
20
-5.03403937007874
11
7.4065583858267718
21
-5.0152916929133857
0
LINE
8
BLACK
6
CONTINUOUS
10
7.4065583858267718
20
-5.0152916929133857
11
7.4065583858267718
21
-5.0002935826771653
0
LINE
8
BLACK
6
CONTINUOUS
10
7.4065583858267718
20
-5.0002935826771653
11
7.4028088582677167
21
-4.981545905511811
0
LINE
8
BLACK
6
CONTINUOUS
10
7.4028088582677167
20
-4.981545905511811
11
7.3990593307086616
21
-4.9702973228346456
0
LINE
8
BLACK
6
CONTINUOUS
10
7.3990593307086616
20
-4.9702973228346456
11
7.3953098031496065
21
-4.9627982677165354
0
LINE
8
BLACK
6
CONTINUOUS
10
7.3953098031496065
20
-4.9627982677165354
11
7.3878107480314963
21
-4.9515496456692913
0
LINE
8
BLACK
6
CONTINUOUS
10
7.3878107480314963
20
-4.9515496456692913
11
7.3840612204724412
21
-4.9478001181102362
  0
ENDSEC
  0
EOF
