%TF.GenerationSoftware,KiCad,Pcbnew,8.0.8-8.0.8-0~ubuntu24.04.1*%
%TF.CreationDate,2025-02-06T20:59:37+09:00*%
%TF.ProjectId,STM32-FC,53544d33-322d-4464-932e-6b696361645f,rev?*%
%TF.SameCoordinates,Original*%
%TF.FileFunction,Paste,Bot*%
%TF.FilePolarity,Positive*%
%FSLAX46Y46*%
G04 Gerber Fmt 4.6, Leading zero omitted, Abs format (unit mm)*
G04 Created by KiCad (PCBNEW 8.0.8-8.0.8-0~ubuntu24.04.1) date 2025-02-06 20:59:37*
%MOMM*%
%LPD*%
G01*
G04 APERTURE LIST*
G04 Aperture macros list*
%AMRoundRect*
0 Rectangle with rounded corners*
0 $1 Rounding radius*
0 $2 $3 $4 $5 $6 $7 $8 $9 X,Y pos of 4 corners*
0 Add a 4 corners polygon primitive as box body*
4,1,4,$2,$3,$4,$5,$6,$7,$8,$9,$2,$3,0*
0 Add four circle primitives for the rounded corners*
1,1,$1+$1,$2,$3*
1,1,$1+$1,$4,$5*
1,1,$1+$1,$6,$7*
1,1,$1+$1,$8,$9*
0 Add four rect primitives between the rounded corners*
20,1,$1+$1,$2,$3,$4,$5,0*
20,1,$1+$1,$4,$5,$6,$7,0*
20,1,$1+$1,$6,$7,$8,$9,0*
20,1,$1+$1,$8,$9,$2,$3,0*%
%AMFreePoly0*
4,1,9,3.862500,-0.866500,0.737500,-0.866500,0.737500,-0.450000,-0.737500,-0.450000,-0.737500,0.450000,0.737500,0.450000,0.737500,0.866500,3.862500,0.866500,3.862500,-0.866500,3.862500,-0.866500,$1*%
G04 Aperture macros list end*
%ADD10RoundRect,0.135000X-0.135000X-0.185000X0.135000X-0.185000X0.135000X0.185000X-0.135000X0.185000X0*%
%ADD11RoundRect,0.140000X-0.140000X-0.170000X0.140000X-0.170000X0.140000X0.170000X-0.140000X0.170000X0*%
%ADD12RoundRect,0.225000X0.225000X-0.425000X0.225000X0.425000X-0.225000X0.425000X-0.225000X-0.425000X0*%
%ADD13FreePoly0,90.000000*%
%ADD14RoundRect,0.135000X0.135000X0.185000X-0.135000X0.185000X-0.135000X-0.185000X0.135000X-0.185000X0*%
%ADD15RoundRect,0.140000X0.140000X0.170000X-0.140000X0.170000X-0.140000X-0.170000X0.140000X-0.170000X0*%
%ADD16R,1.000000X2.800000*%
%ADD17R,0.600000X1.800000*%
%ADD18RoundRect,0.135000X0.185000X-0.135000X0.185000X0.135000X-0.185000X0.135000X-0.185000X-0.135000X0*%
%ADD19R,1.750000X0.700000*%
%ADD20R,1.000000X1.450000*%
%ADD21R,1.550000X1.000000*%
%ADD22R,1.500000X0.800000*%
%ADD23R,1.500000X1.300000*%
%ADD24R,1.500000X1.500000*%
%ADD25R,1.400000X0.800000*%
%ADD26RoundRect,0.075000X0.075000X-0.725000X0.075000X0.725000X-0.075000X0.725000X-0.075000X-0.725000X0*%
%ADD27RoundRect,0.075000X0.725000X-0.075000X0.725000X0.075000X-0.725000X0.075000X-0.725000X-0.075000X0*%
%ADD28R,2.800000X1.000000*%
%ADD29R,1.800000X0.600000*%
%ADD30RoundRect,0.112500X0.187500X0.112500X-0.187500X0.112500X-0.187500X-0.112500X0.187500X-0.112500X0*%
%ADD31R,0.760000X2.650000*%
%ADD32RoundRect,0.140000X0.170000X-0.140000X0.170000X0.140000X-0.170000X0.140000X-0.170000X-0.140000X0*%
G04 APERTURE END LIST*
D10*
%TO.C,R1*%
X151840000Y-94500000D03*
X152860000Y-94500000D03*
%TD*%
D11*
%TO.C,C14*%
X134520000Y-106400000D03*
X135480000Y-106400000D03*
%TD*%
D12*
%TO.C,U3*%
X130500000Y-104950000D03*
D13*
X129000000Y-104862500D03*
D12*
X127500000Y-104950000D03*
%TD*%
D14*
%TO.C,R30*%
X138910000Y-76400000D03*
X137890000Y-76400000D03*
%TD*%
D12*
%TO.C,U4*%
X137500000Y-104950000D03*
D13*
X136000000Y-104862500D03*
D12*
X134500000Y-104950000D03*
%TD*%
D15*
%TO.C,C12*%
X142480000Y-80520000D03*
X141520000Y-80520000D03*
%TD*%
D16*
%TO.C,J11*%
X146900000Y-71150000D03*
X156600000Y-71150000D03*
D17*
X148625000Y-74350000D03*
X149875000Y-74350000D03*
X151125000Y-74350000D03*
X152375000Y-74350000D03*
X153625000Y-74350000D03*
X154875000Y-74350000D03*
%TD*%
D11*
%TO.C,C5*%
X126540000Y-81250000D03*
X127500000Y-81250000D03*
%TD*%
D18*
%TO.C,R5*%
X134250000Y-80010000D03*
X134250000Y-78990000D03*
%TD*%
D11*
%TO.C,C17*%
X132020000Y-105000000D03*
X132980000Y-105000000D03*
%TD*%
D19*
%TO.C,J4*%
X156600000Y-90075000D03*
X156600000Y-88975000D03*
X156600000Y-87875000D03*
X156600000Y-86775000D03*
X156600000Y-85675000D03*
X156600000Y-84575000D03*
X156600000Y-83475000D03*
X156600000Y-82375000D03*
D20*
X147375000Y-81250000D03*
D21*
X145800000Y-92475000D03*
D22*
X148875000Y-80925000D03*
D23*
X156475000Y-81175000D03*
D24*
X156475000Y-92525000D03*
D25*
X148225000Y-92875000D03*
%TD*%
D11*
%TO.C,C13*%
X127520000Y-106500000D03*
X128480000Y-106500000D03*
%TD*%
D26*
%TO.C,U1*%
X141750000Y-98425000D03*
X141250000Y-98425000D03*
X140750000Y-98425000D03*
X140250000Y-98425000D03*
X139750000Y-98425000D03*
X139250000Y-98425000D03*
X138750000Y-98425000D03*
X138250000Y-98425000D03*
X137750000Y-98425000D03*
X137250000Y-98425000D03*
X136750000Y-98425000D03*
X136250000Y-98425000D03*
X135750000Y-98425000D03*
X135250000Y-98425000D03*
X134750000Y-98425000D03*
X134250000Y-98425000D03*
X133750000Y-98425000D03*
X133250000Y-98425000D03*
X132750000Y-98425000D03*
X132250000Y-98425000D03*
X131750000Y-98425000D03*
X131250000Y-98425000D03*
X130750000Y-98425000D03*
X130250000Y-98425000D03*
X129750000Y-98425000D03*
D27*
X128075000Y-96750000D03*
X128075000Y-96250000D03*
X128075000Y-95750000D03*
X128075000Y-95250000D03*
X128075000Y-94750000D03*
X128075000Y-94250000D03*
X128075000Y-93750000D03*
X128075000Y-93250000D03*
X128075000Y-92750000D03*
X128075000Y-92250000D03*
X128075000Y-91750000D03*
X128075000Y-91250000D03*
X128075000Y-90750000D03*
X128075000Y-90250000D03*
X128075000Y-89750000D03*
X128075000Y-89250000D03*
X128075000Y-88750000D03*
X128075000Y-88250000D03*
X128075000Y-87750000D03*
X128075000Y-87250000D03*
X128075000Y-86750000D03*
X128075000Y-86250000D03*
X128075000Y-85750000D03*
X128075000Y-85250000D03*
X128075000Y-84750000D03*
D26*
X129750000Y-83075000D03*
X130250000Y-83075000D03*
X130750000Y-83075000D03*
X131250000Y-83075000D03*
X131750000Y-83075000D03*
X132250000Y-83075000D03*
X132750000Y-83075000D03*
X133250000Y-83075000D03*
X133750000Y-83075000D03*
X134250000Y-83075000D03*
X134750000Y-83075000D03*
X135250000Y-83075000D03*
X135750000Y-83075000D03*
X136250000Y-83075000D03*
X136750000Y-83075000D03*
X137250000Y-83075000D03*
X137750000Y-83075000D03*
X138250000Y-83075000D03*
X138750000Y-83075000D03*
X139250000Y-83075000D03*
X139750000Y-83075000D03*
X140250000Y-83075000D03*
X140750000Y-83075000D03*
X141250000Y-83075000D03*
X141750000Y-83075000D03*
D27*
X143425000Y-84750000D03*
X143425000Y-85250000D03*
X143425000Y-85750000D03*
X143425000Y-86250000D03*
X143425000Y-86750000D03*
X143425000Y-87250000D03*
X143425000Y-87750000D03*
X143425000Y-88250000D03*
X143425000Y-88750000D03*
X143425000Y-89250000D03*
X143425000Y-89750000D03*
X143425000Y-90250000D03*
X143425000Y-90750000D03*
X143425000Y-91250000D03*
X143425000Y-91750000D03*
X143425000Y-92250000D03*
X143425000Y-92750000D03*
X143425000Y-93250000D03*
X143425000Y-93750000D03*
X143425000Y-94250000D03*
X143425000Y-94750000D03*
X143425000Y-95250000D03*
X143425000Y-95750000D03*
X143425000Y-96250000D03*
X143425000Y-96750000D03*
%TD*%
D11*
%TO.C,C16*%
X132020000Y-103000000D03*
X132980000Y-103000000D03*
%TD*%
D16*
%TO.C,J12*%
X134650000Y-71150000D03*
X144350000Y-71150000D03*
D17*
X136375000Y-74350000D03*
X137625000Y-74350000D03*
X138875000Y-74350000D03*
X140125000Y-74350000D03*
X141375000Y-74350000D03*
X142625000Y-74350000D03*
%TD*%
D10*
%TO.C,R29*%
X151390000Y-78900000D03*
X152410000Y-78900000D03*
%TD*%
D11*
%TO.C,C15*%
X132020000Y-104000000D03*
X132980000Y-104000000D03*
%TD*%
D28*
%TO.C,J13*%
X121150000Y-103600000D03*
X121150000Y-96400000D03*
D29*
X124350000Y-101875000D03*
X124350000Y-100625000D03*
X124350000Y-99375000D03*
X124350000Y-98125000D03*
%TD*%
D30*
%TO.C,D3*%
X137550000Y-79500000D03*
X135450000Y-79500000D03*
%TD*%
D31*
%TO.C,SW2*%
X155270000Y-101825000D03*
X154000000Y-101825000D03*
X152730000Y-101825000D03*
X152730000Y-96575000D03*
X154000000Y-96575000D03*
X155270000Y-96575000D03*
%TD*%
D14*
%TO.C,R32*%
X127310000Y-100200000D03*
X126290000Y-100200000D03*
%TD*%
D32*
%TO.C,C6*%
X140500000Y-81480000D03*
X140500000Y-80520000D03*
%TD*%
D16*
%TO.C,J3*%
X122150000Y-71150000D03*
X131850000Y-71150000D03*
D17*
X123875000Y-74350000D03*
X125125000Y-74350000D03*
X126375000Y-74350000D03*
X127625000Y-74350000D03*
X128875000Y-74350000D03*
X130125000Y-74350000D03*
%TD*%
D28*
%TO.C,J1*%
X121150000Y-90850000D03*
X121150000Y-81150000D03*
D29*
X124350000Y-89125000D03*
X124350000Y-87875000D03*
X124350000Y-86625000D03*
X124350000Y-85375000D03*
X124350000Y-84125000D03*
X124350000Y-82875000D03*
%TD*%
D14*
%TO.C,R31*%
X127310000Y-98950000D03*
X126290000Y-98950000D03*
%TD*%
D11*
%TO.C,C18*%
X132020000Y-102000000D03*
X132980000Y-102000000D03*
%TD*%
D14*
%TO.C,R2*%
X155110000Y-94500000D03*
X154090000Y-94500000D03*
%TD*%
D15*
%TO.C,C11*%
X142480000Y-81500000D03*
X141520000Y-81500000D03*
%TD*%
M02*
