M48
; DRILL file {KiCad 8.0.8-8.0.8-0~ubuntu24.04.1} date 2025-02-05T20:44:18+0900
; FORMAT={-:-/ absolute / inch / decimal}
; #@! TF.CreationDate,2025-02-05T20:44:18+09:00
; #@! TF.GenerationSoftware,Kicad,Pcbnew,8.0.8-8.0.8-0~ubuntu24.04.1
; #@! TF.FileFunction,Plated,1,4,PTH
FMAT,2
INCH
; #@! TA.AperFunction,Plated,PTH,ViaDrill
T1C0.0118
; #@! TA.AperFunction,Plated,PTH,ViaDrill
T2C0.0157
; #@! TA.AperFunction,Plated,PTH,ComponentDrill
T3C0.0256
; #@! TA.AperFunction,Plated,PTH,ComponentDrill
T4C0.0394
%
G90
G05
T1
X4.7982Y-3.9622
X4.8101Y-3.3931
X4.8228Y-3.9843
X4.8346Y-3.4409
X4.8425Y-3.2677
X4.8425Y-3.8366
X4.8465Y-3.9134
X4.8465Y-3.9606
X4.8543Y-3.311
X4.8543Y-3.3622
X4.8543Y-3.4154
X4.8543Y-3.8031
X4.8976Y-3.6417
X4.9094Y-4.2156
X4.9317Y-3.5931
X4.9331Y-3.0197
X4.937Y-2.9823
X4.9508Y-3.0709
X4.9606Y-3.436
X4.9614Y-3.6398
X4.9929Y-3.6398
X5.0197Y-3.1063
X5.0236Y-2.875
X5.0315Y-3.0827
X5.0422Y-3.8337
X5.0492Y-3.8583
X5.0492Y-3.9173
X5.0512Y-2.9803
X5.0591Y-3.3178
X5.0824Y-3.833
X5.0866Y-3.3178
X5.0984Y-3.7697
X5.0984Y-3.9449
X5.1019Y-3.3784
X5.1083Y-3.5925
X5.1102Y-3.0404
X5.1198Y-4.1166
X5.124Y-3.9449
X5.1274Y-3.3789
X5.1496Y-3.9739
X5.1496Y-3.9446
X5.1527Y-3.3749
X5.1673Y-3.8189
X5.1693Y-3.2008
X5.1797Y-3.935
X5.185Y-3.378
X5.1969Y-3.8091
X5.2221Y-3.3181
X5.2264Y-3.8189
X5.2362Y-3.9764
X5.2441Y-3.9252
X5.2691Y-3.9306
X5.2859Y-3.079
X5.2859Y-3.8184
X5.2889Y-3.3176
X5.2953Y-3.9711
X5.3024Y-3.7248
X5.3193Y-3.9295
X5.3228Y-3.7402
X5.3256Y-3.7983
X5.3348Y-3.677
X5.3386Y-3.1063
X5.3425Y-3.723
X5.3494Y-3.4154
X5.3543Y-3.622
X5.3622Y-3.9646
X5.375Y-3.4154
X5.3819Y-3.0827
X5.3898Y-3.7746
X5.3937Y-3.622
X5.3965Y-3.3222
X5.4012Y-3.7113
X5.4148Y-3.7798
X5.4206Y-3.3307
X5.4372Y-3.9251
X5.4553Y-3.8019
X5.4606Y-4.1378
X5.4612Y-3.8268
X5.462Y-3.3386
X5.4783Y-3.3583
X5.4813Y-3.1801
X5.4823Y-3.9567
X5.4921Y-4.0354
X5.4925Y-3.6502
X5.4961Y-3.7362
X5.4972Y-3.5087
X5.5003Y-3.4734
X5.5059Y-3.3583
X5.5079Y-3.7835
X5.5197Y-3.752
X5.5314Y-3.7994
X5.5315Y-3.3858
X5.5315Y-3.5335
X5.5429Y-3.4087
X5.5472Y-3.3228
X5.5591Y-3.7087
X5.561Y-3.5335
X5.5669Y-3.4724
X5.57Y-3.7855
X5.5709Y-3.9606
X5.5709Y-4.0197
X5.5733Y-3.4993
X5.5734Y-3.3592
X5.5789Y-3.7482
X5.5841Y-3.6597
X5.585Y-3.8062
X5.5897Y-3.5189
X5.5903Y-3.5475
X5.5945Y-3.7717
X5.5955Y-3.4521
X5.5984Y-3.5748
X5.6102Y-3.2677
X5.6781Y-3.8118
X5.6791Y-3.1201
X5.6862Y-3.5733
X5.6957Y-3.3967
X5.7025Y-3.4557
X5.7128Y-3.376
X5.7281Y-3.4557
X5.7441Y-4.1102
X5.748Y-3.6024
X5.7584Y-3.9155
X5.7738Y-3.9359
X5.7776Y-3.2579
X5.8093Y-3.6024
X5.811Y-3.2638
X5.813Y-3.3228
X5.8337Y-3.3393
X5.8386Y-3.3937
X5.8453Y-3.4331
X5.8608Y-3.603
X5.866Y-3.4017
X5.8729Y-3.3161
X5.876Y-3.1201
X5.8858Y-3.6457
X5.9094Y-3.6811
X5.9233Y-3.7617
X5.9409Y-2.9823
X5.9479Y-3.0415
X5.9803Y-3.5906
X5.9825Y-3.0724
X6.0Y-3.4961
X6.0157Y-4.0984
X6.0174Y-2.998
X6.0508Y-3.5909
X6.0573Y-3.3604
X6.0669Y-3.7008
X6.0784Y-3.4643
X6.1117Y-3.5246
X6.1142Y-3.3268
X6.1693Y-3.7205
T2
X4.8819Y-2.8465
X4.9016Y-4.0423
X4.9134Y-3.5354
X4.9491Y-3.8289
X4.9606Y-4.5945
X4.9724Y-4.0236
X4.9843Y-4.1417
X5.0787Y-2.8465
X5.1612Y-3.4461
X5.1673Y-3.6614
X5.2067Y-3.6614
X5.2205Y-3.5827
X5.2244Y-2.874
X5.2756Y-4.189
X5.3189Y-3.5512
X5.3425Y-2.9882
X5.4488Y-3.0827
X5.495Y-3.6142
X5.5236Y-3.1557
X5.6142Y-2.8622
X5.6614Y-3.2638
X5.6993Y-3.1403
X5.7008Y-3.2638
X5.8583Y-3.2638
X5.9409Y-3.9646
X5.9803Y-3.874
X6.0157Y-3.5984
X6.063Y-3.4173
X6.0984Y-2.8622
X6.122Y-4.5945
X6.135Y-3.7756
X6.1496Y-4.0157
T3
X5.6398Y-4.0051
X5.6398Y-4.0551
X5.6398Y-4.1051
X5.7874Y-3.7559
X5.7874Y-3.8819
X5.8374Y-3.7559
X5.8374Y-3.8819
X5.8874Y-3.7559
X5.8874Y-3.8819
T4
X4.8224Y-4.2898
X4.8224Y-4.3898
X4.8224Y-4.4898
X4.9224Y-4.2898
X4.9224Y-4.3898
X4.9224Y-4.4898
X5.0224Y-4.2898
X5.0224Y-4.3898
X5.0224Y-4.4898
X5.1224Y-4.2898
X5.1224Y-4.3898
X5.1224Y-4.4898
X5.2224Y-4.2898
X5.2224Y-4.3898
X5.2224Y-4.4898
X5.3224Y-4.2898
X5.3224Y-4.3898
X5.3224Y-4.4898
X5.4224Y-4.2898
X5.4224Y-4.3898
X5.4224Y-4.4898
X5.5224Y-4.2898
X5.5224Y-4.3898
X5.5224Y-4.4898
X5.6224Y-4.2898
X5.6224Y-4.3898
X5.6224Y-4.4898
X5.7224Y-4.2898
X5.7224Y-4.3898
X5.7224Y-4.4898
X5.8224Y-4.2898
X5.8224Y-4.3898
X5.8224Y-4.4898
X5.9224Y-4.2898
X5.9224Y-4.3898
X5.9224Y-4.4898
X6.0224Y-4.2898
X6.0224Y-4.3898
X6.0224Y-4.4898
X6.1224Y-4.2898
X6.1224Y-4.3898
X6.1224Y-4.4898
M30
