  0
SECTION
  2
HEADER
  9
$ANGBASE
  50
0.0
  9
$ANGDIR
  70
1
  9
$MEASUREMENT
  70
0
  0
ENDSEC
  0
SECTION
  2
TABLES
  0
TABLE
  2
LTYPE
  70
4
  0
LTYPE
  5
40F
  2
CONTINUOUS
  70
0
  3
Solid line
  72
65
  73
0
  40
0.0
  0
LTYPE
  5
410
  2
DASHDOT
 70
0
  3
Dash Dot ____ _ ____ _
 72
65
 73
4
 40
2.0
 49
1.25
 49
-0.25
 49
0.25
 49
-0.25
  0
LTYPE
  5
411
  2
DASHED
 70
0
  3
Dashed __ __ __ __ __
 72
65
 73
2
 40
0.75
 49
0.5
 49
-0.25
  0
LTYPE
  5
43B
  2
DOTTED
 70
0
  3
Dotted .  .  .  .
 72
65
 73
2
 40
0.2
 49
0.0
 49
-0.2
  0
ENDTAB
  0
TABLE
  2
STYLE
  70
4
  0
STYLE
  2
KICAD
  70
0
  40
0
  41
1
  42
1
  50
0
  71
0
  3
isocp.shx
  0
STYLE
  2
KICADB
  70
0
  40
0
  41
1
  42
1
  50
0
  71
0
  3
isocp.shx
  0
STYLE
  2
KICADI
  70
0
  40
0
  41
1
  42
1
  50
15
  71
0
  3
isocp.shx
  0
STYLE
  2
KICADBI
  70
0
  40
0
  41
1
  42
1
  50
15
  71
0
  3
isocp.shx
  0
ENDTAB
  0
TABLE
  2
LAYER
  70
1
  0
LAYER
  2
BLACK
  70
0
  62
7
  6
CONTINUOUS
  0
ENDTAB
  0
ENDSEC
  0
SECTION
  2
ENTITIES
0
LINE
8
BLACK
6
CONTINUOUS
10
4.7047244094488185
20
-2.7362204724409449
11
6.2401574803149602
21
-2.7362204724409449
0
LINE
8
BLACK
6
CONTINUOUS
10
6.2401574803149602
20
-2.7362204724409449
11
6.2401574803149602
21
-4.6456692913385824
0
LINE
8
BLACK
6
CONTINUOUS
10
6.2401574803149602
20
-4.6456692913385824
11
4.7047244094488185
21
-4.6456692913385824
0
LINE
8
BLACK
6
CONTINUOUS
10
4.7047244094488185
20
-4.6456692913385824
11
4.7047244094488185
21
-2.7362204724409449
0
LINE
8
BLACK
6
CONTINUOUS
10
4.9618110236220474
20
-3.2494094488188976
11
4.9874015748031493
21
-3.2749999999999999
0
LINE
8
BLACK
6
CONTINUOUS
10
4.9874015748031493
20
-3.2494094488188976
11
4.9618110236220474
21
-3.2749999999999999
0
LINE
8
BLACK
6
CONTINUOUS
10
4.9618110236220474
20
-3.476968503937008
11
4.9874015748031493
21
-3.5025590551181103
0
LINE
8
BLACK
6
CONTINUOUS
10
4.9874015748031493
20
-3.476968503937008
11
4.9618110236220474
21
-3.5025590551181103
0
CIRCLE
8
BLACK
10
4.8425196850393704
20
-3.0511811023622046
40
0.0433070866141732
0
CIRCLE
8
BLACK
10
4.8425196850393704
20
-4.1732283464566926
40
0.0433070866141732
0
CIRCLE
8
BLACK
10
6.1023622047244093
20
-3.0511811023622046
40
0.0433070866141732
0
CIRCLE
8
BLACK
10
6.1023622047244093
20
-4.1732283464566926
40
0.0433070866141732
0
LINE
8
BLACK
6
CONTINUOUS
10
4.8071955905511814
20
-4.7684975590551177
11
4.8071955905511814
21
-4.6897574015748029
0
LINE
8
BLACK
6
CONTINUOUS
10
4.8071955905511814
20
-4.6897574015748029
11
4.8259432283464569
21
-4.6897574015748029
0
LINE
8
BLACK
6
CONTINUOUS
10
4.8259432283464569
20
-4.6897574015748029
11
4.837191850393701
21
-4.693506929133858
0
LINE
8
BLACK
6
CONTINUOUS
10
4.837191850393701
20
-4.693506929133858
11
4.8446909055118113
21
-4.7010059842519683
0
LINE
8
BLACK
6
CONTINUOUS
10
4.8446909055118113
20
-4.7010059842519683
11
4.8484404330708664
21
-4.7085050393700785
0
LINE
8
BLACK
6
CONTINUOUS
10
4.8484404330708664
20
-4.7085050393700785
11
4.8521899606299215
21
-4.7235031496062989
0
LINE
8
BLACK
6
CONTINUOUS
10
4.8521899606299215
20
-4.7235031496062989
11
4.8521899606299215
21
-4.734751771653543
0
LINE
8
BLACK
6
CONTINUOUS
10
4.8521899606299215
20
-4.734751771653543
11
4.8484404330708664
21
-4.7497498818897634
0
LINE
8
BLACK
6
CONTINUOUS
10
4.8484404330708664
20
-4.7497498818897634
11
4.8446909055118113
21
-4.7572489370078737
0
LINE
8
BLACK
6
CONTINUOUS
10
4.8446909055118113
20
-4.7572489370078737
11
4.837191850393701
21
-4.7647480314960626
0
LINE
8
BLACK
6
CONTINUOUS
10
4.837191850393701
20
-4.7647480314960626
11
4.8259432283464569
21
-4.7684975590551177
0
LINE
8
BLACK
6
CONTINUOUS
10
4.8259432283464569
20
-4.7684975590551177
11
4.8071955905511814
21
-4.7684975590551177
0
LINE
8
BLACK
6
CONTINUOUS
10
4.8859357480314962
20
-4.7684975590551177
11
4.8859357480314962
21
-4.7160040944881887
0
LINE
8
BLACK
6
CONTINUOUS
10
4.8859357480314962
20
-4.7310022440944879
11
4.8896852755905513
21
-4.7235031496062989
0
LINE
8
BLACK
6
CONTINUOUS
10
4.8896852755905513
20
-4.7235031496062989
11
4.8934348031496064
21
-4.7197536220472438
0
LINE
8
BLACK
6
CONTINUOUS
10
4.8934348031496064
20
-4.7197536220472438
11
4.9009338582677167
21
-4.7160040944881887
0
LINE
8
BLACK
6
CONTINUOUS
10
4.9009338582677167
20
-4.7160040944881887
11
4.9084329527559056
21
-4.7160040944881887
0
LINE
8
BLACK
6
CONTINUOUS
10
4.9346796456692914
20
-4.7684975590551177
11
4.9346796456692914
21
-4.7160040944881887
0
LINE
8
BLACK
6
CONTINUOUS
10
4.9346796456692914
20
-4.6897574015748029
11
4.9309301181102363
21
-4.693506929133858
0
LINE
8
BLACK
6
CONTINUOUS
10
4.9309301181102363
20
-4.693506929133858
11
4.9346796456692914
21
-4.6972564566929131
0
LINE
8
BLACK
6
CONTINUOUS
10
4.9346796456692914
20
-4.6972564566929131
11
4.9384291732283465
21
-4.693506929133858
0
LINE
8
BLACK
6
CONTINUOUS
10
4.9384291732283465
20
-4.693506929133858
11
4.9346796456692914
21
-4.6897574015748029
0
LINE
8
BLACK
6
CONTINUOUS
10
4.9346796456692914
20
-4.6897574015748029
11
4.9346796456692914
21
-4.6972564566929131
0
LINE
8
BLACK
6
CONTINUOUS
10
4.9834235433070866
20
-4.7684975590551177
11
4.9759244881889764
21
-4.7647480314960626
0
LINE
8
BLACK
6
CONTINUOUS
10
4.9759244881889764
20
-4.7647480314960626
11
4.9721749606299213
21
-4.7572489370078737
0
LINE
8
BLACK
6
CONTINUOUS
10
4.9721749606299213
20
-4.7572489370078737
11
4.9721749606299213
21
-4.6897574015748029
0
LINE
8
BLACK
6
CONTINUOUS
10
5.0246683858267716
20
-4.7684975590551177
11
5.0171693307086613
21
-4.7647480314960626
0
LINE
8
BLACK
6
CONTINUOUS
10
5.0171693307086613
20
-4.7647480314960626
11
5.0134198031496062
21
-4.7572489370078737
0
LINE
8
BLACK
6
CONTINUOUS
10
5.0134198031496062
20
-4.7572489370078737
11
5.0134198031496062
21
-4.6897574015748029
0
LINE
8
BLACK
6
CONTINUOUS
10
5.1146571653543305
20
-4.7684975590551177
11
5.1146571653543305
21
-4.6897574015748029
0
LINE
8
BLACK
6
CONTINUOUS
10
5.1146571653543305
20
-4.6897574015748029
11
5.140903897637795
21
-4.7460003543307083
0
LINE
8
BLACK
6
CONTINUOUS
10
5.140903897637795
20
-4.7460003543307083
11
5.1671505905511808
21
-4.6897574015748029
0
LINE
8
BLACK
6
CONTINUOUS
10
5.1671505905511808
20
-4.6897574015748029
11
5.1671505905511808
21
-4.7684975590551177
0
LINE
8
BLACK
6
CONTINUOUS
10
5.2383916929133854
20
-4.7684975590551177
11
5.2383916929133854
21
-4.7272527165354328
0
LINE
8
BLACK
6
CONTINUOUS
10
5.2383916929133854
20
-4.7272527165354328
11
5.2346421653543302
21
-4.7197536220472438
0
LINE
8
BLACK
6
CONTINUOUS
10
5.2346421653543302
20
-4.7197536220472438
11
5.22714311023622
21
-4.7160040944881887
0
LINE
8
BLACK
6
CONTINUOUS
10
5.22714311023622
20
-4.7160040944881887
11
5.2121449606299208
21
-4.7160040944881887
0
LINE
8
BLACK
6
CONTINUOUS
10
5.2121449606299208
20
-4.7160040944881887
11
5.2046459055118106
21
-4.7197536220472438
0
LINE
8
BLACK
6
CONTINUOUS
10
5.2383916929133854
20
-4.7647480314960626
11
5.2308926377952751
21
-4.7684975590551177
0
LINE
8
BLACK
6
CONTINUOUS
10
5.2308926377952751
20
-4.7684975590551177
11
5.2121449606299208
21
-4.7684975590551177
0
LINE
8
BLACK
6
CONTINUOUS
10
5.2121449606299208
20
-4.7684975590551177
11
5.2046459055118106
21
-4.7647480314960626
0
LINE
8
BLACK
6
CONTINUOUS
10
5.2046459055118106
20
-4.7647480314960626
11
5.2008963779527555
21
-4.7572489370078737
0
LINE
8
BLACK
6
CONTINUOUS
10
5.2008963779527555
20
-4.7572489370078737
11
5.2008963779527555
21
-4.7497498818897634
0
LINE
8
BLACK
6
CONTINUOUS
10
5.2008963779527555
20
-4.7497498818897634
11
5.2046459055118106
21
-4.7422508267716532
0
LINE
8
BLACK
6
CONTINUOUS
10
5.2046459055118106
20
-4.7422508267716532
11
5.2121449606299208
21
-4.7385012992125981
0
LINE
8
BLACK
6
CONTINUOUS
10
5.2121449606299208
20
-4.7385012992125981
11
5.2308926377952751
21
-4.7385012992125981
0
LINE
8
BLACK
6
CONTINUOUS
10
5.2308926377952751
20
-4.7385012992125981
11
5.2383916929133854
21
-4.734751771653543
0
LINE
8
BLACK
6
CONTINUOUS
10
5.2758870078740152
20
-4.7160040944881887
11
5.2758870078740152
21
-4.7947442519685035
0
LINE
8
BLACK
6
CONTINUOUS
10
5.2758870078740152
20
-4.7197536220472438
11
5.2833860629921254
21
-4.7160040944881887
0
LINE
8
BLACK
6
CONTINUOUS
10
5.2833860629921254
20
-4.7160040944881887
11
5.2983842125984255
21
-4.7160040944881887
0
LINE
8
BLACK
6
CONTINUOUS
10
5.2983842125984255
20
-4.7160040944881887
11
5.3058832677165357
21
-4.7197536220472438
0
LINE
8
BLACK
6
CONTINUOUS
10
5.3058832677165357
20
-4.7197536220472438
11
5.3096327952755908
21
-4.7235031496062989
0
LINE
8
BLACK
6
CONTINUOUS
10
5.3096327952755908
20
-4.7235031496062989
11
5.313382322834646
21
-4.7310022440944879
0
LINE
8
BLACK
6
CONTINUOUS
10
5.313382322834646
20
-4.7310022440944879
11
5.313382322834646
21
-4.7534994094488185
0
LINE
8
BLACK
6
CONTINUOUS
10
5.313382322834646
20
-4.7534994094488185
11
5.3096327952755908
21
-4.7609984645669288
0
LINE
8
BLACK
6
CONTINUOUS
10
5.3096327952755908
20
-4.7609984645669288
11
5.3058832677165357
21
-4.7647480314960626
0
LINE
8
BLACK
6
CONTINUOUS
10
5.3058832677165357
20
-4.7647480314960626
11
5.2983842125984255
21
-4.7684975590551177
0
LINE
8
BLACK
6
CONTINUOUS
10
5.2983842125984255
20
-4.7684975590551177
11
5.2833860629921254
21
-4.7684975590551177
0
LINE
8
BLACK
6
CONTINUOUS
10
5.2833860629921254
20
-4.7684975590551177
11
5.2758870078740152
21
-4.7647480314960626
0
LINE
8
BLACK
6
CONTINUOUS
10
5.3471281102362207
20
-4.7609984645669288
11
5.3508776377952758
21
-4.7647480314960626
0
LINE
8
BLACK
6
CONTINUOUS
10
5.3508776377952758
20
-4.7647480314960626
11
5.3471281102362207
21
-4.7684975590551177
0
LINE
8
BLACK
6
CONTINUOUS
10
5.3471281102362207
20
-4.7684975590551177
11
5.3433785826771656
21
-4.7647480314960626
0
LINE
8
BLACK
6
CONTINUOUS
10
5.3433785826771656
20
-4.7647480314960626
11
5.3471281102362207
21
-4.7609984645669288
0
LINE
8
BLACK
6
CONTINUOUS
10
5.3471281102362207
20
-4.7609984645669288
11
5.3471281102362207
21
-4.7684975590551177
0
LINE
8
BLACK
6
CONTINUOUS
10
5.3471281102362207
20
-4.7197536220472438
11
5.3508776377952758
21
-4.7235031496062989
0
LINE
8
BLACK
6
CONTINUOUS
10
5.3508776377952758
20
-4.7235031496062989
11
5.3471281102362207
21
-4.7272527165354328
0
LINE
8
BLACK
6
CONTINUOUS
10
5.3471281102362207
20
-4.7272527165354328
11
5.3433785826771656
21
-4.7235031496062989
0
LINE
8
BLACK
6
CONTINUOUS
10
5.3433785826771656
20
-4.7235031496062989
11
5.3471281102362207
21
-4.7197536220472438
0
LINE
8
BLACK
6
CONTINUOUS
10
5.3471281102362207
20
-4.7197536220472438
11
5.3471281102362207
21
-4.7272527165354328
0
LINE
8
BLACK
6
CONTINUOUS
10
4.6789370078740156
20
-4.88503937007874
11
4.7045275590551183
21
-4.9106299212598428
0
LINE
8
BLACK
6
CONTINUOUS
10
4.7045275590551183
20
-4.88503937007874
11
4.6789370078740156
21
-4.9106299212598428
0
LINE
8
BLACK
6
CONTINUOUS
10
4.8221937007874018
20
-4.855111732283464
11
4.8296927952755908
21
-4.855111732283464
0
LINE
8
BLACK
6
CONTINUOUS
10
4.8296927952755908
20
-4.855111732283464
11
4.837191850393701
21
-4.8588612598425192
0
LINE
8
BLACK
6
CONTINUOUS
10
4.837191850393701
20
-4.8588612598425192
11
4.8409413779527561
21
-4.8626107874015743
0
LINE
8
BLACK
6
CONTINUOUS
10
4.8409413779527561
20
-4.8626107874015743
11
4.8446909055118113
21
-4.8701098425196854
0
LINE
8
BLACK
6
CONTINUOUS
10
4.8446909055118113
20
-4.8701098425196854
11
4.8484404330708664
21
-4.8851079527559058
0
LINE
8
BLACK
6
CONTINUOUS
10
4.8484404330708664
20
-4.8851079527559058
11
4.8484404330708664
21
-4.9038556299212601
0
LINE
8
BLACK
6
CONTINUOUS
10
4.8484404330708664
20
-4.9038556299212601
11
4.8446909055118113
21
-4.9188537401574806
0
LINE
8
BLACK
6
CONTINUOUS
10
4.8446909055118113
20
-4.9188537401574806
11
4.8409413779527561
21
-4.9263527952755908
0
LINE
8
BLACK
6
CONTINUOUS
10
4.8409413779527561
20
-4.9263527952755908
11
4.837191850393701
21
-4.9301023622047246
0
LINE
8
BLACK
6
CONTINUOUS
10
4.837191850393701
20
-4.9301023622047246
11
4.8296927952755908
21
-4.9338518897637798
0
LINE
8
BLACK
6
CONTINUOUS
10
4.8296927952755908
20
-4.9338518897637798
11
4.8221937007874018
21
-4.9338518897637798
0
LINE
8
BLACK
6
CONTINUOUS
10
4.8221937007874018
20
-4.9338518897637798
11
4.8146946456692916
21
-4.9301023622047246
0
LINE
8
BLACK
6
CONTINUOUS
10
4.8146946456692916
20
-4.9301023622047246
11
4.8109451181102365
21
-4.9263527952755908
0
LINE
8
BLACK
6
CONTINUOUS
10
4.8109451181102365
20
-4.9263527952755908
11
4.8071955905511814
21
-4.9188537401574806
0
LINE
8
BLACK
6
CONTINUOUS
10
4.8071955905511814
20
-4.9188537401574806
11
4.8034460629921263
21
-4.9038556299212601
0
LINE
8
BLACK
6
CONTINUOUS
10
4.8034460629921263
20
-4.9038556299212601
11
4.8034460629921263
21
-4.8851079527559058
0
LINE
8
BLACK
6
CONTINUOUS
10
4.8034460629921263
20
-4.8851079527559058
11
4.8071955905511814
21
-4.8701098425196854
0
LINE
8
BLACK
6
CONTINUOUS
10
4.8071955905511814
20
-4.8701098425196854
11
4.8109451181102365
21
-4.8626107874015743
0
LINE
8
BLACK
6
CONTINUOUS
10
4.8109451181102365
20
-4.8626107874015743
11
4.8146946456692916
21
-4.8588612598425192
0
LINE
8
BLACK
6
CONTINUOUS
10
4.8146946456692916
20
-4.8588612598425192
11
4.8221937007874018
21
-4.855111732283464
0
LINE
8
BLACK
6
CONTINUOUS
10
4.8821862204724411
20
-4.9263527952755908
11
4.8859357480314962
21
-4.9301023622047246
0
LINE
8
BLACK
6
CONTINUOUS
10
4.8859357480314962
20
-4.9301023622047246
11
4.8821862204724411
21
-4.9338518897637798
0
LINE
8
BLACK
6
CONTINUOUS
10
4.8821862204724411
20
-4.9338518897637798
11
4.878436692913386
21
-4.9301023622047246
0
LINE
8
BLACK
6
CONTINUOUS
10
4.878436692913386
20
-4.9301023622047246
11
4.8821862204724411
21
-4.9263527952755908
0
LINE
8
BLACK
6
CONTINUOUS
10
4.8821862204724411
20
-4.9263527952755908
11
4.8821862204724411
21
-4.9338518897637798
0
LINE
8
BLACK
6
CONTINUOUS
10
4.9534273228346457
20
-4.855111732283464
11
4.9384291732283465
21
-4.855111732283464
0
LINE
8
BLACK
6
CONTINUOUS
10
4.9384291732283465
20
-4.855111732283464
11
4.9309301181102363
21
-4.8588612598425192
0
LINE
8
BLACK
6
CONTINUOUS
10
4.9309301181102363
20
-4.8588612598425192
11
4.9271805905511812
21
-4.8626107874015743
0
LINE
8
BLACK
6
CONTINUOUS
10
4.9271805905511812
20
-4.8626107874015743
11
4.919681535433071
21
-4.8738593700787405
0
LINE
8
BLACK
6
CONTINUOUS
10
4.919681535433071
20
-4.8738593700787405
11
4.9159320078740159
21
-4.8888574803149609
0
LINE
8
BLACK
6
CONTINUOUS
10
4.9159320078740159
20
-4.8888574803149609
11
4.9159320078740159
21
-4.9188537401574806
0
LINE
8
BLACK
6
CONTINUOUS
10
4.9159320078740159
20
-4.9188537401574806
11
4.919681535433071
21
-4.9263527952755908
0
LINE
8
BLACK
6
CONTINUOUS
10
4.919681535433071
20
-4.9263527952755908
11
4.9234310629921261
21
-4.9301023622047246
0
LINE
8
BLACK
6
CONTINUOUS
10
4.9234310629921261
20
-4.9301023622047246
11
4.9309301181102363
21
-4.9338518897637798
0
LINE
8
BLACK
6
CONTINUOUS
10
4.9309301181102363
20
-4.9338518897637798
11
4.9459282677165355
21
-4.9338518897637798
0
LINE
8
BLACK
6
CONTINUOUS
10
4.9459282677165355
20
-4.9338518897637798
11
4.9534273228346457
21
-4.9301023622047246
0
LINE
8
BLACK
6
CONTINUOUS
10
4.9534273228346457
20
-4.9301023622047246
11
4.9571768503937008
21
-4.9263527952755908
0
LINE
8
BLACK
6
CONTINUOUS
10
4.9571768503937008
20
-4.9263527952755908
11
4.9609263779527559
21
-4.9188537401574806
0
LINE
8
BLACK
6
CONTINUOUS
10
4.9609263779527559
20
-4.9188537401574806
11
4.9609263779527559
21
-4.900106102362205
0
LINE
8
BLACK
6
CONTINUOUS
10
4.9609263779527559
20
-4.900106102362205
11
4.9571768503937008
21
-4.8926070472440948
0
LINE
8
BLACK
6
CONTINUOUS
10
4.9571768503937008
20
-4.8926070472440948
11
4.9534273228346457
21
-4.8888574803149609
0
LINE
8
BLACK
6
CONTINUOUS
10
4.9534273228346457
20
-4.8888574803149609
11
4.9459282677165355
21
-4.8851079527559058
0
LINE
8
BLACK
6
CONTINUOUS
10
4.9459282677165355
20
-4.8851079527559058
11
4.9309301181102363
21
-4.8851079527559058
0
LINE
8
BLACK
6
CONTINUOUS
10
4.9309301181102363
20
-4.8851079527559058
11
4.9234310629921261
21
-4.8888574803149609
0
LINE
8
BLACK
6
CONTINUOUS
10
4.9234310629921261
20
-4.8888574803149609
11
4.919681535433071
21
-4.8926070472440948
0
LINE
8
BLACK
6
CONTINUOUS
10
4.919681535433071
20
-4.8926070472440948
11
4.9159320078740159
21
-4.900106102362205
0
LINE
8
BLACK
6
CONTINUOUS
10
5.0321674803149605
20
-4.855111732283464
11
4.9946721653543307
21
-4.855111732283464
0
LINE
8
BLACK
6
CONTINUOUS
10
4.9946721653543307
20
-4.855111732283464
11
4.9909226377952756
21
-4.8926070472440948
0
LINE
8
BLACK
6
CONTINUOUS
10
4.9909226377952756
20
-4.8926070472440948
11
4.9946721653543307
21
-4.8888574803149609
0
LINE
8
BLACK
6
CONTINUOUS
10
4.9946721653543307
20
-4.8888574803149609
11
5.0021712204724409
21
-4.8851079527559058
0
LINE
8
BLACK
6
CONTINUOUS
10
5.0021712204724409
20
-4.8851079527559058
11
5.0209188976377952
21
-4.8851079527559058
0
LINE
8
BLACK
6
CONTINUOUS
10
5.0209188976377952
20
-4.8851079527559058
11
5.0284179527559054
21
-4.8888574803149609
0
LINE
8
BLACK
6
CONTINUOUS
10
5.0284179527559054
20
-4.8888574803149609
11
5.0321674803149605
21
-4.8926070472440948
0
LINE
8
BLACK
6
CONTINUOUS
10
5.0321674803149605
20
-4.8926070472440948
11
5.0359170078740156
21
-4.900106102362205
0
LINE
8
BLACK
6
CONTINUOUS
10
5.0359170078740156
20
-4.900106102362205
11
5.0359170078740156
21
-4.9188537401574806
0
LINE
8
BLACK
6
CONTINUOUS
10
5.0359170078740156
20
-4.9188537401574806
11
5.0321674803149605
21
-4.9263527952755908
0
LINE
8
BLACK
6
CONTINUOUS
10
5.0321674803149605
20
-4.9263527952755908
11
5.0284179527559054
21
-4.9301023622047246
0
LINE
8
BLACK
6
CONTINUOUS
10
5.0284179527559054
20
-4.9301023622047246
11
5.0209188976377952
21
-4.9338518897637798
0
LINE
8
BLACK
6
CONTINUOUS
10
5.0209188976377952
20
-4.9338518897637798
11
5.0021712204724409
21
-4.9338518897637798
0
LINE
8
BLACK
6
CONTINUOUS
10
5.0021712204724409
20
-4.9338518897637798
11
4.9946721653543307
21
-4.9301023622047246
0
LINE
8
BLACK
6
CONTINUOUS
10
4.9946721653543307
20
-4.9301023622047246
11
4.9909226377952756
21
-4.9263527952755908
0
LINE
8
BLACK
6
CONTINUOUS
10
5.0846609055118108
20
-4.855111732283464
11
5.0921599999999998
21
-4.855111732283464
0
LINE
8
BLACK
6
CONTINUOUS
10
5.0921599999999998
20
-4.855111732283464
11
5.09965905511811
21
-4.8588612598425192
0
LINE
8
BLACK
6
CONTINUOUS
10
5.09965905511811
20
-4.8588612598425192
11
5.1034085826771651
21
-4.8626107874015743
0
LINE
8
BLACK
6
CONTINUOUS
10
5.1034085826771651
20
-4.8626107874015743
11
5.1071581102362202
21
-4.8701098425196854
0
LINE
8
BLACK
6
CONTINUOUS
10
5.1071581102362202
20
-4.8701098425196854
11
5.1109076377952753
21
-4.8851079527559058
0
LINE
8
BLACK
6
CONTINUOUS
10
5.1109076377952753
20
-4.8851079527559058
11
5.1109076377952753
21
-4.9038556299212601
0
LINE
8
BLACK
6
CONTINUOUS
10
5.1109076377952753
20
-4.9038556299212601
11
5.1071581102362202
21
-4.9188537401574806
0
LINE
8
BLACK
6
CONTINUOUS
10
5.1071581102362202
20
-4.9188537401574806
11
5.1034085826771651
21
-4.9263527952755908
0
LINE
8
BLACK
6
CONTINUOUS
10
5.1034085826771651
20
-4.9263527952755908
11
5.09965905511811
21
-4.9301023622047246
0
LINE
8
BLACK
6
CONTINUOUS
10
5.09965905511811
20
-4.9301023622047246
11
5.0921599999999998
21
-4.9338518897637798
0
LINE
8
BLACK
6
CONTINUOUS
10
5.0921599999999998
20
-4.9338518897637798
11
5.0846609055118108
21
-4.9338518897637798
0
LINE
8
BLACK
6
CONTINUOUS
10
5.0846609055118108
20
-4.9338518897637798
11
5.0771618503937006
21
-4.9301023622047246
0
LINE
8
BLACK
6
CONTINUOUS
10
5.0771618503937006
20
-4.9301023622047246
11
5.0734123228346455
21
-4.9263527952755908
0
LINE
8
BLACK
6
CONTINUOUS
10
5.0734123228346455
20
-4.9263527952755908
11
5.0696627952755904
21
-4.9188537401574806
0
LINE
8
BLACK
6
CONTINUOUS
10
5.0696627952755904
20
-4.9188537401574806
11
5.0659132677165353
21
-4.9038556299212601
0
LINE
8
BLACK
6
CONTINUOUS
10
5.0659132677165353
20
-4.9038556299212601
11
5.0659132677165353
21
-4.8851079527559058
0
LINE
8
BLACK
6
CONTINUOUS
10
5.0659132677165353
20
-4.8851079527559058
11
5.0696627952755904
21
-4.8701098425196854
0
LINE
8
BLACK
6
CONTINUOUS
10
5.0696627952755904
20
-4.8701098425196854
11
5.0734123228346455
21
-4.8626107874015743
0
LINE
8
BLACK
6
CONTINUOUS
10
5.0734123228346455
20
-4.8626107874015743
11
5.0771618503937006
21
-4.8588612598425192
0
LINE
8
BLACK
6
CONTINUOUS
10
5.0771618503937006
20
-4.8588612598425192
11
5.0846609055118108
21
-4.855111732283464
0
LINE
8
BLACK
6
CONTINUOUS
10
5.1446534251968501
20
-4.9338518897637798
11
5.1446534251968501
21
-4.8813584251968507
0
LINE
8
BLACK
6
CONTINUOUS
10
5.1446534251968501
20
-4.8888574803149609
11
5.1484029527559052
21
-4.8851079527559058
0
LINE
8
BLACK
6
CONTINUOUS
10
5.1484029527559052
20
-4.8851079527559058
11
5.1559020078740154
21
-4.8813584251968507
0
LINE
8
BLACK
6
CONTINUOUS
10
5.1559020078740154
20
-4.8813584251968507
11
5.1671506299212595
21
-4.8813584251968507
0
LINE
8
BLACK
6
CONTINUOUS
10
5.1671506299212595
20
-4.8813584251968507
11
5.1746496850393697
21
-4.8851079527559058
0
LINE
8
BLACK
6
CONTINUOUS
10
5.1746496850393697
20
-4.8851079527559058
11
5.1783992125984248
21
-4.8926070472440948
0
LINE
8
BLACK
6
CONTINUOUS
10
5.1783992125984248
20
-4.8926070472440948
11
5.1783992125984248
21
-4.9338518897637798
0
LINE
8
BLACK
6
CONTINUOUS
10
5.1783992125984248
20
-4.8926070472440948
11
5.1821487401574799
21
-4.8851079527559058
0
LINE
8
BLACK
6
CONTINUOUS
10
5.1821487401574799
20
-4.8851079527559058
11
5.1896477952755902
21
-4.8813584251968507
0
LINE
8
BLACK
6
CONTINUOUS
10
5.1896477952755902
20
-4.8813584251968507
11
5.2008963779527555
21
-4.8813584251968507
0
LINE
8
BLACK
6
CONTINUOUS
10
5.2008963779527555
20
-4.8813584251968507
11
5.2083954724409445
21
-4.8851079527559058
0
LINE
8
BLACK
6
CONTINUOUS
10
5.2083954724409445
20
-4.8851079527559058
11
5.2121449999999996
21
-4.8926070472440948
0
LINE
8
BLACK
6
CONTINUOUS
10
5.2121449999999996
20
-4.8926070472440948
11
5.2121449999999996
21
-4.9338518897637798
0
LINE
8
BLACK
6
CONTINUOUS
10
5.2496403149606294
20
-4.9338518897637798
11
5.2496403149606294
21
-4.8813584251968507
0
LINE
8
BLACK
6
CONTINUOUS
10
5.2496403149606294
20
-4.8888574803149609
11
5.2533898425196845
21
-4.8851079527559058
0
LINE
8
BLACK
6
CONTINUOUS
10
5.2533898425196845
20
-4.8851079527559058
11
5.2608888976377948
21
-4.8813584251968507
0
LINE
8
BLACK
6
CONTINUOUS
10
5.2608888976377948
20
-4.8813584251968507
11
5.2721375196850389
21
-4.8813584251968507
0
LINE
8
BLACK
6
CONTINUOUS
10
5.2721375196850389
20
-4.8813584251968507
11
5.2796365748031491
21
-4.8851079527559058
0
LINE
8
BLACK
6
CONTINUOUS
10
5.2796365748031491
20
-4.8851079527559058
11
5.2833861023622042
21
-4.8926070472440948
0
LINE
8
BLACK
6
CONTINUOUS
10
5.2833861023622042
20
-4.8926070472440948
11
5.2833861023622042
21
-4.9338518897637798
0
LINE
8
BLACK
6
CONTINUOUS
10
5.2833861023622042
20
-4.8926070472440948
11
5.2871356299212593
21
-4.8851079527559058
0
LINE
8
BLACK
6
CONTINUOUS
10
5.2871356299212593
20
-4.8851079527559058
11
5.2946346850393695
21
-4.8813584251968507
0
LINE
8
BLACK
6
CONTINUOUS
10
5.2946346850393695
20
-4.8813584251968507
11
5.3058832677165357
21
-4.8813584251968507
0
LINE
8
BLACK
6
CONTINUOUS
10
5.3058832677165357
20
-4.8813584251968507
11
5.3133823622047247
21
-4.8851079527559058
0
LINE
8
BLACK
6
CONTINUOUS
10
5.3133823622047247
20
-4.8851079527559058
11
5.3171318897637798
21
-4.8926070472440948
0
LINE
8
BLACK
6
CONTINUOUS
10
5.3171318897637798
20
-4.8926070472440948
11
5.3171318897637798
21
-4.9338518897637798
0
LINE
8
BLACK
6
CONTINUOUS
10
5.4708626771653543
20
-4.8513622047244089
11
5.4033711417322836
21
-4.9525995275590553
0
LINE
8
BLACK
6
CONTINUOUS
10
5.5721000393700786
20
-4.855111732283464
11
5.5795991338582676
21
-4.855111732283464
0
LINE
8
BLACK
6
CONTINUOUS
10
5.5795991338582676
20
-4.855111732283464
11
5.5870981889763778
21
-4.8588612598425192
0
LINE
8
BLACK
6
CONTINUOUS
10
5.5870981889763778
20
-4.8588612598425192
11
5.5908477165354329
21
-4.8626107874015743
0
LINE
8
BLACK
6
CONTINUOUS
10
5.5908477165354329
20
-4.8626107874015743
11
5.594597244094488
21
-4.8701098425196854
0
LINE
8
BLACK
6
CONTINUOUS
10
5.594597244094488
20
-4.8701098425196854
11
5.5983467716535431
21
-4.8851079527559058
0
LINE
8
BLACK
6
CONTINUOUS
10
5.5983467716535431
20
-4.8851079527559058
11
5.5983467716535431
21
-4.9038556299212601
0
LINE
8
BLACK
6
CONTINUOUS
10
5.5983467716535431
20
-4.9038556299212601
11
5.594597244094488
21
-4.9188537401574806
0
LINE
8
BLACK
6
CONTINUOUS
10
5.594597244094488
20
-4.9188537401574806
11
5.5908477165354329
21
-4.9263527952755908
0
LINE
8
BLACK
6
CONTINUOUS
10
5.5908477165354329
20
-4.9263527952755908
11
5.5870981889763778
21
-4.9301023622047246
0
LINE
8
BLACK
6
CONTINUOUS
10
5.5870981889763778
20
-4.9301023622047246
11
5.5795991338582676
21
-4.9338518897637798
0
LINE
8
BLACK
6
CONTINUOUS
10
5.5795991338582676
20
-4.9338518897637798
11
5.5721000393700786
21
-4.9338518897637798
0
LINE
8
BLACK
6
CONTINUOUS
10
5.5721000393700786
20
-4.9338518897637798
11
5.5646009842519684
21
-4.9301023622047246
0
LINE
8
BLACK
6
CONTINUOUS
10
5.5646009842519684
20
-4.9301023622047246
11
5.5608514566929133
21
-4.9263527952755908
0
LINE
8
BLACK
6
CONTINUOUS
10
5.5608514566929133
20
-4.9263527952755908
11
5.5571019291338581
21
-4.9188537401574806
0
LINE
8
BLACK
6
CONTINUOUS
10
5.5571019291338581
20
-4.9188537401574806
11
5.553352401574803
21
-4.9038556299212601
0
LINE
8
BLACK
6
CONTINUOUS
10
5.553352401574803
20
-4.9038556299212601
11
5.553352401574803
21
-4.8851079527559058
0
LINE
8
BLACK
6
CONTINUOUS
10
5.553352401574803
20
-4.8851079527559058
11
5.5571019291338581
21
-4.8701098425196854
0
LINE
8
BLACK
6
CONTINUOUS
10
5.5571019291338581
20
-4.8701098425196854
11
5.5608514566929133
21
-4.8626107874015743
0
LINE
8
BLACK
6
CONTINUOUS
10
5.5608514566929133
20
-4.8626107874015743
11
5.5646009842519684
21
-4.8588612598425192
0
LINE
8
BLACK
6
CONTINUOUS
10
5.5646009842519684
20
-4.8588612598425192
11
5.5721000393700786
21
-4.855111732283464
0
LINE
8
BLACK
6
CONTINUOUS
10
5.6320925590551179
20
-4.9263527952755908
11
5.635842086614173
21
-4.9301023622047246
0
LINE
8
BLACK
6
CONTINUOUS
10
5.635842086614173
20
-4.9301023622047246
11
5.6320925590551179
21
-4.9338518897637798
0
LINE
8
BLACK
6
CONTINUOUS
10
5.6320925590551179
20
-4.9338518897637798
11
5.6283430314960627
21
-4.9301023622047246
0
LINE
8
BLACK
6
CONTINUOUS
10
5.6283430314960627
20
-4.9301023622047246
11
5.6320925590551179
21
-4.9263527952755908
0
LINE
8
BLACK
6
CONTINUOUS
10
5.6320925590551179
20
-4.9263527952755908
11
5.6320925590551179
21
-4.9338518897637798
0
LINE
8
BLACK
6
CONTINUOUS
10
5.6845859842519681
20
-4.855111732283464
11
5.6920850787401571
21
-4.855111732283464
0
LINE
8
BLACK
6
CONTINUOUS
10
5.6920850787401571
20
-4.855111732283464
11
5.6995841338582673
21
-4.8588612598425192
0
LINE
8
BLACK
6
CONTINUOUS
10
5.6995841338582673
20
-4.8588612598425192
11
5.7033336614173225
21
-4.8626107874015743
0
LINE
8
BLACK
6
CONTINUOUS
10
5.7033336614173225
20
-4.8626107874015743
11
5.7070831889763776
21
-4.8701098425196854
0
LINE
8
BLACK
6
CONTINUOUS
10
5.7070831889763776
20
-4.8701098425196854
11
5.7108327165354327
21
-4.8851079527559058
0
LINE
8
BLACK
6
CONTINUOUS
10
5.7108327165354327
20
-4.8851079527559058
11
5.7108327165354327
21
-4.9038556299212601
0
LINE
8
BLACK
6
CONTINUOUS
10
5.7108327165354327
20
-4.9038556299212601
11
5.7070831889763776
21
-4.9188537401574806
0
LINE
8
BLACK
6
CONTINUOUS
10
5.7070831889763776
20
-4.9188537401574806
11
5.7033336614173225
21
-4.9263527952755908
0
LINE
8
BLACK
6
CONTINUOUS
10
5.7033336614173225
20
-4.9263527952755908
11
5.6995841338582673
21
-4.9301023622047246
0
LINE
8
BLACK
6
CONTINUOUS
10
5.6995841338582673
20
-4.9301023622047246
11
5.6920850787401571
21
-4.9338518897637798
0
LINE
8
BLACK
6
CONTINUOUS
10
5.6920850787401571
20
-4.9338518897637798
11
5.6845859842519681
21
-4.9338518897637798
0
LINE
8
BLACK
6
CONTINUOUS
10
5.6845859842519681
20
-4.9338518897637798
11
5.6770869291338579
21
-4.9301023622047246
0
LINE
8
BLACK
6
CONTINUOUS
10
5.6770869291338579
20
-4.9301023622047246
11
5.6733374015748028
21
-4.9263527952755908
0
LINE
8
BLACK
6
CONTINUOUS
10
5.6733374015748028
20
-4.9263527952755908
11
5.6695878740157477
21
-4.9188537401574806
0
LINE
8
BLACK
6
CONTINUOUS
10
5.6695878740157477
20
-4.9188537401574806
11
5.6658383464566926
21
-4.9038556299212601
0
LINE
8
BLACK
6
CONTINUOUS
10
5.6658383464566926
20
-4.9038556299212601
11
5.6658383464566926
21
-4.8851079527559058
0
LINE
8
BLACK
6
CONTINUOUS
10
5.6658383464566926
20
-4.8851079527559058
11
5.6695878740157477
21
-4.8701098425196854
0
LINE
8
BLACK
6
CONTINUOUS
10
5.6695878740157477
20
-4.8701098425196854
11
5.6733374015748028
21
-4.8626107874015743
0
LINE
8
BLACK
6
CONTINUOUS
10
5.6733374015748028
20
-4.8626107874015743
11
5.6770869291338579
21
-4.8588612598425192
0
LINE
8
BLACK
6
CONTINUOUS
10
5.6770869291338579
20
-4.8588612598425192
11
5.6845859842519681
21
-4.855111732283464
0
LINE
8
BLACK
6
CONTINUOUS
10
5.7408289763779523
20
-4.8626107874015743
11
5.7445785039370074
21
-4.8588612598425192
0
LINE
8
BLACK
6
CONTINUOUS
10
5.7445785039370074
20
-4.8588612598425192
11
5.7520775590551176
21
-4.855111732283464
0
LINE
8
BLACK
6
CONTINUOUS
10
5.7520775590551176
20
-4.855111732283464
11
5.7708252362204719
21
-4.855111732283464
0
LINE
8
BLACK
6
CONTINUOUS
10
5.7708252362204719
20
-4.855111732283464
11
5.7783242913385822
21
-4.8588612598425192
0
LINE
8
BLACK
6
CONTINUOUS
10
5.7783242913385822
20
-4.8588612598425192
11
5.7820738188976373
21
-4.8626107874015743
0
LINE
8
BLACK
6
CONTINUOUS
10
5.7820738188976373
20
-4.8626107874015743
11
5.7858233464566924
21
-4.8701098425196854
0
LINE
8
BLACK
6
CONTINUOUS
10
5.7858233464566924
20
-4.8701098425196854
11
5.7858233464566924
21
-4.8776088976377956
0
LINE
8
BLACK
6
CONTINUOUS
10
5.7858233464566924
20
-4.8776088976377956
11
5.7820738188976373
21
-4.8888574803149609
0
LINE
8
BLACK
6
CONTINUOUS
10
5.7820738188976373
20
-4.8888574803149609
11
5.7370794488188972
21
-4.9338518897637798
0
LINE
8
BLACK
6
CONTINUOUS
10
5.7370794488188972
20
-4.9338518897637798
11
5.7858233464566924
21
-4.9338518897637798
0
LINE
8
BLACK
6
CONTINUOUS
10
5.8570644488188979
20
-4.855111732283464
11
5.819569133858268
21
-4.855111732283464
0
LINE
8
BLACK
6
CONTINUOUS
10
5.819569133858268
20
-4.855111732283464
11
5.8158196062992129
21
-4.8926070472440948
0
LINE
8
BLACK
6
CONTINUOUS
10
5.8158196062992129
20
-4.8926070472440948
11
5.819569133858268
21
-4.8888574803149609
0
LINE
8
BLACK
6
CONTINUOUS
10
5.819569133858268
20
-4.8888574803149609
11
5.8270681889763782
21
-4.8851079527559058
0
LINE
8
BLACK
6
CONTINUOUS
10
5.8270681889763782
20
-4.8851079527559058
11
5.8458158661417325
21
-4.8851079527559058
0
LINE
8
BLACK
6
CONTINUOUS
10
5.8458158661417325
20
-4.8851079527559058
11
5.8533149212598428
21
-4.8888574803149609
0
LINE
8
BLACK
6
CONTINUOUS
10
5.8533149212598428
20
-4.8888574803149609
11
5.8570644488188979
21
-4.8926070472440948
0
LINE
8
BLACK
6
CONTINUOUS
10
5.8570644488188979
20
-4.8926070472440948
11
5.860813976377953
21
-4.900106102362205
0
LINE
8
BLACK
6
CONTINUOUS
10
5.860813976377953
20
-4.900106102362205
11
5.860813976377953
21
-4.9188537401574806
0
LINE
8
BLACK
6
CONTINUOUS
10
5.860813976377953
20
-4.9188537401574806
11
5.8570644488188979
21
-4.9263527952755908
0
LINE
8
BLACK
6
CONTINUOUS
10
5.8570644488188979
20
-4.9263527952755908
11
5.8533149212598428
21
-4.9301023622047246
0
LINE
8
BLACK
6
CONTINUOUS
10
5.8533149212598428
20
-4.9301023622047246
11
5.8458158661417325
21
-4.9338518897637798
0
LINE
8
BLACK
6
CONTINUOUS
10
5.8458158661417325
20
-4.9338518897637798
11
5.8270681889763782
21
-4.9338518897637798
0
LINE
8
BLACK
6
CONTINUOUS
10
5.8270681889763782
20
-4.9338518897637798
11
5.819569133858268
21
-4.9301023622047246
0
LINE
8
BLACK
6
CONTINUOUS
10
5.819569133858268
20
-4.9301023622047246
11
5.8158196062992129
21
-4.9263527952755908
0
LINE
8
BLACK
6
CONTINUOUS
10
5.9283055511811025
20
-4.855111732283464
11
5.9133074015748033
21
-4.855111732283464
0
LINE
8
BLACK
6
CONTINUOUS
10
5.9133074015748033
20
-4.855111732283464
11
5.9058083464566931
21
-4.8588612598425192
0
LINE
8
BLACK
6
CONTINUOUS
10
5.9058083464566931
20
-4.8588612598425192
11
5.9020588188976379
21
-4.8626107874015743
0
LINE
8
BLACK
6
CONTINUOUS
10
5.9020588188976379
20
-4.8626107874015743
11
5.8945597637795277
21
-4.8738593700787405
0
LINE
8
BLACK
6
CONTINUOUS
10
5.8945597637795277
20
-4.8738593700787405
11
5.8908102362204726
21
-4.8888574803149609
0
LINE
8
BLACK
6
CONTINUOUS
10
5.8908102362204726
20
-4.8888574803149609
11
5.8908102362204726
21
-4.9188537401574806
0
LINE
8
BLACK
6
CONTINUOUS
10
5.8908102362204726
20
-4.9188537401574806
11
5.8945597637795277
21
-4.9263527952755908
0
LINE
8
BLACK
6
CONTINUOUS
10
5.8945597637795277
20
-4.9263527952755908
11
5.8983092913385828
21
-4.9301023622047246
0
LINE
8
BLACK
6
CONTINUOUS
10
5.8983092913385828
20
-4.9301023622047246
11
5.9058083464566931
21
-4.9338518897637798
0
LINE
8
BLACK
6
CONTINUOUS
10
5.9058083464566931
20
-4.9338518897637798
11
5.9208064960629923
21
-4.9338518897637798
0
LINE
8
BLACK
6
CONTINUOUS
10
5.9208064960629923
20
-4.9338518897637798
11
5.9283055511811025
21
-4.9301023622047246
0
LINE
8
BLACK
6
CONTINUOUS
10
5.9283055511811025
20
-4.9301023622047246
11
5.9320550787401576
21
-4.9263527952755908
0
LINE
8
BLACK
6
CONTINUOUS
10
5.9320550787401576
20
-4.9263527952755908
11
5.9358046062992127
21
-4.9188537401574806
0
LINE
8
BLACK
6
CONTINUOUS
10
5.9358046062992127
20
-4.9188537401574806
11
5.9358046062992127
21
-4.900106102362205
0
LINE
8
BLACK
6
CONTINUOUS
10
5.9358046062992127
20
-4.900106102362205
11
5.9320550787401576
21
-4.8926070472440948
0
LINE
8
BLACK
6
CONTINUOUS
10
5.9320550787401576
20
-4.8926070472440948
11
5.9283055511811025
21
-4.8888574803149609
0
LINE
8
BLACK
6
CONTINUOUS
10
5.9283055511811025
20
-4.8888574803149609
11
5.9208064960629923
21
-4.8851079527559058
0
LINE
8
BLACK
6
CONTINUOUS
10
5.9208064960629923
20
-4.8851079527559058
11
5.9058083464566931
21
-4.8851079527559058
0
LINE
8
BLACK
6
CONTINUOUS
10
5.9058083464566931
20
-4.8851079527559058
11
5.8983092913385828
21
-4.8888574803149609
0
LINE
8
BLACK
6
CONTINUOUS
10
5.8983092913385828
20
-4.8888574803149609
11
5.8945597637795277
21
-4.8926070472440948
0
LINE
8
BLACK
6
CONTINUOUS
10
5.8945597637795277
20
-4.8926070472440948
11
5.8908102362204726
21
-4.900106102362205
0
LINE
8
BLACK
6
CONTINUOUS
10
5.9658008661417323
20
-4.855111732283464
11
5.9658008661417323
21
-4.8701098425196854
0
LINE
8
BLACK
6
CONTINUOUS
10
5.995797125984252
20
-4.855111732283464
11
5.995797125984252
21
-4.8701098425196854
0
LINE
8
BLACK
6
CONTINUOUS
10
6.1120326377952754
20
-4.9638481102362206
11
6.1082830708661415
21
-4.9600985826771655
0
LINE
8
BLACK
6
CONTINUOUS
10
6.1082830708661415
20
-4.9600985826771655
11
6.1007840157480313
21
-4.9488500000000002
0
LINE
8
BLACK
6
CONTINUOUS
10
6.1007840157480313
20
-4.9488500000000002
11
6.0970344881889762
21
-4.94135094488189
0
LINE
8
BLACK
6
CONTINUOUS
10
6.0970344881889762
20
-4.94135094488189
11
6.0932849606299211
21
-4.9301023622047246
0
LINE
8
BLACK
6
CONTINUOUS
10
6.0932849606299211
20
-4.9301023622047246
11
6.089535433070866
21
-4.9113546850393703
0
LINE
8
BLACK
6
CONTINUOUS
10
6.089535433070866
20
-4.9113546850393703
11
6.089535433070866
21
-4.8963565748031499
0
LINE
8
BLACK
6
CONTINUOUS
10
6.089535433070866
20
-4.8963565748031499
11
6.0932849606299211
21
-4.8776088976377956
0
LINE
8
BLACK
6
CONTINUOUS
10
6.0932849606299211
20
-4.8776088976377956
11
6.0970344881889762
21
-4.8663603149606294
0
LINE
8
BLACK
6
CONTINUOUS
10
6.0970344881889762
20
-4.8663603149606294
11
6.1007840157480313
21
-4.8588612598425192
0
LINE
8
BLACK
6
CONTINUOUS
10
6.1007840157480313
20
-4.8588612598425192
11
6.1082830708661415
21
-4.8476126377952751
0
LINE
8
BLACK
6
CONTINUOUS
10
6.1082830708661415
20
-4.8476126377952751
11
6.1120326377952754
21
-4.84386311023622
0
LINE
8
BLACK
6
CONTINUOUS
10
6.1382793307086612
20
-4.8626107874015743
11
6.1420288582677163
21
-4.8588612598425192
0
LINE
8
BLACK
6
CONTINUOUS
10
6.1420288582677163
20
-4.8588612598425192
11
6.1495279133858265
21
-4.855111732283464
0
LINE
8
BLACK
6
CONTINUOUS
10
6.1495279133858265
20
-4.855111732283464
11
6.1682755905511808
21
-4.855111732283464
0
LINE
8
BLACK
6
CONTINUOUS
10
6.1682755905511808
20
-4.855111732283464
11
6.175774645669291
21
-4.8588612598425192
0
LINE
8
BLACK
6
CONTINUOUS
10
6.175774645669291
20
-4.8588612598425192
11
6.1795241732283461
21
-4.8626107874015743
0
LINE
8
BLACK
6
CONTINUOUS
10
6.1795241732283461
20
-4.8626107874015743
11
6.1832737007874012
21
-4.8701098425196854
0
LINE
8
BLACK
6
CONTINUOUS
10
6.1832737007874012
20
-4.8701098425196854
11
6.1832737007874012
21
-4.8776088976377956
0
LINE
8
BLACK
6
CONTINUOUS
10
6.1832737007874012
20
-4.8776088976377956
11
6.1795241732283461
21
-4.8888574803149609
0
LINE
8
BLACK
6
CONTINUOUS
10
6.1795241732283461
20
-4.8888574803149609
11
6.1345298031496061
21
-4.9338518897637798
0
LINE
8
BLACK
6
CONTINUOUS
10
6.1345298031496061
20
-4.9338518897637798
11
6.1832737007874012
21
-4.9338518897637798
0
LINE
8
BLACK
6
CONTINUOUS
10
6.2770120078740153
20
-4.9338518897637798
11
6.2770120078740153
21
-4.855111732283464
0
LINE
8
BLACK
6
CONTINUOUS
10
6.31075779527559
20
-4.9338518897637798
11
6.31075779527559
21
-4.8926070472440948
0
LINE
8
BLACK
6
CONTINUOUS
10
6.31075779527559
20
-4.8926070472440948
11
6.3070082677165349
21
-4.8851079527559058
0
LINE
8
BLACK
6
CONTINUOUS
10
6.3070082677165349
20
-4.8851079527559058
11
6.2995092125984247
21
-4.8813584251968507
0
LINE
8
BLACK
6
CONTINUOUS
10
6.2995092125984247
20
-4.8813584251968507
11
6.2882605905511806
21
-4.8813584251968507
0
LINE
8
BLACK
6
CONTINUOUS
10
6.2882605905511806
20
-4.8813584251968507
11
6.2807615354330704
21
-4.8851079527559058
0
LINE
8
BLACK
6
CONTINUOUS
10
6.2807615354330704
20
-4.8851079527559058
11
6.2770120078740153
21
-4.8888574803149609
0
LINE
8
BLACK
6
CONTINUOUS
10
6.3595016929133861
20
-4.9338518897637798
11
6.3520026377952759
21
-4.9301023622047246
0
LINE
8
BLACK
6
CONTINUOUS
10
6.3520026377952759
20
-4.9301023622047246
11
6.3482531102362207
21
-4.9263527952755908
0
LINE
8
BLACK
6
CONTINUOUS
10
6.3482531102362207
20
-4.9263527952755908
11
6.3445035826771656
21
-4.9188537401574806
0
LINE
8
BLACK
6
CONTINUOUS
10
6.3445035826771656
20
-4.9188537401574806
11
6.3445035826771656
21
-4.8963565748031499
0
LINE
8
BLACK
6
CONTINUOUS
10
6.3445035826771656
20
-4.8963565748031499
11
6.3482531102362207
21
-4.8888574803149609
0
LINE
8
BLACK
6
CONTINUOUS
10
6.3482531102362207
20
-4.8888574803149609
11
6.3520026377952759
21
-4.8851079527559058
0
LINE
8
BLACK
6
CONTINUOUS
10
6.3520026377952759
20
-4.8851079527559058
11
6.3595016929133861
21
-4.8813584251968507
0
LINE
8
BLACK
6
CONTINUOUS
10
6.3595016929133861
20
-4.8813584251968507
11
6.3707503149606302
21
-4.8813584251968507
0
LINE
8
BLACK
6
CONTINUOUS
10
6.3707503149606302
20
-4.8813584251968507
11
6.3782493700787404
21
-4.8851079527559058
0
LINE
8
BLACK
6
CONTINUOUS
10
6.3782493700787404
20
-4.8851079527559058
11
6.3819988976377955
21
-4.8888574803149609
0
LINE
8
BLACK
6
CONTINUOUS
10
6.3819988976377955
20
-4.8888574803149609
11
6.3857484251968506
21
-4.8963565748031499
0
LINE
8
BLACK
6
CONTINUOUS
10
6.3857484251968506
20
-4.8963565748031499
11
6.3857484251968506
21
-4.9188537401574806
0
LINE
8
BLACK
6
CONTINUOUS
10
6.3857484251968506
20
-4.9188537401574806
11
6.3819988976377955
21
-4.9263527952755908
0
LINE
8
BLACK
6
CONTINUOUS
10
6.3819988976377955
20
-4.9263527952755908
11
6.3782493700787404
21
-4.9301023622047246
0
LINE
8
BLACK
6
CONTINUOUS
10
6.3782493700787404
20
-4.9301023622047246
11
6.3707503149606302
21
-4.9338518897637798
0
LINE
8
BLACK
6
CONTINUOUS
10
6.3707503149606302
20
-4.9338518897637798
11
6.3595016929133861
21
-4.9338518897637798
0
LINE
8
BLACK
6
CONTINUOUS
10
6.4307427952755907
20
-4.9338518897637798
11
6.4232437401574805
21
-4.9301023622047246
0
LINE
8
BLACK
6
CONTINUOUS
10
6.4232437401574805
20
-4.9301023622047246
11
6.4194942125984253
21
-4.9226032677165357
0
LINE
8
BLACK
6
CONTINUOUS
10
6.4194942125984253
20
-4.9226032677165357
11
6.4194942125984253
21
-4.855111732283464
0
LINE
8
BLACK
6
CONTINUOUS
10
6.4907353149606299
20
-4.9301023622047246
11
6.4832362598425197
21
-4.9338518897637798
0
LINE
8
BLACK
6
CONTINUOUS
10
6.4832362598425197
20
-4.9338518897637798
11
6.4682381102362205
21
-4.9338518897637798
0
LINE
8
BLACK
6
CONTINUOUS
10
6.4682381102362205
20
-4.9338518897637798
11
6.4607390551181103
21
-4.9301023622047246
0
LINE
8
BLACK
6
CONTINUOUS
10
6.4607390551181103
20
-4.9301023622047246
11
6.4569895275590552
21
-4.9226032677165357
0
LINE
8
BLACK
6
CONTINUOUS
10
6.4569895275590552
20
-4.9226032677165357
11
6.4569895275590552
21
-4.8926070472440948
0
LINE
8
BLACK
6
CONTINUOUS
10
6.4569895275590552
20
-4.8926070472440948
11
6.4607390551181103
21
-4.8851079527559058
0
LINE
8
BLACK
6
CONTINUOUS
10
6.4607390551181103
20
-4.8851079527559058
11
6.4682381102362205
21
-4.8813584251968507
0
LINE
8
BLACK
6
CONTINUOUS
10
6.4682381102362205
20
-4.8813584251968507
11
6.4832362598425197
21
-4.8813584251968507
0
LINE
8
BLACK
6
CONTINUOUS
10
6.4832362598425197
20
-4.8813584251968507
11
6.4907353149606299
21
-4.8851079527559058
0
LINE
8
BLACK
6
CONTINUOUS
10
6.4907353149606299
20
-4.8851079527559058
11
6.4944848425196851
21
-4.8926070472440948
0
LINE
8
BLACK
6
CONTINUOUS
10
6.4944848425196851
20
-4.8926070472440948
11
6.4944848425196851
21
-4.900106102362205
0
LINE
8
BLACK
6
CONTINUOUS
10
6.4944848425196851
20
-4.900106102362205
11
6.4569895275590552
21
-4.9076051574803152
0
LINE
8
BLACK
6
CONTINUOUS
10
6.5244811023622047
20
-4.9301023622047246
11
6.5319801574803149
21
-4.9338518897637798
0
LINE
8
BLACK
6
CONTINUOUS
10
6.5319801574803149
20
-4.9338518897637798
11
6.5469782677165353
21
-4.9338518897637798
0
LINE
8
BLACK
6
CONTINUOUS
10
6.5469782677165353
20
-4.9338518897637798
11
6.5544773622047243
21
-4.9301023622047246
0
LINE
8
BLACK
6
CONTINUOUS
10
6.5544773622047243
20
-4.9301023622047246
11
6.5582268897637794
21
-4.9226032677165357
0
LINE
8
BLACK
6
CONTINUOUS
10
6.5582268897637794
20
-4.9226032677165357
11
6.5582268897637794
21
-4.9188537401574806
0
LINE
8
BLACK
6
CONTINUOUS
10
6.5582268897637794
20
-4.9188537401574806
11
6.5544773622047243
21
-4.9113546850393703
0
LINE
8
BLACK
6
CONTINUOUS
10
6.5544773622047243
20
-4.9113546850393703
11
6.5469782677165353
21
-4.9076051574803152
0
LINE
8
BLACK
6
CONTINUOUS
10
6.5469782677165353
20
-4.9076051574803152
11
6.53572968503937
21
-4.9076051574803152
0
LINE
8
BLACK
6
CONTINUOUS
10
6.53572968503937
20
-4.9076051574803152
11
6.5282306299212598
21
-4.9038556299212601
0
LINE
8
BLACK
6
CONTINUOUS
10
6.5282306299212598
20
-4.9038556299212601
11
6.5244811023622047
21
-4.8963565748031499
0
LINE
8
BLACK
6
CONTINUOUS
10
6.5244811023622047
20
-4.8963565748031499
11
6.5244811023622047
21
-4.8926070472440948
0
LINE
8
BLACK
6
CONTINUOUS
10
6.5244811023622047
20
-4.8926070472440948
11
6.5282306299212598
21
-4.8851079527559058
0
LINE
8
BLACK
6
CONTINUOUS
10
6.5282306299212598
20
-4.8851079527559058
11
6.53572968503937
21
-4.8813584251968507
0
LINE
8
BLACK
6
CONTINUOUS
10
6.53572968503937
20
-4.8813584251968507
11
6.5469782677165353
21
-4.8813584251968507
0
LINE
8
BLACK
6
CONTINUOUS
10
6.5469782677165353
20
-4.8813584251968507
11
6.5544773622047243
21
-4.8851079527559058
0
LINE
8
BLACK
6
CONTINUOUS
10
6.584473622047244
20
-4.9638481102362206
11
6.5882231496062991
21
-4.9600985826771655
0
LINE
8
BLACK
6
CONTINUOUS
10
6.5882231496062991
20
-4.9600985826771655
11
6.5957222047244093
21
-4.9488500000000002
0
LINE
8
BLACK
6
CONTINUOUS
10
6.5957222047244093
20
-4.9488500000000002
11
6.5994717322834644
21
-4.94135094488189
0
LINE
8
BLACK
6
CONTINUOUS
10
6.5994717322834644
20
-4.94135094488189
11
6.6032212598425195
21
-4.9301023622047246
0
LINE
8
BLACK
6
CONTINUOUS
10
6.6032212598425195
20
-4.9301023622047246
11
6.6069707874015746
21
-4.9113546850393703
0
LINE
8
BLACK
6
CONTINUOUS
10
6.6069707874015746
20
-4.9113546850393703
11
6.6069707874015746
21
-4.8963565748031499
0
LINE
8
BLACK
6
CONTINUOUS
10
6.6069707874015746
20
-4.8963565748031499
11
6.6032212598425195
21
-4.8776088976377956
0
LINE
8
BLACK
6
CONTINUOUS
10
6.6032212598425195
20
-4.8776088976377956
11
6.5994717322834644
21
-4.8663603149606294
0
LINE
8
BLACK
6
CONTINUOUS
10
6.5994717322834644
20
-4.8663603149606294
11
6.5957222047244093
21
-4.8588612598425192
0
LINE
8
BLACK
6
CONTINUOUS
10
6.5957222047244093
20
-4.8588612598425192
11
6.5882231496062991
21
-4.8476126377952751
0
LINE
8
BLACK
6
CONTINUOUS
10
6.5882231496062991
20
-4.8476126377952751
11
6.584473622047244
21
-4.84386311023622
0
LINE
8
BLACK
6
CONTINUOUS
10
6.7269558267716532
20
-4.9638481102362206
11
6.7232062598425193
21
-4.9600985826771655
0
LINE
8
BLACK
6
CONTINUOUS
10
6.7232062598425193
20
-4.9600985826771655
11
6.7157072047244091
21
-4.9488500000000002
0
LINE
8
BLACK
6
CONTINUOUS
10
6.7157072047244091
20
-4.9488500000000002
11
6.711957677165354
21
-4.94135094488189
0
LINE
8
BLACK
6
CONTINUOUS
10
6.711957677165354
20
-4.94135094488189
11
6.7082081496062989
21
-4.9301023622047246
0
LINE
8
BLACK
6
CONTINUOUS
10
6.7082081496062989
20
-4.9301023622047246
11
6.7044586220472437
21
-4.9113546850393703
0
LINE
8
BLACK
6
CONTINUOUS
10
6.7044586220472437
20
-4.9113546850393703
11
6.7044586220472437
21
-4.8963565748031499
0
LINE
8
BLACK
6
CONTINUOUS
10
6.7044586220472437
20
-4.8963565748031499
11
6.7082081496062989
21
-4.8776088976377956
0
LINE
8
BLACK
6
CONTINUOUS
10
6.7082081496062989
20
-4.8776088976377956
11
6.711957677165354
21
-4.8663603149606294
0
LINE
8
BLACK
6
CONTINUOUS
10
6.711957677165354
20
-4.8663603149606294
11
6.7157072047244091
21
-4.8588612598425192
0
LINE
8
BLACK
6
CONTINUOUS
10
6.7157072047244091
20
-4.8588612598425192
11
6.7232062598425193
21
-4.8476126377952751
0
LINE
8
BLACK
6
CONTINUOUS
10
6.7232062598425193
20
-4.8476126377952751
11
6.7269558267716532
21
-4.84386311023622
0
LINE
8
BLACK
6
CONTINUOUS
10
6.756952047244094
20
-4.8813584251968507
11
6.756952047244094
21
-4.9338518897637798
0
LINE
8
BLACK
6
CONTINUOUS
10
6.756952047244094
20
-4.8888574803149609
11
6.7607015748031491
21
-4.8851079527559058
0
LINE
8
BLACK
6
CONTINUOUS
10
6.7607015748031491
20
-4.8851079527559058
11
6.7682006299212594
21
-4.8813584251968507
0
LINE
8
BLACK
6
CONTINUOUS
10
6.7682006299212594
20
-4.8813584251968507
11
6.7794492519685035
21
-4.8813584251968507
0
LINE
8
BLACK
6
CONTINUOUS
10
6.7794492519685035
20
-4.8813584251968507
11
6.7869483070866137
21
-4.8851079527559058
0
LINE
8
BLACK
6
CONTINUOUS
10
6.7869483070866137
20
-4.8851079527559058
11
6.7906978346456688
21
-4.8926070472440948
0
LINE
8
BLACK
6
CONTINUOUS
10
6.7906978346456688
20
-4.8926070472440948
11
6.7906978346456688
21
-4.9338518897637798
0
LINE
8
BLACK
6
CONTINUOUS
10
6.839441732283464
20
-4.9338518897637798
11
6.8319426771653538
21
-4.9301023622047246
0
LINE
8
BLACK
6
CONTINUOUS
10
6.8319426771653538
20
-4.9301023622047246
11
6.8281931496062986
21
-4.9263527952755908
0
LINE
8
BLACK
6
CONTINUOUS
10
6.8281931496062986
20
-4.9263527952755908
11
6.8244436220472435
21
-4.9188537401574806
0
LINE
8
BLACK
6
CONTINUOUS
10
6.8244436220472435
20
-4.9188537401574806
11
6.8244436220472435
21
-4.8963565748031499
0
LINE
8
BLACK
6
CONTINUOUS
10
6.8244436220472435
20
-4.8963565748031499
11
6.8281931496062986
21
-4.8888574803149609
0
LINE
8
BLACK
6
CONTINUOUS
10
6.8281931496062986
20
-4.8888574803149609
11
6.8319426771653538
21
-4.8851079527559058
0
LINE
8
BLACK
6
CONTINUOUS
10
6.8319426771653538
20
-4.8851079527559058
11
6.839441732283464
21
-4.8813584251968507
0
LINE
8
BLACK
6
CONTINUOUS
10
6.839441732283464
20
-4.8813584251968507
11
6.8506903543307089
21
-4.8813584251968507
0
LINE
8
BLACK
6
CONTINUOUS
10
6.8506903543307089
20
-4.8813584251968507
11
6.8581894094488192
21
-4.8851079527559058
0
LINE
8
BLACK
6
CONTINUOUS
10
6.8581894094488192
20
-4.8851079527559058
11
6.8619389370078743
21
-4.8888574803149609
0
LINE
8
BLACK
6
CONTINUOUS
10
6.8619389370078743
20
-4.8888574803149609
11
6.8656884645669294
21
-4.8963565748031499
0
LINE
8
BLACK
6
CONTINUOUS
10
6.8656884645669294
20
-4.8963565748031499
11
6.8656884645669294
21
-4.9188537401574806
0
LINE
8
BLACK
6
CONTINUOUS
10
6.8656884645669294
20
-4.9188537401574806
11
6.8619389370078743
21
-4.9263527952755908
0
LINE
8
BLACK
6
CONTINUOUS
10
6.8619389370078743
20
-4.9263527952755908
11
6.8581894094488192
21
-4.9301023622047246
0
LINE
8
BLACK
6
CONTINUOUS
10
6.8581894094488192
20
-4.9301023622047246
11
6.8506903543307089
21
-4.9338518897637798
0
LINE
8
BLACK
6
CONTINUOUS
10
6.8506903543307089
20
-4.9338518897637798
11
6.839441732283464
21
-4.9338518897637798
0
LINE
8
BLACK
6
CONTINUOUS
10
6.8881856692913388
20
-4.8813584251968507
11
6.9181818897637797
21
-4.8813584251968507
0
LINE
8
BLACK
6
CONTINUOUS
10
6.8994342519685041
20
-4.855111732283464
11
6.8994342519685041
21
-4.9226032677165357
0
LINE
8
BLACK
6
CONTINUOUS
10
6.8994342519685041
20
-4.9226032677165357
11
6.9031837795275592
21
-4.9301023622047246
0
LINE
8
BLACK
6
CONTINUOUS
10
6.9031837795275592
20
-4.9301023622047246
11
6.9106828346456695
21
-4.9338518897637798
0
LINE
8
BLACK
6
CONTINUOUS
10
6.9106828346456695
20
-4.9338518897637798
11
6.9181818897637797
21
-4.9338518897637798
0
LINE
8
BLACK
6
CONTINUOUS
10
7.0044211417322835
20
-4.8813584251968507
11
7.0044211417322835
21
-4.9600985826771655
0
LINE
8
BLACK
6
CONTINUOUS
10
7.0044211417322835
20
-4.8851079527559058
11
7.0119201968503937
21
-4.8813584251968507
0
LINE
8
BLACK
6
CONTINUOUS
10
7.0119201968503937
20
-4.8813584251968507
11
7.0269183464566929
21
-4.8813584251968507
0
LINE
8
BLACK
6
CONTINUOUS
10
7.0269183464566929
20
-4.8813584251968507
11
7.0344174015748031
21
-4.8851079527559058
0
LINE
8
BLACK
6
CONTINUOUS
10
7.0344174015748031
20
-4.8851079527559058
11
7.0381669291338582
21
-4.8888574803149609
0
LINE
8
BLACK
6
CONTINUOUS
10
7.0381669291338582
20
-4.8888574803149609
11
7.0419164566929133
21
-4.8963565748031499
0
LINE
8
BLACK
6
CONTINUOUS
10
7.0419164566929133
20
-4.8963565748031499
11
7.0419164566929133
21
-4.9188537401574806
0
LINE
8
BLACK
6
CONTINUOUS
10
7.0419164566929133
20
-4.9188537401574806
11
7.0381669291338582
21
-4.9263527952755908
0
LINE
8
BLACK
6
CONTINUOUS
10
7.0381669291338582
20
-4.9263527952755908
11
7.0344174015748031
21
-4.9301023622047246
0
LINE
8
BLACK
6
CONTINUOUS
10
7.0344174015748031
20
-4.9301023622047246
11
7.0269183464566929
21
-4.9338518897637798
0
LINE
8
BLACK
6
CONTINUOUS
10
7.0269183464566929
20
-4.9338518897637798
11
7.0119201968503937
21
-4.9338518897637798
0
LINE
8
BLACK
6
CONTINUOUS
10
7.0119201968503937
20
-4.9338518897637798
11
7.0044211417322835
21
-4.9301023622047246
0
LINE
8
BLACK
6
CONTINUOUS
10
7.0869108267716534
20
-4.9338518897637798
11
7.0794117716535432
21
-4.9301023622047246
0
LINE
8
BLACK
6
CONTINUOUS
10
7.0794117716535432
20
-4.9301023622047246
11
7.0756622440944881
21
-4.9226032677165357
0
LINE
8
BLACK
6
CONTINUOUS
10
7.0756622440944881
20
-4.9226032677165357
11
7.0756622440944881
21
-4.855111732283464
0
LINE
8
BLACK
6
CONTINUOUS
10
7.1506528740157478
20
-4.9338518897637798
11
7.1506528740157478
21
-4.8926070472440948
0
LINE
8
BLACK
6
CONTINUOUS
10
7.1506528740157478
20
-4.8926070472440948
11
7.1469033464566927
21
-4.8851079527559058
0
LINE
8
BLACK
6
CONTINUOUS
10
7.1469033464566927
20
-4.8851079527559058
11
7.1394042913385825
21
-4.8813584251968507
0
LINE
8
BLACK
6
CONTINUOUS
10
7.1394042913385825
20
-4.8813584251968507
11
7.1244061417322833
21
-4.8813584251968507
0
LINE
8
BLACK
6
CONTINUOUS
10
7.1244061417322833
20
-4.8813584251968507
11
7.116907086614173
21
-4.8851079527559058
0
LINE
8
BLACK
6
CONTINUOUS
10
7.1506528740157478
20
-4.9301023622047246
11
7.1431538188976376
21
-4.9338518897637798
0
LINE
8
BLACK
6
CONTINUOUS
10
7.1431538188976376
20
-4.9338518897637798
11
7.1244061417322833
21
-4.9338518897637798
0
LINE
8
BLACK
6
CONTINUOUS
10
7.1244061417322833
20
-4.9338518897637798
11
7.116907086614173
21
-4.9301023622047246
0
LINE
8
BLACK
6
CONTINUOUS
10
7.116907086614173
20
-4.9301023622047246
11
7.1131575590551179
21
-4.9226032677165357
0
LINE
8
BLACK
6
CONTINUOUS
10
7.1131575590551179
20
-4.9226032677165357
11
7.1131575590551179
21
-4.9151042125984254
0
LINE
8
BLACK
6
CONTINUOUS
10
7.1131575590551179
20
-4.9151042125984254
11
7.116907086614173
21
-4.9076051574803152
0
LINE
8
BLACK
6
CONTINUOUS
10
7.116907086614173
20
-4.9076051574803152
11
7.1244061417322833
21
-4.9038556299212601
0
LINE
8
BLACK
6
CONTINUOUS
10
7.1244061417322833
20
-4.9038556299212601
11
7.1431538188976376
21
-4.9038556299212601
0
LINE
8
BLACK
6
CONTINUOUS
10
7.1431538188976376
20
-4.9038556299212601
11
7.1506528740157478
21
-4.900106102362205
0
LINE
8
BLACK
6
CONTINUOUS
10
7.1768996062992123
20
-4.8813584251968507
11
7.2068958267716532
21
-4.8813584251968507
0
LINE
8
BLACK
6
CONTINUOUS
10
7.1881481889763776
20
-4.855111732283464
11
7.1881481889763776
21
-4.9226032677165357
0
LINE
8
BLACK
6
CONTINUOUS
10
7.1881481889763776
20
-4.9226032677165357
11
7.1918977165354327
21
-4.9301023622047246
0
LINE
8
BLACK
6
CONTINUOUS
10
7.1918977165354327
20
-4.9301023622047246
11
7.199396771653543
21
-4.9338518897637798
0
LINE
8
BLACK
6
CONTINUOUS
10
7.199396771653543
20
-4.9338518897637798
11
7.2068958267716532
21
-4.9338518897637798
0
LINE
8
BLACK
6
CONTINUOUS
10
7.2631388188976373
20
-4.9301023622047246
11
7.2556397637795271
21
-4.9338518897637798
0
LINE
8
BLACK
6
CONTINUOUS
10
7.2556397637795271
20
-4.9338518897637798
11
7.2406416141732279
21
-4.9338518897637798
0
LINE
8
BLACK
6
CONTINUOUS
10
7.2406416141732279
20
-4.9338518897637798
11
7.2331425590551177
21
-4.9301023622047246
0
LINE
8
BLACK
6
CONTINUOUS
10
7.2331425590551177
20
-4.9301023622047246
11
7.2293930314960626
21
-4.9226032677165357
0
LINE
8
BLACK
6
CONTINUOUS
10
7.2293930314960626
20
-4.9226032677165357
11
7.2293930314960626
21
-4.8926070472440948
0
LINE
8
BLACK
6
CONTINUOUS
10
7.2293930314960626
20
-4.8926070472440948
11
7.2331425590551177
21
-4.8851079527559058
0
LINE
8
BLACK
6
CONTINUOUS
10
7.2331425590551177
20
-4.8851079527559058
11
7.2406416141732279
21
-4.8813584251968507
0
LINE
8
BLACK
6
CONTINUOUS
10
7.2406416141732279
20
-4.8813584251968507
11
7.2556397637795271
21
-4.8813584251968507
0
LINE
8
BLACK
6
CONTINUOUS
10
7.2556397637795271
20
-4.8813584251968507
11
7.2631388188976373
21
-4.8851079527559058
0
LINE
8
BLACK
6
CONTINUOUS
10
7.2631388188976373
20
-4.8851079527559058
11
7.2668883464566925
21
-4.8926070472440948
0
LINE
8
BLACK
6
CONTINUOUS
10
7.2668883464566925
20
-4.8926070472440948
11
7.2668883464566925
21
-4.900106102362205
0
LINE
8
BLACK
6
CONTINUOUS
10
7.2668883464566925
20
-4.900106102362205
11
7.2293930314960626
21
-4.9076051574803152
0
LINE
8
BLACK
6
CONTINUOUS
10
7.334379921259842
20
-4.9338518897637798
11
7.334379921259842
21
-4.855111732283464
0
LINE
8
BLACK
6
CONTINUOUS
10
7.334379921259842
20
-4.9301023622047246
11
7.3268808661417317
21
-4.9338518897637798
0
LINE
8
BLACK
6
CONTINUOUS
10
7.3268808661417317
20
-4.9338518897637798
11
7.3118827165354325
21
-4.9338518897637798
0
LINE
8
BLACK
6
CONTINUOUS
10
7.3118827165354325
20
-4.9338518897637798
11
7.3043836614173223
21
-4.9301023622047246
0
LINE
8
BLACK
6
CONTINUOUS
10
7.3043836614173223
20
-4.9301023622047246
11
7.3006341338582672
21
-4.9263527952755908
0
LINE
8
BLACK
6
CONTINUOUS
10
7.3006341338582672
20
-4.9263527952755908
11
7.2968846062992121
21
-4.9188537401574806
0
LINE
8
BLACK
6
CONTINUOUS
10
7.2968846062992121
20
-4.9188537401574806
11
7.2968846062992121
21
-4.8963565748031499
0
LINE
8
BLACK
6
CONTINUOUS
10
7.2968846062992121
20
-4.8963565748031499
11
7.3006341338582672
21
-4.8888574803149609
0
LINE
8
BLACK
6
CONTINUOUS
10
7.3006341338582672
20
-4.8888574803149609
11
7.3043836614173223
21
-4.8851079527559058
0
LINE
8
BLACK
6
CONTINUOUS
10
7.3043836614173223
20
-4.8851079527559058
11
7.3118827165354325
21
-4.8813584251968507
0
LINE
8
BLACK
6
CONTINUOUS
10
7.3118827165354325
20
-4.8813584251968507
11
7.3268808661417317
21
-4.8813584251968507
0
LINE
8
BLACK
6
CONTINUOUS
10
7.3268808661417317
20
-4.8813584251968507
11
7.334379921259842
21
-4.8851079527559058
0
LINE
8
BLACK
6
CONTINUOUS
10
7.3643761811023625
20
-4.9638481102362206
11
7.3681257086614176
21
-4.9600985826771655
0
LINE
8
BLACK
6
CONTINUOUS
10
7.3681257086614176
20
-4.9600985826771655
11
7.3756247637795278
21
-4.9488500000000002
0
LINE
8
BLACK
6
CONTINUOUS
10
7.3756247637795278
20
-4.9488500000000002
11
7.3793742913385829
21
-4.94135094488189
0
LINE
8
BLACK
6
CONTINUOUS
10
7.3793742913385829
20
-4.94135094488189
11
7.383123818897638
21
-4.9301023622047246
0
LINE
8
BLACK
6
CONTINUOUS
10
7.383123818897638
20
-4.9301023622047246
11
7.3868733464566931
21
-4.9113546850393703
0
LINE
8
BLACK
6
CONTINUOUS
10
7.3868733464566931
20
-4.9113546850393703
11
7.3868733464566931
21
-4.8963565748031499
0
LINE
8
BLACK
6
CONTINUOUS
10
7.3868733464566931
20
-4.8963565748031499
11
7.383123818897638
21
-4.8776088976377956
0
LINE
8
BLACK
6
CONTINUOUS
10
7.383123818897638
20
-4.8776088976377956
11
7.3793742913385829
21
-4.8663603149606294
0
LINE
8
BLACK
6
CONTINUOUS
10
7.3793742913385829
20
-4.8663603149606294
11
7.3756247637795278
21
-4.8588612598425192
0
LINE
8
BLACK
6
CONTINUOUS
10
7.3756247637795278
20
-4.8588612598425192
11
7.3681257086614176
21
-4.8476126377952751
0
LINE
8
BLACK
6
CONTINUOUS
10
7.3681257086614176
20
-4.8476126377952751
11
7.3643761811023625
21
-4.84386311023622
0
CIRCLE
8
BLACK
10
4.6651574803149609
20
-5.0017716535433072
40
0.0393700787401575
0
LINE
8
BLACK
6
CONTINUOUS
10
4.8034460629921263
20
-4.9665477952755905
11
4.8071955905511814
21
-4.9627982677165354
0
LINE
8
BLACK
6
CONTINUOUS
10
4.8071955905511814
20
-4.9627982677165354
11
4.8146946456692916
21
-4.9590487401574803
0
LINE
8
BLACK
6
CONTINUOUS
10
4.8146946456692916
20
-4.9590487401574803
11
4.8334423228346459
21
-4.9590487401574803
0
LINE
8
BLACK
6
CONTINUOUS
10
4.8334423228346459
20
-4.9590487401574803
11
4.8409413779527561
21
-4.9627982677165354
0
LINE
8
BLACK
6
CONTINUOUS
10
4.8409413779527561
20
-4.9627982677165354
11
4.8446909055118113
21
-4.9665477952755905
0
LINE
8
BLACK
6
CONTINUOUS
10
4.8446909055118113
20
-4.9665477952755905
11
4.8484404330708664
21
-4.9740468503937008
0
LINE
8
BLACK
6
CONTINUOUS
10
4.8484404330708664
20
-4.9740468503937008
11
4.8484404330708664
21
-4.981545905511811
0
LINE
8
BLACK
6
CONTINUOUS
10
4.8484404330708664
20
-4.981545905511811
11
4.8446909055118113
21
-4.9927944881889763
0
LINE
8
BLACK
6
CONTINUOUS
10
4.8446909055118113
20
-4.9927944881889763
11
4.7996965354330712
21
-5.0377888976377951
0
LINE
8
BLACK
6
CONTINUOUS
10
4.7996965354330712
20
-5.0377888976377951
11
4.8484404330708664
21
-5.0377888976377951
0
LINE
8
BLACK
6
CONTINUOUS
10
4.8821862204724411
20
-5.0302898031496062
11
4.8859357480314962
21
-5.03403937007874
0
LINE
8
BLACK
6
CONTINUOUS
10
4.8859357480314962
20
-5.03403937007874
11
4.8821862204724411
21
-5.0377888976377951
0
LINE
8
BLACK
6
CONTINUOUS
10
4.8821862204724411
20
-5.0377888976377951
11
4.878436692913386
21
-5.03403937007874
0
LINE
8
BLACK
6
CONTINUOUS
10
4.878436692913386
20
-5.03403937007874
11
4.8821862204724411
21
-5.0302898031496062
0
LINE
8
BLACK
6
CONTINUOUS
10
4.8821862204724411
20
-5.0302898031496062
11
4.8821862204724411
21
-5.0377888976377951
0
LINE
8
BLACK
6
CONTINUOUS
10
4.9159320078740159
20
-4.9665477952755905
11
4.919681535433071
21
-4.9627982677165354
0
LINE
8
BLACK
6
CONTINUOUS
10
4.919681535433071
20
-4.9627982677165354
11
4.9271805905511812
21
-4.9590487401574803
0
LINE
8
BLACK
6
CONTINUOUS
10
4.9271805905511812
20
-4.9590487401574803
11
4.9459282677165355
21
-4.9590487401574803
0
LINE
8
BLACK
6
CONTINUOUS
10
4.9459282677165355
20
-4.9590487401574803
11
4.9534273228346457
21
-4.9627982677165354
0
LINE
8
BLACK
6
CONTINUOUS
10
4.9534273228346457
20
-4.9627982677165354
11
4.9571768503937008
21
-4.9665477952755905
0
LINE
8
BLACK
6
CONTINUOUS
10
4.9571768503937008
20
-4.9665477952755905
11
4.9609263779527559
21
-4.9740468503937008
0
LINE
8
BLACK
6
CONTINUOUS
10
4.9609263779527559
20
-4.9740468503937008
11
4.9609263779527559
21
-4.981545905511811
0
LINE
8
BLACK
6
CONTINUOUS
10
4.9609263779527559
20
-4.981545905511811
11
4.9571768503937008
21
-4.9927944881889763
0
LINE
8
BLACK
6
CONTINUOUS
10
4.9571768503937008
20
-4.9927944881889763
11
4.9121824803149607
21
-5.0377888976377951
0
LINE
8
BLACK
6
CONTINUOUS
10
4.9121824803149607
20
-5.0377888976377951
11
4.9609263779527559
21
-5.0377888976377951
0
LINE
8
BLACK
6
CONTINUOUS
10
5.0096702755905511
20
-4.9590487401574803
11
5.0171693700787401
21
-4.9590487401574803
0
LINE
8
BLACK
6
CONTINUOUS
10
5.0171693700787401
20
-4.9590487401574803
11
5.0246684251968503
21
-4.9627982677165354
0
LINE
8
BLACK
6
CONTINUOUS
10
5.0246684251968503
20
-4.9627982677165354
11
5.0284179527559054
21
-4.9665477952755905
0
LINE
8
BLACK
6
CONTINUOUS
10
5.0284179527559054
20
-4.9665477952755905
11
5.0321674803149605
21
-4.9740468503937008
0
LINE
8
BLACK
6
CONTINUOUS
10
5.0321674803149605
20
-4.9740468503937008
11
5.0359170078740156
21
-4.9890449606299212
0
LINE
8
BLACK
6
CONTINUOUS
10
5.0359170078740156
20
-4.9890449606299212
11
5.0359170078740156
21
-5.0077926377952755
0
LINE
8
BLACK
6
CONTINUOUS
10
5.0359170078740156
20
-5.0077926377952755
11
5.0321674803149605
21
-5.0227907480314959
0
LINE
8
BLACK
6
CONTINUOUS
10
5.0321674803149605
20
-5.0227907480314959
11
5.0284179527559054
21
-5.0302898031496062
0
LINE
8
BLACK
6
CONTINUOUS
10
5.0284179527559054
20
-5.0302898031496062
11
5.0246684251968503
21
-5.03403937007874
0
LINE
8
BLACK
6
CONTINUOUS
10
5.0246684251968503
20
-5.03403937007874
11
5.0171693700787401
21
-5.0377888976377951
0
LINE
8
BLACK
6
CONTINUOUS
10
5.0171693700787401
20
-5.0377888976377951
11
5.0096702755905511
21
-5.0377888976377951
0
LINE
8
BLACK
6
CONTINUOUS
10
5.0096702755905511
20
-5.0377888976377951
11
5.0021712204724409
21
-5.03403937007874
0
LINE
8
BLACK
6
CONTINUOUS
10
5.0021712204724409
20
-5.03403937007874
11
4.9984216929133858
21
-5.0302898031496062
0
LINE
8
BLACK
6
CONTINUOUS
10
4.9984216929133858
20
-5.0302898031496062
11
4.9946721653543307
21
-5.0227907480314959
0
LINE
8
BLACK
6
CONTINUOUS
10
4.9946721653543307
20
-5.0227907480314959
11
4.9909226377952756
21
-5.0077926377952755
0
LINE
8
BLACK
6
CONTINUOUS
10
4.9909226377952756
20
-5.0077926377952755
11
4.9909226377952756
21
-4.9890449606299212
0
LINE
8
BLACK
6
CONTINUOUS
10
4.9909226377952756
20
-4.9890449606299212
11
4.9946721653543307
21
-4.9740468503937008
0
LINE
8
BLACK
6
CONTINUOUS
10
4.9946721653543307
20
-4.9740468503937008
11
4.9984216929133858
21
-4.9665477952755905
0
LINE
8
BLACK
6
CONTINUOUS
10
4.9984216929133858
20
-4.9665477952755905
11
5.0021712204724409
21
-4.9627982677165354
0
LINE
8
BLACK
6
CONTINUOUS
10
5.0021712204724409
20
-4.9627982677165354
11
5.0096702755905511
21
-4.9590487401574803
0
LINE
8
BLACK
6
CONTINUOUS
10
5.0846609055118108
20
-4.9590487401574803
11
5.0921599999999998
21
-4.9590487401574803
0
LINE
8
BLACK
6
CONTINUOUS
10
5.0921599999999998
20
-4.9590487401574803
11
5.09965905511811
21
-4.9627982677165354
0
LINE
8
BLACK
6
CONTINUOUS
10
5.09965905511811
20
-4.9627982677165354
11
5.1034085826771651
21
-4.9665477952755905
0
LINE
8
BLACK
6
CONTINUOUS
10
5.1034085826771651
20
-4.9665477952755905
11
5.1071581102362202
21
-4.9740468503937008
0
LINE
8
BLACK
6
CONTINUOUS
10
5.1071581102362202
20
-4.9740468503937008
11
5.1109076377952753
21
-4.9890449606299212
0
LINE
8
BLACK
6
CONTINUOUS
10
5.1109076377952753
20
-4.9890449606299212
11
5.1109076377952753
21
-5.0077926377952755
0
LINE
8
BLACK
6
CONTINUOUS
10
5.1109076377952753
20
-5.0077926377952755
11
5.1071581102362202
21
-5.0227907480314959
0
LINE
8
BLACK
6
CONTINUOUS
10
5.1071581102362202
20
-5.0227907480314959
11
5.1034085826771651
21
-5.0302898031496062
0
LINE
8
BLACK
6
CONTINUOUS
10
5.1034085826771651
20
-5.0302898031496062
11
5.09965905511811
21
-5.03403937007874
0
LINE
8
BLACK
6
CONTINUOUS
10
5.09965905511811
20
-5.03403937007874
11
5.0921599999999998
21
-5.0377888976377951
0
LINE
8
BLACK
6
CONTINUOUS
10
5.0921599999999998
20
-5.0377888976377951
11
5.0846609055118108
21
-5.0377888976377951
0
LINE
8
BLACK
6
CONTINUOUS
10
5.0846609055118108
20
-5.0377888976377951
11
5.0771618503937006
21
-5.03403937007874
0
LINE
8
BLACK
6
CONTINUOUS
10
5.0771618503937006
20
-5.03403937007874
11
5.0734123228346455
21
-5.0302898031496062
0
LINE
8
BLACK
6
CONTINUOUS
10
5.0734123228346455
20
-5.0302898031496062
11
5.0696627952755904
21
-5.0227907480314959
0
LINE
8
BLACK
6
CONTINUOUS
10
5.0696627952755904
20
-5.0227907480314959
11
5.0659132677165353
21
-5.0077926377952755
0
LINE
8
BLACK
6
CONTINUOUS
10
5.0659132677165353
20
-5.0077926377952755
11
5.0659132677165353
21
-4.9890449606299212
0
LINE
8
BLACK
6
CONTINUOUS
10
5.0659132677165353
20
-4.9890449606299212
11
5.0696627952755904
21
-4.9740468503937008
0
LINE
8
BLACK
6
CONTINUOUS
10
5.0696627952755904
20
-4.9740468503937008
11
5.0734123228346455
21
-4.9665477952755905
0
LINE
8
BLACK
6
CONTINUOUS
10
5.0734123228346455
20
-4.9665477952755905
11
5.0771618503937006
21
-4.9627982677165354
0
LINE
8
BLACK
6
CONTINUOUS
10
5.0771618503937006
20
-4.9627982677165354
11
5.0846609055118108
21
-4.9590487401574803
0
LINE
8
BLACK
6
CONTINUOUS
10
5.1446534251968501
20
-5.0377888976377951
11
5.1446534251968501
21
-4.9852954330708661
0
LINE
8
BLACK
6
CONTINUOUS
10
5.1446534251968501
20
-4.9927944881889763
11
5.1484029527559052
21
-4.9890449606299212
0
LINE
8
BLACK
6
CONTINUOUS
10
5.1484029527559052
20
-4.9890449606299212
11
5.1559020078740154
21
-4.9852954330708661
0
LINE
8
BLACK
6
CONTINUOUS
10
5.1559020078740154
20
-4.9852954330708661
11
5.1671506299212595
21
-4.9852954330708661
0
LINE
8
BLACK
6
CONTINUOUS
10
5.1671506299212595
20
-4.9852954330708661
11
5.1746496850393697
21
-4.9890449606299212
0
LINE
8
BLACK
6
CONTINUOUS
10
5.1746496850393697
20
-4.9890449606299212
11
5.1783992125984248
21
-4.9965440551181102
0
LINE
8
BLACK
6
CONTINUOUS
10
5.1783992125984248
20
-4.9965440551181102
11
5.1783992125984248
21
-5.0377888976377951
0
LINE
8
BLACK
6
CONTINUOUS
10
5.1783992125984248
20
-4.9965440551181102
11
5.1821487401574799
21
-4.9890449606299212
0
LINE
8
BLACK
6
CONTINUOUS
10
5.1821487401574799
20
-4.9890449606299212
11
5.1896477952755902
21
-4.9852954330708661
0
LINE
8
BLACK
6
CONTINUOUS
10
5.1896477952755902
20
-4.9852954330708661
11
5.2008963779527555
21
-4.9852954330708661
0
LINE
8
BLACK
6
CONTINUOUS
10
5.2008963779527555
20
-4.9852954330708661
11
5.2083954724409445
21
-4.9890449606299212
0
LINE
8
BLACK
6
CONTINUOUS
10
5.2083954724409445
20
-4.9890449606299212
11
5.2121449999999996
21
-4.9965440551181102
0
LINE
8
BLACK
6
CONTINUOUS
10
5.2121449999999996
20
-4.9965440551181102
11
5.2121449999999996
21
-5.0377888976377951
0
LINE
8
BLACK
6
CONTINUOUS
10
5.2496403149606294
20
-5.0377888976377951
11
5.2496403149606294
21
-4.9852954330708661
0
LINE
8
BLACK
6
CONTINUOUS
10
5.2496403149606294
20
-4.9927944881889763
11
5.2533898425196845
21
-4.9890449606299212
0
LINE
8
BLACK
6
CONTINUOUS
10
5.2533898425196845
20
-4.9890449606299212
11
5.2608888976377948
21
-4.9852954330708661
0
LINE
8
BLACK
6
CONTINUOUS
10
5.2608888976377948
20
-4.9852954330708661
11
5.2721375196850389
21
-4.9852954330708661
0
LINE
8
BLACK
6
CONTINUOUS
10
5.2721375196850389
20
-4.9852954330708661
11
5.2796365748031491
21
-4.9890449606299212
0
LINE
8
BLACK
6
CONTINUOUS
10
5.2796365748031491
20
-4.9890449606299212
11
5.2833861023622042
21
-4.9965440551181102
0
LINE
8
BLACK
6
CONTINUOUS
10
5.2833861023622042
20
-4.9965440551181102
11
5.2833861023622042
21
-5.0377888976377951
0
LINE
8
BLACK
6
CONTINUOUS
10
5.2833861023622042
20
-4.9965440551181102
11
5.2871356299212593
21
-4.9890449606299212
0
LINE
8
BLACK
6
CONTINUOUS
10
5.2871356299212593
20
-4.9890449606299212
11
5.2946346850393695
21
-4.9852954330708661
0
LINE
8
BLACK
6
CONTINUOUS
10
5.2946346850393695
20
-4.9852954330708661
11
5.3058832677165357
21
-4.9852954330708661
0
LINE
8
BLACK
6
CONTINUOUS
10
5.3058832677165357
20
-4.9852954330708661
11
5.3133823622047247
21
-4.9890449606299212
0
LINE
8
BLACK
6
CONTINUOUS
10
5.3133823622047247
20
-4.9890449606299212
11
5.3171318897637798
21
-4.9965440551181102
0
LINE
8
BLACK
6
CONTINUOUS
10
5.3171318897637798
20
-4.9965440551181102
11
5.3171318897637798
21
-5.0377888976377951
0
LINE
8
BLACK
6
CONTINUOUS
10
5.4708626771653543
20
-4.9552992125984252
11
5.4033711417322836
21
-5.0565365354330707
0
LINE
8
BLACK
6
CONTINUOUS
10
5.5721000393700786
20
-4.9590487401574803
11
5.5795991338582676
21
-4.9590487401574803
0
LINE
8
BLACK
6
CONTINUOUS
10
5.5795991338582676
20
-4.9590487401574803
11
5.5870981889763778
21
-4.9627982677165354
0
LINE
8
BLACK
6
CONTINUOUS
10
5.5870981889763778
20
-4.9627982677165354
11
5.5908477165354329
21
-4.9665477952755905
0
LINE
8
BLACK
6
CONTINUOUS
10
5.5908477165354329
20
-4.9665477952755905
11
5.594597244094488
21
-4.9740468503937008
0
LINE
8
BLACK
6
CONTINUOUS
10
5.594597244094488
20
-4.9740468503937008
11
5.5983467716535431
21
-4.9890449606299212
0
LINE
8
BLACK
6
CONTINUOUS
10
5.5983467716535431
20
-4.9890449606299212
11
5.5983467716535431
21
-5.0077926377952755
0
LINE
8
BLACK
6
CONTINUOUS
10
5.5983467716535431
20
-5.0077926377952755
11
5.594597244094488
21
-5.0227907480314959
0
LINE
8
BLACK
6
CONTINUOUS
10
5.594597244094488
20
-5.0227907480314959
11
5.5908477165354329
21
-5.0302898031496062
0
LINE
8
BLACK
6
CONTINUOUS
10
5.5908477165354329
20
-5.0302898031496062
11
5.5870981889763778
21
-5.03403937007874
0
LINE
8
BLACK
6
CONTINUOUS
10
5.5870981889763778
20
-5.03403937007874
11
5.5795991338582676
21
-5.0377888976377951
0
LINE
8
BLACK
6
CONTINUOUS
10
5.5795991338582676
20
-5.0377888976377951
11
5.5721000393700786
21
-5.0377888976377951
0
LINE
8
BLACK
6
CONTINUOUS
10
5.5721000393700786
20
-5.0377888976377951
11
5.5646009842519684
21
-5.03403937007874
0
LINE
8
BLACK
6
CONTINUOUS
10
5.5646009842519684
20
-5.03403937007874
11
5.5608514566929133
21
-5.0302898031496062
0
LINE
8
BLACK
6
CONTINUOUS
10
5.5608514566929133
20
-5.0302898031496062
11
5.5571019291338581
21
-5.0227907480314959
0
LINE
8
BLACK
6
CONTINUOUS
10
5.5571019291338581
20
-5.0227907480314959
11
5.553352401574803
21
-5.0077926377952755
0
LINE
8
BLACK
6
CONTINUOUS
10
5.553352401574803
20
-5.0077926377952755
11
5.553352401574803
21
-4.9890449606299212
0
LINE
8
BLACK
6
CONTINUOUS
10
5.553352401574803
20
-4.9890449606299212
11
5.5571019291338581
21
-4.9740468503937008
0
LINE
8
BLACK
6
CONTINUOUS
10
5.5571019291338581
20
-4.9740468503937008
11
5.5608514566929133
21
-4.9665477952755905
0
LINE
8
BLACK
6
CONTINUOUS
10
5.5608514566929133
20
-4.9665477952755905
11
5.5646009842519684
21
-4.9627982677165354
0
LINE
8
BLACK
6
CONTINUOUS
10
5.5646009842519684
20
-4.9627982677165354
11
5.5721000393700786
21
-4.9590487401574803
0
LINE
8
BLACK
6
CONTINUOUS
10
5.6320925590551179
20
-5.0302898031496062
11
5.635842086614173
21
-5.03403937007874
0
LINE
8
BLACK
6
CONTINUOUS
10
5.635842086614173
20
-5.03403937007874
11
5.6320925590551179
21
-5.0377888976377951
0
LINE
8
BLACK
6
CONTINUOUS
10
5.6320925590551179
20
-5.0377888976377951
11
5.6283430314960627
21
-5.03403937007874
0
LINE
8
BLACK
6
CONTINUOUS
10
5.6283430314960627
20
-5.03403937007874
11
5.6320925590551179
21
-5.0302898031496062
0
LINE
8
BLACK
6
CONTINUOUS
10
5.6320925590551179
20
-5.0302898031496062
11
5.6320925590551179
21
-5.0377888976377951
0
LINE
8
BLACK
6
CONTINUOUS
10
5.6845859842519681
20
-4.9590487401574803
11
5.6920850787401571
21
-4.9590487401574803
0
LINE
8
BLACK
6
CONTINUOUS
10
5.6920850787401571
20
-4.9590487401574803
11
5.6995841338582673
21
-4.9627982677165354
0
LINE
8
BLACK
6
CONTINUOUS
10
5.6995841338582673
20
-4.9627982677165354
11
5.7033336614173225
21
-4.9665477952755905
0
LINE
8
BLACK
6
CONTINUOUS
10
5.7033336614173225
20
-4.9665477952755905
11
5.7070831889763776
21
-4.9740468503937008
0
LINE
8
BLACK
6
CONTINUOUS
10
5.7070831889763776
20
-4.9740468503937008
11
5.7108327165354327
21
-4.9890449606299212
0
LINE
8
BLACK
6
CONTINUOUS
10
5.7108327165354327
20
-4.9890449606299212
11
5.7108327165354327
21
-5.0077926377952755
0
LINE
8
BLACK
6
CONTINUOUS
10
5.7108327165354327
20
-5.0077926377952755
11
5.7070831889763776
21
-5.0227907480314959
0
LINE
8
BLACK
6
CONTINUOUS
10
5.7070831889763776
20
-5.0227907480314959
11
5.7033336614173225
21
-5.0302898031496062
0
LINE
8
BLACK
6
CONTINUOUS
10
5.7033336614173225
20
-5.0302898031496062
11
5.6995841338582673
21
-5.03403937007874
0
LINE
8
BLACK
6
CONTINUOUS
10
5.6995841338582673
20
-5.03403937007874
11
5.6920850787401571
21
-5.0377888976377951
0
LINE
8
BLACK
6
CONTINUOUS
10
5.6920850787401571
20
-5.0377888976377951
11
5.6845859842519681
21
-5.0377888976377951
0
LINE
8
BLACK
6
CONTINUOUS
10
5.6845859842519681
20
-5.0377888976377951
11
5.6770869291338579
21
-5.03403937007874
0
LINE
8
BLACK
6
CONTINUOUS
10
5.6770869291338579
20
-5.03403937007874
11
5.6733374015748028
21
-5.0302898031496062
0
LINE
8
BLACK
6
CONTINUOUS
10
5.6733374015748028
20
-5.0302898031496062
11
5.6695878740157477
21
-5.0227907480314959
0
LINE
8
BLACK
6
CONTINUOUS
10
5.6695878740157477
20
-5.0227907480314959
11
5.6658383464566926
21
-5.0077926377952755
0
LINE
8
BLACK
6
CONTINUOUS
10
5.6658383464566926
20
-5.0077926377952755
11
5.6658383464566926
21
-4.9890449606299212
0
LINE
8
BLACK
6
CONTINUOUS
10
5.6658383464566926
20
-4.9890449606299212
11
5.6695878740157477
21
-4.9740468503937008
0
LINE
8
BLACK
6
CONTINUOUS
10
5.6695878740157477
20
-4.9740468503937008
11
5.6733374015748028
21
-4.9665477952755905
0
LINE
8
BLACK
6
CONTINUOUS
10
5.6733374015748028
20
-4.9665477952755905
11
5.6770869291338579
21
-4.9627982677165354
0
LINE
8
BLACK
6
CONTINUOUS
10
5.6770869291338579
20
-4.9627982677165354
11
5.6845859842519681
21
-4.9590487401574803
0
LINE
8
BLACK
6
CONTINUOUS
10
5.7558270866141727
20
-4.9927944881889763
11
5.7483280314960625
21
-4.9890449606299212
0
LINE
8
BLACK
6
CONTINUOUS
10
5.7483280314960625
20
-4.9890449606299212
11
5.7445785039370074
21
-4.9852954330708661
0
LINE
8
BLACK
6
CONTINUOUS
10
5.7445785039370074
20
-4.9852954330708661
11
5.7408289763779523
21
-4.9777963779527559
0
LINE
8
BLACK
6
CONTINUOUS
10
5.7408289763779523
20
-4.9777963779527559
11
5.7408289763779523
21
-4.9740468503937008
0
LINE
8
BLACK
6
CONTINUOUS
10
5.7408289763779523
20
-4.9740468503937008
11
5.7445785039370074
21
-4.9665477952755905
0
LINE
8
BLACK
6
CONTINUOUS
10
5.7445785039370074
20
-4.9665477952755905
11
5.7483280314960625
21
-4.9627982677165354
0
LINE
8
BLACK
6
CONTINUOUS
10
5.7483280314960625
20
-4.9627982677165354
11
5.7558270866141727
21
-4.9590487401574803
0
LINE
8
BLACK
6
CONTINUOUS
10
5.7558270866141727
20
-4.9590487401574803
11
5.7708252362204719
21
-4.9590487401574803
0
LINE
8
BLACK
6
CONTINUOUS
10
5.7708252362204719
20
-4.9590487401574803
11
5.7783242913385822
21
-4.9627982677165354
0
LINE
8
BLACK
6
CONTINUOUS
10
5.7783242913385822
20
-4.9627982677165354
11
5.7820738188976373
21
-4.9665477952755905
0
LINE
8
BLACK
6
CONTINUOUS
10
5.7820738188976373
20
-4.9665477952755905
11
5.7858233464566924
21
-4.9740468503937008
0
LINE
8
BLACK
6
CONTINUOUS
10
5.7858233464566924
20
-4.9740468503937008
11
5.7858233464566924
21
-4.9777963779527559
0
LINE
8
BLACK
6
CONTINUOUS
10
5.7858233464566924
20
-4.9777963779527559
11
5.7820738188976373
21
-4.9852954330708661
0
LINE
8
BLACK
6
CONTINUOUS
10
5.7820738188976373
20
-4.9852954330708661
11
5.7783242913385822
21
-4.9890449606299212
0
LINE
8
BLACK
6
CONTINUOUS
10
5.7783242913385822
20
-4.9890449606299212
11
5.7708252362204719
21
-4.9927944881889763
0
LINE
8
BLACK
6
CONTINUOUS
10
5.7708252362204719
20
-4.9927944881889763
11
5.7558270866141727
21
-4.9927944881889763
0
LINE
8
BLACK
6
CONTINUOUS
10
5.7558270866141727
20
-4.9927944881889763
11
5.7483280314960625
21
-4.9965440551181102
0
LINE
8
BLACK
6
CONTINUOUS
10
5.7483280314960625
20
-4.9965440551181102
11
5.7445785039370074
21
-5.0002935826771653
0
LINE
8
BLACK
6
CONTINUOUS
10
5.7445785039370074
20
-5.0002935826771653
11
5.7408289763779523
21
-5.0077926377952755
0
LINE
8
BLACK
6
CONTINUOUS
10
5.7408289763779523
20
-5.0077926377952755
11
5.7408289763779523
21
-5.0227907480314959
0
LINE
8
BLACK
6
CONTINUOUS
10
5.7408289763779523
20
-5.0227907480314959
11
5.7445785039370074
21
-5.0302898031496062
0
LINE
8
BLACK
6
CONTINUOUS
10
5.7445785039370074
20
-5.0302898031496062
11
5.7483280314960625
21
-5.03403937007874
0
LINE
8
BLACK
6
CONTINUOUS
10
5.7483280314960625
20
-5.03403937007874
11
5.7558270866141727
21
-5.0377888976377951
0
LINE
8
BLACK
6
CONTINUOUS
10
5.7558270866141727
20
-5.0377888976377951
11
5.7708252362204719
21
-5.0377888976377951
0
LINE
8
BLACK
6
CONTINUOUS
10
5.7708252362204719
20
-5.0377888976377951
11
5.7783242913385822
21
-5.03403937007874
0
LINE
8
BLACK
6
CONTINUOUS
10
5.7783242913385822
20
-5.03403937007874
11
5.7820738188976373
21
-5.0302898031496062
0
LINE
8
BLACK
6
CONTINUOUS
10
5.7820738188976373
20
-5.0302898031496062
11
5.7858233464566924
21
-5.0227907480314959
0
LINE
8
BLACK
6
CONTINUOUS
10
5.7858233464566924
20
-5.0227907480314959
11
5.7858233464566924
21
-5.0077926377952755
0
LINE
8
BLACK
6
CONTINUOUS
10
5.7858233464566924
20
-5.0077926377952755
11
5.7820738188976373
21
-5.0002935826771653
0
LINE
8
BLACK
6
CONTINUOUS
10
5.7820738188976373
20
-5.0002935826771653
11
5.7783242913385822
21
-4.9965440551181102
0
LINE
8
BLACK
6
CONTINUOUS
10
5.7783242913385822
20
-4.9965440551181102
11
5.7708252362204719
21
-4.9927944881889763
0
LINE
8
BLACK
6
CONTINUOUS
10
5.8533149212598428
20
-4.9590487401574803
11
5.8383167716535436
21
-4.9590487401574803
0
LINE
8
BLACK
6
CONTINUOUS
10
5.8383167716535436
20
-4.9590487401574803
11
5.8308177165354333
21
-4.9627982677165354
0
LINE
8
BLACK
6
CONTINUOUS
10
5.8308177165354333
20
-4.9627982677165354
11
5.8270681889763782
21
-4.9665477952755905
0
LINE
8
BLACK
6
CONTINUOUS
10
5.8270681889763782
20
-4.9665477952755905
11
5.819569133858268
21
-4.9777963779527559
0
LINE
8
BLACK
6
CONTINUOUS
10
5.819569133858268
20
-4.9777963779527559
11
5.8158196062992129
21
-4.9927944881889763
0
LINE
8
BLACK
6
CONTINUOUS
10
5.8158196062992129
20
-4.9927944881889763
11
5.8158196062992129
21
-5.0227907480314959
0
LINE
8
BLACK
6
CONTINUOUS
10
5.8158196062992129
20
-5.0227907480314959
11
5.819569133858268
21
-5.0302898031496062
0
LINE
8
BLACK
6
CONTINUOUS
10
5.819569133858268
20
-5.0302898031496062
11
5.8233186614173231
21
-5.03403937007874
0
LINE
8
BLACK
6
CONTINUOUS
10
5.8233186614173231
20
-5.03403937007874
11
5.8308177165354333
21
-5.0377888976377951
0
LINE
8
BLACK
6
CONTINUOUS
10
5.8308177165354333
20
-5.0377888976377951
11
5.8458158661417325
21
-5.0377888976377951
0
LINE
8
BLACK
6
CONTINUOUS
10
5.8458158661417325
20
-5.0377888976377951
11
5.8533149212598428
21
-5.03403937007874
0
LINE
8
BLACK
6
CONTINUOUS
10
5.8533149212598428
20
-5.03403937007874
11
5.8570644488188979
21
-5.0302898031496062
0
LINE
8
BLACK
6
CONTINUOUS
10
5.8570644488188979
20
-5.0302898031496062
11
5.860813976377953
21
-5.0227907480314959
0
LINE
8
BLACK
6
CONTINUOUS
10
5.860813976377953
20
-5.0227907480314959
11
5.860813976377953
21
-5.0040431102362204
0
LINE
8
BLACK
6
CONTINUOUS
10
5.860813976377953
20
-5.0040431102362204
11
5.8570644488188979
21
-4.9965440551181102
0
LINE
8
BLACK
6
CONTINUOUS
10
5.8570644488188979
20
-4.9965440551181102
11
5.8533149212598428
21
-4.9927944881889763
0
LINE
8
BLACK
6
CONTINUOUS
10
5.8533149212598428
20
-4.9927944881889763
11
5.8458158661417325
21
-4.9890449606299212
0
LINE
8
BLACK
6
CONTINUOUS
10
5.8458158661417325
20
-4.9890449606299212
11
5.8308177165354333
21
-4.9890449606299212
0
LINE
8
BLACK
6
CONTINUOUS
10
5.8308177165354333
20
-4.9890449606299212
11
5.8233186614173231
21
-4.9927944881889763
0
LINE
8
BLACK
6
CONTINUOUS
10
5.8233186614173231
20
-4.9927944881889763
11
5.819569133858268
21
-4.9965440551181102
0
LINE
8
BLACK
6
CONTINUOUS
10
5.819569133858268
20
-4.9965440551181102
11
5.8158196062992129
21
-5.0040431102362204
0
LINE
8
BLACK
6
CONTINUOUS
10
5.9283055511811025
20
-4.9590487401574803
11
5.9133074015748033
21
-4.9590487401574803
0
LINE
8
BLACK
6
CONTINUOUS
10
5.9133074015748033
20
-4.9590487401574803
11
5.9058083464566931
21
-4.9627982677165354
0
LINE
8
BLACK
6
CONTINUOUS
10
5.9058083464566931
20
-4.9627982677165354
11
5.9020588188976379
21
-4.9665477952755905
0
LINE
8
BLACK
6
CONTINUOUS
10
5.9020588188976379
20
-4.9665477952755905
11
5.8945597637795277
21
-4.9777963779527559
0
LINE
8
BLACK
6
CONTINUOUS
10
5.8945597637795277
20
-4.9777963779527559
11
5.8908102362204726
21
-4.9927944881889763
0
LINE
8
BLACK
6
CONTINUOUS
10
5.8908102362204726
20
-4.9927944881889763
11
5.8908102362204726
21
-5.0227907480314959
0
LINE
8
BLACK
6
CONTINUOUS
10
5.8908102362204726
20
-5.0227907480314959
11
5.8945597637795277
21
-5.0302898031496062
0
LINE
8
BLACK
6
CONTINUOUS
10
5.8945597637795277
20
-5.0302898031496062
11
5.8983092913385828
21
-5.03403937007874
0
LINE
8
BLACK
6
CONTINUOUS
10
5.8983092913385828
20
-5.03403937007874
11
5.9058083464566931
21
-5.0377888976377951
0
LINE
8
BLACK
6
CONTINUOUS
10
5.9058083464566931
20
-5.0377888976377951
11
5.9208064960629923
21
-5.0377888976377951
0
LINE
8
BLACK
6
CONTINUOUS
10
5.9208064960629923
20
-5.0377888976377951
11
5.9283055511811025
21
-5.03403937007874
0
LINE
8
BLACK
6
CONTINUOUS
10
5.9283055511811025
20
-5.03403937007874
11
5.9320550787401576
21
-5.0302898031496062
0
LINE
8
BLACK
6
CONTINUOUS
10
5.9320550787401576
20
-5.0302898031496062
11
5.9358046062992127
21
-5.0227907480314959
0
LINE
8
BLACK
6
CONTINUOUS
10
5.9358046062992127
20
-5.0227907480314959
11
5.9358046062992127
21
-5.0040431102362204
0
LINE
8
BLACK
6
CONTINUOUS
10
5.9358046062992127
20
-5.0040431102362204
11
5.9320550787401576
21
-4.9965440551181102
0
LINE
8
BLACK
6
CONTINUOUS
10
5.9320550787401576
20
-4.9965440551181102
11
5.9283055511811025
21
-4.9927944881889763
0
LINE
8
BLACK
6
CONTINUOUS
10
5.9283055511811025
20
-4.9927944881889763
11
5.9208064960629923
21
-4.9890449606299212
0
LINE
8
BLACK
6
CONTINUOUS
10
5.9208064960629923
20
-4.9890449606299212
11
5.9058083464566931
21
-4.9890449606299212
0
LINE
8
BLACK
6
CONTINUOUS
10
5.9058083464566931
20
-4.9890449606299212
11
5.8983092913385828
21
-4.9927944881889763
0
LINE
8
BLACK
6
CONTINUOUS
10
5.8983092913385828
20
-4.9927944881889763
11
5.8945597637795277
21
-4.9965440551181102
0
LINE
8
BLACK
6
CONTINUOUS
10
5.8945597637795277
20
-4.9965440551181102
11
5.8908102362204726
21
-5.0040431102362204
0
LINE
8
BLACK
6
CONTINUOUS
10
5.9658008661417323
20
-4.9590487401574803
11
5.9658008661417323
21
-4.9740468503937008
0
LINE
8
BLACK
6
CONTINUOUS
10
5.995797125984252
20
-4.9590487401574803
11
5.995797125984252
21
-4.9740468503937008
0
LINE
8
BLACK
6
CONTINUOUS
10
6.1120326377952754
20
-5.067785118110236
11
6.1082830708661415
21
-5.0640355905511809
0
LINE
8
BLACK
6
CONTINUOUS
10
6.1082830708661415
20
-5.0640355905511809
11
6.1007840157480313
21
-5.0527870078740156
0
LINE
8
BLACK
6
CONTINUOUS
10
6.1007840157480313
20
-5.0527870078740156
11
6.0970344881889762
21
-5.0452879527559054
0
LINE
8
BLACK
6
CONTINUOUS
10
6.0970344881889762
20
-5.0452879527559054
11
6.0932849606299211
21
-5.03403937007874
0
LINE
8
BLACK
6
CONTINUOUS
10
6.0932849606299211
20
-5.03403937007874
11
6.089535433070866
21
-5.0152916929133857
0
LINE
8
BLACK
6
CONTINUOUS
10
6.089535433070866
20
-5.0152916929133857
11
6.089535433070866
21
-5.0002935826771653
0
LINE
8
BLACK
6
CONTINUOUS
10
6.089535433070866
20
-5.0002935826771653
11
6.0932849606299211
21
-4.981545905511811
0
LINE
8
BLACK
6
CONTINUOUS
10
6.0932849606299211
20
-4.981545905511811
11
6.0970344881889762
21
-4.9702973228346456
0
LINE
8
BLACK
6
CONTINUOUS
10
6.0970344881889762
20
-4.9702973228346456
11
6.1007840157480313
21
-4.9627982677165354
0
LINE
8
BLACK
6
CONTINUOUS
10
6.1007840157480313
20
-4.9627982677165354
11
6.1082830708661415
21
-4.9515496456692913
0
LINE
8
BLACK
6
CONTINUOUS
10
6.1082830708661415
20
-4.9515496456692913
11
6.1120326377952754
21
-4.9478001181102362
0
LINE
8
BLACK
6
CONTINUOUS
10
6.175774645669291
20
-4.9852954330708661
11
6.175774645669291
21
-5.0377888976377951
0
LINE
8
BLACK
6
CONTINUOUS
10
6.1570269685039367
20
-4.9552992125984252
11
6.1382793307086612
21
-5.0115421653543306
0
LINE
8
BLACK
6
CONTINUOUS
10
6.1382793307086612
20
-5.0115421653543306
11
6.1870232283464563
21
-5.0115421653543306
0
LINE
8
BLACK
6
CONTINUOUS
10
6.2770120078740153
20
-5.0377888976377951
11
6.2770120078740153
21
-4.9590487401574803
0
LINE
8
BLACK
6
CONTINUOUS
10
6.31075779527559
20
-5.0377888976377951
11
6.31075779527559
21
-4.9965440551181102
0
LINE
8
BLACK
6
CONTINUOUS
10
6.31075779527559
20
-4.9965440551181102
11
6.3070082677165349
21
-4.9890449606299212
0
LINE
8
BLACK
6
CONTINUOUS
10
6.3070082677165349
20
-4.9890449606299212
11
6.2995092125984247
21
-4.9852954330708661
0
LINE
8
BLACK
6
CONTINUOUS
10
6.2995092125984247
20
-4.9852954330708661
11
6.2882605905511806
21
-4.9852954330708661
0
LINE
8
BLACK
6
CONTINUOUS
10
6.2882605905511806
20
-4.9852954330708661
11
6.2807615354330704
21
-4.9890449606299212
0
LINE
8
BLACK
6
CONTINUOUS
10
6.2807615354330704
20
-4.9890449606299212
11
6.2770120078740153
21
-4.9927944881889763
0
LINE
8
BLACK
6
CONTINUOUS
10
6.3595016929133861
20
-5.0377888976377951
11
6.3520026377952759
21
-5.03403937007874
0
LINE
8
BLACK
6
CONTINUOUS
10
6.3520026377952759
20
-5.03403937007874
11
6.3482531102362207
21
-5.0302898031496062
0
LINE
8
BLACK
6
CONTINUOUS
10
6.3482531102362207
20
-5.0302898031496062
11
6.3445035826771656
21
-5.0227907480314959
0
LINE
8
BLACK
6
CONTINUOUS
10
6.3445035826771656
20
-5.0227907480314959
11
6.3445035826771656
21
-5.0002935826771653
0
LINE
8
BLACK
6
CONTINUOUS
10
6.3445035826771656
20
-5.0002935826771653
11
6.3482531102362207
21
-4.9927944881889763
0
LINE
8
BLACK
6
CONTINUOUS
10
6.3482531102362207
20
-4.9927944881889763
11
6.3520026377952759
21
-4.9890449606299212
0
LINE
8
BLACK
6
CONTINUOUS
10
6.3520026377952759
20
-4.9890449606299212
11
6.3595016929133861
21
-4.9852954330708661
0
LINE
8
BLACK
6
CONTINUOUS
10
6.3595016929133861
20
-4.9852954330708661
11
6.3707503149606302
21
-4.9852954330708661
0
LINE
8
BLACK
6
CONTINUOUS
10
6.3707503149606302
20
-4.9852954330708661
11
6.3782493700787404
21
-4.9890449606299212
0
LINE
8
BLACK
6
CONTINUOUS
10
6.3782493700787404
20
-4.9890449606299212
11
6.3819988976377955
21
-4.9927944881889763
0
LINE
8
BLACK
6
CONTINUOUS
10
6.3819988976377955
20
-4.9927944881889763
11
6.3857484251968506
21
-5.0002935826771653
0
LINE
8
BLACK
6
CONTINUOUS
10
6.3857484251968506
20
-5.0002935826771653
11
6.3857484251968506
21
-5.0227907480314959
0
LINE
8
BLACK
6
CONTINUOUS
10
6.3857484251968506
20
-5.0227907480314959
11
6.3819988976377955
21
-5.0302898031496062
0
LINE
8
BLACK
6
CONTINUOUS
10
6.3819988976377955
20
-5.0302898031496062
11
6.3782493700787404
21
-5.03403937007874
0
LINE
8
BLACK
6
CONTINUOUS
10
6.3782493700787404
20
-5.03403937007874
11
6.3707503149606302
21
-5.0377888976377951
0
LINE
8
BLACK
6
CONTINUOUS
10
6.3707503149606302
20
-5.0377888976377951
11
6.3595016929133861
21
-5.0377888976377951
0
LINE
8
BLACK
6
CONTINUOUS
10
6.4307427952755907
20
-5.0377888976377951
11
6.4232437401574805
21
-5.03403937007874
0
LINE
8
BLACK
6
CONTINUOUS
10
6.4232437401574805
20
-5.03403937007874
11
6.4194942125984253
21
-5.0265402755905511
0
LINE
8
BLACK
6
CONTINUOUS
10
6.4194942125984253
20
-5.0265402755905511
11
6.4194942125984253
21
-4.9590487401574803
0
LINE
8
BLACK
6
CONTINUOUS
10
6.4907353149606299
20
-5.03403937007874
11
6.4832362598425197
21
-5.0377888976377951
0
LINE
8
BLACK
6
CONTINUOUS
10
6.4832362598425197
20
-5.0377888976377951
11
6.4682381102362205
21
-5.0377888976377951
0
LINE
8
BLACK
6
CONTINUOUS
10
6.4682381102362205
20
-5.0377888976377951
11
6.4607390551181103
21
-5.03403937007874
0
LINE
8
BLACK
6
CONTINUOUS
10
6.4607390551181103
20
-5.03403937007874
11
6.4569895275590552
21
-5.0265402755905511
0
LINE
8
BLACK
6
CONTINUOUS
10
6.4569895275590552
20
-5.0265402755905511
11
6.4569895275590552
21
-4.9965440551181102
0
LINE
8
BLACK
6
CONTINUOUS
10
6.4569895275590552
20
-4.9965440551181102
11
6.4607390551181103
21
-4.9890449606299212
0
LINE
8
BLACK
6
CONTINUOUS
10
6.4607390551181103
20
-4.9890449606299212
11
6.4682381102362205
21
-4.9852954330708661
0
LINE
8
BLACK
6
CONTINUOUS
10
6.4682381102362205
20
-4.9852954330708661
11
6.4832362598425197
21
-4.9852954330708661
0
LINE
8
BLACK
6
CONTINUOUS
10
6.4832362598425197
20
-4.9852954330708661
11
6.4907353149606299
21
-4.9890449606299212
0
LINE
8
BLACK
6
CONTINUOUS
10
6.4907353149606299
20
-4.9890449606299212
11
6.4944848425196851
21
-4.9965440551181102
0
LINE
8
BLACK
6
CONTINUOUS
10
6.4944848425196851
20
-4.9965440551181102
11
6.4944848425196851
21
-5.0040431102362204
0
LINE
8
BLACK
6
CONTINUOUS
10
6.4944848425196851
20
-5.0040431102362204
11
6.4569895275590552
21
-5.0115421653543306
0
LINE
8
BLACK
6
CONTINUOUS
10
6.5244811023622047
20
-5.03403937007874
11
6.5319801574803149
21
-5.0377888976377951
0
LINE
8
BLACK
6
CONTINUOUS
10
6.5319801574803149
20
-5.0377888976377951
11
6.5469782677165353
21
-5.0377888976377951
0
LINE
8
BLACK
6
CONTINUOUS
10
6.5469782677165353
20
-5.0377888976377951
11
6.5544773622047243
21
-5.03403937007874
0
LINE
8
BLACK
6
CONTINUOUS
10
6.5544773622047243
20
-5.03403937007874
11
6.5582268897637794
21
-5.0265402755905511
0
LINE
8
BLACK
6
CONTINUOUS
10
6.5582268897637794
20
-5.0265402755905511
11
6.5582268897637794
21
-5.0227907480314959
0
LINE
8
BLACK
6
CONTINUOUS
10
6.5582268897637794
20
-5.0227907480314959
11
6.5544773622047243
21
-5.0152916929133857
0
LINE
8
BLACK
6
CONTINUOUS
10
6.5544773622047243
20
-5.0152916929133857
11
6.5469782677165353
21
-5.0115421653543306
0
LINE
8
BLACK
6
CONTINUOUS
10
6.5469782677165353
20
-5.0115421653543306
11
6.53572968503937
21
-5.0115421653543306
0
LINE
8
BLACK
6
CONTINUOUS
10
6.53572968503937
20
-5.0115421653543306
11
6.5282306299212598
21
-5.0077926377952755
0
LINE
8
BLACK
6
CONTINUOUS
10
6.5282306299212598
20
-5.0077926377952755
11
6.5244811023622047
21
-5.0002935826771653
0
LINE
8
BLACK
6
CONTINUOUS
10
6.5244811023622047
20
-5.0002935826771653
11
6.5244811023622047
21
-4.9965440551181102
0
LINE
8
BLACK
6
CONTINUOUS
10
6.5244811023622047
20
-4.9965440551181102
11
6.5282306299212598
21
-4.9890449606299212
0
LINE
8
BLACK
6
CONTINUOUS
10
6.5282306299212598
20
-4.9890449606299212
11
6.53572968503937
21
-4.9852954330708661
0
LINE
8
BLACK
6
CONTINUOUS
10
6.53572968503937
20
-4.9852954330708661
11
6.5469782677165353
21
-4.9852954330708661
0
LINE
8
BLACK
6
CONTINUOUS
10
6.5469782677165353
20
-4.9852954330708661
11
6.5544773622047243
21
-4.9890449606299212
0
LINE
8
BLACK
6
CONTINUOUS
10
6.584473622047244
20
-5.067785118110236
11
6.5882231496062991
21
-5.0640355905511809
0
LINE
8
BLACK
6
CONTINUOUS
10
6.5882231496062991
20
-5.0640355905511809
11
6.5957222047244093
21
-5.0527870078740156
0
LINE
8
BLACK
6
CONTINUOUS
10
6.5957222047244093
20
-5.0527870078740156
11
6.5994717322834644
21
-5.0452879527559054
0
LINE
8
BLACK
6
CONTINUOUS
10
6.5994717322834644
20
-5.0452879527559054
11
6.6032212598425195
21
-5.03403937007874
0
LINE
8
BLACK
6
CONTINUOUS
10
6.6032212598425195
20
-5.03403937007874
11
6.6069707874015746
21
-5.0152916929133857
0
LINE
8
BLACK
6
CONTINUOUS
10
6.6069707874015746
20
-5.0152916929133857
11
6.6069707874015746
21
-5.0002935826771653
0
LINE
8
BLACK
6
CONTINUOUS
10
6.6069707874015746
20
-5.0002935826771653
11
6.6032212598425195
21
-4.981545905511811
0
LINE
8
BLACK
6
CONTINUOUS
10
6.6032212598425195
20
-4.981545905511811
11
6.5994717322834644
21
-4.9702973228346456
0
LINE
8
BLACK
6
CONTINUOUS
10
6.5994717322834644
20
-4.9702973228346456
11
6.5957222047244093
21
-4.9627982677165354
0
LINE
8
BLACK
6
CONTINUOUS
10
6.5957222047244093
20
-4.9627982677165354
11
6.5882231496062991
21
-4.9515496456692913
0
LINE
8
BLACK
6
CONTINUOUS
10
6.5882231496062991
20
-4.9515496456692913
11
6.584473622047244
21
-4.9478001181102362
0
LINE
8
BLACK
6
CONTINUOUS
10
6.7269558267716532
20
-5.067785118110236
11
6.7232062598425193
21
-5.0640355905511809
0
LINE
8
BLACK
6
CONTINUOUS
10
6.7232062598425193
20
-5.0640355905511809
11
6.7157072047244091
21
-5.0527870078740156
0
LINE
8
BLACK
6
CONTINUOUS
10
6.7157072047244091
20
-5.0527870078740156
11
6.711957677165354
21
-5.0452879527559054
0
LINE
8
BLACK
6
CONTINUOUS
10
6.711957677165354
20
-5.0452879527559054
11
6.7082081496062989
21
-5.03403937007874
0
LINE
8
BLACK
6
CONTINUOUS
10
6.7082081496062989
20
-5.03403937007874
11
6.7044586220472437
21
-5.0152916929133857
0
LINE
8
BLACK
6
CONTINUOUS
10
6.7044586220472437
20
-5.0152916929133857
11
6.7044586220472437
21
-5.0002935826771653
0
LINE
8
BLACK
6
CONTINUOUS
10
6.7044586220472437
20
-5.0002935826771653
11
6.7082081496062989
21
-4.981545905511811
0
LINE
8
BLACK
6
CONTINUOUS
10
6.7082081496062989
20
-4.981545905511811
11
6.711957677165354
21
-4.9702973228346456
0
LINE
8
BLACK
6
CONTINUOUS
10
6.711957677165354
20
-4.9702973228346456
11
6.7157072047244091
21
-4.9627982677165354
0
LINE
8
BLACK
6
CONTINUOUS
10
6.7157072047244091
20
-4.9627982677165354
11
6.7232062598425193
21
-4.9515496456692913
0
LINE
8
BLACK
6
CONTINUOUS
10
6.7232062598425193
20
-4.9515496456692913
11
6.7269558267716532
21
-4.9478001181102362
0
LINE
8
BLACK
6
CONTINUOUS
10
6.756952047244094
20
-4.9852954330708661
11
6.756952047244094
21
-5.0377888976377951
0
LINE
8
BLACK
6
CONTINUOUS
10
6.756952047244094
20
-4.9927944881889763
11
6.7607015748031491
21
-4.9890449606299212
0
LINE
8
BLACK
6
CONTINUOUS
10
6.7607015748031491
20
-4.9890449606299212
11
6.7682006299212594
21
-4.9852954330708661
0
LINE
8
BLACK
6
CONTINUOUS
10
6.7682006299212594
20
-4.9852954330708661
11
6.7794492519685035
21
-4.9852954330708661
0
LINE
8
BLACK
6
CONTINUOUS
10
6.7794492519685035
20
-4.9852954330708661
11
6.7869483070866137
21
-4.9890449606299212
0
LINE
8
BLACK
6
CONTINUOUS
10
6.7869483070866137
20
-4.9890449606299212
11
6.7906978346456688
21
-4.9965440551181102
0
LINE
8
BLACK
6
CONTINUOUS
10
6.7906978346456688
20
-4.9965440551181102
11
6.7906978346456688
21
-5.0377888976377951
0
LINE
8
BLACK
6
CONTINUOUS
10
6.839441732283464
20
-5.0377888976377951
11
6.8319426771653538
21
-5.03403937007874
0
LINE
8
BLACK
6
CONTINUOUS
10
6.8319426771653538
20
-5.03403937007874
11
6.8281931496062986
21
-5.0302898031496062
0
LINE
8
BLACK
6
CONTINUOUS
10
6.8281931496062986
20
-5.0302898031496062
11
6.8244436220472435
21
-5.0227907480314959
0
LINE
8
BLACK
6
CONTINUOUS
10
6.8244436220472435
20
-5.0227907480314959
11
6.8244436220472435
21
-5.0002935826771653
0
LINE
8
BLACK
6
CONTINUOUS
10
6.8244436220472435
20
-5.0002935826771653
11
6.8281931496062986
21
-4.9927944881889763
0
LINE
8
BLACK
6
CONTINUOUS
10
6.8281931496062986
20
-4.9927944881889763
11
6.8319426771653538
21
-4.9890449606299212
0
LINE
8
BLACK
6
CONTINUOUS
10
6.8319426771653538
20
-4.9890449606299212
11
6.839441732283464
21
-4.9852954330708661
0
LINE
8
BLACK
6
CONTINUOUS
10
6.839441732283464
20
-4.9852954330708661
11
6.8506903543307089
21
-4.9852954330708661
0
LINE
8
BLACK
6
CONTINUOUS
10
6.8506903543307089
20
-4.9852954330708661
11
6.8581894094488192
21
-4.9890449606299212
0
LINE
8
BLACK
6
CONTINUOUS
10
6.8581894094488192
20
-4.9890449606299212
11
6.8619389370078743
21
-4.9927944881889763
0
LINE
8
BLACK
6
CONTINUOUS
10
6.8619389370078743
20
-4.9927944881889763
11
6.8656884645669294
21
-5.0002935826771653
0
LINE
8
BLACK
6
CONTINUOUS
10
6.8656884645669294
20
-5.0002935826771653
11
6.8656884645669294
21
-5.0227907480314959
0
LINE
8
BLACK
6
CONTINUOUS
10
6.8656884645669294
20
-5.0227907480314959
11
6.8619389370078743
21
-5.0302898031496062
0
LINE
8
BLACK
6
CONTINUOUS
10
6.8619389370078743
20
-5.0302898031496062
11
6.8581894094488192
21
-5.03403937007874
0
LINE
8
BLACK
6
CONTINUOUS
10
6.8581894094488192
20
-5.03403937007874
11
6.8506903543307089
21
-5.0377888976377951
0
LINE
8
BLACK
6
CONTINUOUS
10
6.8506903543307089
20
-5.0377888976377951
11
6.839441732283464
21
-5.0377888976377951
0
LINE
8
BLACK
6
CONTINUOUS
10
6.8881856692913388
20
-4.9852954330708661
11
6.9181818897637797
21
-4.9852954330708661
0
LINE
8
BLACK
6
CONTINUOUS
10
6.8994342519685041
20
-4.9590487401574803
11
6.8994342519685041
21
-5.0265402755905511
0
LINE
8
BLACK
6
CONTINUOUS
10
6.8994342519685041
20
-5.0265402755905511
11
6.9031837795275592
21
-5.03403937007874
0
LINE
8
BLACK
6
CONTINUOUS
10
6.9031837795275592
20
-5.03403937007874
11
6.9106828346456695
21
-5.0377888976377951
0
LINE
8
BLACK
6
CONTINUOUS
10
6.9106828346456695
20
-5.0377888976377951
11
6.9181818897637797
21
-5.0377888976377951
0
LINE
8
BLACK
6
CONTINUOUS
10
7.0044211417322835
20
-4.9852954330708661
11
7.0044211417322835
21
-5.0640355905511809
0
LINE
8
BLACK
6
CONTINUOUS
10
7.0044211417322835
20
-4.9890449606299212
11
7.0119201968503937
21
-4.9852954330708661
0
LINE
8
BLACK
6
CONTINUOUS
10
7.0119201968503937
20
-4.9852954330708661
11
7.0269183464566929
21
-4.9852954330708661
0
LINE
8
BLACK
6
CONTINUOUS
10
7.0269183464566929
20
-4.9852954330708661
11
7.0344174015748031
21
-4.9890449606299212
0
LINE
8
BLACK
6
CONTINUOUS
10
7.0344174015748031
20
-4.9890449606299212
11
7.0381669291338582
21
-4.9927944881889763
0
LINE
8
BLACK
6
CONTINUOUS
10
7.0381669291338582
20
-4.9927944881889763
11
7.0419164566929133
21
-5.0002935826771653
0
LINE
8
BLACK
6
CONTINUOUS
10
7.0419164566929133
20
-5.0002935826771653
11
7.0419164566929133
21
-5.0227907480314959
0
LINE
8
BLACK
6
CONTINUOUS
10
7.0419164566929133
20
-5.0227907480314959
11
7.0381669291338582
21
-5.0302898031496062
0
LINE
8
BLACK
6
CONTINUOUS
10
7.0381669291338582
20
-5.0302898031496062
11
7.0344174015748031
21
-5.03403937007874
0
LINE
8
BLACK
6
CONTINUOUS
10
7.0344174015748031
20
-5.03403937007874
11
7.0269183464566929
21
-5.0377888976377951
0
LINE
8
BLACK
6
CONTINUOUS
10
7.0269183464566929
20
-5.0377888976377951
11
7.0119201968503937
21
-5.0377888976377951
0
LINE
8
BLACK
6
CONTINUOUS
10
7.0119201968503937
20
-5.0377888976377951
11
7.0044211417322835
21
-5.03403937007874
0
LINE
8
BLACK
6
CONTINUOUS
10
7.0869108267716534
20
-5.0377888976377951
11
7.0794117716535432
21
-5.03403937007874
0
LINE
8
BLACK
6
CONTINUOUS
10
7.0794117716535432
20
-5.03403937007874
11
7.0756622440944881
21
-5.0265402755905511
0
LINE
8
BLACK
6
CONTINUOUS
10
7.0756622440944881
20
-5.0265402755905511
11
7.0756622440944881
21
-4.9590487401574803
0
LINE
8
BLACK
6
CONTINUOUS
10
7.1506528740157478
20
-5.0377888976377951
11
7.1506528740157478
21
-4.9965440551181102
0
LINE
8
BLACK
6
CONTINUOUS
10
7.1506528740157478
20
-4.9965440551181102
11
7.1469033464566927
21
-4.9890449606299212
0
LINE
8
BLACK
6
CONTINUOUS
10
7.1469033464566927
20
-4.9890449606299212
11
7.1394042913385825
21
-4.9852954330708661
0
LINE
8
BLACK
6
CONTINUOUS
10
7.1394042913385825
20
-4.9852954330708661
11
7.1244061417322833
21
-4.9852954330708661
0
LINE
8
BLACK
6
CONTINUOUS
10
7.1244061417322833
20
-4.9852954330708661
11
7.116907086614173
21
-4.9890449606299212
0
LINE
8
BLACK
6
CONTINUOUS
10
7.1506528740157478
20
-5.03403937007874
11
7.1431538188976376
21
-5.0377888976377951
0
LINE
8
BLACK
6
CONTINUOUS
10
7.1431538188976376
20
-5.0377888976377951
11
7.1244061417322833
21
-5.0377888976377951
0
LINE
8
BLACK
6
CONTINUOUS
10
7.1244061417322833
20
-5.0377888976377951
11
7.116907086614173
21
-5.03403937007874
0
LINE
8
BLACK
6
CONTINUOUS
10
7.116907086614173
20
-5.03403937007874
11
7.1131575590551179
21
-5.0265402755905511
0
LINE
8
BLACK
6
CONTINUOUS
10
7.1131575590551179
20
-5.0265402755905511
11
7.1131575590551179
21
-5.0190412204724408
0
LINE
8
BLACK
6
CONTINUOUS
10
7.1131575590551179
20
-5.0190412204724408
11
7.116907086614173
21
-5.0115421653543306
0
LINE
8
BLACK
6
CONTINUOUS
10
7.116907086614173
20
-5.0115421653543306
11
7.1244061417322833
21
-5.0077926377952755
0
LINE
8
BLACK
6
CONTINUOUS
10
7.1244061417322833
20
-5.0077926377952755
11
7.1431538188976376
21
-5.0077926377952755
0
LINE
8
BLACK
6
CONTINUOUS
10
7.1431538188976376
20
-5.0077926377952755
11
7.1506528740157478
21
-5.0040431102362204
0
LINE
8
BLACK
6
CONTINUOUS
10
7.1768996062992123
20
-4.9852954330708661
11
7.2068958267716532
21
-4.9852954330708661
0
LINE
8
BLACK
6
CONTINUOUS
10
7.1881481889763776
20
-4.9590487401574803
11
7.1881481889763776
21
-5.0265402755905511
0
LINE
8
BLACK
6
CONTINUOUS
10
7.1881481889763776
20
-5.0265402755905511
11
7.1918977165354327
21
-5.03403937007874
0
LINE
8
BLACK
6
CONTINUOUS
10
7.1918977165354327
20
-5.03403937007874
11
7.199396771653543
21
-5.0377888976377951
0
LINE
8
BLACK
6
CONTINUOUS
10
7.199396771653543
20
-5.0377888976377951
11
7.2068958267716532
21
-5.0377888976377951
0
LINE
8
BLACK
6
CONTINUOUS
10
7.2631388188976373
20
-5.03403937007874
11
7.2556397637795271
21
-5.0377888976377951
0
LINE
8
BLACK
6
CONTINUOUS
10
7.2556397637795271
20
-5.0377888976377951
11
7.2406416141732279
21
-5.0377888976377951
0
LINE
8
BLACK
6
CONTINUOUS
10
7.2406416141732279
20
-5.0377888976377951
11
7.2331425590551177
21
-5.03403937007874
0
LINE
8
BLACK
6
CONTINUOUS
10
7.2331425590551177
20
-5.03403937007874
11
7.2293930314960626
21
-5.0265402755905511
0
LINE
8
BLACK
6
CONTINUOUS
10
7.2293930314960626
20
-5.0265402755905511
11
7.2293930314960626
21
-4.9965440551181102
0
LINE
8
BLACK
6
CONTINUOUS
10
7.2293930314960626
20
-4.9965440551181102
11
7.2331425590551177
21
-4.9890449606299212
0
LINE
8
BLACK
6
CONTINUOUS
10
7.2331425590551177
20
-4.9890449606299212
11
7.2406416141732279
21
-4.9852954330708661
0
LINE
8
BLACK
6
CONTINUOUS
10
7.2406416141732279
20
-4.9852954330708661
11
7.2556397637795271
21
-4.9852954330708661
0
LINE
8
BLACK
6
CONTINUOUS
10
7.2556397637795271
20
-4.9852954330708661
11
7.2631388188976373
21
-4.9890449606299212
0
LINE
8
BLACK
6
CONTINUOUS
10
7.2631388188976373
20
-4.9890449606299212
11
7.2668883464566925
21
-4.9965440551181102
0
LINE
8
BLACK
6
CONTINUOUS
10
7.2668883464566925
20
-4.9965440551181102
11
7.2668883464566925
21
-5.0040431102362204
0
LINE
8
BLACK
6
CONTINUOUS
10
7.2668883464566925
20
-5.0040431102362204
11
7.2293930314960626
21
-5.0115421653543306
0
LINE
8
BLACK
6
CONTINUOUS
10
7.334379921259842
20
-5.0377888976377951
11
7.334379921259842
21
-4.9590487401574803
0
LINE
8
BLACK
6
CONTINUOUS
10
7.334379921259842
20
-5.03403937007874
11
7.3268808661417317
21
-5.0377888976377951
0
LINE
8
BLACK
6
CONTINUOUS
10
7.3268808661417317
20
-5.0377888976377951
11
7.3118827165354325
21
-5.0377888976377951
0
LINE
8
BLACK
6
CONTINUOUS
10
7.3118827165354325
20
-5.0377888976377951
11
7.3043836614173223
21
-5.03403937007874
0
LINE
8
BLACK
6
CONTINUOUS
10
7.3043836614173223
20
-5.03403937007874
11
7.3006341338582672
21
-5.0302898031496062
0
LINE
8
BLACK
6
CONTINUOUS
10
7.3006341338582672
20
-5.0302898031496062
11
7.2968846062992121
21
-5.0227907480314959
0
LINE
8
BLACK
6
CONTINUOUS
10
7.2968846062992121
20
-5.0227907480314959
11
7.2968846062992121
21
-5.0002935826771653
0
LINE
8
BLACK
6
CONTINUOUS
10
7.2968846062992121
20
-5.0002935826771653
11
7.3006341338582672
21
-4.9927944881889763
0
LINE
8
BLACK
6
CONTINUOUS
10
7.3006341338582672
20
-4.9927944881889763
11
7.3043836614173223
21
-4.9890449606299212
0
LINE
8
BLACK
6
CONTINUOUS
10
7.3043836614173223
20
-4.9890449606299212
11
7.3118827165354325
21
-4.9852954330708661
0
LINE
8
BLACK
6
CONTINUOUS
10
7.3118827165354325
20
-4.9852954330708661
11
7.3268808661417317
21
-4.9852954330708661
0
LINE
8
BLACK
6
CONTINUOUS
10
7.3268808661417317
20
-4.9852954330708661
11
7.334379921259842
21
-4.9890449606299212
0
LINE
8
BLACK
6
CONTINUOUS
10
7.3643761811023625
20
-5.067785118110236
11
7.3681257086614176
21
-5.0640355905511809
0
LINE
8
BLACK
6
CONTINUOUS
10
7.3681257086614176
20
-5.0640355905511809
11
7.3756247637795278
21
-5.0527870078740156
0
LINE
8
BLACK
6
CONTINUOUS
10
7.3756247637795278
20
-5.0527870078740156
11
7.3793742913385829
21
-5.0452879527559054
0
LINE
8
BLACK
6
CONTINUOUS
10
7.3793742913385829
20
-5.0452879527559054
11
7.383123818897638
21
-5.03403937007874
0
LINE
8
BLACK
6
CONTINUOUS
10
7.383123818897638
20
-5.03403937007874
11
7.3868733464566931
21
-5.0152916929133857
0
LINE
8
BLACK
6
CONTINUOUS
10
7.3868733464566931
20
-5.0152916929133857
11
7.3868733464566931
21
-5.0002935826771653
0
LINE
8
BLACK
6
CONTINUOUS
10
7.3868733464566931
20
-5.0002935826771653
11
7.383123818897638
21
-4.981545905511811
0
LINE
8
BLACK
6
CONTINUOUS
10
7.383123818897638
20
-4.981545905511811
11
7.3793742913385829
21
-4.9702973228346456
0
LINE
8
BLACK
6
CONTINUOUS
10
7.3793742913385829
20
-4.9702973228346456
11
7.3756247637795278
21
-4.9627982677165354
0
LINE
8
BLACK
6
CONTINUOUS
10
7.3756247637795278
20
-4.9627982677165354
11
7.3681257086614176
21
-4.9515496456692913
0
LINE
8
BLACK
6
CONTINUOUS
10
7.3681257086614176
20
-4.9515496456692913
11
7.3643761811023625
21
-4.9478001181102362
  0
ENDSEC
  0
EOF
