%TF.GenerationSoftware,KiCad,Pcbnew,8.0.8-8.0.8-0~ubuntu24.04.1*%
%TF.CreationDate,2025-02-06T17:28:44+09:00*%
%TF.ProjectId,STM32-FC,53544d33-322d-4464-932e-6b696361645f,rev?*%
%TF.SameCoordinates,Original*%
%TF.FileFunction,Soldermask,Top*%
%TF.FilePolarity,Negative*%
%FSLAX46Y46*%
G04 Gerber Fmt 4.6, Leading zero omitted, Abs format (unit mm)*
G04 Created by KiCad (PCBNEW 8.0.8-8.0.8-0~ubuntu24.04.1) date 2025-02-06 17:28:44*
%MOMM*%
%LPD*%
G01*
G04 APERTURE LIST*
G04 Aperture macros list*
%AMRoundRect*
0 Rectangle with rounded corners*
0 $1 Rounding radius*
0 $2 $3 $4 $5 $6 $7 $8 $9 X,Y pos of 4 corners*
0 Add a 4 corners polygon primitive as box body*
4,1,4,$2,$3,$4,$5,$6,$7,$8,$9,$2,$3,0*
0 Add four circle primitives for the rounded corners*
1,1,$1+$1,$2,$3*
1,1,$1+$1,$4,$5*
1,1,$1+$1,$6,$7*
1,1,$1+$1,$8,$9*
0 Add four rect primitives between the rounded corners*
20,1,$1+$1,$2,$3,$4,$5,0*
20,1,$1+$1,$4,$5,$6,$7,0*
20,1,$1+$1,$6,$7,$8,$9,0*
20,1,$1+$1,$8,$9,$2,$3,0*%
%AMFreePoly0*
4,1,6,1.000000,0.000000,0.500000,-0.750000,-0.500000,-0.750000,-0.500000,0.750000,0.500000,0.750000,1.000000,0.000000,1.000000,0.000000,$1*%
%AMFreePoly1*
4,1,6,0.500000,-0.750000,-0.650000,-0.750000,-0.150000,0.000000,-0.650000,0.750000,0.500000,0.750000,0.500000,-0.750000,0.500000,-0.750000,$1*%
G04 Aperture macros list end*
%ADD10RoundRect,0.135000X0.135000X0.185000X-0.135000X0.185000X-0.135000X-0.185000X0.135000X-0.185000X0*%
%ADD11RoundRect,0.150000X-0.150000X0.512500X-0.150000X-0.512500X0.150000X-0.512500X0.150000X0.512500X0*%
%ADD12RoundRect,0.087500X0.125000X0.087500X-0.125000X0.087500X-0.125000X-0.087500X0.125000X-0.087500X0*%
%ADD13RoundRect,0.087500X0.087500X0.125000X-0.087500X0.125000X-0.087500X-0.125000X0.087500X-0.125000X0*%
%ADD14RoundRect,0.135000X-0.135000X-0.185000X0.135000X-0.185000X0.135000X0.185000X-0.135000X0.185000X0*%
%ADD15RoundRect,0.135000X0.185000X-0.135000X0.185000X0.135000X-0.185000X0.135000X-0.185000X-0.135000X0*%
%ADD16RoundRect,0.135000X-0.185000X0.135000X-0.185000X-0.135000X0.185000X-0.135000X0.185000X0.135000X0*%
%ADD17R,0.300000X0.600000*%
%ADD18R,0.600000X0.300000*%
%ADD19RoundRect,0.140000X0.140000X0.170000X-0.140000X0.170000X-0.140000X-0.170000X0.140000X-0.170000X0*%
%ADD20RoundRect,0.147500X0.147500X0.172500X-0.147500X0.172500X-0.147500X-0.172500X0.147500X-0.172500X0*%
%ADD21R,2.225000X1.400000*%
%ADD22R,1.800000X0.600000*%
%ADD23R,0.304800X0.660400*%
%ADD24R,2.489200X1.701800*%
%ADD25FreePoly0,180.000000*%
%ADD26FreePoly1,180.000000*%
%ADD27C,2.200000*%
%ADD28RoundRect,0.140000X0.170000X-0.140000X0.170000X0.140000X-0.170000X0.140000X-0.170000X-0.140000X0*%
%ADD29RoundRect,0.140000X-0.140000X-0.170000X0.140000X-0.170000X0.140000X0.170000X-0.140000X0.170000X0*%
%ADD30R,0.254000X0.304800*%
%ADD31R,1.651000X0.254000*%
%ADD32RoundRect,0.140000X-0.170000X0.140000X-0.170000X-0.140000X0.170000X-0.140000X0.170000X0.140000X0*%
%ADD33RoundRect,0.150000X-0.512500X-0.150000X0.512500X-0.150000X0.512500X0.150000X-0.512500X0.150000X0*%
%ADD34RoundRect,0.175000X1.175000X-0.175000X1.175000X0.175000X-1.175000X0.175000X-1.175000X-0.175000X0*%
%ADD35RoundRect,0.250000X0.700000X-0.300000X0.700000X0.300000X-0.700000X0.300000X-0.700000X-0.300000X0*%
%ADD36R,1.400000X2.225000*%
%ADD37R,0.600000X1.800000*%
%ADD38R,0.400000X0.400000*%
%ADD39R,0.475000X0.250000*%
%ADD40R,0.250000X0.475000*%
%ADD41RoundRect,0.112500X0.187500X0.112500X-0.187500X0.112500X-0.187500X-0.112500X0.187500X-0.112500X0*%
%ADD42R,0.900000X1.800000*%
%ADD43R,1.400000X1.200000*%
%ADD44C,0.650000*%
%ADD45RoundRect,0.150000X-0.425000X0.150000X-0.425000X-0.150000X0.425000X-0.150000X0.425000X0.150000X0*%
%ADD46RoundRect,0.075000X-0.500000X0.075000X-0.500000X-0.075000X0.500000X-0.075000X0.500000X0.075000X0*%
%ADD47RoundRect,0.250000X-0.750000X0.840000X-0.750000X-0.840000X0.750000X-0.840000X0.750000X0.840000X0*%
%ADD48R,1.000000X1.000000*%
%ADD49O,1.000000X1.000000*%
%ADD50R,1.700000X1.700000*%
%ADD51O,1.700000X1.700000*%
G04 APERTURE END LIST*
D10*
%TO.C,R28*%
X127310000Y-97900000D03*
X126290000Y-97900000D03*
%TD*%
D11*
%TO.C,Q1*%
X133450000Y-78362500D03*
X131550000Y-78362500D03*
X132500000Y-80637500D03*
%TD*%
D12*
%TO.C,U9*%
X137762500Y-97650000D03*
X137762500Y-97150000D03*
D13*
X137500000Y-96637500D03*
X137000000Y-96637500D03*
X136500000Y-96637500D03*
D12*
X136237500Y-97150000D03*
X136237500Y-97650000D03*
D13*
X136500000Y-98162500D03*
X137000000Y-98162500D03*
X137500000Y-98162500D03*
%TD*%
D10*
%TO.C,R27*%
X127310000Y-99150000D03*
X126290000Y-99150000D03*
%TD*%
D14*
%TO.C,R26*%
X130490000Y-76800000D03*
X131510000Y-76800000D03*
%TD*%
%TO.C,R15*%
X146790000Y-85200000D03*
X147810000Y-85200000D03*
%TD*%
D15*
%TO.C,R11*%
X148700000Y-92210000D03*
X148700000Y-91190000D03*
%TD*%
D16*
%TO.C,R20*%
X127250000Y-103490000D03*
X127250000Y-104510000D03*
%TD*%
D17*
%TO.C,U7*%
X136250000Y-95150000D03*
X136750000Y-95150000D03*
X137250000Y-95150000D03*
X137750000Y-95150000D03*
D18*
X137900000Y-94500000D03*
X137900000Y-94000000D03*
X137900000Y-93500000D03*
D17*
X137750000Y-92850000D03*
X137250000Y-92850000D03*
X136750000Y-92850000D03*
X136250000Y-92850000D03*
D18*
X136100000Y-93500000D03*
X136100000Y-94000000D03*
X136100000Y-94500000D03*
%TD*%
D19*
%TO.C,C7*%
X134000000Y-94250000D03*
X133040000Y-94250000D03*
%TD*%
D20*
%TO.C,D4*%
X146735000Y-102250000D03*
X145765000Y-102250000D03*
%TD*%
D19*
%TO.C,C2*%
X133980000Y-96250000D03*
X133020000Y-96250000D03*
%TD*%
D21*
%TO.C,J10*%
X121362500Y-103550000D03*
X121362500Y-93450000D03*
D22*
X124425000Y-101625000D03*
X124425000Y-100375000D03*
X124425000Y-99125000D03*
X124425000Y-97875000D03*
X124425000Y-96625000D03*
X124425000Y-95375000D03*
%TD*%
D23*
%TO.C,U10*%
X140509400Y-82121600D03*
X141169800Y-82121600D03*
X141830200Y-82121600D03*
X142490600Y-82121600D03*
X142490600Y-79378400D03*
X141830200Y-79378400D03*
X141169800Y-79378400D03*
X140509400Y-79378400D03*
D24*
X141500000Y-80750000D03*
%TD*%
D25*
%TO.C,JP1*%
X124225000Y-116400000D03*
D26*
X122775000Y-116400000D03*
%TD*%
D27*
%TO.C,H1*%
X123000000Y-77500000D03*
%TD*%
%TO.C,H3*%
X123000000Y-106000000D03*
%TD*%
D20*
%TO.C,D5*%
X146735000Y-103250000D03*
X145765000Y-103250000D03*
%TD*%
D15*
%TO.C,R13*%
X146400000Y-92210000D03*
X146400000Y-91190000D03*
%TD*%
D16*
%TO.C,R9*%
X126500000Y-93240000D03*
X126500000Y-94260000D03*
%TD*%
D19*
%TO.C,C19*%
X147780000Y-86200000D03*
X146820000Y-86200000D03*
%TD*%
D28*
%TO.C,C1*%
X139400000Y-104100000D03*
X139400000Y-103140000D03*
%TD*%
D29*
%TO.C,C28*%
X140320000Y-91400000D03*
X141280000Y-91400000D03*
%TD*%
D15*
%TO.C,R3*%
X134200000Y-103010000D03*
X134200000Y-101990000D03*
%TD*%
D27*
%TO.C,H4*%
X155000000Y-106000000D03*
%TD*%
D15*
%TO.C,R17*%
X150000000Y-103260000D03*
X150000000Y-102240000D03*
%TD*%
%TO.C,R18*%
X150000000Y-101260000D03*
X150000000Y-100240000D03*
%TD*%
D30*
%TO.C,U5*%
X148250189Y-87255400D03*
X147750063Y-87255400D03*
X147249937Y-87255400D03*
X146749811Y-87255400D03*
X146749811Y-89744600D03*
X147249937Y-89744600D03*
X147750063Y-89744600D03*
X148250189Y-89744600D03*
D31*
X147500000Y-88500000D03*
%TD*%
D14*
%TO.C,R7*%
X147740000Y-102250000D03*
X148760000Y-102250000D03*
%TD*%
D29*
%TO.C,C10*%
X131140000Y-96250000D03*
X132100000Y-96250000D03*
%TD*%
D15*
%TO.C,R12*%
X147400000Y-92210000D03*
X147400000Y-91190000D03*
%TD*%
D32*
%TO.C,C33*%
X148750000Y-81270000D03*
X148750000Y-82230000D03*
%TD*%
D19*
%TO.C,C35*%
X134580000Y-97800000D03*
X133620000Y-97800000D03*
%TD*%
D33*
%TO.C,U2*%
X130362500Y-86550000D03*
X130362500Y-87500000D03*
X130362500Y-88450000D03*
X132637500Y-88450000D03*
X132637500Y-87500000D03*
X132637500Y-86550000D03*
%TD*%
D28*
%TO.C,C32*%
X143750000Y-80230000D03*
X143750000Y-79270000D03*
%TD*%
%TO.C,C30*%
X139300000Y-94380000D03*
X139300000Y-93420000D03*
%TD*%
D15*
%TO.C,R21*%
X127250000Y-102510000D03*
X127250000Y-101490000D03*
%TD*%
%TO.C,R14*%
X149900000Y-89710000D03*
X149900000Y-88690000D03*
%TD*%
%TO.C,R23*%
X127600000Y-77510000D03*
X127600000Y-76490000D03*
%TD*%
D29*
%TO.C,C26*%
X136520000Y-99200000D03*
X137480000Y-99200000D03*
%TD*%
D16*
%TO.C,R16*%
X135000000Y-95740000D03*
X135000000Y-96760000D03*
%TD*%
D14*
%TO.C,R4*%
X147740000Y-104250000D03*
X148760000Y-104250000D03*
%TD*%
D34*
%TO.C,J5*%
X152100000Y-101750000D03*
X152100000Y-100250000D03*
D35*
X155800000Y-103700000D03*
X155800000Y-98300000D03*
%TD*%
D20*
%TO.C,D2*%
X146735000Y-101250000D03*
X145765000Y-101250000D03*
%TD*%
D36*
%TO.C,J9*%
X121950000Y-71362500D03*
X137050000Y-71362500D03*
D37*
X123875000Y-74425000D03*
X125125000Y-74425000D03*
X126375000Y-74425000D03*
X127625000Y-74425000D03*
X128875000Y-74425000D03*
X130125000Y-74425000D03*
X131375000Y-74425000D03*
X132625000Y-74425000D03*
X133875000Y-74425000D03*
X135125000Y-74425000D03*
%TD*%
D29*
%TO.C,C29*%
X140320000Y-90400000D03*
X141280000Y-90400000D03*
%TD*%
D15*
%TO.C,R24*%
X129000000Y-77510000D03*
X129000000Y-76490000D03*
%TD*%
D29*
%TO.C,C8*%
X131140000Y-94250000D03*
X132100000Y-94250000D03*
%TD*%
D14*
%TO.C,R6*%
X147740000Y-101250000D03*
X148760000Y-101250000D03*
%TD*%
D32*
%TO.C,C34*%
X143750000Y-81270000D03*
X143750000Y-82230000D03*
%TD*%
D23*
%TO.C,U11*%
X145509400Y-82121600D03*
X146169800Y-82121600D03*
X146830200Y-82121600D03*
X147490600Y-82121600D03*
X147490600Y-79378400D03*
X146830200Y-79378400D03*
X146169800Y-79378400D03*
X145509400Y-79378400D03*
D24*
X146500000Y-80750000D03*
%TD*%
D19*
%TO.C,C24*%
X136980000Y-90250000D03*
X136020000Y-90250000D03*
%TD*%
D29*
%TO.C,C27*%
X140320000Y-92400000D03*
X141280000Y-92400000D03*
%TD*%
D14*
%TO.C,R33*%
X140990000Y-78250000D03*
X142010000Y-78250000D03*
%TD*%
D29*
%TO.C,C21*%
X139520000Y-100000000D03*
X140480000Y-100000000D03*
%TD*%
D15*
%TO.C,R19*%
X150000000Y-85260000D03*
X150000000Y-84240000D03*
%TD*%
D34*
%TO.C,J8*%
X152100000Y-95000000D03*
X152100000Y-93500000D03*
X152100000Y-92000000D03*
X152100000Y-90500000D03*
D35*
X155800000Y-96950000D03*
X155800000Y-88550000D03*
%TD*%
D38*
%TO.C,U8*%
X140250000Y-94800000D03*
X140750000Y-94800000D03*
X141250000Y-94800000D03*
X141750000Y-94800000D03*
X141750000Y-94250000D03*
X141750000Y-93750000D03*
X141750000Y-93200000D03*
X141250000Y-93200000D03*
X140750000Y-93200000D03*
X140250000Y-93200000D03*
X140250000Y-93750000D03*
X140250000Y-94250000D03*
%TD*%
D32*
%TO.C,C4*%
X134200000Y-103920000D03*
X134200000Y-104880000D03*
%TD*%
D39*
%TO.C,U6*%
X139837000Y-97250000D03*
X139837000Y-97750000D03*
X139837000Y-98250000D03*
X139837000Y-98750000D03*
D40*
X140500000Y-98913000D03*
X141000000Y-98913000D03*
X141500000Y-98913000D03*
D39*
X142163000Y-98750000D03*
X142163000Y-98250000D03*
X142163000Y-97750000D03*
X142163000Y-97250000D03*
D40*
X141500000Y-97087000D03*
X141000000Y-97087000D03*
X140500000Y-97087000D03*
%TD*%
D41*
%TO.C,D6*%
X132550000Y-90200000D03*
X130450000Y-90200000D03*
%TD*%
D14*
%TO.C,R8*%
X147740000Y-103250000D03*
X148760000Y-103250000D03*
%TD*%
D28*
%TO.C,C20*%
X150000000Y-92180000D03*
X150000000Y-91220000D03*
%TD*%
%TO.C,C31*%
X148750000Y-80230000D03*
X148750000Y-79270000D03*
%TD*%
D29*
%TO.C,C23*%
X141520000Y-100000000D03*
X142480000Y-100000000D03*
%TD*%
D10*
%TO.C,R10*%
X135110000Y-88700000D03*
X134090000Y-88700000D03*
%TD*%
D42*
%TO.C,BZ1*%
X138370000Y-79500000D03*
X134870000Y-79500000D03*
%TD*%
D20*
%TO.C,D1*%
X146735000Y-104250000D03*
X145765000Y-104250000D03*
%TD*%
D36*
%TO.C,J15*%
X149200000Y-71362500D03*
X156800000Y-71362500D03*
D37*
X151125000Y-74425000D03*
X152375000Y-74425000D03*
X153625000Y-74425000D03*
X154875000Y-74425000D03*
%TD*%
D14*
%TO.C,R34*%
X145990000Y-78250000D03*
X147010000Y-78250000D03*
%TD*%
D29*
%TO.C,C9*%
X131140000Y-95250000D03*
X132100000Y-95250000D03*
%TD*%
D33*
%TO.C,Q2*%
X128862500Y-102050000D03*
X128862500Y-103950000D03*
X131137500Y-103000000D03*
%TD*%
D34*
%TO.C,J7*%
X152100000Y-85250000D03*
X152100000Y-83750000D03*
X152100000Y-82250000D03*
D35*
X155800000Y-87200000D03*
X155800000Y-80300000D03*
%TD*%
D43*
%TO.C,Y1*%
X137900000Y-102750000D03*
X135700000Y-102750000D03*
X135700000Y-104450000D03*
X137900000Y-104450000D03*
%TD*%
D29*
%TO.C,C25*%
X138020000Y-91250000D03*
X138980000Y-91250000D03*
%TD*%
D10*
%TO.C,R25*%
X127310000Y-100300000D03*
X126290000Y-100300000D03*
%TD*%
D27*
%TO.C,H2*%
X155000000Y-77500000D03*
%TD*%
D44*
%TO.C,J2*%
X126355000Y-82860000D03*
X126355000Y-88640000D03*
D45*
X127430000Y-82550000D03*
X127430000Y-83350000D03*
D46*
X127430000Y-84500000D03*
X127430000Y-85500000D03*
X127430000Y-86000000D03*
X127430000Y-87000000D03*
D45*
X127430000Y-88150000D03*
X127430000Y-88950000D03*
X127430000Y-88950000D03*
X127430000Y-88150000D03*
D46*
X127430000Y-87500000D03*
X127430000Y-86500000D03*
X127430000Y-85000000D03*
X127430000Y-84000000D03*
D45*
X127430000Y-83350000D03*
X127430000Y-82550000D03*
D47*
X126855000Y-80640000D03*
X122925000Y-80640000D03*
X126855000Y-90860000D03*
X122925000Y-90860000D03*
%TD*%
D36*
%TO.C,J14*%
X139200000Y-71362500D03*
X146800000Y-71362500D03*
D37*
X141125000Y-74425000D03*
X142375000Y-74425000D03*
X143625000Y-74425000D03*
X144875000Y-74425000D03*
%TD*%
D19*
%TO.C,C3*%
X134000000Y-95250000D03*
X133040000Y-95250000D03*
%TD*%
%TO.C,C22*%
X136980000Y-91250000D03*
X136020000Y-91250000D03*
%TD*%
D16*
%TO.C,R22*%
X132750000Y-101980000D03*
X132750000Y-103000000D03*
%TD*%
D48*
%TO.C,TP1*%
X147000000Y-95400000D03*
D49*
X148270000Y-95400000D03*
X149540000Y-95400000D03*
%TD*%
D50*
%TO.C,J6*%
X155510000Y-108960000D03*
D51*
X152970000Y-108960000D03*
X150430000Y-108960000D03*
X147890000Y-108960000D03*
X145350000Y-108960000D03*
X142810000Y-108960000D03*
X140270000Y-108960000D03*
X137730000Y-108960000D03*
X135190000Y-108960000D03*
X132650000Y-108960000D03*
X130110000Y-108960000D03*
X127570000Y-108960000D03*
X125030000Y-108960000D03*
X122490000Y-108960000D03*
X155510000Y-111500000D03*
X152970000Y-111500000D03*
X150430000Y-111500000D03*
X147890000Y-111500000D03*
X145350000Y-111500000D03*
X142810000Y-111500000D03*
X140270000Y-111500000D03*
X137730000Y-111500000D03*
X135190000Y-111500000D03*
X132650000Y-111500000D03*
X130110000Y-111500000D03*
X127570000Y-111500000D03*
X125030000Y-111500000D03*
X122490000Y-111500000D03*
X155510000Y-114040000D03*
X152970000Y-114040000D03*
X150430000Y-114040000D03*
X147890000Y-114040000D03*
X145350000Y-114040000D03*
X142810000Y-114040000D03*
X140270000Y-114040000D03*
X137730000Y-114040000D03*
X135190000Y-114040000D03*
X132650000Y-114040000D03*
X130110000Y-114040000D03*
X127570000Y-114040000D03*
X125030000Y-114040000D03*
X122490000Y-114040000D03*
%TD*%
D48*
%TO.C,TP2*%
X143250000Y-104270000D03*
D49*
X143250000Y-103000000D03*
X143250000Y-101730000D03*
%TD*%
D48*
%TO.C,TP3*%
X147000000Y-98600000D03*
D49*
X148270000Y-98600000D03*
X149540000Y-98600000D03*
%TD*%
M02*
