%TF.GenerationSoftware,KiCad,Pcbnew,9.0.1*%
%TF.CreationDate,2025-06-01T13:31:13+09:00*%
%TF.ProjectId,DevTool,44657654-6f6f-46c2-9e6b-696361645f70,rev?*%
%TF.SameCoordinates,Original*%
%TF.FileFunction,Soldermask,Bot*%
%TF.FilePolarity,Negative*%
%FSLAX46Y46*%
G04 Gerber Fmt 4.6, Leading zero omitted, Abs format (unit mm)*
G04 Created by KiCad (PCBNEW 9.0.1) date 2025-06-01 13:31:13*
%MOMM*%
%LPD*%
G01*
G04 APERTURE LIST*
G04 Aperture macros list*
%AMRoundRect*
0 Rectangle with rounded corners*
0 $1 Rounding radius*
0 $2 $3 $4 $5 $6 $7 $8 $9 X,Y pos of 4 corners*
0 Add a 4 corners polygon primitive as box body*
4,1,4,$2,$3,$4,$5,$6,$7,$8,$9,$2,$3,0*
0 Add four circle primitives for the rounded corners*
1,1,$1+$1,$2,$3*
1,1,$1+$1,$4,$5*
1,1,$1+$1,$6,$7*
1,1,$1+$1,$8,$9*
0 Add four rect primitives between the rounded corners*
20,1,$1+$1,$2,$3,$4,$5,0*
20,1,$1+$1,$4,$5,$6,$7,0*
20,1,$1+$1,$6,$7,$8,$9,0*
20,1,$1+$1,$8,$9,$2,$3,0*%
G04 Aperture macros list end*
%ADD10R,1.700000X1.700000*%
%ADD11C,1.700000*%
%ADD12RoundRect,0.250000X0.600000X0.600000X-0.600000X0.600000X-0.600000X-0.600000X0.600000X-0.600000X0*%
%ADD13RoundRect,0.175000X1.175000X-0.175000X1.175000X0.175000X-1.175000X0.175000X-1.175000X-0.175000X0*%
%ADD14RoundRect,0.250000X0.700000X-0.300000X0.700000X0.300000X-0.700000X0.300000X-0.700000X-0.300000X0*%
%ADD15RoundRect,0.175000X-1.175000X0.175000X-1.175000X-0.175000X1.175000X-0.175000X1.175000X0.175000X0*%
%ADD16RoundRect,0.250000X-0.700000X0.300000X-0.700000X-0.300000X0.700000X-0.300000X0.700000X0.300000X0*%
G04 APERTURE END LIST*
D10*
%TO.C,J18*%
X147320000Y-93345000D03*
D11*
X147320000Y-95885000D03*
X147320000Y-98425000D03*
X147320000Y-100965000D03*
%TD*%
D10*
%TO.C,J1*%
X111000000Y-88900000D03*
D11*
X111000000Y-86360000D03*
X111000000Y-83820000D03*
%TD*%
D10*
%TO.C,J10*%
X129540000Y-96520000D03*
D11*
X132080000Y-96520000D03*
X134620000Y-96520000D03*
X137160000Y-96520000D03*
X139700000Y-96520000D03*
X142240000Y-96520000D03*
%TD*%
D10*
%TO.C,J11*%
X119100000Y-104140000D03*
D11*
X119100000Y-106680000D03*
X119100000Y-109220000D03*
X119100000Y-111760000D03*
%TD*%
D12*
%TO.C,J8*%
X122037500Y-85090000D03*
D11*
X119497500Y-85090000D03*
X122037500Y-82550000D03*
X119497500Y-82550000D03*
X122037500Y-80010000D03*
X119497500Y-80010000D03*
X122037500Y-77470000D03*
X119497500Y-77470000D03*
X122037500Y-74930000D03*
X119497500Y-74930000D03*
X122037500Y-72390000D03*
X119497500Y-72390000D03*
X122037500Y-69850000D03*
X119497500Y-69850000D03*
X122037500Y-67310000D03*
X119497500Y-67310000D03*
X122037500Y-64770000D03*
X119497500Y-64770000D03*
X122037500Y-62230000D03*
X119497500Y-62230000D03*
%TD*%
D10*
%TO.C,J17*%
X118110000Y-97790000D03*
D11*
X118110000Y-95250000D03*
X118110000Y-92710000D03*
%TD*%
D10*
%TO.C,J19*%
X147320000Y-73660000D03*
D11*
X149860000Y-73660000D03*
X152400000Y-73660000D03*
X154940000Y-73660000D03*
%TD*%
D10*
%TO.C,J20*%
X129540000Y-73660000D03*
D11*
X132080000Y-73660000D03*
X134620000Y-73660000D03*
X137160000Y-73660000D03*
X139700000Y-73660000D03*
X142240000Y-73660000D03*
%TD*%
D13*
%TO.C,J21*%
X114680000Y-105640000D03*
X114680000Y-104140000D03*
X114680000Y-102640000D03*
D14*
X110980000Y-107590000D03*
X110980000Y-100690000D03*
%TD*%
D15*
%TO.C,J23*%
X150750000Y-105065000D03*
X150750000Y-106565000D03*
X150750000Y-108065000D03*
X150750000Y-109565000D03*
D16*
X154450000Y-103115000D03*
X154450000Y-111515000D03*
%TD*%
D15*
%TO.C,J14*%
X150750000Y-94905000D03*
X150750000Y-96405000D03*
X150750000Y-97905000D03*
X150750000Y-99405000D03*
D16*
X154450000Y-92955000D03*
X154450000Y-101355000D03*
%TD*%
D13*
%TO.C,J13*%
X114680000Y-96750000D03*
X114680000Y-95250000D03*
X114680000Y-93750000D03*
D14*
X110980000Y-98700000D03*
X110980000Y-91800000D03*
%TD*%
M02*
