M48
; DRILL file {KiCad 9.0.1} date 2025-06-01T13:31:12+0900
; FORMAT={-:-/ absolute / metric / decimal}
; #@! TF.CreationDate,2025-06-01T13:31:12+09:00
; #@! TF.GenerationSoftware,Kicad,Pcbnew,9.0.1
; #@! TF.FileFunction,Plated,1,2,PTH
FMAT,2
METRIC
; #@! TA.AperFunction,Plated,PTH,ViaDrill
T1C0.300
; #@! TA.AperFunction,Plated,PTH,ComponentDrill
T2C1.000
%
G90
G05
T1
X148.59Y-107.95
T2
X111.0Y-83.82
X111.0Y-86.36
X111.0Y-88.9
X118.11Y-92.71
X118.11Y-95.25
X118.11Y-97.79
X119.1Y-104.14
X119.1Y-106.68
X119.1Y-109.22
X119.1Y-111.76
X119.497Y-62.23
X119.497Y-64.77
X119.497Y-67.31
X119.497Y-69.85
X119.497Y-72.39
X119.497Y-74.93
X119.497Y-77.47
X119.497Y-80.01
X119.497Y-82.55
X119.497Y-85.09
X122.037Y-62.23
X122.037Y-64.77
X122.037Y-67.31
X122.037Y-69.85
X122.037Y-72.39
X122.037Y-74.93
X122.037Y-77.47
X122.037Y-80.01
X122.037Y-82.55
X122.037Y-85.09
X129.54Y-73.66
X129.54Y-96.52
X132.08Y-73.66
X132.08Y-96.52
X134.62Y-73.66
X134.62Y-96.52
X137.16Y-73.66
X137.16Y-96.52
X139.7Y-73.66
X139.7Y-96.52
X142.24Y-73.66
X142.24Y-96.52
X147.32Y-73.66
X147.32Y-93.345
X147.32Y-95.885
X147.32Y-98.425
X147.32Y-100.965
X149.86Y-73.66
X152.4Y-73.66
X154.94Y-73.66
M30
