%TF.GenerationSoftware,KiCad,Pcbnew,9.0.1*%
%TF.CreationDate,2025-06-01T13:31:13+09:00*%
%TF.ProjectId,DevTool,44657654-6f6f-46c2-9e6b-696361645f70,rev?*%
%TF.SameCoordinates,Original*%
%TF.FileFunction,Copper,L1,Top*%
%TF.FilePolarity,Positive*%
%FSLAX46Y46*%
G04 Gerber Fmt 4.6, Leading zero omitted, Abs format (unit mm)*
G04 Created by KiCad (PCBNEW 9.0.1) date 2025-06-01 13:31:13*
%MOMM*%
%LPD*%
G01*
G04 APERTURE LIST*
G04 Aperture macros list*
%AMRoundRect*
0 Rectangle with rounded corners*
0 $1 Rounding radius*
0 $2 $3 $4 $5 $6 $7 $8 $9 X,Y pos of 4 corners*
0 Add a 4 corners polygon primitive as box body*
4,1,4,$2,$3,$4,$5,$6,$7,$8,$9,$2,$3,0*
0 Add four circle primitives for the rounded corners*
1,1,$1+$1,$2,$3*
1,1,$1+$1,$4,$5*
1,1,$1+$1,$6,$7*
1,1,$1+$1,$8,$9*
0 Add four rect primitives between the rounded corners*
20,1,$1+$1,$2,$3,$4,$5,0*
20,1,$1+$1,$4,$5,$6,$7,0*
20,1,$1+$1,$6,$7,$8,$9,0*
20,1,$1+$1,$8,$9,$2,$3,0*%
G04 Aperture macros list end*
%TA.AperFunction,SMDPad,CuDef*%
%ADD10R,1.400000X2.225000*%
%TD*%
%TA.AperFunction,SMDPad,CuDef*%
%ADD11R,0.600000X1.800000*%
%TD*%
%TA.AperFunction,ComponentPad*%
%ADD12R,1.700000X1.700000*%
%TD*%
%TA.AperFunction,ComponentPad*%
%ADD13C,1.700000*%
%TD*%
%TA.AperFunction,SMDPad,CuDef*%
%ADD14RoundRect,0.225000X0.225000X0.250000X-0.225000X0.250000X-0.225000X-0.250000X0.225000X-0.250000X0*%
%TD*%
%TA.AperFunction,ComponentPad*%
%ADD15RoundRect,0.250000X0.600000X0.600000X-0.600000X0.600000X-0.600000X-0.600000X0.600000X-0.600000X0*%
%TD*%
%TA.AperFunction,SMDPad,CuDef*%
%ADD16R,2.225000X1.400000*%
%TD*%
%TA.AperFunction,SMDPad,CuDef*%
%ADD17R,1.800000X0.600000*%
%TD*%
%TA.AperFunction,SMDPad,CuDef*%
%ADD18R,1.300000X1.550000*%
%TD*%
%TA.AperFunction,ViaPad*%
%ADD19C,0.600000*%
%TD*%
%TA.AperFunction,Conductor*%
%ADD20C,0.200000*%
%TD*%
%TA.AperFunction,Conductor*%
%ADD21C,0.250000*%
%TD*%
G04 APERTURE END LIST*
D10*
%TO.P,J12,*%
%TO.N,*%
X130840000Y-60272500D03*
X140940000Y-60272500D03*
D11*
%TO.P,J12,1,Pin_1*%
%TO.N,+5V*%
X132765000Y-63335000D03*
%TO.P,J12,2,Pin_2*%
%TO.N,/GPS2_UART_TX*%
X134015000Y-63335000D03*
%TO.P,J12,3,Pin_3*%
%TO.N,/GPS2_UART_RX*%
X135265000Y-63335000D03*
%TO.P,J12,4,Pin_4*%
%TO.N,/GPS2_I2C_SCL*%
X136515000Y-63335000D03*
%TO.P,J12,5,Pin_5*%
%TO.N,/GPS2_I2C_SDA*%
X137765000Y-63335000D03*
%TO.P,J12,6,Pin_6*%
%TO.N,GND*%
X139015000Y-63335000D03*
%TD*%
D12*
%TO.P,J18,1,Pin_1*%
%TO.N,/UART1_TX*%
X147320000Y-93345000D03*
D13*
%TO.P,J18,2,Pin_2*%
%TO.N,unconnected-(J18-Pin_2-Pad2)*%
X147320000Y-95885000D03*
%TO.P,J18,3,Pin_3*%
%TO.N,+5V*%
X147320000Y-98425000D03*
%TO.P,J18,4,Pin_4*%
%TO.N,GND*%
X147320000Y-100965000D03*
%TD*%
D10*
%TO.P,J6,*%
%TO.N,*%
X130840000Y-90132500D03*
X140940000Y-90132500D03*
D11*
%TO.P,J6,1,Pin_1*%
%TO.N,+5V*%
X132765000Y-93195000D03*
%TO.P,J6,2,Pin_2*%
%TO.N,/UART_TX*%
X134015000Y-93195000D03*
%TO.P,J6,3,Pin_3*%
%TO.N,/UART_RX*%
X135265000Y-93195000D03*
%TO.P,J6,4,Pin_4*%
%TO.N,/UART_CTS*%
X136515000Y-93195000D03*
%TO.P,J6,5,Pin_5*%
%TO.N,/UART_RTS*%
X137765000Y-93195000D03*
%TO.P,J6,6,Pin_6*%
%TO.N,GND*%
X139015000Y-93195000D03*
%TD*%
D12*
%TO.P,J1,1,Pin_1*%
%TO.N,unconnected-(J1-Pin_1-Pad1)*%
X111000000Y-88900000D03*
D13*
%TO.P,J1,2,Pin_2*%
%TO.N,/BOOT0*%
X111000000Y-86360000D03*
%TO.P,J1,3,Pin_3*%
%TO.N,+3.3V*%
X111000000Y-83820000D03*
%TD*%
D10*
%TO.P,J15,*%
%TO.N,*%
X147330000Y-67272500D03*
X154930000Y-67272500D03*
D11*
%TO.P,J15,1,Pin_1*%
%TO.N,/CRSF_TX*%
X149255000Y-70335000D03*
%TO.P,J15,2,Pin_2*%
%TO.N,/CRSF_RX*%
X150505000Y-70335000D03*
%TO.P,J15,3,Pin_3*%
%TO.N,+5V*%
X151755000Y-70335000D03*
%TO.P,J15,4,Pin_4*%
%TO.N,GND*%
X153005000Y-70335000D03*
%TD*%
D12*
%TO.P,J10,1,Pin_1*%
%TO.N,+5V*%
X129540000Y-96520000D03*
D13*
%TO.P,J10,2,Pin_2*%
%TO.N,/UART_TX*%
X132080000Y-96520000D03*
%TO.P,J10,3,Pin_3*%
%TO.N,/UART_RX*%
X134620000Y-96520000D03*
%TO.P,J10,4,Pin_4*%
%TO.N,/UART_CTS*%
X137160000Y-96520000D03*
%TO.P,J10,5,Pin_5*%
%TO.N,/UART_RTS*%
X139700000Y-96520000D03*
%TO.P,J10,6,Pin_6*%
%TO.N,GND*%
X142240000Y-96520000D03*
%TD*%
D12*
%TO.P,J11,1,Pin_1*%
%TO.N,+5V*%
X119100000Y-104140000D03*
D13*
%TO.P,J11,2,Pin_2*%
%TO.N,/I2C_SCL{slash}CAN2_P*%
X119100000Y-106680000D03*
%TO.P,J11,3,Pin_3*%
%TO.N,/I2C_SDA{slash}CAN2_N*%
X119100000Y-109220000D03*
%TO.P,J11,4,Pin_4*%
%TO.N,GND*%
X119100000Y-111760000D03*
%TD*%
D14*
%TO.P,C1,1*%
%TO.N,/BOOT0*%
X113170000Y-80930000D03*
%TO.P,C1,2*%
%TO.N,GND*%
X111620000Y-80930000D03*
%TD*%
D15*
%TO.P,J8,1,VTREF*%
%TO.N,unconnected-(J8-VTREF-Pad1)*%
X122037500Y-85090000D03*
D13*
%TO.P,J8,2,VCC/NC*%
%TO.N,unconnected-(J8-VCC{slash}NC-Pad2)*%
X119497500Y-85090000D03*
%TO.P,J8,3,~{TRST}*%
%TO.N,unconnected-(J8-~{TRST}-Pad3)*%
X122037500Y-82550000D03*
%TO.P,J8,4,GND*%
%TO.N,GND*%
X119497500Y-82550000D03*
%TO.P,J8,5,TDI*%
%TO.N,unconnected-(J8-TDI-Pad5)*%
X122037500Y-80010000D03*
%TO.P,J8,6,GND*%
%TO.N,GND*%
X119497500Y-80010000D03*
%TO.P,J8,7,TMS/SWDIO*%
%TO.N,/SWDIO*%
X122037500Y-77470000D03*
%TO.P,J8,8,GND*%
%TO.N,GND*%
X119497500Y-77470000D03*
%TO.P,J8,9,TCK/SWCLK*%
%TO.N,/SWCLK*%
X122037500Y-74930000D03*
%TO.P,J8,10,GND*%
%TO.N,GND*%
X119497500Y-74930000D03*
%TO.P,J8,11,RTCK*%
%TO.N,unconnected-(J8-RTCK-Pad11)*%
X122037500Y-72390000D03*
%TO.P,J8,12,GND*%
%TO.N,GND*%
X119497500Y-72390000D03*
%TO.P,J8,13,TDO/SWO*%
%TO.N,unconnected-(J8-TDO{slash}SWO-Pad13)*%
X122037500Y-69850000D03*
%TO.P,J8,14,GND*%
%TO.N,GND*%
X119497500Y-69850000D03*
%TO.P,J8,15,~{SRST}*%
%TO.N,/NRST*%
X122037500Y-67310000D03*
%TO.P,J8,16,GND*%
%TO.N,GND*%
X119497500Y-67310000D03*
%TO.P,J8,17,DBGRQ/NC*%
%TO.N,unconnected-(J8-DBGRQ{slash}NC-Pad17)*%
X122037500Y-64770000D03*
%TO.P,J8,18,GND*%
%TO.N,GND*%
X119497500Y-64770000D03*
%TO.P,J8,19,DBGACK/NC*%
%TO.N,unconnected-(J8-DBGACK{slash}NC-Pad19)*%
X122037500Y-62230000D03*
%TO.P,J8,20,GND*%
%TO.N,GND*%
X119497500Y-62230000D03*
%TD*%
D16*
%TO.P,J7,*%
%TO.N,*%
X132487500Y-104150000D03*
X132487500Y-111750000D03*
D17*
%TO.P,J7,1,Pin_1*%
%TO.N,+5V*%
X129425000Y-106075000D03*
%TO.P,J7,2,Pin_2*%
%TO.N,/I2C_SCL{slash}CAN2_P*%
X129425000Y-107325000D03*
%TO.P,J7,3,Pin_3*%
%TO.N,/I2C_SDA{slash}CAN2_N*%
X129425000Y-108575000D03*
%TO.P,J7,4,Pin_4*%
%TO.N,GND*%
X129425000Y-109825000D03*
%TD*%
D10*
%TO.P,J16,*%
%TO.N,*%
X130840000Y-67272500D03*
X140940000Y-67272500D03*
D11*
%TO.P,J16,1,Pin_1*%
%TO.N,+5V*%
X132765000Y-70335000D03*
%TO.P,J16,2,Pin_2*%
%TO.N,/GPS2_UART_TX*%
X134015000Y-70335000D03*
%TO.P,J16,3,Pin_3*%
%TO.N,/GPS2_UART_RX*%
X135265000Y-70335000D03*
%TO.P,J16,4,Pin_4*%
%TO.N,/GPS2_I2C_SCL*%
X136515000Y-70335000D03*
%TO.P,J16,5,Pin_5*%
%TO.N,/GPS2_I2C_SDA*%
X137765000Y-70335000D03*
%TO.P,J16,6,Pin_6*%
%TO.N,GND*%
X139015000Y-70335000D03*
%TD*%
D10*
%TO.P,J22,*%
%TO.N,*%
X147330000Y-60207500D03*
X154930000Y-60207500D03*
D11*
%TO.P,J22,1,Pin_1*%
%TO.N,/CRSF_TX*%
X149255000Y-63270000D03*
%TO.P,J22,2,Pin_2*%
%TO.N,/CRSF_RX*%
X150505000Y-63270000D03*
%TO.P,J22,3,Pin_3*%
%TO.N,+5V*%
X151755000Y-63270000D03*
%TO.P,J22,4,Pin_4*%
%TO.N,GND*%
X153005000Y-63270000D03*
%TD*%
D16*
%TO.P,J9,*%
%TO.N,*%
X125487500Y-104150000D03*
X125487500Y-111750000D03*
D17*
%TO.P,J9,1,Pin_1*%
%TO.N,+5V*%
X122425000Y-106075000D03*
%TO.P,J9,2,Pin_2*%
%TO.N,/I2C_SCL{slash}CAN2_P*%
X122425000Y-107325000D03*
%TO.P,J9,3,Pin_3*%
%TO.N,/I2C_SDA{slash}CAN2_N*%
X122425000Y-108575000D03*
%TO.P,J9,4,Pin_4*%
%TO.N,GND*%
X122425000Y-109825000D03*
%TD*%
D18*
%TO.P,SW1,1,1*%
%TO.N,GND*%
X110145000Y-78910000D03*
X110145000Y-70950000D03*
%TO.P,SW1,2,2*%
%TO.N,/BOOT0*%
X114645000Y-78910000D03*
X114645000Y-70950000D03*
%TD*%
D12*
%TO.P,J17,1,Pin_1*%
%TO.N,+3.3V*%
X118110000Y-97790000D03*
D13*
%TO.P,J17,2,Pin_2*%
%TO.N,GND*%
X118110000Y-95250000D03*
%TO.P,J17,3,Pin_3*%
%TO.N,/UART1_RX*%
X118110000Y-92710000D03*
%TD*%
D16*
%TO.P,J3,*%
%TO.N,*%
X146487500Y-104150000D03*
X146487500Y-111750000D03*
D17*
%TO.P,J3,1,Pin_1*%
%TO.N,+5V*%
X143425000Y-106075000D03*
%TO.P,J3,2,Pin_2*%
%TO.N,/I2C_SCL{slash}CAN2_P*%
X143425000Y-107325000D03*
%TO.P,J3,3,Pin_3*%
%TO.N,/I2C_SDA{slash}CAN2_N*%
X143425000Y-108575000D03*
%TO.P,J3,4,Pin_4*%
%TO.N,GND*%
X143425000Y-109825000D03*
%TD*%
D12*
%TO.P,J19,1,Pin_1*%
%TO.N,/CRSF_TX*%
X147320000Y-73660000D03*
D13*
%TO.P,J19,2,Pin_2*%
%TO.N,/CRSF_RX*%
X149860000Y-73660000D03*
%TO.P,J19,3,Pin_3*%
%TO.N,+5V*%
X152400000Y-73660000D03*
%TO.P,J19,4,Pin_4*%
%TO.N,GND*%
X154940000Y-73660000D03*
%TD*%
D12*
%TO.P,J20,1,Pin_1*%
%TO.N,+5V*%
X129540000Y-73660000D03*
D13*
%TO.P,J20,2,Pin_2*%
%TO.N,/GPS2_UART_TX*%
X132080000Y-73660000D03*
%TO.P,J20,3,Pin_3*%
%TO.N,/GPS2_UART_RX*%
X134620000Y-73660000D03*
%TO.P,J20,4,Pin_4*%
%TO.N,/GPS2_I2C_SCL*%
X137160000Y-73660000D03*
%TO.P,J20,5,Pin_5*%
%TO.N,/GPS2_I2C_SDA*%
X139700000Y-73660000D03*
%TO.P,J20,6,Pin_6*%
%TO.N,GND*%
X142240000Y-73660000D03*
%TD*%
D10*
%TO.P,J4,*%
%TO.N,*%
X130840000Y-83132500D03*
X140940000Y-83132500D03*
D11*
%TO.P,J4,1,Pin_1*%
%TO.N,+5V*%
X132765000Y-86195000D03*
%TO.P,J4,2,Pin_2*%
%TO.N,/UART_TX*%
X134015000Y-86195000D03*
%TO.P,J4,3,Pin_3*%
%TO.N,/UART_RX*%
X135265000Y-86195000D03*
%TO.P,J4,4,Pin_4*%
%TO.N,/UART_CTS*%
X136515000Y-86195000D03*
%TO.P,J4,5,Pin_5*%
%TO.N,/UART_RTS*%
X137765000Y-86195000D03*
%TO.P,J4,6,Pin_6*%
%TO.N,GND*%
X139015000Y-86195000D03*
%TD*%
D16*
%TO.P,J5,*%
%TO.N,*%
X139487500Y-104150000D03*
X139487500Y-111750000D03*
D17*
%TO.P,J5,1,Pin_1*%
%TO.N,+5V*%
X136425000Y-106075000D03*
%TO.P,J5,2,Pin_2*%
%TO.N,/I2C_SCL{slash}CAN2_P*%
X136425000Y-107325000D03*
%TO.P,J5,3,Pin_3*%
%TO.N,/I2C_SDA{slash}CAN2_N*%
X136425000Y-108575000D03*
%TO.P,J5,4,Pin_4*%
%TO.N,GND*%
X136425000Y-109825000D03*
%TD*%
D16*
%TO.P,J2,*%
%TO.N,*%
X111007500Y-67915000D03*
X111007500Y-57815000D03*
D17*
%TO.P,J2,1,Pin_1*%
%TO.N,+3.3V*%
X114070000Y-65990000D03*
%TO.P,J2,2,Pin_2*%
%TO.N,/SWDIO*%
X114070000Y-64740000D03*
%TO.P,J2,3,Pin_3*%
%TO.N,/SWCLK*%
X114070000Y-63490000D03*
%TO.P,J2,4,Pin_4*%
%TO.N,/NRST*%
X114070000Y-62240000D03*
%TO.P,J2,5,Pin_5*%
%TO.N,/BOOT0*%
X114070000Y-60990000D03*
%TO.P,J2,6,Pin_6*%
%TO.N,GND*%
X114070000Y-59740000D03*
%TD*%
D19*
%TO.N,+5V*%
X148590000Y-107950000D03*
%TD*%
D20*
%TO.N,+3.3V*%
X118110000Y-97790000D02*
X116205000Y-95885000D01*
X116205000Y-95885000D02*
X116205000Y-82550000D01*
D21*
X114935000Y-83820000D02*
X111000000Y-83820000D01*
X116205000Y-82550000D02*
X114935000Y-83820000D01*
X116205000Y-68125000D02*
X116205000Y-82550000D01*
X114070000Y-65990000D02*
X116205000Y-68125000D01*
%TO.N,+5V*%
X149860000Y-79375000D02*
X132765000Y-79375000D01*
X152400000Y-76835000D02*
X149860000Y-79375000D01*
X152400000Y-73660000D02*
X152400000Y-76835000D01*
X132765000Y-79375000D02*
X132765000Y-86195000D01*
X132765000Y-76885000D02*
X132765000Y-79375000D01*
X129540000Y-73660000D02*
X132765000Y-76885000D01*
X129540000Y-96520000D02*
X129540000Y-105960000D01*
X129540000Y-105960000D02*
X129425000Y-106075000D01*
X146715000Y-106075000D02*
X148590000Y-107950000D01*
X143425000Y-106075000D02*
X146715000Y-106075000D01*
X143425000Y-102320000D02*
X147320000Y-98425000D01*
X143425000Y-106075000D02*
X143425000Y-102320000D01*
%TO.N,GND*%
X153005000Y-71725000D02*
X154940000Y-73660000D01*
X153005000Y-70335000D02*
X153005000Y-71725000D01*
X153005000Y-63270000D02*
X153005000Y-70335000D01*
%TO.N,+5V*%
X151755000Y-73015000D02*
X151755000Y-70335000D01*
X152400000Y-73660000D02*
X151755000Y-73015000D01*
X151755000Y-63270000D02*
X151755000Y-70335000D01*
%TO.N,/CRSF_RX*%
X150505000Y-73015000D02*
X149860000Y-73660000D01*
X150505000Y-70335000D02*
X150505000Y-73015000D01*
X150505000Y-63270000D02*
X150505000Y-70335000D01*
%TO.N,/CRSF_TX*%
X149255000Y-70335000D02*
X149255000Y-71725000D01*
X149255000Y-71725000D02*
X147320000Y-73660000D01*
X149255000Y-63270000D02*
X149255000Y-70335000D01*
%TO.N,GND*%
X139015000Y-70435000D02*
X139015000Y-70335000D01*
X142240000Y-73660000D02*
X139015000Y-70435000D01*
%TO.N,/GPS2_I2C_SDA*%
X139700000Y-73660000D02*
X137765000Y-71725000D01*
X137765000Y-71725000D02*
X137765000Y-70335000D01*
%TO.N,/GPS2_I2C_SCL*%
X136515000Y-73015000D02*
X136515000Y-70335000D01*
X137160000Y-73660000D02*
X136515000Y-73015000D01*
%TO.N,/GPS2_UART_RX*%
X134620000Y-73660000D02*
X135265000Y-73015000D01*
X135265000Y-73015000D02*
X135265000Y-70335000D01*
%TO.N,/GPS2_UART_TX*%
X134015000Y-71725000D02*
X134015000Y-70335000D01*
X132080000Y-73660000D02*
X134015000Y-71725000D01*
%TO.N,+5V*%
X129540000Y-73560000D02*
X132765000Y-70335000D01*
X129540000Y-73660000D02*
X129540000Y-73560000D01*
%TO.N,GND*%
X139015000Y-63335000D02*
X139015000Y-70335000D01*
%TO.N,/GPS2_I2C_SDA*%
X137765000Y-63335000D02*
X137765000Y-70335000D01*
%TO.N,/GPS2_I2C_SCL*%
X136515000Y-63335000D02*
X136515000Y-70335000D01*
%TO.N,/GPS2_UART_RX*%
X135265000Y-63335000D02*
X135265000Y-70335000D01*
%TO.N,/GPS2_UART_TX*%
X134015000Y-63335000D02*
X134015000Y-70335000D01*
%TO.N,+5V*%
X132765000Y-63335000D02*
X132765000Y-70335000D01*
%TO.N,GND*%
X139015000Y-93295000D02*
X139015000Y-93195000D01*
X142240000Y-96520000D02*
X139015000Y-93295000D01*
%TO.N,+5V*%
X132765000Y-93295000D02*
X132765000Y-93195000D01*
X129540000Y-96520000D02*
X132765000Y-93295000D01*
%TO.N,/UART_TX*%
X134015000Y-94585000D02*
X134015000Y-93195000D01*
X132080000Y-96520000D02*
X134015000Y-94585000D01*
%TO.N,/UART_RTS*%
X137765000Y-94585000D02*
X137765000Y-93195000D01*
X139700000Y-96520000D02*
X137765000Y-94585000D01*
%TO.N,/UART_CTS*%
X136515000Y-95875000D02*
X136515000Y-93195000D01*
X137160000Y-96520000D02*
X136515000Y-95875000D01*
%TO.N,/UART_RX*%
X135265000Y-95875000D02*
X135265000Y-93195000D01*
X134620000Y-96520000D02*
X135265000Y-95875000D01*
%TO.N,GND*%
X139015000Y-86195000D02*
X139015000Y-93195000D01*
%TO.N,/UART_RTS*%
X137765000Y-86195000D02*
X137765000Y-93195000D01*
%TO.N,/UART_CTS*%
X136515000Y-86195000D02*
X136515000Y-93195000D01*
%TO.N,/UART_RX*%
X135265000Y-86195000D02*
X135265000Y-93195000D01*
%TO.N,/UART_TX*%
X134015000Y-86195000D02*
X134015000Y-93195000D01*
%TO.N,+5V*%
X132765000Y-86195000D02*
X132765000Y-93195000D01*
X121035000Y-106075000D02*
X119100000Y-104140000D01*
X122425000Y-106075000D02*
X121035000Y-106075000D01*
%TO.N,GND*%
X121035000Y-109825000D02*
X122425000Y-109825000D01*
X119100000Y-111760000D02*
X121035000Y-109825000D01*
%TO.N,/I2C_SDA{slash}CAN2_N*%
X119745000Y-108575000D02*
X122425000Y-108575000D01*
X119100000Y-109220000D02*
X119745000Y-108575000D01*
%TO.N,/I2C_SCL{slash}CAN2_P*%
X119745000Y-107325000D02*
X122425000Y-107325000D01*
X119100000Y-106680000D02*
X119745000Y-107325000D01*
%TO.N,+5V*%
X143425000Y-106075000D02*
X122425000Y-106075000D01*
%TO.N,/I2C_SCL{slash}CAN2_P*%
X143425000Y-107325000D02*
X122425000Y-107325000D01*
%TO.N,/I2C_SDA{slash}CAN2_N*%
X143425000Y-108575000D02*
X122425000Y-108575000D01*
%TO.N,GND*%
X143425000Y-109825000D02*
X122425000Y-109825000D01*
D20*
%TO.N,/BOOT0*%
X113170000Y-80930000D02*
X113170000Y-80385000D01*
X113495000Y-70950000D02*
X114645000Y-70950000D01*
X112421000Y-62039000D02*
X112421000Y-69876000D01*
X113470000Y-60990000D02*
X112421000Y-62039000D01*
X112421000Y-69876000D02*
X113495000Y-70950000D01*
X114070000Y-60990000D02*
X113470000Y-60990000D01*
%TO.N,/SWCLK*%
X114670000Y-63490000D02*
X114070000Y-63490000D01*
X117475000Y-66295000D02*
X114670000Y-63490000D01*
X118745000Y-73660000D02*
X117475000Y-72390000D01*
X117475000Y-72390000D02*
X117475000Y-66295000D01*
X120767500Y-73660000D02*
X118745000Y-73660000D01*
X122037500Y-74930000D02*
X120767500Y-73660000D01*
%TO.N,/SWDIO*%
X117016000Y-74314260D02*
X119020740Y-76319000D01*
X117016000Y-67134000D02*
X117016000Y-74314260D01*
X120886500Y-76319000D02*
X122037500Y-77470000D01*
X119020740Y-76319000D02*
X120886500Y-76319000D01*
X114070000Y-64740000D02*
X114622000Y-64740000D01*
X114622000Y-64740000D02*
X117016000Y-67134000D01*
%TO.N,/NRST*%
X120886500Y-66159000D02*
X122037500Y-67310000D01*
X118589000Y-66159000D02*
X120886500Y-66159000D01*
X114670000Y-62240000D02*
X118589000Y-66159000D01*
X114070000Y-62240000D02*
X114670000Y-62240000D01*
%TO.N,/BOOT0*%
X114645000Y-70950000D02*
X114645000Y-78910000D01*
X113170000Y-80385000D02*
X114645000Y-78910000D01*
X112394000Y-81706000D02*
X113170000Y-80930000D01*
X111334000Y-81706000D02*
X112394000Y-81706000D01*
X111000000Y-86360000D02*
X109849000Y-85209000D01*
X109849000Y-85209000D02*
X109849000Y-83191000D01*
X109849000Y-83191000D02*
X111334000Y-81706000D01*
%TD*%
%TA.AperFunction,Conductor*%
%TO.N,GND*%
G36*
X117010703Y-93500038D02*
G01*
X117029819Y-93520866D01*
X117079896Y-93589792D01*
X117230213Y-93740109D01*
X117402179Y-93865048D01*
X117402181Y-93865049D01*
X117402184Y-93865051D01*
X117411493Y-93869794D01*
X117462290Y-93917766D01*
X117479087Y-93985587D01*
X117456552Y-94051722D01*
X117411505Y-94090760D01*
X117402446Y-94095376D01*
X117402440Y-94095380D01*
X117348282Y-94134727D01*
X117348282Y-94134728D01*
X117980591Y-94767037D01*
X117917007Y-94784075D01*
X117802993Y-94849901D01*
X117709901Y-94942993D01*
X117644075Y-95057007D01*
X117627037Y-95120591D01*
X116994728Y-94488282D01*
X116939229Y-94492650D01*
X116870852Y-94478286D01*
X116821095Y-94429234D01*
X116805500Y-94369032D01*
X116805500Y-93593751D01*
X116825185Y-93526712D01*
X116877989Y-93480957D01*
X116947147Y-93471013D01*
X117010703Y-93500038D01*
G37*
%TD.AperFunction*%
%TA.AperFunction,Conductor*%
G36*
X120612770Y-83311717D02*
G01*
X120612770Y-83311716D01*
X120652122Y-83257555D01*
X120656732Y-83248507D01*
X120704705Y-83197709D01*
X120772525Y-83180912D01*
X120838661Y-83203447D01*
X120877704Y-83248504D01*
X120882449Y-83257817D01*
X121007390Y-83429786D01*
X121157709Y-83580105D01*
X121162606Y-83583663D01*
X121205271Y-83638994D01*
X121211250Y-83708607D01*
X121178644Y-83770402D01*
X121128729Y-83801685D01*
X121118173Y-83805183D01*
X121118163Y-83805187D01*
X120968842Y-83897289D01*
X120844789Y-84021342D01*
X120752687Y-84170663D01*
X120752683Y-84170673D01*
X120749185Y-84181229D01*
X120709410Y-84238672D01*
X120644893Y-84265493D01*
X120576118Y-84253174D01*
X120531163Y-84215106D01*
X120527605Y-84210209D01*
X120377286Y-84059890D01*
X120205317Y-83934949D01*
X120196004Y-83930204D01*
X120145207Y-83882230D01*
X120128412Y-83814409D01*
X120150949Y-83748274D01*
X120196007Y-83709232D01*
X120205055Y-83704622D01*
X120259216Y-83665270D01*
X120259217Y-83665270D01*
X119626908Y-83032962D01*
X119690493Y-83015925D01*
X119804507Y-82950099D01*
X119897599Y-82857007D01*
X119963425Y-82742993D01*
X119980462Y-82679408D01*
X120612770Y-83311717D01*
G37*
%TD.AperFunction*%
%TA.AperFunction,Conductor*%
G36*
X120612770Y-80771717D02*
G01*
X120612770Y-80771716D01*
X120652122Y-80717555D01*
X120656732Y-80708507D01*
X120704705Y-80657709D01*
X120772525Y-80640912D01*
X120838661Y-80663447D01*
X120877704Y-80708504D01*
X120882449Y-80717817D01*
X121007390Y-80889786D01*
X121157713Y-81040109D01*
X121329682Y-81165050D01*
X121338446Y-81169516D01*
X121389242Y-81217491D01*
X121406036Y-81285312D01*
X121383498Y-81351447D01*
X121338446Y-81390484D01*
X121329682Y-81394949D01*
X121157713Y-81519890D01*
X121007390Y-81670213D01*
X120882449Y-81842182D01*
X120877702Y-81851499D01*
X120829727Y-81902293D01*
X120761905Y-81919087D01*
X120695771Y-81896548D01*
X120656734Y-81851495D01*
X120652126Y-81842452D01*
X120612770Y-81788282D01*
X120612769Y-81788282D01*
X119980462Y-82420590D01*
X119963425Y-82357007D01*
X119897599Y-82242993D01*
X119804507Y-82149901D01*
X119690493Y-82084075D01*
X119626909Y-82067037D01*
X120259216Y-81434728D01*
X120205050Y-81395375D01*
X120195454Y-81390486D01*
X120144657Y-81342512D01*
X120127861Y-81274692D01*
X120150397Y-81208556D01*
X120195454Y-81169514D01*
X120205054Y-81164622D01*
X120259216Y-81125270D01*
X120259217Y-81125270D01*
X119626908Y-80492962D01*
X119690493Y-80475925D01*
X119804507Y-80410099D01*
X119897599Y-80317007D01*
X119963425Y-80202993D01*
X119980462Y-80139408D01*
X120612770Y-80771717D01*
G37*
%TD.AperFunction*%
%TA.AperFunction,Conductor*%
G36*
X120612770Y-78231717D02*
G01*
X120612770Y-78231716D01*
X120652122Y-78177555D01*
X120656732Y-78168507D01*
X120704705Y-78117709D01*
X120772525Y-78100912D01*
X120838661Y-78123447D01*
X120877704Y-78168504D01*
X120882449Y-78177817D01*
X121007390Y-78349786D01*
X121157713Y-78500109D01*
X121329682Y-78625050D01*
X121338446Y-78629516D01*
X121389242Y-78677491D01*
X121406036Y-78745312D01*
X121383498Y-78811447D01*
X121338446Y-78850484D01*
X121329682Y-78854949D01*
X121157713Y-78979890D01*
X121007390Y-79130213D01*
X120882449Y-79302182D01*
X120877702Y-79311499D01*
X120829727Y-79362293D01*
X120761905Y-79379087D01*
X120695771Y-79356548D01*
X120656734Y-79311495D01*
X120652126Y-79302452D01*
X120612770Y-79248282D01*
X120612769Y-79248282D01*
X119980462Y-79880590D01*
X119963425Y-79817007D01*
X119897599Y-79702993D01*
X119804507Y-79609901D01*
X119690493Y-79544075D01*
X119626909Y-79527037D01*
X120259216Y-78894728D01*
X120205050Y-78855375D01*
X120195454Y-78850486D01*
X120144657Y-78802512D01*
X120127861Y-78734692D01*
X120150397Y-78668556D01*
X120195454Y-78629514D01*
X120205054Y-78624622D01*
X120259216Y-78585270D01*
X120259217Y-78585270D01*
X119626908Y-77952962D01*
X119690493Y-77935925D01*
X119804507Y-77870099D01*
X119897599Y-77777007D01*
X119963425Y-77662993D01*
X119980462Y-77599409D01*
X120612770Y-78231717D01*
G37*
%TD.AperFunction*%
%TA.AperFunction,Conductor*%
G36*
X119031575Y-70042993D02*
G01*
X119097401Y-70157007D01*
X119190493Y-70250099D01*
X119304507Y-70315925D01*
X119368091Y-70332962D01*
X118767471Y-70933581D01*
X118846211Y-71050895D01*
X118847420Y-71054729D01*
X118850344Y-71057491D01*
X118857843Y-71087778D01*
X118867227Y-71117529D01*
X118866171Y-71121408D01*
X118867138Y-71125312D01*
X118857073Y-71154844D01*
X118848883Y-71184947D01*
X118845897Y-71187640D01*
X118844600Y-71191447D01*
X118799551Y-71230483D01*
X118789940Y-71235380D01*
X118735782Y-71274727D01*
X118735782Y-71274728D01*
X119368091Y-71907037D01*
X119304507Y-71924075D01*
X119190493Y-71989901D01*
X119097401Y-72082993D01*
X119031575Y-72197007D01*
X119014537Y-72260591D01*
X118382228Y-71628282D01*
X118382227Y-71628282D01*
X118342880Y-71682440D01*
X118342878Y-71682443D01*
X118309984Y-71747001D01*
X118262010Y-71797796D01*
X118194188Y-71814591D01*
X118128054Y-71792053D01*
X118084603Y-71737338D01*
X118075500Y-71690705D01*
X118075500Y-70549295D01*
X118095185Y-70482256D01*
X118147989Y-70436501D01*
X118217147Y-70426557D01*
X118280703Y-70455582D01*
X118309985Y-70493000D01*
X118342875Y-70557550D01*
X118382228Y-70611716D01*
X119014537Y-69979408D01*
X119031575Y-70042993D01*
G37*
%TD.AperFunction*%
%TA.AperFunction,Conductor*%
G36*
X120612770Y-70611717D02*
G01*
X120612770Y-70611716D01*
X120652122Y-70557555D01*
X120656732Y-70548507D01*
X120704705Y-70497709D01*
X120772525Y-70480912D01*
X120838661Y-70503447D01*
X120877704Y-70548504D01*
X120882449Y-70557817D01*
X121007390Y-70729786D01*
X121157713Y-70880109D01*
X121329682Y-71005050D01*
X121338446Y-71009516D01*
X121389242Y-71057491D01*
X121406036Y-71125312D01*
X121383498Y-71191447D01*
X121338446Y-71230484D01*
X121329682Y-71234949D01*
X121157713Y-71359890D01*
X121007390Y-71510213D01*
X120882449Y-71682182D01*
X120877702Y-71691499D01*
X120829727Y-71742293D01*
X120761905Y-71759087D01*
X120695771Y-71736548D01*
X120656734Y-71691495D01*
X120652126Y-71682452D01*
X120612770Y-71628282D01*
X120612769Y-71628282D01*
X119980462Y-72260589D01*
X119963425Y-72197007D01*
X119897599Y-72082993D01*
X119804507Y-71989901D01*
X119690493Y-71924075D01*
X119626909Y-71907037D01*
X120259216Y-71274728D01*
X120205050Y-71235375D01*
X120195454Y-71230486D01*
X120144657Y-71182512D01*
X120127861Y-71114692D01*
X120150397Y-71048556D01*
X120195454Y-71009514D01*
X120205054Y-71004622D01*
X120259216Y-70965270D01*
X120259217Y-70965270D01*
X119626908Y-70332962D01*
X119690493Y-70315925D01*
X119804507Y-70250099D01*
X119897599Y-70157007D01*
X119963425Y-70042993D01*
X119980462Y-69979408D01*
X120612770Y-70611717D01*
G37*
%TD.AperFunction*%
%TA.AperFunction,Conductor*%
G36*
X119031575Y-67502993D02*
G01*
X119097401Y-67617007D01*
X119190493Y-67710099D01*
X119304507Y-67775925D01*
X119368091Y-67792962D01*
X118767471Y-68393581D01*
X118846211Y-68510895D01*
X118847420Y-68514729D01*
X118850344Y-68517491D01*
X118857843Y-68547778D01*
X118867227Y-68577529D01*
X118866171Y-68581408D01*
X118867138Y-68585312D01*
X118857073Y-68614844D01*
X118848883Y-68644947D01*
X118845897Y-68647640D01*
X118844600Y-68651447D01*
X118799551Y-68690483D01*
X118789940Y-68695380D01*
X118735782Y-68734727D01*
X118735782Y-68734728D01*
X119368091Y-69367037D01*
X119304507Y-69384075D01*
X119190493Y-69449901D01*
X119097401Y-69542993D01*
X119031575Y-69657007D01*
X119014537Y-69720591D01*
X118382228Y-69088282D01*
X118382227Y-69088282D01*
X118342880Y-69142440D01*
X118342878Y-69142443D01*
X118309984Y-69207001D01*
X118262010Y-69257796D01*
X118194188Y-69274591D01*
X118128054Y-69252053D01*
X118084603Y-69197338D01*
X118075500Y-69150705D01*
X118075500Y-68009295D01*
X118095185Y-67942256D01*
X118147989Y-67896501D01*
X118217147Y-67886557D01*
X118280703Y-67915582D01*
X118309985Y-67953000D01*
X118342875Y-68017550D01*
X118382228Y-68071716D01*
X119014536Y-67439407D01*
X119031575Y-67502993D01*
G37*
%TD.AperFunction*%
%TA.AperFunction,Conductor*%
G36*
X120612770Y-68071717D02*
G01*
X120612770Y-68071716D01*
X120652122Y-68017555D01*
X120656732Y-68008507D01*
X120704705Y-67957709D01*
X120772525Y-67940912D01*
X120838661Y-67963447D01*
X120877704Y-68008504D01*
X120882449Y-68017817D01*
X121007390Y-68189786D01*
X121157713Y-68340109D01*
X121329682Y-68465050D01*
X121338446Y-68469516D01*
X121389242Y-68517491D01*
X121406036Y-68585312D01*
X121383498Y-68651447D01*
X121338446Y-68690484D01*
X121329682Y-68694949D01*
X121157713Y-68819890D01*
X121007390Y-68970213D01*
X120882449Y-69142182D01*
X120877702Y-69151499D01*
X120829727Y-69202293D01*
X120761905Y-69219087D01*
X120695771Y-69196548D01*
X120656734Y-69151495D01*
X120652126Y-69142452D01*
X120612770Y-69088282D01*
X120612769Y-69088282D01*
X119980462Y-69720590D01*
X119963425Y-69657007D01*
X119897599Y-69542993D01*
X119804507Y-69449901D01*
X119690493Y-69384075D01*
X119626909Y-69367037D01*
X120259216Y-68734728D01*
X120205050Y-68695375D01*
X120195454Y-68690486D01*
X120144657Y-68642512D01*
X120127861Y-68574692D01*
X120150397Y-68508556D01*
X120195454Y-68469514D01*
X120205054Y-68464622D01*
X120259216Y-68425270D01*
X120259217Y-68425270D01*
X119626908Y-67792962D01*
X119690493Y-67775925D01*
X119804507Y-67710099D01*
X119897599Y-67617007D01*
X119963425Y-67502993D01*
X119980462Y-67439409D01*
X120612770Y-68071717D01*
G37*
%TD.AperFunction*%
%TA.AperFunction,Conductor*%
G36*
X120612770Y-62991717D02*
G01*
X120612770Y-62991716D01*
X120652122Y-62937555D01*
X120656732Y-62928507D01*
X120704705Y-62877709D01*
X120772525Y-62860912D01*
X120838661Y-62883447D01*
X120877704Y-62928504D01*
X120882449Y-62937817D01*
X121007390Y-63109786D01*
X121157713Y-63260109D01*
X121329682Y-63385050D01*
X121338446Y-63389516D01*
X121389242Y-63437491D01*
X121406036Y-63505312D01*
X121383498Y-63571447D01*
X121338446Y-63610484D01*
X121329682Y-63614949D01*
X121157713Y-63739890D01*
X121007390Y-63890213D01*
X120882449Y-64062182D01*
X120877702Y-64071499D01*
X120829727Y-64122293D01*
X120761905Y-64139087D01*
X120695771Y-64116548D01*
X120656734Y-64071495D01*
X120652126Y-64062452D01*
X120612770Y-64008282D01*
X120612769Y-64008282D01*
X119980462Y-64640589D01*
X119963425Y-64577007D01*
X119897599Y-64462993D01*
X119804507Y-64369901D01*
X119690493Y-64304075D01*
X119626909Y-64287037D01*
X120259216Y-63654728D01*
X120205050Y-63615375D01*
X120195454Y-63610486D01*
X120144657Y-63562512D01*
X120127861Y-63494692D01*
X120150397Y-63428556D01*
X120195454Y-63389514D01*
X120205054Y-63384622D01*
X120259216Y-63345270D01*
X120259217Y-63345270D01*
X119626908Y-62712962D01*
X119690493Y-62695925D01*
X119804507Y-62630099D01*
X119897599Y-62537007D01*
X119963425Y-62422993D01*
X119980462Y-62359409D01*
X120612770Y-62991717D01*
G37*
%TD.AperFunction*%
%TA.AperFunction,Conductor*%
G36*
X109337539Y-57804685D02*
G01*
X109383294Y-57857489D01*
X109394500Y-57909000D01*
X109394500Y-58562870D01*
X109394501Y-58562876D01*
X109400908Y-58622483D01*
X109451202Y-58757328D01*
X109451206Y-58757335D01*
X109537452Y-58872544D01*
X109537455Y-58872547D01*
X109652664Y-58958793D01*
X109652671Y-58958797D01*
X109787517Y-59009091D01*
X109787516Y-59009091D01*
X109794444Y-59009835D01*
X109847127Y-59015500D01*
X112167872Y-59015499D01*
X112227483Y-59009091D01*
X112362331Y-58958796D01*
X112477546Y-58872546D01*
X112563796Y-58757331D01*
X112614091Y-58622483D01*
X112620500Y-58562873D01*
X112620499Y-57908998D01*
X112640183Y-57841961D01*
X112692987Y-57796206D01*
X112744499Y-57785000D01*
X155451000Y-57785000D01*
X155518039Y-57804685D01*
X155563794Y-57857489D01*
X155575000Y-57909000D01*
X155575000Y-58470500D01*
X155555315Y-58537539D01*
X155502511Y-58583294D01*
X155451000Y-58594500D01*
X154182129Y-58594500D01*
X154182123Y-58594501D01*
X154122516Y-58600908D01*
X153987671Y-58651202D01*
X153987664Y-58651206D01*
X153872455Y-58737452D01*
X153872452Y-58737455D01*
X153786206Y-58852664D01*
X153786202Y-58852671D01*
X153735908Y-58987517D01*
X153732900Y-59015500D01*
X153729501Y-59047123D01*
X153729500Y-59047135D01*
X153729500Y-61367870D01*
X153729501Y-61367876D01*
X153735908Y-61427483D01*
X153786202Y-61562328D01*
X153786206Y-61562335D01*
X153872452Y-61677544D01*
X153872455Y-61677547D01*
X153987664Y-61763793D01*
X153987671Y-61763797D01*
X154122517Y-61814091D01*
X154122516Y-61814091D01*
X154129444Y-61814835D01*
X154182127Y-61820500D01*
X155451000Y-61820499D01*
X155518039Y-61840184D01*
X155563794Y-61892987D01*
X155575000Y-61944499D01*
X155575000Y-65535500D01*
X155555315Y-65602539D01*
X155502511Y-65648294D01*
X155451000Y-65659500D01*
X154182129Y-65659500D01*
X154182123Y-65659501D01*
X154122516Y-65665908D01*
X153987671Y-65716202D01*
X153987664Y-65716206D01*
X153872455Y-65802452D01*
X153872452Y-65802455D01*
X153786206Y-65917664D01*
X153786202Y-65917671D01*
X153735908Y-66052517D01*
X153729501Y-66112116D01*
X153729501Y-66112123D01*
X153729500Y-66112135D01*
X153729500Y-68432870D01*
X153729501Y-68432876D01*
X153735908Y-68492483D01*
X153786202Y-68627328D01*
X153786206Y-68627335D01*
X153872452Y-68742544D01*
X153872455Y-68742547D01*
X153987664Y-68828793D01*
X153987671Y-68828797D01*
X154122517Y-68879091D01*
X154122516Y-68879091D01*
X154129444Y-68879835D01*
X154182127Y-68885500D01*
X155451000Y-68885499D01*
X155518039Y-68905184D01*
X155563794Y-68957987D01*
X155575000Y-69009499D01*
X155575000Y-72276178D01*
X155555315Y-72343217D01*
X155502511Y-72388972D01*
X155433353Y-72398916D01*
X155412682Y-72394109D01*
X155256129Y-72343242D01*
X155046246Y-72310000D01*
X154833754Y-72310000D01*
X154623872Y-72343242D01*
X154623869Y-72343242D01*
X154421782Y-72408904D01*
X154232439Y-72505380D01*
X154178282Y-72544727D01*
X154178282Y-72544728D01*
X154810591Y-73177037D01*
X154747007Y-73194075D01*
X154632993Y-73259901D01*
X154539901Y-73352993D01*
X154474075Y-73467007D01*
X154457037Y-73530591D01*
X153824728Y-72898282D01*
X153824727Y-72898282D01*
X153785380Y-72952440D01*
X153785376Y-72952446D01*
X153780760Y-72961505D01*
X153732781Y-73012297D01*
X153664959Y-73029087D01*
X153598826Y-73006543D01*
X153559794Y-72961493D01*
X153555051Y-72952184D01*
X153555049Y-72952181D01*
X153555048Y-72952179D01*
X153430109Y-72780213D01*
X153279786Y-72629890D01*
X153107820Y-72504951D01*
X152918414Y-72408444D01*
X152918413Y-72408443D01*
X152918412Y-72408443D01*
X152716243Y-72342754D01*
X152716241Y-72342753D01*
X152716240Y-72342753D01*
X152554957Y-72317208D01*
X152506287Y-72309500D01*
X152506286Y-72309500D01*
X152504500Y-72309500D01*
X152503844Y-72309307D01*
X152501424Y-72309117D01*
X152501464Y-72308608D01*
X152437461Y-72289815D01*
X152391706Y-72237011D01*
X152380500Y-72185500D01*
X152380500Y-71826209D01*
X152400185Y-71759170D01*
X152452989Y-71713415D01*
X152522147Y-71703471D01*
X152547834Y-71710027D01*
X152597623Y-71728597D01*
X152597627Y-71728598D01*
X152657155Y-71734999D01*
X152657172Y-71735000D01*
X152755000Y-71735000D01*
X153255000Y-71735000D01*
X153352828Y-71735000D01*
X153352844Y-71734999D01*
X153412372Y-71728598D01*
X153412379Y-71728596D01*
X153547086Y-71678354D01*
X153547093Y-71678350D01*
X153662187Y-71592190D01*
X153662190Y-71592187D01*
X153748350Y-71477093D01*
X153748354Y-71477086D01*
X153798596Y-71342379D01*
X153798598Y-71342372D01*
X153804999Y-71282844D01*
X153805000Y-71282827D01*
X153805000Y-70585000D01*
X153255000Y-70585000D01*
X153255000Y-71735000D01*
X152755000Y-71735000D01*
X152755000Y-70085000D01*
X153255000Y-70085000D01*
X153805000Y-70085000D01*
X153805000Y-69387172D01*
X153804999Y-69387155D01*
X153798598Y-69327627D01*
X153798596Y-69327620D01*
X153748354Y-69192913D01*
X153748350Y-69192906D01*
X153662190Y-69077812D01*
X153662187Y-69077809D01*
X153547093Y-68991649D01*
X153547086Y-68991645D01*
X153412379Y-68941403D01*
X153412372Y-68941401D01*
X153352844Y-68935000D01*
X153255000Y-68935000D01*
X153255000Y-70085000D01*
X152755000Y-70085000D01*
X152755000Y-68935000D01*
X152657155Y-68935000D01*
X152597627Y-68941401D01*
X152597616Y-68941404D01*
X152547832Y-68959972D01*
X152478140Y-68964956D01*
X152416818Y-68931470D01*
X152383333Y-68870146D01*
X152380500Y-68843790D01*
X152380500Y-64761209D01*
X152400185Y-64694170D01*
X152452989Y-64648415D01*
X152522147Y-64638471D01*
X152547834Y-64645027D01*
X152597623Y-64663597D01*
X152597627Y-64663598D01*
X152657155Y-64669999D01*
X152657172Y-64670000D01*
X152755000Y-64670000D01*
X153255000Y-64670000D01*
X153352828Y-64670000D01*
X153352844Y-64669999D01*
X153412372Y-64663598D01*
X153412379Y-64663596D01*
X153547086Y-64613354D01*
X153547093Y-64613350D01*
X153662187Y-64527190D01*
X153662190Y-64527187D01*
X153748350Y-64412093D01*
X153748354Y-64412086D01*
X153798596Y-64277379D01*
X153798598Y-64277372D01*
X153804999Y-64217844D01*
X153805000Y-64217827D01*
X153805000Y-63520000D01*
X153255000Y-63520000D01*
X153255000Y-64670000D01*
X152755000Y-64670000D01*
X152755000Y-63020000D01*
X153255000Y-63020000D01*
X153805000Y-63020000D01*
X153805000Y-62322172D01*
X153804999Y-62322155D01*
X153798598Y-62262627D01*
X153798596Y-62262620D01*
X153748354Y-62127913D01*
X153748350Y-62127906D01*
X153662190Y-62012812D01*
X153662187Y-62012809D01*
X153547093Y-61926649D01*
X153547086Y-61926645D01*
X153412379Y-61876403D01*
X153412372Y-61876401D01*
X153352844Y-61870000D01*
X153255000Y-61870000D01*
X153255000Y-63020000D01*
X152755000Y-63020000D01*
X152755000Y-61870000D01*
X152657155Y-61870000D01*
X152597627Y-61876401D01*
X152597620Y-61876403D01*
X152462913Y-61926645D01*
X152462912Y-61926646D01*
X152454725Y-61932775D01*
X152389260Y-61957190D01*
X152320987Y-61942337D01*
X152306106Y-61932773D01*
X152297331Y-61926204D01*
X152297327Y-61926202D01*
X152162486Y-61875910D01*
X152162485Y-61875909D01*
X152162483Y-61875909D01*
X152102873Y-61869500D01*
X152102863Y-61869500D01*
X151407129Y-61869500D01*
X151407123Y-61869501D01*
X151347516Y-61875908D01*
X151212671Y-61926202D01*
X151212662Y-61926207D01*
X151204307Y-61932462D01*
X151138842Y-61956877D01*
X151070570Y-61942023D01*
X151055693Y-61932462D01*
X151047337Y-61926207D01*
X151047328Y-61926202D01*
X150912486Y-61875910D01*
X150912485Y-61875909D01*
X150912483Y-61875909D01*
X150852873Y-61869500D01*
X150852863Y-61869500D01*
X150157129Y-61869500D01*
X150157123Y-61869501D01*
X150097516Y-61875908D01*
X149962671Y-61926202D01*
X149962662Y-61926207D01*
X149954307Y-61932462D01*
X149888842Y-61956877D01*
X149820570Y-61942023D01*
X149805693Y-61932462D01*
X149797337Y-61926207D01*
X149797328Y-61926202D01*
X149662486Y-61875910D01*
X149662485Y-61875909D01*
X149662483Y-61875909D01*
X149602873Y-61869500D01*
X149602863Y-61869500D01*
X148907129Y-61869500D01*
X148907123Y-61869501D01*
X148847516Y-61875908D01*
X148712671Y-61926202D01*
X148712664Y-61926206D01*
X148597455Y-62012452D01*
X148597452Y-62012455D01*
X148511206Y-62127664D01*
X148511202Y-62127671D01*
X148460908Y-62262517D01*
X148454501Y-62322116D01*
X148454500Y-62322135D01*
X148454500Y-64217870D01*
X148454501Y-64217876D01*
X148460908Y-64277483D01*
X148511202Y-64412328D01*
X148511203Y-64412329D01*
X148511204Y-64412331D01*
X148559863Y-64477331D01*
X148602769Y-64534646D01*
X148600370Y-64536441D01*
X148626666Y-64584597D01*
X148629500Y-64610955D01*
X148629500Y-65753106D01*
X148609815Y-65820145D01*
X148557011Y-65865900D01*
X148487853Y-65875844D01*
X148424297Y-65846819D01*
X148406234Y-65827418D01*
X148400789Y-65820145D01*
X148387546Y-65802454D01*
X148387544Y-65802453D01*
X148387544Y-65802452D01*
X148272335Y-65716206D01*
X148272328Y-65716202D01*
X148137482Y-65665908D01*
X148137483Y-65665908D01*
X148077883Y-65659501D01*
X148077881Y-65659500D01*
X148077873Y-65659500D01*
X148077864Y-65659500D01*
X146582129Y-65659500D01*
X146582123Y-65659501D01*
X146522516Y-65665908D01*
X146387671Y-65716202D01*
X146387664Y-65716206D01*
X146272455Y-65802452D01*
X146272452Y-65802455D01*
X146186206Y-65917664D01*
X146186202Y-65917671D01*
X146135908Y-66052517D01*
X146129501Y-66112116D01*
X146129501Y-66112123D01*
X146129500Y-66112135D01*
X146129500Y-68432870D01*
X146129501Y-68432876D01*
X146135908Y-68492483D01*
X146186202Y-68627328D01*
X146186206Y-68627335D01*
X146272452Y-68742544D01*
X146272455Y-68742547D01*
X146387664Y-68828793D01*
X146387671Y-68828797D01*
X146522517Y-68879091D01*
X146522516Y-68879091D01*
X146529444Y-68879835D01*
X146582127Y-68885500D01*
X148077872Y-68885499D01*
X148137483Y-68879091D01*
X148272331Y-68828796D01*
X148387546Y-68742546D01*
X148406233Y-68717582D01*
X148430804Y-68699188D01*
X148453989Y-68679099D01*
X148458508Y-68678449D01*
X148462166Y-68675711D01*
X148492776Y-68673521D01*
X148523147Y-68669155D01*
X148527302Y-68671052D01*
X148531858Y-68670727D01*
X148558784Y-68685430D01*
X148586703Y-68698180D01*
X148589173Y-68702023D01*
X148593181Y-68704212D01*
X148607884Y-68731139D01*
X148624477Y-68756958D01*
X148625368Y-68763158D01*
X148626666Y-68765535D01*
X148629500Y-68791893D01*
X148629500Y-68994045D01*
X148609815Y-69061084D01*
X148602504Y-69070157D01*
X148602768Y-69070355D01*
X148511206Y-69192664D01*
X148511202Y-69192671D01*
X148460908Y-69327517D01*
X148454501Y-69387116D01*
X148454500Y-69387135D01*
X148454500Y-71282870D01*
X148454501Y-71282876D01*
X148460908Y-71342483D01*
X148512388Y-71480507D01*
X148517372Y-71550199D01*
X148483887Y-71611521D01*
X147822227Y-72273181D01*
X147760904Y-72306666D01*
X147734546Y-72309500D01*
X146422129Y-72309500D01*
X146422123Y-72309501D01*
X146362516Y-72315908D01*
X146227671Y-72366202D01*
X146227664Y-72366206D01*
X146112455Y-72452452D01*
X146112452Y-72452455D01*
X146026206Y-72567664D01*
X146026202Y-72567671D01*
X145975908Y-72702517D01*
X145969501Y-72762116D01*
X145969500Y-72762135D01*
X145969500Y-74557870D01*
X145969501Y-74557876D01*
X145975908Y-74617483D01*
X146026202Y-74752328D01*
X146026206Y-74752335D01*
X146112452Y-74867544D01*
X146112455Y-74867547D01*
X146227664Y-74953793D01*
X146227671Y-74953797D01*
X146362517Y-75004091D01*
X146362516Y-75004091D01*
X146369444Y-75004835D01*
X146422127Y-75010500D01*
X148217872Y-75010499D01*
X148277483Y-75004091D01*
X148412331Y-74953796D01*
X148527546Y-74867546D01*
X148613796Y-74752331D01*
X148662810Y-74620916D01*
X148704681Y-74564984D01*
X148770145Y-74540566D01*
X148838418Y-74555417D01*
X148866673Y-74576569D01*
X148980213Y-74690109D01*
X149152179Y-74815048D01*
X149152181Y-74815049D01*
X149152184Y-74815051D01*
X149341588Y-74911557D01*
X149543757Y-74977246D01*
X149753713Y-75010500D01*
X149753714Y-75010500D01*
X149966286Y-75010500D01*
X149966287Y-75010500D01*
X150176243Y-74977246D01*
X150378412Y-74911557D01*
X150567816Y-74815051D01*
X150654138Y-74752335D01*
X150739786Y-74690109D01*
X150739788Y-74690106D01*
X150739792Y-74690104D01*
X150890104Y-74539792D01*
X150890106Y-74539788D01*
X150890109Y-74539786D01*
X151015048Y-74367820D01*
X151015047Y-74367820D01*
X151015051Y-74367816D01*
X151019514Y-74359054D01*
X151067488Y-74308259D01*
X151135308Y-74291463D01*
X151201444Y-74313999D01*
X151240486Y-74359056D01*
X151244951Y-74367820D01*
X151369890Y-74539786D01*
X151520213Y-74690109D01*
X151692181Y-74815050D01*
X151706792Y-74822494D01*
X151757589Y-74870467D01*
X151774500Y-74932980D01*
X151774500Y-76524547D01*
X151754815Y-76591586D01*
X151738181Y-76612228D01*
X149637229Y-78713181D01*
X149575906Y-78746666D01*
X149549548Y-78749500D01*
X133514500Y-78749500D01*
X133447461Y-78729815D01*
X133401706Y-78677011D01*
X133390500Y-78625500D01*
X133390500Y-76823393D01*
X133390499Y-76823389D01*
X133366464Y-76702555D01*
X133366463Y-76702548D01*
X133319930Y-76590208D01*
X133319312Y-76588715D01*
X133302256Y-76563190D01*
X133250858Y-76486267D01*
X133250856Y-76486264D01*
X133160637Y-76396045D01*
X133160606Y-76396016D01*
X131986771Y-75222181D01*
X131953286Y-75160858D01*
X131958270Y-75091166D01*
X132000142Y-75035233D01*
X132065606Y-75010816D01*
X132074452Y-75010500D01*
X132186286Y-75010500D01*
X132186287Y-75010500D01*
X132396243Y-74977246D01*
X132598412Y-74911557D01*
X132787816Y-74815051D01*
X132874138Y-74752335D01*
X132959786Y-74690109D01*
X132959788Y-74690106D01*
X132959792Y-74690104D01*
X133110104Y-74539792D01*
X133110106Y-74539788D01*
X133110109Y-74539786D01*
X133235048Y-74367820D01*
X133235047Y-74367820D01*
X133235051Y-74367816D01*
X133239514Y-74359054D01*
X133287488Y-74308259D01*
X133355308Y-74291463D01*
X133421444Y-74313999D01*
X133460486Y-74359056D01*
X133464951Y-74367820D01*
X133589890Y-74539786D01*
X133740213Y-74690109D01*
X133912179Y-74815048D01*
X133912181Y-74815049D01*
X133912184Y-74815051D01*
X134101588Y-74911557D01*
X134303757Y-74977246D01*
X134513713Y-75010500D01*
X134513714Y-75010500D01*
X134726286Y-75010500D01*
X134726287Y-75010500D01*
X134936243Y-74977246D01*
X135138412Y-74911557D01*
X135327816Y-74815051D01*
X135414138Y-74752335D01*
X135499786Y-74690109D01*
X135499788Y-74690106D01*
X135499792Y-74690104D01*
X135650104Y-74539792D01*
X135650106Y-74539788D01*
X135650109Y-74539786D01*
X135775048Y-74367820D01*
X135775047Y-74367820D01*
X135775051Y-74367816D01*
X135779514Y-74359054D01*
X135827488Y-74308259D01*
X135895308Y-74291463D01*
X135961444Y-74313999D01*
X136000486Y-74359056D01*
X136004951Y-74367820D01*
X136129890Y-74539786D01*
X136280213Y-74690109D01*
X136452179Y-74815048D01*
X136452181Y-74815049D01*
X136452184Y-74815051D01*
X136641588Y-74911557D01*
X136843757Y-74977246D01*
X137053713Y-75010500D01*
X137053714Y-75010500D01*
X137266286Y-75010500D01*
X137266287Y-75010500D01*
X137476243Y-74977246D01*
X137678412Y-74911557D01*
X137867816Y-74815051D01*
X137954138Y-74752335D01*
X138039786Y-74690109D01*
X138039788Y-74690106D01*
X138039792Y-74690104D01*
X138190104Y-74539792D01*
X138190106Y-74539788D01*
X138190109Y-74539786D01*
X138315048Y-74367820D01*
X138315047Y-74367820D01*
X138315051Y-74367816D01*
X138319514Y-74359054D01*
X138367488Y-74308259D01*
X138435308Y-74291463D01*
X138501444Y-74313999D01*
X138540486Y-74359056D01*
X138544951Y-74367820D01*
X138669890Y-74539786D01*
X138820213Y-74690109D01*
X138992179Y-74815048D01*
X138992181Y-74815049D01*
X138992184Y-74815051D01*
X139181588Y-74911557D01*
X139383757Y-74977246D01*
X139593713Y-75010500D01*
X139593714Y-75010500D01*
X139806286Y-75010500D01*
X139806287Y-75010500D01*
X140016243Y-74977246D01*
X140218412Y-74911557D01*
X140407816Y-74815051D01*
X140494138Y-74752335D01*
X140579786Y-74690109D01*
X140579788Y-74690106D01*
X140579792Y-74690104D01*
X140730104Y-74539792D01*
X140730106Y-74539788D01*
X140730109Y-74539786D01*
X140815890Y-74421717D01*
X140855051Y-74367816D01*
X140859793Y-74358508D01*
X140907763Y-74307711D01*
X140975583Y-74290911D01*
X141041719Y-74313445D01*
X141080763Y-74358500D01*
X141085373Y-74367547D01*
X141124728Y-74421716D01*
X141757037Y-73789408D01*
X141774075Y-73852993D01*
X141839901Y-73967007D01*
X141932993Y-74060099D01*
X142047007Y-74125925D01*
X142110590Y-74142962D01*
X141478282Y-74775269D01*
X141478282Y-74775270D01*
X141532449Y-74814624D01*
X141721782Y-74911095D01*
X141923870Y-74976757D01*
X142133754Y-75010000D01*
X142346246Y-75010000D01*
X142556127Y-74976757D01*
X142556130Y-74976757D01*
X142758217Y-74911095D01*
X142947554Y-74814622D01*
X143001716Y-74775270D01*
X143001717Y-74775270D01*
X142369408Y-74142962D01*
X142432993Y-74125925D01*
X142547007Y-74060099D01*
X142640099Y-73967007D01*
X142705925Y-73852993D01*
X142722962Y-73789408D01*
X143355270Y-74421717D01*
X143355270Y-74421716D01*
X143394622Y-74367554D01*
X143491095Y-74178217D01*
X143556757Y-73976130D01*
X143556757Y-73976127D01*
X143590000Y-73766246D01*
X143590000Y-73553753D01*
X143556757Y-73343872D01*
X143556757Y-73343869D01*
X143491095Y-73141782D01*
X143394624Y-72952449D01*
X143355270Y-72898282D01*
X143355269Y-72898282D01*
X142722962Y-73530590D01*
X142705925Y-73467007D01*
X142640099Y-73352993D01*
X142547007Y-73259901D01*
X142432993Y-73194075D01*
X142369409Y-73177037D01*
X143001716Y-72544728D01*
X142947550Y-72505375D01*
X142758217Y-72408904D01*
X142556129Y-72343242D01*
X142346246Y-72310000D01*
X142133754Y-72310000D01*
X141923872Y-72343242D01*
X141923869Y-72343242D01*
X141721782Y-72408904D01*
X141532439Y-72505380D01*
X141478282Y-72544727D01*
X141478282Y-72544728D01*
X142110591Y-73177037D01*
X142047007Y-73194075D01*
X141932993Y-73259901D01*
X141839901Y-73352993D01*
X141774075Y-73467007D01*
X141757037Y-73530591D01*
X141124728Y-72898282D01*
X141124727Y-72898282D01*
X141085380Y-72952440D01*
X141085376Y-72952446D01*
X141080760Y-72961505D01*
X141032781Y-73012297D01*
X140964959Y-73029087D01*
X140898826Y-73006543D01*
X140859794Y-72961493D01*
X140855051Y-72952184D01*
X140855049Y-72952181D01*
X140855048Y-72952179D01*
X140730109Y-72780213D01*
X140579786Y-72629890D01*
X140407820Y-72504951D01*
X140218414Y-72408444D01*
X140218413Y-72408443D01*
X140218412Y-72408443D01*
X140016243Y-72342754D01*
X140016241Y-72342753D01*
X140016240Y-72342753D01*
X139854957Y-72317208D01*
X139806287Y-72309500D01*
X139593713Y-72309500D01*
X139565006Y-72314046D01*
X139383757Y-72342753D01*
X139368158Y-72347822D01*
X139298317Y-72349816D01*
X139242161Y-72317571D01*
X138799976Y-71875386D01*
X138766491Y-71814063D01*
X138768472Y-71786362D01*
X138765000Y-71786362D01*
X138765000Y-71735000D01*
X139265000Y-71735000D01*
X139362828Y-71735000D01*
X139362844Y-71734999D01*
X139422372Y-71728598D01*
X139422379Y-71728596D01*
X139557086Y-71678354D01*
X139557093Y-71678350D01*
X139672187Y-71592190D01*
X139672190Y-71592187D01*
X139758350Y-71477093D01*
X139758354Y-71477086D01*
X139808596Y-71342379D01*
X139808598Y-71342372D01*
X139814999Y-71282844D01*
X139815000Y-71282827D01*
X139815000Y-70585000D01*
X139265000Y-70585000D01*
X139265000Y-71735000D01*
X138765000Y-71735000D01*
X138765000Y-70085000D01*
X139265000Y-70085000D01*
X139815000Y-70085000D01*
X139815000Y-69387172D01*
X139814999Y-69387155D01*
X139808598Y-69327627D01*
X139808596Y-69327620D01*
X139758354Y-69192913D01*
X139758350Y-69192906D01*
X139672190Y-69077812D01*
X139672187Y-69077809D01*
X139557093Y-68991649D01*
X139557086Y-68991645D01*
X139422379Y-68941403D01*
X139422372Y-68941401D01*
X139362844Y-68935000D01*
X139265000Y-68935000D01*
X139265000Y-70085000D01*
X138765000Y-70085000D01*
X138765000Y-68935000D01*
X138667155Y-68935000D01*
X138607627Y-68941401D01*
X138607616Y-68941404D01*
X138557832Y-68959972D01*
X138488140Y-68964956D01*
X138426818Y-68931470D01*
X138393333Y-68870146D01*
X138390500Y-68843790D01*
X138390500Y-66112135D01*
X139739500Y-66112135D01*
X139739500Y-68432870D01*
X139739501Y-68432876D01*
X139745908Y-68492483D01*
X139796202Y-68627328D01*
X139796206Y-68627335D01*
X139882452Y-68742544D01*
X139882455Y-68742547D01*
X139997664Y-68828793D01*
X139997671Y-68828797D01*
X140132517Y-68879091D01*
X140132516Y-68879091D01*
X140139444Y-68879835D01*
X140192127Y-68885500D01*
X141687872Y-68885499D01*
X141747483Y-68879091D01*
X141882331Y-68828796D01*
X141997546Y-68742546D01*
X142083796Y-68627331D01*
X142134091Y-68492483D01*
X142140500Y-68432873D01*
X142140499Y-66112128D01*
X142134091Y-66052517D01*
X142129422Y-66040000D01*
X142083797Y-65917671D01*
X142083793Y-65917664D01*
X141997547Y-65802455D01*
X141997544Y-65802452D01*
X141882335Y-65716206D01*
X141882328Y-65716202D01*
X141747482Y-65665908D01*
X141747483Y-65665908D01*
X141687883Y-65659501D01*
X141687881Y-65659500D01*
X141687873Y-65659500D01*
X141687864Y-65659500D01*
X140192129Y-65659500D01*
X140192123Y-65659501D01*
X140132516Y-65665908D01*
X139997671Y-65716202D01*
X139997664Y-65716206D01*
X139882455Y-65802452D01*
X139882452Y-65802455D01*
X139796206Y-65917664D01*
X139796202Y-65917671D01*
X139745908Y-66052517D01*
X139739501Y-66112116D01*
X139739501Y-66112123D01*
X139739500Y-66112135D01*
X138390500Y-66112135D01*
X138390500Y-64826209D01*
X138410185Y-64759170D01*
X138462989Y-64713415D01*
X138532147Y-64703471D01*
X138557834Y-64710027D01*
X138607623Y-64728597D01*
X138607627Y-64728598D01*
X138667155Y-64734999D01*
X138667172Y-64735000D01*
X138765000Y-64735000D01*
X139265000Y-64735000D01*
X139362828Y-64735000D01*
X139362844Y-64734999D01*
X139422372Y-64728598D01*
X139422379Y-64728596D01*
X139557086Y-64678354D01*
X139557093Y-64678350D01*
X139672187Y-64592190D01*
X139672190Y-64592187D01*
X139758350Y-64477093D01*
X139758354Y-64477086D01*
X139808596Y-64342379D01*
X139808598Y-64342372D01*
X139814999Y-64282844D01*
X139815000Y-64282827D01*
X139815000Y-63585000D01*
X139265000Y-63585000D01*
X139265000Y-64735000D01*
X138765000Y-64735000D01*
X138765000Y-63085000D01*
X139265000Y-63085000D01*
X139815000Y-63085000D01*
X139815000Y-62387172D01*
X139814999Y-62387155D01*
X139808598Y-62327627D01*
X139808596Y-62327620D01*
X139758354Y-62192913D01*
X139758350Y-62192906D01*
X139672190Y-62077812D01*
X139672187Y-62077809D01*
X139557093Y-61991649D01*
X139557086Y-61991645D01*
X139422379Y-61941403D01*
X139422372Y-61941401D01*
X139362844Y-61935000D01*
X139265000Y-61935000D01*
X139265000Y-63085000D01*
X138765000Y-63085000D01*
X138765000Y-61935000D01*
X138667155Y-61935000D01*
X138607627Y-61941401D01*
X138607620Y-61941403D01*
X138472913Y-61991645D01*
X138472912Y-61991646D01*
X138464725Y-61997775D01*
X138399260Y-62022190D01*
X138330987Y-62007337D01*
X138316106Y-61997773D01*
X138307331Y-61991204D01*
X138307327Y-61991202D01*
X138172486Y-61940910D01*
X138172485Y-61940909D01*
X138172483Y-61940909D01*
X138112873Y-61934500D01*
X138112863Y-61934500D01*
X137417129Y-61934500D01*
X137417123Y-61934501D01*
X137357516Y-61940908D01*
X137222671Y-61991202D01*
X137222662Y-61991207D01*
X137214307Y-61997462D01*
X137148842Y-62021877D01*
X137080570Y-62007023D01*
X137065693Y-61997462D01*
X137057337Y-61991207D01*
X137057328Y-61991202D01*
X136922486Y-61940910D01*
X136922485Y-61940909D01*
X136922483Y-61940909D01*
X136862873Y-61934500D01*
X136862863Y-61934500D01*
X136167129Y-61934500D01*
X136167123Y-61934501D01*
X136107516Y-61940908D01*
X135972671Y-61991202D01*
X135972662Y-61991207D01*
X135964307Y-61997462D01*
X135898842Y-62021877D01*
X135830570Y-62007023D01*
X135815693Y-61997462D01*
X135807337Y-61991207D01*
X135807328Y-61991202D01*
X135672486Y-61940910D01*
X135672485Y-61940909D01*
X135672483Y-61940909D01*
X135612873Y-61934500D01*
X135612863Y-61934500D01*
X134917129Y-61934500D01*
X134917123Y-61934501D01*
X134857516Y-61940908D01*
X134722671Y-61991202D01*
X134722662Y-61991207D01*
X134714307Y-61997462D01*
X134648842Y-62021877D01*
X134580570Y-62007023D01*
X134565693Y-61997462D01*
X134557337Y-61991207D01*
X134557328Y-61991202D01*
X134422486Y-61940910D01*
X134422485Y-61940909D01*
X134422483Y-61940909D01*
X134362873Y-61934500D01*
X134362863Y-61934500D01*
X133667129Y-61934500D01*
X133667123Y-61934501D01*
X133607516Y-61940908D01*
X133472671Y-61991202D01*
X133472662Y-61991207D01*
X133464307Y-61997462D01*
X133398842Y-62021877D01*
X133330570Y-62007023D01*
X133315693Y-61997462D01*
X133307337Y-61991207D01*
X133307328Y-61991202D01*
X133172486Y-61940910D01*
X133172485Y-61940909D01*
X133172483Y-61940909D01*
X133112873Y-61934500D01*
X133112863Y-61934500D01*
X132417129Y-61934500D01*
X132417123Y-61934501D01*
X132357516Y-61940908D01*
X132222671Y-61991202D01*
X132222664Y-61991206D01*
X132107455Y-62077452D01*
X132107452Y-62077455D01*
X132021206Y-62192664D01*
X132021202Y-62192671D01*
X131970908Y-62327517D01*
X131964501Y-62387116D01*
X131964500Y-62387135D01*
X131964500Y-64282870D01*
X131964501Y-64282876D01*
X131970908Y-64342483D01*
X132021202Y-64477328D01*
X132021203Y-64477329D01*
X132021204Y-64477331D01*
X132101503Y-64584597D01*
X132112769Y-64599646D01*
X132110370Y-64601441D01*
X132136666Y-64649597D01*
X132139500Y-64675955D01*
X132139500Y-65753106D01*
X132119815Y-65820145D01*
X132067011Y-65865900D01*
X131997853Y-65875844D01*
X131934297Y-65846819D01*
X131916234Y-65827418D01*
X131910789Y-65820145D01*
X131897546Y-65802454D01*
X131897544Y-65802453D01*
X131897544Y-65802452D01*
X131782335Y-65716206D01*
X131782328Y-65716202D01*
X131647482Y-65665908D01*
X131647483Y-65665908D01*
X131587883Y-65659501D01*
X131587881Y-65659500D01*
X131587873Y-65659500D01*
X131587864Y-65659500D01*
X130092129Y-65659500D01*
X130092123Y-65659501D01*
X130032516Y-65665908D01*
X129897671Y-65716202D01*
X129897664Y-65716206D01*
X129782455Y-65802452D01*
X129782452Y-65802455D01*
X129696206Y-65917664D01*
X129696202Y-65917671D01*
X129645908Y-66052517D01*
X129639501Y-66112116D01*
X129639501Y-66112123D01*
X129639500Y-66112135D01*
X129639500Y-68432870D01*
X129639501Y-68432876D01*
X129645908Y-68492483D01*
X129696202Y-68627328D01*
X129696206Y-68627335D01*
X129782452Y-68742544D01*
X129782455Y-68742547D01*
X129897664Y-68828793D01*
X129897671Y-68828797D01*
X130032517Y-68879091D01*
X130032516Y-68879091D01*
X130039444Y-68879835D01*
X130092127Y-68885500D01*
X131587872Y-68885499D01*
X131647483Y-68879091D01*
X131782331Y-68828796D01*
X131897546Y-68742546D01*
X131916233Y-68717582D01*
X131940804Y-68699188D01*
X131963989Y-68679099D01*
X131968508Y-68678449D01*
X131972166Y-68675711D01*
X132002776Y-68673521D01*
X132033147Y-68669155D01*
X132037302Y-68671052D01*
X132041858Y-68670727D01*
X132068784Y-68685430D01*
X132096703Y-68698180D01*
X132099173Y-68702023D01*
X132103181Y-68704212D01*
X132117884Y-68731139D01*
X132134477Y-68756958D01*
X132135368Y-68763158D01*
X132136666Y-68765535D01*
X132139500Y-68791893D01*
X132139500Y-68994045D01*
X132119815Y-69061084D01*
X132112504Y-69070157D01*
X132112768Y-69070355D01*
X132021206Y-69192664D01*
X132021202Y-69192671D01*
X131970908Y-69327517D01*
X131964501Y-69387116D01*
X131964500Y-69387135D01*
X131964500Y-70199547D01*
X131944815Y-70266586D01*
X131928181Y-70287228D01*
X129942227Y-72273181D01*
X129880904Y-72306666D01*
X129854546Y-72309500D01*
X128642129Y-72309500D01*
X128642123Y-72309501D01*
X128582516Y-72315908D01*
X128447671Y-72366202D01*
X128447664Y-72366206D01*
X128332455Y-72452452D01*
X128332452Y-72452455D01*
X128246206Y-72567664D01*
X128246202Y-72567671D01*
X128195908Y-72702517D01*
X128189501Y-72762116D01*
X128189500Y-72762135D01*
X128189500Y-74557870D01*
X128189501Y-74557876D01*
X128195908Y-74617483D01*
X128246202Y-74752328D01*
X128246206Y-74752335D01*
X128332452Y-74867544D01*
X128332455Y-74867547D01*
X128447664Y-74953793D01*
X128447671Y-74953797D01*
X128582517Y-75004091D01*
X128582516Y-75004091D01*
X128589444Y-75004835D01*
X128642127Y-75010500D01*
X129954547Y-75010499D01*
X130021586Y-75030184D01*
X130042228Y-75046818D01*
X132103181Y-77107771D01*
X132136666Y-77169094D01*
X132139500Y-77195452D01*
X132139500Y-81613106D01*
X132119815Y-81680145D01*
X132067011Y-81725900D01*
X131997853Y-81735844D01*
X131934297Y-81706819D01*
X131916234Y-81687418D01*
X131903354Y-81670213D01*
X131897546Y-81662454D01*
X131897544Y-81662453D01*
X131897544Y-81662452D01*
X131782335Y-81576206D01*
X131782328Y-81576202D01*
X131647482Y-81525908D01*
X131647483Y-81525908D01*
X131587883Y-81519501D01*
X131587881Y-81519500D01*
X131587873Y-81519500D01*
X131587864Y-81519500D01*
X130092129Y-81519500D01*
X130092123Y-81519501D01*
X130032516Y-81525908D01*
X129897671Y-81576202D01*
X129897664Y-81576206D01*
X129782455Y-81662452D01*
X129782452Y-81662455D01*
X129696206Y-81777664D01*
X129696202Y-81777671D01*
X129645908Y-81912517D01*
X129639501Y-81972116D01*
X129639501Y-81972123D01*
X129639500Y-81972135D01*
X129639500Y-84292870D01*
X129639501Y-84292876D01*
X129645908Y-84352483D01*
X129696202Y-84487328D01*
X129696206Y-84487335D01*
X129782452Y-84602544D01*
X129782455Y-84602547D01*
X129897664Y-84688793D01*
X129897671Y-84688797D01*
X130032517Y-84739091D01*
X130032516Y-84739091D01*
X130039444Y-84739835D01*
X130092127Y-84745500D01*
X131587872Y-84745499D01*
X131647483Y-84739091D01*
X131782331Y-84688796D01*
X131897546Y-84602546D01*
X131916233Y-84577582D01*
X131940804Y-84559188D01*
X131963989Y-84539099D01*
X131968508Y-84538449D01*
X131972166Y-84535711D01*
X132002776Y-84533521D01*
X132033147Y-84529155D01*
X132037302Y-84531052D01*
X132041858Y-84530727D01*
X132068784Y-84545430D01*
X132096703Y-84558180D01*
X132099173Y-84562023D01*
X132103181Y-84564212D01*
X132117884Y-84591139D01*
X132134477Y-84616958D01*
X132135368Y-84623158D01*
X132136666Y-84625535D01*
X132139500Y-84651893D01*
X132139500Y-84854045D01*
X132119815Y-84921084D01*
X132112504Y-84930157D01*
X132112768Y-84930355D01*
X132021206Y-85052664D01*
X132021202Y-85052671D01*
X131970908Y-85187517D01*
X131964501Y-85247116D01*
X131964500Y-85247135D01*
X131964500Y-87142870D01*
X131964501Y-87142876D01*
X131970908Y-87202483D01*
X132021202Y-87337328D01*
X132021203Y-87337329D01*
X132021204Y-87337331D01*
X132105438Y-87449853D01*
X132112769Y-87459646D01*
X132110370Y-87461441D01*
X132136666Y-87509597D01*
X132139500Y-87535955D01*
X132139500Y-88613106D01*
X132119815Y-88680145D01*
X132067011Y-88725900D01*
X131997853Y-88735844D01*
X131934297Y-88706819D01*
X131916234Y-88687418D01*
X131910789Y-88680145D01*
X131897546Y-88662454D01*
X131897544Y-88662453D01*
X131897544Y-88662452D01*
X131782335Y-88576206D01*
X131782328Y-88576202D01*
X131647482Y-88525908D01*
X131647483Y-88525908D01*
X131587883Y-88519501D01*
X131587881Y-88519500D01*
X131587873Y-88519500D01*
X131587864Y-88519500D01*
X130092129Y-88519500D01*
X130092123Y-88519501D01*
X130032516Y-88525908D01*
X129897671Y-88576202D01*
X129897664Y-88576206D01*
X129782455Y-88662452D01*
X129782452Y-88662455D01*
X129696206Y-88777664D01*
X129696202Y-88777671D01*
X129645908Y-88912517D01*
X129639501Y-88972116D01*
X129639501Y-88972123D01*
X129639500Y-88972135D01*
X129639500Y-91292870D01*
X129639501Y-91292876D01*
X129645908Y-91352483D01*
X129696202Y-91487328D01*
X129696206Y-91487335D01*
X129782452Y-91602544D01*
X129782455Y-91602547D01*
X129897664Y-91688793D01*
X129897671Y-91688797D01*
X130032517Y-91739091D01*
X130032516Y-91739091D01*
X130039444Y-91739835D01*
X130092127Y-91745500D01*
X131587872Y-91745499D01*
X131647483Y-91739091D01*
X131782331Y-91688796D01*
X131897546Y-91602546D01*
X131916233Y-91577582D01*
X131940804Y-91559188D01*
X131963989Y-91539099D01*
X131968508Y-91538449D01*
X131972166Y-91535711D01*
X132002776Y-91533521D01*
X132033147Y-91529155D01*
X132037302Y-91531052D01*
X132041858Y-91530727D01*
X132068784Y-91545430D01*
X132096703Y-91558180D01*
X132099173Y-91562023D01*
X132103181Y-91564212D01*
X132117884Y-91591139D01*
X132134477Y-91616958D01*
X132135368Y-91623158D01*
X132136666Y-91625535D01*
X132139500Y-91651893D01*
X132139500Y-91854045D01*
X132119815Y-91921084D01*
X132112504Y-91930157D01*
X132112768Y-91930355D01*
X132021206Y-92052664D01*
X132021202Y-92052671D01*
X131970908Y-92187517D01*
X131964501Y-92247116D01*
X131964500Y-92247135D01*
X131964500Y-93159547D01*
X131944815Y-93226586D01*
X131928181Y-93247228D01*
X130042227Y-95133181D01*
X129980904Y-95166666D01*
X129954546Y-95169500D01*
X128642129Y-95169500D01*
X128642123Y-95169501D01*
X128582516Y-95175908D01*
X128447671Y-95226202D01*
X128447664Y-95226206D01*
X128332455Y-95312452D01*
X128332452Y-95312455D01*
X128246206Y-95427664D01*
X128246202Y-95427671D01*
X128195908Y-95562517D01*
X128189501Y-95622116D01*
X128189500Y-95622135D01*
X128189500Y-97417870D01*
X128189501Y-97417876D01*
X128195908Y-97477483D01*
X128246202Y-97612328D01*
X128246206Y-97612335D01*
X128332452Y-97727544D01*
X128332455Y-97727547D01*
X128447664Y-97813793D01*
X128447671Y-97813797D01*
X128492618Y-97830561D01*
X128582517Y-97864091D01*
X128642127Y-97870500D01*
X128790500Y-97870499D01*
X128857539Y-97890183D01*
X128903294Y-97942987D01*
X128914500Y-97994499D01*
X128914500Y-105150500D01*
X128894815Y-105217539D01*
X128842011Y-105263294D01*
X128790500Y-105274500D01*
X128477130Y-105274500D01*
X128477123Y-105274501D01*
X128417516Y-105280908D01*
X128282671Y-105331202D01*
X128282664Y-105331206D01*
X128160355Y-105422768D01*
X128158560Y-105420370D01*
X128110404Y-105446666D01*
X128084046Y-105449500D01*
X127006894Y-105449500D01*
X126939855Y-105429815D01*
X126894100Y-105377011D01*
X126884156Y-105307853D01*
X126913181Y-105244297D01*
X126932582Y-105226234D01*
X126957546Y-105207546D01*
X127043796Y-105092331D01*
X127094091Y-104957483D01*
X127100500Y-104897873D01*
X127100499Y-103402128D01*
X127094091Y-103342517D01*
X127056648Y-103242128D01*
X127043797Y-103207671D01*
X127043793Y-103207664D01*
X126957547Y-103092455D01*
X126957544Y-103092452D01*
X126842335Y-103006206D01*
X126842328Y-103006202D01*
X126707482Y-102955908D01*
X126707483Y-102955908D01*
X126647883Y-102949501D01*
X126647881Y-102949500D01*
X126647873Y-102949500D01*
X126647864Y-102949500D01*
X124327129Y-102949500D01*
X124327123Y-102949501D01*
X124267516Y-102955908D01*
X124132671Y-103006202D01*
X124132664Y-103006206D01*
X124017455Y-103092452D01*
X124017452Y-103092455D01*
X123931206Y-103207664D01*
X123931202Y-103207671D01*
X123880908Y-103342517D01*
X123874501Y-103402116D01*
X123874501Y-103402123D01*
X123874500Y-103402135D01*
X123874500Y-104897870D01*
X123874501Y-104897876D01*
X123880908Y-104957483D01*
X123931202Y-105092328D01*
X123931206Y-105092335D01*
X124017452Y-105207544D01*
X124017453Y-105207544D01*
X124017454Y-105207546D01*
X124030803Y-105217539D01*
X124042418Y-105226234D01*
X124060810Y-105250804D01*
X124080900Y-105273989D01*
X124081550Y-105278510D01*
X124084288Y-105282168D01*
X124086476Y-105312774D01*
X124090844Y-105343147D01*
X124088946Y-105347302D01*
X124089272Y-105351860D01*
X124074566Y-105378789D01*
X124061819Y-105406703D01*
X124057974Y-105409173D01*
X124055786Y-105413182D01*
X124028857Y-105427885D01*
X124003041Y-105444477D01*
X123996839Y-105445368D01*
X123994462Y-105446667D01*
X123968106Y-105449500D01*
X123765954Y-105449500D01*
X123698915Y-105429815D01*
X123689842Y-105422504D01*
X123689645Y-105422768D01*
X123567335Y-105331206D01*
X123567328Y-105331202D01*
X123432482Y-105280908D01*
X123432483Y-105280908D01*
X123372883Y-105274501D01*
X123372881Y-105274500D01*
X123372873Y-105274500D01*
X123372864Y-105274500D01*
X121477129Y-105274500D01*
X121477123Y-105274501D01*
X121417515Y-105280909D01*
X121279490Y-105332388D01*
X121209799Y-105337372D01*
X121148477Y-105303887D01*
X120486818Y-104642228D01*
X120453333Y-104580905D01*
X120450499Y-104554547D01*
X120450499Y-103242129D01*
X120450498Y-103242123D01*
X120450497Y-103242116D01*
X120444091Y-103182517D01*
X120393796Y-103047669D01*
X120393795Y-103047668D01*
X120393793Y-103047664D01*
X120307547Y-102932455D01*
X120307544Y-102932452D01*
X120192335Y-102846206D01*
X120192328Y-102846202D01*
X120057482Y-102795908D01*
X120057483Y-102795908D01*
X119997883Y-102789501D01*
X119997881Y-102789500D01*
X119997873Y-102789500D01*
X119997864Y-102789500D01*
X118202129Y-102789500D01*
X118202123Y-102789501D01*
X118142516Y-102795908D01*
X118007671Y-102846202D01*
X118007664Y-102846206D01*
X117892455Y-102932452D01*
X117892452Y-102932455D01*
X117806206Y-103047664D01*
X117806202Y-103047671D01*
X117755908Y-103182517D01*
X117749501Y-103242116D01*
X117749501Y-103242123D01*
X117749500Y-103242135D01*
X117749500Y-105037870D01*
X117749501Y-105037876D01*
X117755908Y-105097483D01*
X117806202Y-105232328D01*
X117806206Y-105232335D01*
X117892452Y-105347544D01*
X117892455Y-105347547D01*
X118007664Y-105433793D01*
X118007671Y-105433797D01*
X118139082Y-105482810D01*
X118195016Y-105524681D01*
X118219433Y-105590145D01*
X118204582Y-105658418D01*
X118183431Y-105686673D01*
X118069889Y-105800215D01*
X117944951Y-105972179D01*
X117848444Y-106161585D01*
X117782753Y-106363760D01*
X117749500Y-106573713D01*
X117749500Y-106786286D01*
X117779726Y-106977129D01*
X117782754Y-106996243D01*
X117842546Y-107180264D01*
X117848444Y-107198414D01*
X117944951Y-107387820D01*
X118069890Y-107559786D01*
X118220213Y-107710109D01*
X118392182Y-107835050D01*
X118400946Y-107839516D01*
X118451742Y-107887491D01*
X118468536Y-107955312D01*
X118445998Y-108021447D01*
X118400946Y-108060484D01*
X118392182Y-108064949D01*
X118220213Y-108189890D01*
X118069890Y-108340213D01*
X117944951Y-108512179D01*
X117848444Y-108701585D01*
X117782753Y-108903760D01*
X117749500Y-109113713D01*
X117749500Y-109326287D01*
X117757295Y-109375500D01*
X117782753Y-109536239D01*
X117848444Y-109738414D01*
X117944951Y-109927820D01*
X118069890Y-110099786D01*
X118220213Y-110250109D01*
X118392179Y-110375048D01*
X118392181Y-110375049D01*
X118392184Y-110375051D01*
X118401493Y-110379794D01*
X118452290Y-110427766D01*
X118469087Y-110495587D01*
X118446552Y-110561722D01*
X118401505Y-110600760D01*
X118392446Y-110605376D01*
X118392440Y-110605380D01*
X118338282Y-110644727D01*
X118338282Y-110644728D01*
X118970591Y-111277037D01*
X118907007Y-111294075D01*
X118792993Y-111359901D01*
X118699901Y-111452993D01*
X118634075Y-111567007D01*
X118617037Y-111630591D01*
X117984728Y-110998282D01*
X117984727Y-110998282D01*
X117945380Y-111052439D01*
X117848904Y-111241782D01*
X117783242Y-111443869D01*
X117783242Y-111443872D01*
X117750000Y-111653753D01*
X117750000Y-111866246D01*
X117783242Y-112076127D01*
X117783242Y-112076130D01*
X117834110Y-112232682D01*
X117836105Y-112302523D01*
X117800025Y-112362356D01*
X117737324Y-112393184D01*
X117716179Y-112395000D01*
X107439000Y-112395000D01*
X107371961Y-112375315D01*
X107326206Y-112322511D01*
X107315000Y-112271000D01*
X107315000Y-85288054D01*
X109248498Y-85288054D01*
X109289423Y-85440787D01*
X109308234Y-85473366D01*
X109308235Y-85473369D01*
X109368475Y-85577709D01*
X109368481Y-85577717D01*
X109487349Y-85696585D01*
X109487355Y-85696590D01*
X109666241Y-85875476D01*
X109699726Y-85936799D01*
X109696492Y-86001473D01*
X109682753Y-86043757D01*
X109649500Y-86253713D01*
X109649500Y-86466286D01*
X109682753Y-86676239D01*
X109748444Y-86878414D01*
X109844951Y-87067820D01*
X109969890Y-87239786D01*
X110083430Y-87353326D01*
X110116915Y-87414649D01*
X110111931Y-87484341D01*
X110070059Y-87540274D01*
X110039083Y-87557189D01*
X109907669Y-87606203D01*
X109907664Y-87606206D01*
X109792455Y-87692452D01*
X109792452Y-87692455D01*
X109706206Y-87807664D01*
X109706202Y-87807671D01*
X109655908Y-87942517D01*
X109649501Y-88002116D01*
X109649501Y-88002123D01*
X109649500Y-88002135D01*
X109649500Y-89797870D01*
X109649501Y-89797876D01*
X109655908Y-89857483D01*
X109706202Y-89992328D01*
X109706206Y-89992335D01*
X109792452Y-90107544D01*
X109792455Y-90107547D01*
X109907664Y-90193793D01*
X109907671Y-90193797D01*
X110042517Y-90244091D01*
X110042516Y-90244091D01*
X110049444Y-90244835D01*
X110102127Y-90250500D01*
X111897872Y-90250499D01*
X111957483Y-90244091D01*
X112092331Y-90193796D01*
X112207546Y-90107546D01*
X112293796Y-89992331D01*
X112344091Y-89857483D01*
X112350500Y-89797873D01*
X112350499Y-88002128D01*
X112344091Y-87942517D01*
X112293796Y-87807669D01*
X112293795Y-87807668D01*
X112293793Y-87807664D01*
X112207547Y-87692455D01*
X112207544Y-87692452D01*
X112092335Y-87606206D01*
X112092328Y-87606202D01*
X111960917Y-87557189D01*
X111904983Y-87515318D01*
X111880566Y-87449853D01*
X111895418Y-87381580D01*
X111916563Y-87353332D01*
X112030104Y-87239792D01*
X112057211Y-87202483D01*
X112155048Y-87067820D01*
X112155047Y-87067820D01*
X112155051Y-87067816D01*
X112251557Y-86878412D01*
X112317246Y-86676243D01*
X112350500Y-86466287D01*
X112350500Y-86253713D01*
X112317246Y-86043757D01*
X112251557Y-85841588D01*
X112155051Y-85652184D01*
X112155049Y-85652181D01*
X112155048Y-85652179D01*
X112030109Y-85480213D01*
X111879786Y-85329890D01*
X111707820Y-85204951D01*
X111707115Y-85204591D01*
X111699054Y-85200485D01*
X111648259Y-85152512D01*
X111631463Y-85084692D01*
X111653999Y-85018556D01*
X111699054Y-84979515D01*
X111707816Y-84975051D01*
X111729789Y-84959086D01*
X111879786Y-84850109D01*
X111879788Y-84850106D01*
X111879792Y-84850104D01*
X112030104Y-84699792D01*
X112030106Y-84699788D01*
X112030109Y-84699786D01*
X112155049Y-84527819D01*
X112162497Y-84513203D01*
X112210473Y-84462408D01*
X112272981Y-84445500D01*
X114996607Y-84445500D01*
X115057029Y-84433481D01*
X115117452Y-84421463D01*
X115150792Y-84407652D01*
X115231286Y-84374312D01*
X115282509Y-84340084D01*
X115333733Y-84305858D01*
X115396570Y-84243020D01*
X115400620Y-84239610D01*
X115427939Y-84227594D01*
X115454141Y-84213287D01*
X115459583Y-84213676D01*
X115464577Y-84211480D01*
X115494055Y-84216141D01*
X115523833Y-84218271D01*
X115528201Y-84221541D01*
X115533589Y-84222393D01*
X115555867Y-84242251D01*
X115579767Y-84260142D01*
X115581673Y-84265254D01*
X115585746Y-84268884D01*
X115593752Y-84297638D01*
X115604184Y-84325606D01*
X115604500Y-84334453D01*
X115604500Y-95798330D01*
X115604499Y-95798348D01*
X115604499Y-95964054D01*
X115604498Y-95964054D01*
X115645423Y-96116785D01*
X115645424Y-96116788D01*
X115648011Y-96121268D01*
X115648014Y-96121273D01*
X115724477Y-96253712D01*
X115724481Y-96253717D01*
X115843349Y-96372585D01*
X115843355Y-96372590D01*
X116723181Y-97252416D01*
X116756666Y-97313739D01*
X116759500Y-97340097D01*
X116759500Y-98687870D01*
X116759501Y-98687876D01*
X116765908Y-98747483D01*
X116816202Y-98882328D01*
X116816206Y-98882335D01*
X116902452Y-98997544D01*
X116902455Y-98997547D01*
X117017664Y-99083793D01*
X117017671Y-99083797D01*
X117152517Y-99134091D01*
X117152516Y-99134091D01*
X117159444Y-99134835D01*
X117212127Y-99140500D01*
X119007872Y-99140499D01*
X119067483Y-99134091D01*
X119202331Y-99083796D01*
X119317546Y-98997546D01*
X119403796Y-98882331D01*
X119454091Y-98747483D01*
X119460500Y-98687873D01*
X119460499Y-96892128D01*
X119454091Y-96832517D01*
X119428831Y-96764792D01*
X119403797Y-96697671D01*
X119403793Y-96697664D01*
X119317547Y-96582455D01*
X119317544Y-96582452D01*
X119202335Y-96496206D01*
X119202328Y-96496202D01*
X119067482Y-96445908D01*
X119067483Y-96445908D01*
X119007883Y-96439501D01*
X119007881Y-96439500D01*
X119007873Y-96439500D01*
X119007865Y-96439500D01*
X118997309Y-96439500D01*
X118930270Y-96419815D01*
X118909628Y-96403181D01*
X118239408Y-95732962D01*
X118302993Y-95715925D01*
X118417007Y-95650099D01*
X118510099Y-95557007D01*
X118575925Y-95442993D01*
X118592962Y-95379408D01*
X119225270Y-96011717D01*
X119225270Y-96011716D01*
X119264622Y-95957554D01*
X119361095Y-95768217D01*
X119426757Y-95566130D01*
X119426757Y-95566127D01*
X119460000Y-95356246D01*
X119460000Y-95143753D01*
X119426757Y-94933872D01*
X119426757Y-94933869D01*
X119361095Y-94731782D01*
X119264624Y-94542449D01*
X119225270Y-94488282D01*
X119225269Y-94488282D01*
X118592962Y-95120590D01*
X118575925Y-95057007D01*
X118510099Y-94942993D01*
X118417007Y-94849901D01*
X118302993Y-94784075D01*
X118239409Y-94767037D01*
X118871716Y-94134728D01*
X118817547Y-94095373D01*
X118817547Y-94095372D01*
X118808500Y-94090763D01*
X118757706Y-94042788D01*
X118740912Y-93974966D01*
X118763451Y-93908832D01*
X118808508Y-93869793D01*
X118817816Y-93865051D01*
X118897007Y-93807515D01*
X118989786Y-93740109D01*
X118989788Y-93740106D01*
X118989792Y-93740104D01*
X119140104Y-93589792D01*
X119140106Y-93589788D01*
X119140109Y-93589786D01*
X119265048Y-93417820D01*
X119265047Y-93417820D01*
X119265051Y-93417816D01*
X119361557Y-93228412D01*
X119427246Y-93026243D01*
X119460500Y-92816287D01*
X119460500Y-92603713D01*
X119427246Y-92393757D01*
X119361557Y-92191588D01*
X119265051Y-92002184D01*
X119265049Y-92002181D01*
X119265048Y-92002179D01*
X119140109Y-91830213D01*
X118989786Y-91679890D01*
X118817820Y-91554951D01*
X118628414Y-91458444D01*
X118628413Y-91458443D01*
X118628412Y-91458443D01*
X118426243Y-91392754D01*
X118426241Y-91392753D01*
X118426240Y-91392753D01*
X118264957Y-91367208D01*
X118216287Y-91359500D01*
X118003713Y-91359500D01*
X117955042Y-91367208D01*
X117793760Y-91392753D01*
X117591585Y-91458444D01*
X117402179Y-91554951D01*
X117230213Y-91679890D01*
X117079894Y-91830209D01*
X117079890Y-91830214D01*
X117029818Y-91899133D01*
X116974488Y-91941799D01*
X116904875Y-91947778D01*
X116843080Y-91915172D01*
X116808723Y-91854334D01*
X116805500Y-91826248D01*
X116805500Y-82749504D01*
X116807883Y-82725313D01*
X116821621Y-82656246D01*
X116830500Y-82611606D01*
X116830500Y-75277357D01*
X116850185Y-75210318D01*
X116902989Y-75164563D01*
X116972147Y-75154619D01*
X117035703Y-75183644D01*
X117042181Y-75189676D01*
X118382480Y-76529975D01*
X118415965Y-76591298D01*
X118410981Y-76660990D01*
X118395118Y-76690540D01*
X118342877Y-76762445D01*
X118342876Y-76762447D01*
X118246404Y-76951782D01*
X118180742Y-77153869D01*
X118180742Y-77153872D01*
X118147500Y-77363753D01*
X118147500Y-77576246D01*
X118180742Y-77786127D01*
X118180742Y-77786130D01*
X118246404Y-77988217D01*
X118342875Y-78177550D01*
X118382228Y-78231716D01*
X119014536Y-77599407D01*
X119031575Y-77662993D01*
X119097401Y-77777007D01*
X119190493Y-77870099D01*
X119304507Y-77935925D01*
X119368091Y-77952962D01*
X118767471Y-78553581D01*
X118846211Y-78670895D01*
X118847420Y-78674729D01*
X118850344Y-78677491D01*
X118857843Y-78707778D01*
X118867227Y-78737529D01*
X118866171Y-78741408D01*
X118867138Y-78745312D01*
X118857073Y-78774844D01*
X118848883Y-78804947D01*
X118845897Y-78807640D01*
X118844600Y-78811447D01*
X118799551Y-78850483D01*
X118789940Y-78855380D01*
X118735782Y-78894727D01*
X118735782Y-78894728D01*
X119368091Y-79527037D01*
X119304507Y-79544075D01*
X119190493Y-79609901D01*
X119097401Y-79702993D01*
X119031575Y-79817007D01*
X119014537Y-79880591D01*
X118382228Y-79248282D01*
X118382227Y-79248282D01*
X118342880Y-79302439D01*
X118246404Y-79491782D01*
X118180742Y-79693869D01*
X118180742Y-79693872D01*
X118147500Y-79903753D01*
X118147500Y-80116246D01*
X118180742Y-80326127D01*
X118180742Y-80326130D01*
X118246404Y-80528217D01*
X118342875Y-80717550D01*
X118382228Y-80771716D01*
X119014537Y-80139408D01*
X119031575Y-80202993D01*
X119097401Y-80317007D01*
X119190493Y-80410099D01*
X119304507Y-80475925D01*
X119368091Y-80492962D01*
X118767471Y-81093581D01*
X118846211Y-81210895D01*
X118847420Y-81214729D01*
X118850344Y-81217491D01*
X118857843Y-81247778D01*
X118867227Y-81277529D01*
X118866171Y-81281408D01*
X118867138Y-81285312D01*
X118857073Y-81314844D01*
X118848883Y-81344947D01*
X118845897Y-81347640D01*
X118844600Y-81351447D01*
X118799551Y-81390483D01*
X118789940Y-81395380D01*
X118735782Y-81434727D01*
X118735782Y-81434728D01*
X119368091Y-82067037D01*
X119304507Y-82084075D01*
X119190493Y-82149901D01*
X119097401Y-82242993D01*
X119031575Y-82357007D01*
X119014537Y-82420591D01*
X118382228Y-81788282D01*
X118382227Y-81788282D01*
X118342880Y-81842439D01*
X118246404Y-82031782D01*
X118180742Y-82233869D01*
X118180742Y-82233872D01*
X118147500Y-82443753D01*
X118147500Y-82656246D01*
X118180742Y-82866127D01*
X118180742Y-82866130D01*
X118246404Y-83068217D01*
X118342875Y-83257550D01*
X118382228Y-83311716D01*
X119014537Y-82679408D01*
X119031575Y-82742993D01*
X119097401Y-82857007D01*
X119190493Y-82950099D01*
X119304507Y-83015925D01*
X119368090Y-83032962D01*
X118735782Y-83665269D01*
X118735782Y-83665270D01*
X118789952Y-83704626D01*
X118789951Y-83704626D01*
X118798995Y-83709234D01*
X118849792Y-83757208D01*
X118866587Y-83825029D01*
X118844050Y-83891164D01*
X118798999Y-83930202D01*
X118789682Y-83934949D01*
X118617713Y-84059890D01*
X118467390Y-84210213D01*
X118342451Y-84382179D01*
X118245944Y-84571585D01*
X118180253Y-84773760D01*
X118154270Y-84937812D01*
X118147000Y-84983713D01*
X118147000Y-85196287D01*
X118155054Y-85247135D01*
X118161534Y-85288054D01*
X118180254Y-85406243D01*
X118235969Y-85577716D01*
X118245944Y-85608414D01*
X118342451Y-85797820D01*
X118467390Y-85969786D01*
X118617713Y-86120109D01*
X118789679Y-86245048D01*
X118789681Y-86245049D01*
X118789684Y-86245051D01*
X118979088Y-86341557D01*
X119181257Y-86407246D01*
X119391213Y-86440500D01*
X119391214Y-86440500D01*
X119603786Y-86440500D01*
X119603787Y-86440500D01*
X119813743Y-86407246D01*
X120015912Y-86341557D01*
X120205316Y-86245051D01*
X120227289Y-86229086D01*
X120377286Y-86120109D01*
X120377288Y-86120106D01*
X120377292Y-86120104D01*
X120527604Y-85969792D01*
X120531160Y-85964896D01*
X120586487Y-85922230D01*
X120656100Y-85916248D01*
X120717897Y-85948851D01*
X120749186Y-85998772D01*
X120752686Y-86009334D01*
X120844788Y-86158656D01*
X120968844Y-86282712D01*
X121118166Y-86374814D01*
X121284703Y-86429999D01*
X121387491Y-86440500D01*
X122687508Y-86440499D01*
X122790297Y-86429999D01*
X122956834Y-86374814D01*
X123106156Y-86282712D01*
X123230212Y-86158656D01*
X123322314Y-86009334D01*
X123377499Y-85842797D01*
X123388000Y-85740009D01*
X123387999Y-84439992D01*
X123384695Y-84407652D01*
X123377499Y-84337203D01*
X123377498Y-84337200D01*
X123354860Y-84268884D01*
X123322314Y-84170666D01*
X123230212Y-84021344D01*
X123106156Y-83897288D01*
X122956834Y-83805186D01*
X122956833Y-83805185D01*
X122956825Y-83805182D01*
X122946273Y-83801686D01*
X122888828Y-83761913D01*
X122862006Y-83697397D01*
X122874322Y-83628621D01*
X122912403Y-83583656D01*
X122917288Y-83580107D01*
X122917288Y-83580106D01*
X122917292Y-83580104D01*
X123067604Y-83429792D01*
X123067606Y-83429788D01*
X123067609Y-83429786D01*
X123192548Y-83257820D01*
X123192550Y-83257817D01*
X123192551Y-83257816D01*
X123289057Y-83068412D01*
X123354746Y-82866243D01*
X123388000Y-82656287D01*
X123388000Y-82443713D01*
X123354746Y-82233757D01*
X123289057Y-82031588D01*
X123192551Y-81842184D01*
X123192549Y-81842181D01*
X123192548Y-81842179D01*
X123067609Y-81670213D01*
X122917286Y-81519890D01*
X122745320Y-81394951D01*
X122744615Y-81394591D01*
X122736554Y-81390485D01*
X122685759Y-81342512D01*
X122668963Y-81274692D01*
X122691499Y-81208556D01*
X122736554Y-81169515D01*
X122745316Y-81165051D01*
X122800070Y-81125270D01*
X122917286Y-81040109D01*
X122917288Y-81040106D01*
X122917292Y-81040104D01*
X123067604Y-80889792D01*
X123067606Y-80889788D01*
X123067609Y-80889786D01*
X123192548Y-80717820D01*
X123192550Y-80717817D01*
X123192551Y-80717816D01*
X123289057Y-80528412D01*
X123354746Y-80326243D01*
X123388000Y-80116287D01*
X123388000Y-79903713D01*
X123354746Y-79693757D01*
X123289057Y-79491588D01*
X123192551Y-79302184D01*
X123192549Y-79302181D01*
X123192548Y-79302179D01*
X123067609Y-79130213D01*
X122917286Y-78979890D01*
X122745320Y-78854951D01*
X122744615Y-78854591D01*
X122736554Y-78850485D01*
X122685759Y-78802512D01*
X122668963Y-78734692D01*
X122691499Y-78668556D01*
X122736554Y-78629515D01*
X122745316Y-78625051D01*
X122843687Y-78553581D01*
X122917286Y-78500109D01*
X122917288Y-78500106D01*
X122917292Y-78500104D01*
X123067604Y-78349792D01*
X123067606Y-78349788D01*
X123067609Y-78349786D01*
X123192548Y-78177820D01*
X123192550Y-78177817D01*
X123192551Y-78177816D01*
X123289057Y-77988412D01*
X123354746Y-77786243D01*
X123388000Y-77576287D01*
X123388000Y-77363713D01*
X123354746Y-77153757D01*
X123289057Y-76951588D01*
X123192551Y-76762184D01*
X123192549Y-76762181D01*
X123192548Y-76762179D01*
X123067609Y-76590213D01*
X122917286Y-76439890D01*
X122745320Y-76314951D01*
X122744615Y-76314591D01*
X122736554Y-76310485D01*
X122685759Y-76262512D01*
X122668963Y-76194692D01*
X122691499Y-76128556D01*
X122736554Y-76089515D01*
X122745316Y-76085051D01*
X122767289Y-76069086D01*
X122917286Y-75960109D01*
X122917288Y-75960106D01*
X122917292Y-75960104D01*
X123067604Y-75809792D01*
X123067606Y-75809788D01*
X123067609Y-75809786D01*
X123192548Y-75637820D01*
X123192547Y-75637820D01*
X123192551Y-75637816D01*
X123289057Y-75448412D01*
X123354746Y-75246243D01*
X123388000Y-75036287D01*
X123388000Y-74823713D01*
X123354746Y-74613757D01*
X123289057Y-74411588D01*
X123192551Y-74222184D01*
X123192549Y-74222181D01*
X123192548Y-74222179D01*
X123067609Y-74050213D01*
X122917286Y-73899890D01*
X122745320Y-73774951D01*
X122744615Y-73774591D01*
X122736554Y-73770485D01*
X122685759Y-73722512D01*
X122668963Y-73654692D01*
X122691499Y-73588556D01*
X122736554Y-73549515D01*
X122745316Y-73545051D01*
X122770771Y-73526557D01*
X122917286Y-73420109D01*
X122917288Y-73420106D01*
X122917292Y-73420104D01*
X123067604Y-73269792D01*
X123067606Y-73269788D01*
X123067609Y-73269786D01*
X123192548Y-73097820D01*
X123192547Y-73097820D01*
X123192551Y-73097816D01*
X123289057Y-72908412D01*
X123354746Y-72706243D01*
X123388000Y-72496287D01*
X123388000Y-72283713D01*
X123354746Y-72073757D01*
X123289057Y-71871588D01*
X123192551Y-71682184D01*
X123192549Y-71682181D01*
X123192548Y-71682179D01*
X123067609Y-71510213D01*
X122917286Y-71359890D01*
X122745320Y-71234951D01*
X122744615Y-71234591D01*
X122736554Y-71230485D01*
X122685759Y-71182512D01*
X122668963Y-71114692D01*
X122691499Y-71048556D01*
X122736554Y-71009515D01*
X122745316Y-71005051D01*
X122843687Y-70933581D01*
X122917286Y-70880109D01*
X122917288Y-70880106D01*
X122917292Y-70880104D01*
X123067604Y-70729792D01*
X123067606Y-70729788D01*
X123067609Y-70729786D01*
X123192548Y-70557820D01*
X123192550Y-70557817D01*
X123192551Y-70557816D01*
X123289057Y-70368412D01*
X123354746Y-70166243D01*
X123388000Y-69956287D01*
X123388000Y-69743713D01*
X123354746Y-69533757D01*
X123289057Y-69331588D01*
X123192551Y-69142184D01*
X123192549Y-69142181D01*
X123192548Y-69142179D01*
X123067609Y-68970213D01*
X122917286Y-68819890D01*
X122745320Y-68694951D01*
X122744615Y-68694591D01*
X122736554Y-68690485D01*
X122685759Y-68642512D01*
X122668963Y-68574692D01*
X122691499Y-68508556D01*
X122736554Y-68469515D01*
X122745316Y-68465051D01*
X122789592Y-68432883D01*
X122917286Y-68340109D01*
X122917288Y-68340106D01*
X122917292Y-68340104D01*
X123067604Y-68189792D01*
X123067606Y-68189788D01*
X123067609Y-68189786D01*
X123192548Y-68017820D01*
X123192550Y-68017817D01*
X123192551Y-68017816D01*
X123289057Y-67828412D01*
X123354746Y-67626243D01*
X123388000Y-67416287D01*
X123388000Y-67203713D01*
X123354746Y-66993757D01*
X123289057Y-66791588D01*
X123192551Y-66602184D01*
X123192549Y-66602181D01*
X123192548Y-66602179D01*
X123067609Y-66430213D01*
X122917286Y-66279890D01*
X122745320Y-66154951D01*
X122744615Y-66154591D01*
X122736554Y-66150485D01*
X122685759Y-66102512D01*
X122668963Y-66034692D01*
X122691499Y-65968556D01*
X122736554Y-65929515D01*
X122745316Y-65925051D01*
X122852994Y-65846819D01*
X122917286Y-65800109D01*
X122917288Y-65800106D01*
X122917292Y-65800104D01*
X123067604Y-65649792D01*
X123067606Y-65649788D01*
X123067609Y-65649786D01*
X123192548Y-65477820D01*
X123192547Y-65477820D01*
X123192551Y-65477816D01*
X123289057Y-65288412D01*
X123354746Y-65086243D01*
X123388000Y-64876287D01*
X123388000Y-64663713D01*
X123354746Y-64453757D01*
X123289057Y-64251588D01*
X123192551Y-64062184D01*
X123192549Y-64062181D01*
X123192548Y-64062179D01*
X123067609Y-63890213D01*
X122917286Y-63739890D01*
X122745320Y-63614951D01*
X122744615Y-63614591D01*
X122736554Y-63610485D01*
X122685759Y-63562512D01*
X122668963Y-63494692D01*
X122691499Y-63428556D01*
X122736554Y-63389515D01*
X122745316Y-63385051D01*
X122843687Y-63313581D01*
X122917286Y-63260109D01*
X122917288Y-63260106D01*
X122917292Y-63260104D01*
X123067604Y-63109792D01*
X123067606Y-63109788D01*
X123067609Y-63109786D01*
X123192548Y-62937820D01*
X123192550Y-62937817D01*
X123192551Y-62937816D01*
X123289057Y-62748412D01*
X123354746Y-62546243D01*
X123388000Y-62336287D01*
X123388000Y-62123713D01*
X123354746Y-61913757D01*
X123289057Y-61711588D01*
X123192551Y-61522184D01*
X123192549Y-61522181D01*
X123192548Y-61522179D01*
X123067609Y-61350213D01*
X122917286Y-61199890D01*
X122745320Y-61074951D01*
X122555914Y-60978444D01*
X122555913Y-60978443D01*
X122555912Y-60978443D01*
X122353743Y-60912754D01*
X122353741Y-60912753D01*
X122353740Y-60912753D01*
X122192457Y-60887208D01*
X122143787Y-60879500D01*
X121931213Y-60879500D01*
X121882542Y-60887208D01*
X121721260Y-60912753D01*
X121519085Y-60978444D01*
X121329679Y-61074951D01*
X121157713Y-61199890D01*
X121007390Y-61350213D01*
X120882449Y-61522182D01*
X120877702Y-61531499D01*
X120829727Y-61582293D01*
X120761905Y-61599087D01*
X120695771Y-61576548D01*
X120656734Y-61531495D01*
X120652126Y-61522452D01*
X120612770Y-61468282D01*
X120612769Y-61468282D01*
X119980462Y-62100590D01*
X119963425Y-62037007D01*
X119897599Y-61922993D01*
X119804507Y-61829901D01*
X119690493Y-61764075D01*
X119626909Y-61747037D01*
X120259216Y-61114728D01*
X120205050Y-61075375D01*
X120015717Y-60978904D01*
X119813629Y-60913242D01*
X119603746Y-60880000D01*
X119391254Y-60880000D01*
X119181372Y-60913242D01*
X119181369Y-60913242D01*
X118979282Y-60978904D01*
X118789939Y-61075380D01*
X118735782Y-61114727D01*
X118735782Y-61114728D01*
X119368091Y-61747037D01*
X119304507Y-61764075D01*
X119190493Y-61829901D01*
X119097401Y-61922993D01*
X119031575Y-62037007D01*
X119014537Y-62100591D01*
X118382228Y-61468282D01*
X118382227Y-61468282D01*
X118342880Y-61522439D01*
X118246404Y-61711782D01*
X118180742Y-61913869D01*
X118180742Y-61913872D01*
X118147500Y-62123753D01*
X118147500Y-62336246D01*
X118180742Y-62546127D01*
X118180742Y-62546130D01*
X118246404Y-62748217D01*
X118342875Y-62937550D01*
X118382228Y-62991716D01*
X119014537Y-62359408D01*
X119031575Y-62422993D01*
X119097401Y-62537007D01*
X119190493Y-62630099D01*
X119304507Y-62695925D01*
X119368091Y-62712962D01*
X118767471Y-63313581D01*
X118846211Y-63430895D01*
X118847420Y-63434729D01*
X118850344Y-63437491D01*
X118857843Y-63467778D01*
X118867227Y-63497529D01*
X118866171Y-63501408D01*
X118867138Y-63505312D01*
X118857073Y-63534844D01*
X118848883Y-63564947D01*
X118845897Y-63567640D01*
X118844600Y-63571447D01*
X118799551Y-63610483D01*
X118789940Y-63615380D01*
X118735782Y-63654727D01*
X118735782Y-63654728D01*
X119368091Y-64287037D01*
X119304507Y-64304075D01*
X119190493Y-64369901D01*
X119097401Y-64462993D01*
X119031575Y-64577007D01*
X119014537Y-64640591D01*
X118382228Y-64008282D01*
X118382227Y-64008282D01*
X118342880Y-64062439D01*
X118246404Y-64251782D01*
X118180742Y-64453869D01*
X118180742Y-64453870D01*
X118157607Y-64599936D01*
X118127677Y-64663070D01*
X118068366Y-64700001D01*
X117998503Y-64699003D01*
X117947453Y-64668218D01*
X115506818Y-62227583D01*
X115492114Y-62200655D01*
X115475522Y-62174837D01*
X115474630Y-62168636D01*
X115473333Y-62166260D01*
X115470499Y-62139902D01*
X115470499Y-61892129D01*
X115470498Y-61892123D01*
X115469786Y-61885500D01*
X115464091Y-61832517D01*
X115463115Y-61829901D01*
X115413797Y-61697672D01*
X115413796Y-61697669D01*
X115407539Y-61689312D01*
X115383121Y-61623851D01*
X115397970Y-61555578D01*
X115407534Y-61540695D01*
X115413796Y-61532331D01*
X115464091Y-61397483D01*
X115470500Y-61337873D01*
X115470499Y-60978904D01*
X115470499Y-60642129D01*
X115470498Y-60642123D01*
X115470497Y-60642116D01*
X115464091Y-60582517D01*
X115413797Y-60447671D01*
X115413797Y-60447670D01*
X115413796Y-60447668D01*
X115407229Y-60438897D01*
X115382809Y-60373433D01*
X115397659Y-60305160D01*
X115407229Y-60290268D01*
X115413351Y-60282089D01*
X115463597Y-60147376D01*
X115463598Y-60147372D01*
X115469999Y-60087844D01*
X115470000Y-60087827D01*
X115470000Y-59990000D01*
X112670000Y-59990000D01*
X112670000Y-60087844D01*
X112676401Y-60147372D01*
X112676403Y-60147379D01*
X112726645Y-60282086D01*
X112726650Y-60282095D01*
X112732774Y-60290276D01*
X112757189Y-60355741D01*
X112742335Y-60424013D01*
X112732775Y-60438890D01*
X112726205Y-60447666D01*
X112726202Y-60447671D01*
X112675908Y-60582517D01*
X112669501Y-60642116D01*
X112669501Y-60642123D01*
X112669500Y-60642135D01*
X112669500Y-60889902D01*
X112649815Y-60956941D01*
X112633181Y-60977583D01*
X111940481Y-61670282D01*
X111940475Y-61670290D01*
X111903812Y-61733794D01*
X111903812Y-61733796D01*
X111861423Y-61807214D01*
X111854643Y-61832517D01*
X111820499Y-61959943D01*
X111820499Y-61959945D01*
X111820499Y-62128046D01*
X111820500Y-62128059D01*
X111820500Y-66590500D01*
X111800815Y-66657539D01*
X111748011Y-66703294D01*
X111696500Y-66714500D01*
X109847129Y-66714500D01*
X109847123Y-66714501D01*
X109787516Y-66720908D01*
X109652671Y-66771202D01*
X109652664Y-66771206D01*
X109537455Y-66857452D01*
X109537452Y-66857455D01*
X109451206Y-66972664D01*
X109451202Y-66972671D01*
X109400908Y-67107517D01*
X109394501Y-67167116D01*
X109394500Y-67167135D01*
X109394500Y-68662870D01*
X109394501Y-68662876D01*
X109400908Y-68722483D01*
X109451202Y-68857328D01*
X109451206Y-68857335D01*
X109537452Y-68972544D01*
X109537455Y-68972547D01*
X109652664Y-69058793D01*
X109652671Y-69058797D01*
X109787517Y-69109091D01*
X109787516Y-69109091D01*
X109794444Y-69109835D01*
X109847127Y-69115500D01*
X111696500Y-69115499D01*
X111763539Y-69135184D01*
X111809294Y-69187987D01*
X111820500Y-69239499D01*
X111820500Y-69789330D01*
X111820499Y-69789348D01*
X111820499Y-69955054D01*
X111820498Y-69955054D01*
X111861423Y-70107786D01*
X111872589Y-70127124D01*
X111872590Y-70127129D01*
X111872591Y-70127129D01*
X111940475Y-70244709D01*
X111940481Y-70244717D01*
X112059349Y-70363585D01*
X112059355Y-70363590D01*
X113010139Y-71314374D01*
X113010149Y-71314385D01*
X113014479Y-71318715D01*
X113014480Y-71318716D01*
X113126284Y-71430520D01*
X113126286Y-71430521D01*
X113126290Y-71430524D01*
X113263209Y-71509573D01*
X113263216Y-71509577D01*
X113375019Y-71539534D01*
X113395486Y-71545018D01*
X113402600Y-71546925D01*
X113462259Y-71583292D01*
X113492785Y-71646140D01*
X113494501Y-71666698D01*
X113494501Y-71772876D01*
X113500908Y-71832483D01*
X113551202Y-71967328D01*
X113551206Y-71967335D01*
X113637452Y-72082544D01*
X113637455Y-72082547D01*
X113752664Y-72168793D01*
X113752671Y-72168797D01*
X113887516Y-72219091D01*
X113933757Y-72224063D01*
X113998307Y-72250801D01*
X114038155Y-72308194D01*
X114044500Y-72347352D01*
X114044500Y-77512648D01*
X114024815Y-77579687D01*
X113972011Y-77625442D01*
X113933755Y-77635938D01*
X113887516Y-77640909D01*
X113752671Y-77691202D01*
X113752664Y-77691206D01*
X113637455Y-77777452D01*
X113637452Y-77777455D01*
X113551206Y-77892664D01*
X113551202Y-77892671D01*
X113500908Y-78027517D01*
X113494501Y-78087116D01*
X113494500Y-78087135D01*
X113494500Y-79159902D01*
X113474815Y-79226941D01*
X113458181Y-79247583D01*
X112801284Y-79904480D01*
X112801282Y-79904480D01*
X112801283Y-79904481D01*
X112734049Y-79971713D01*
X112685375Y-80001735D01*
X112636308Y-80017995D01*
X112636297Y-80017999D01*
X112491956Y-80107031D01*
X112491953Y-80107033D01*
X112482324Y-80116663D01*
X112421000Y-80150146D01*
X112351308Y-80145159D01*
X112306965Y-80116660D01*
X112297732Y-80107427D01*
X112297728Y-80107424D01*
X112153492Y-80018457D01*
X112153481Y-80018452D01*
X111992606Y-79965144D01*
X111893322Y-79955000D01*
X111870000Y-79955000D01*
X111870000Y-80806000D01*
X111850315Y-80873039D01*
X111797511Y-80918794D01*
X111746000Y-80930000D01*
X111620000Y-80930000D01*
X111620000Y-80981500D01*
X111600315Y-81048539D01*
X111547511Y-81094294D01*
X111496000Y-81105500D01*
X111254943Y-81105500D01*
X111102213Y-81146423D01*
X111072833Y-81163387D01*
X111010832Y-81180000D01*
X110670001Y-81180000D01*
X110670001Y-81228322D01*
X110680144Y-81327607D01*
X110701636Y-81392466D01*
X110704038Y-81462295D01*
X110671611Y-81519151D01*
X109480286Y-82710478D01*
X109368481Y-82822282D01*
X109368479Y-82822285D01*
X109318361Y-82909094D01*
X109318359Y-82909096D01*
X109289425Y-82959209D01*
X109289424Y-82959210D01*
X109289423Y-82959215D01*
X109248499Y-83111943D01*
X109248499Y-83270057D01*
X109248499Y-83270059D01*
X109248500Y-83280053D01*
X109248500Y-85122330D01*
X109248499Y-85122348D01*
X109248499Y-85288054D01*
X109248498Y-85288054D01*
X107315000Y-85288054D01*
X107315000Y-79732844D01*
X108995000Y-79732844D01*
X109001401Y-79792372D01*
X109001403Y-79792379D01*
X109051645Y-79927086D01*
X109051649Y-79927093D01*
X109137809Y-80042187D01*
X109137812Y-80042190D01*
X109252906Y-80128350D01*
X109252913Y-80128354D01*
X109387620Y-80178596D01*
X109387627Y-80178598D01*
X109447155Y-80184999D01*
X109447172Y-80185000D01*
X109895000Y-80185000D01*
X110395000Y-80185000D01*
X110626323Y-80185000D01*
X110693362Y-80204685D01*
X110739117Y-80257489D01*
X110749061Y-80326647D01*
X110735361Y-80364434D01*
X110736507Y-80364968D01*
X110733452Y-80371518D01*
X110680144Y-80532393D01*
X110670000Y-80631677D01*
X110670000Y-80680000D01*
X111370000Y-80680000D01*
X111370000Y-79954999D01*
X111354808Y-79939808D01*
X111339498Y-79935313D01*
X111293743Y-79882509D01*
X111283799Y-79813351D01*
X111287202Y-79800021D01*
X111286813Y-79799930D01*
X111288598Y-79792372D01*
X111294999Y-79732844D01*
X111295000Y-79732827D01*
X111295000Y-79160000D01*
X110395000Y-79160000D01*
X110395000Y-80185000D01*
X109895000Y-80185000D01*
X109895000Y-79160000D01*
X108995000Y-79160000D01*
X108995000Y-79732844D01*
X107315000Y-79732844D01*
X107315000Y-78087155D01*
X108995000Y-78087155D01*
X108995000Y-78660000D01*
X109895000Y-78660000D01*
X110395000Y-78660000D01*
X111295000Y-78660000D01*
X111295000Y-78087172D01*
X111294999Y-78087155D01*
X111288598Y-78027627D01*
X111288596Y-78027620D01*
X111238354Y-77892913D01*
X111238350Y-77892906D01*
X111152190Y-77777812D01*
X111152187Y-77777809D01*
X111037093Y-77691649D01*
X111037086Y-77691645D01*
X110902379Y-77641403D01*
X110902372Y-77641401D01*
X110842844Y-77635000D01*
X110395000Y-77635000D01*
X110395000Y-78660000D01*
X109895000Y-78660000D01*
X109895000Y-77635000D01*
X109447155Y-77635000D01*
X109387627Y-77641401D01*
X109387620Y-77641403D01*
X109252913Y-77691645D01*
X109252906Y-77691649D01*
X109137812Y-77777809D01*
X109137809Y-77777812D01*
X109051649Y-77892906D01*
X109051645Y-77892913D01*
X109001403Y-78027620D01*
X109001401Y-78027627D01*
X108995000Y-78087155D01*
X107315000Y-78087155D01*
X107315000Y-71772844D01*
X108995000Y-71772844D01*
X109001401Y-71832372D01*
X109001403Y-71832379D01*
X109051645Y-71967086D01*
X109051649Y-71967093D01*
X109137809Y-72082187D01*
X109137812Y-72082190D01*
X109252906Y-72168350D01*
X109252913Y-72168354D01*
X109387620Y-72218596D01*
X109387627Y-72218598D01*
X109447155Y-72224999D01*
X109447172Y-72225000D01*
X109895000Y-72225000D01*
X110395000Y-72225000D01*
X110842828Y-72225000D01*
X110842844Y-72224999D01*
X110902372Y-72218598D01*
X110902379Y-72218596D01*
X111037086Y-72168354D01*
X111037093Y-72168350D01*
X111152187Y-72082190D01*
X111152190Y-72082187D01*
X111238350Y-71967093D01*
X111238354Y-71967086D01*
X111288596Y-71832379D01*
X111288598Y-71832372D01*
X111294999Y-71772844D01*
X111295000Y-71772827D01*
X111295000Y-71200000D01*
X110395000Y-71200000D01*
X110395000Y-72225000D01*
X109895000Y-72225000D01*
X109895000Y-71200000D01*
X108995000Y-71200000D01*
X108995000Y-71772844D01*
X107315000Y-71772844D01*
X107315000Y-70127155D01*
X108995000Y-70127155D01*
X108995000Y-70700000D01*
X109895000Y-70700000D01*
X110395000Y-70700000D01*
X111295000Y-70700000D01*
X111295000Y-70127172D01*
X111294999Y-70127155D01*
X111288598Y-70067627D01*
X111288596Y-70067620D01*
X111238354Y-69932913D01*
X111238350Y-69932906D01*
X111152190Y-69817812D01*
X111152187Y-69817809D01*
X111037093Y-69731649D01*
X111037086Y-69731645D01*
X110902379Y-69681403D01*
X110902372Y-69681401D01*
X110842844Y-69675000D01*
X110395000Y-69675000D01*
X110395000Y-70700000D01*
X109895000Y-70700000D01*
X109895000Y-69675000D01*
X109447155Y-69675000D01*
X109387627Y-69681401D01*
X109387620Y-69681403D01*
X109252913Y-69731645D01*
X109252906Y-69731649D01*
X109137812Y-69817809D01*
X109137809Y-69817812D01*
X109051649Y-69932906D01*
X109051645Y-69932913D01*
X109001403Y-70067620D01*
X109001401Y-70067627D01*
X108995000Y-70127155D01*
X107315000Y-70127155D01*
X107315000Y-59392155D01*
X112670000Y-59392155D01*
X112670000Y-59490000D01*
X113820000Y-59490000D01*
X114320000Y-59490000D01*
X115470000Y-59490000D01*
X115470000Y-59392172D01*
X115469999Y-59392155D01*
X115463598Y-59332627D01*
X115463596Y-59332620D01*
X115413354Y-59197913D01*
X115413350Y-59197906D01*
X115402279Y-59183117D01*
X115349141Y-59112135D01*
X129639500Y-59112135D01*
X129639500Y-61432870D01*
X129639501Y-61432876D01*
X129645908Y-61492483D01*
X129696202Y-61627328D01*
X129696206Y-61627335D01*
X129782452Y-61742544D01*
X129782455Y-61742547D01*
X129897664Y-61828793D01*
X129897671Y-61828797D01*
X130032517Y-61879091D01*
X130032516Y-61879091D01*
X130039444Y-61879835D01*
X130092127Y-61885500D01*
X131587872Y-61885499D01*
X131647483Y-61879091D01*
X131782331Y-61828796D01*
X131897546Y-61742546D01*
X131983796Y-61627331D01*
X132034091Y-61492483D01*
X132040500Y-61432873D01*
X132040499Y-59112135D01*
X139739500Y-59112135D01*
X139739500Y-61432870D01*
X139739501Y-61432876D01*
X139745908Y-61492483D01*
X139796202Y-61627328D01*
X139796206Y-61627335D01*
X139882452Y-61742544D01*
X139882455Y-61742547D01*
X139997664Y-61828793D01*
X139997671Y-61828797D01*
X140132517Y-61879091D01*
X140132516Y-61879091D01*
X140139444Y-61879835D01*
X140192127Y-61885500D01*
X141687872Y-61885499D01*
X141747483Y-61879091D01*
X141882331Y-61828796D01*
X141997546Y-61742546D01*
X142083796Y-61627331D01*
X142134091Y-61492483D01*
X142140500Y-61432873D01*
X142140499Y-59112128D01*
X142134091Y-59052517D01*
X142132083Y-59047135D01*
X146129500Y-59047135D01*
X146129500Y-61367870D01*
X146129501Y-61367876D01*
X146135908Y-61427483D01*
X146186202Y-61562328D01*
X146186206Y-61562335D01*
X146272452Y-61677544D01*
X146272455Y-61677547D01*
X146387664Y-61763793D01*
X146387671Y-61763797D01*
X146522517Y-61814091D01*
X146522516Y-61814091D01*
X146529444Y-61814835D01*
X146582127Y-61820500D01*
X148077872Y-61820499D01*
X148137483Y-61814091D01*
X148272331Y-61763796D01*
X148387546Y-61677546D01*
X148473796Y-61562331D01*
X148524091Y-61427483D01*
X148530500Y-61367873D01*
X148530499Y-59047128D01*
X148524091Y-58987517D01*
X148508756Y-58946403D01*
X148473797Y-58852671D01*
X148473793Y-58852664D01*
X148387547Y-58737455D01*
X148387544Y-58737452D01*
X148272335Y-58651206D01*
X148272328Y-58651202D01*
X148137482Y-58600908D01*
X148137483Y-58600908D01*
X148077883Y-58594501D01*
X148077881Y-58594500D01*
X148077873Y-58594500D01*
X148077864Y-58594500D01*
X146582129Y-58594500D01*
X146582123Y-58594501D01*
X146522516Y-58600908D01*
X146387671Y-58651202D01*
X146387664Y-58651206D01*
X146272455Y-58737452D01*
X146272452Y-58737455D01*
X146186206Y-58852664D01*
X146186202Y-58852671D01*
X146135908Y-58987517D01*
X146132900Y-59015500D01*
X146129501Y-59047123D01*
X146129500Y-59047135D01*
X142132083Y-59047135D01*
X142132081Y-59047129D01*
X142083797Y-58917671D01*
X142083793Y-58917664D01*
X141997547Y-58802455D01*
X141997544Y-58802452D01*
X141882335Y-58716206D01*
X141882328Y-58716202D01*
X141747482Y-58665908D01*
X141747483Y-58665908D01*
X141687883Y-58659501D01*
X141687881Y-58659500D01*
X141687873Y-58659500D01*
X141687864Y-58659500D01*
X140192129Y-58659500D01*
X140192123Y-58659501D01*
X140132516Y-58665908D01*
X139997671Y-58716202D01*
X139997664Y-58716206D01*
X139882455Y-58802452D01*
X139882452Y-58802455D01*
X139796206Y-58917664D01*
X139796202Y-58917671D01*
X139745908Y-59052517D01*
X139739501Y-59112116D01*
X139739500Y-59112135D01*
X132040499Y-59112135D01*
X132040499Y-59112128D01*
X132034091Y-59052517D01*
X132032081Y-59047129D01*
X131983797Y-58917671D01*
X131983793Y-58917664D01*
X131897547Y-58802455D01*
X131897544Y-58802452D01*
X131782335Y-58716206D01*
X131782328Y-58716202D01*
X131647482Y-58665908D01*
X131647483Y-58665908D01*
X131587883Y-58659501D01*
X131587881Y-58659500D01*
X131587873Y-58659500D01*
X131587864Y-58659500D01*
X130092129Y-58659500D01*
X130092123Y-58659501D01*
X130032516Y-58665908D01*
X129897671Y-58716202D01*
X129897664Y-58716206D01*
X129782455Y-58802452D01*
X129782452Y-58802455D01*
X129696206Y-58917664D01*
X129696202Y-58917671D01*
X129645908Y-59052517D01*
X129639501Y-59112116D01*
X129639500Y-59112135D01*
X115349141Y-59112135D01*
X115327190Y-59082812D01*
X115327187Y-59082809D01*
X115212093Y-58996649D01*
X115212086Y-58996645D01*
X115077379Y-58946403D01*
X115077372Y-58946401D01*
X115017844Y-58940000D01*
X114320000Y-58940000D01*
X114320000Y-59490000D01*
X113820000Y-59490000D01*
X113820000Y-58940000D01*
X113122155Y-58940000D01*
X113062627Y-58946401D01*
X113062620Y-58946403D01*
X112927913Y-58996645D01*
X112927906Y-58996649D01*
X112812812Y-59082809D01*
X112812809Y-59082812D01*
X112726649Y-59197906D01*
X112726645Y-59197913D01*
X112676403Y-59332620D01*
X112676401Y-59332627D01*
X112670000Y-59392155D01*
X107315000Y-59392155D01*
X107315000Y-57909000D01*
X107334685Y-57841961D01*
X107387489Y-57796206D01*
X107439000Y-57785000D01*
X109270500Y-57785000D01*
X109337539Y-57804685D01*
G37*
%TD.AperFunction*%
%TA.AperFunction,Conductor*%
G36*
X154474075Y-73852993D02*
G01*
X154539901Y-73967007D01*
X154632993Y-74060099D01*
X154747007Y-74125925D01*
X154810589Y-74142962D01*
X154178282Y-74775269D01*
X154178282Y-74775270D01*
X154232449Y-74814624D01*
X154421782Y-74911095D01*
X154623870Y-74976757D01*
X154833754Y-75010000D01*
X155046246Y-75010000D01*
X155256127Y-74976757D01*
X155256130Y-74976757D01*
X155412682Y-74925890D01*
X155482523Y-74923895D01*
X155542356Y-74959975D01*
X155573184Y-75022676D01*
X155575000Y-75043821D01*
X155575000Y-112271000D01*
X155555315Y-112338039D01*
X155502511Y-112383794D01*
X155451000Y-112395000D01*
X148224500Y-112395000D01*
X148157461Y-112375315D01*
X148111706Y-112322511D01*
X148100500Y-112271000D01*
X148100499Y-111002129D01*
X148100498Y-111002123D01*
X148100497Y-111002116D01*
X148094091Y-110942517D01*
X148043796Y-110807669D01*
X148043795Y-110807668D01*
X148043793Y-110807664D01*
X147957547Y-110692455D01*
X147957544Y-110692452D01*
X147842335Y-110606206D01*
X147842328Y-110606202D01*
X147707482Y-110555908D01*
X147707483Y-110555908D01*
X147647883Y-110549501D01*
X147647881Y-110549500D01*
X147647873Y-110549500D01*
X147647864Y-110549500D01*
X145327129Y-110549500D01*
X145327123Y-110549501D01*
X145267516Y-110555908D01*
X145132671Y-110606202D01*
X145132664Y-110606206D01*
X145017455Y-110692452D01*
X145017452Y-110692455D01*
X144931206Y-110807664D01*
X144931202Y-110807671D01*
X144880908Y-110942517D01*
X144874913Y-110998282D01*
X144874500Y-111002127D01*
X144874500Y-111694174D01*
X144874501Y-112271000D01*
X144854816Y-112338039D01*
X144802013Y-112383794D01*
X144750501Y-112395000D01*
X141224500Y-112395000D01*
X141157461Y-112375315D01*
X141111706Y-112322511D01*
X141100500Y-112271000D01*
X141100499Y-111002129D01*
X141100498Y-111002123D01*
X141100497Y-111002116D01*
X141094091Y-110942517D01*
X141043796Y-110807669D01*
X141043795Y-110807668D01*
X141043793Y-110807664D01*
X140957547Y-110692455D01*
X140957544Y-110692452D01*
X140842335Y-110606206D01*
X140842328Y-110606202D01*
X140707482Y-110555908D01*
X140707483Y-110555908D01*
X140647883Y-110549501D01*
X140647881Y-110549500D01*
X140647873Y-110549500D01*
X140647864Y-110549500D01*
X138327129Y-110549500D01*
X138327123Y-110549501D01*
X138267516Y-110555908D01*
X138132671Y-110606202D01*
X138132664Y-110606206D01*
X138017455Y-110692452D01*
X138017452Y-110692455D01*
X137931206Y-110807664D01*
X137931202Y-110807671D01*
X137880908Y-110942517D01*
X137874913Y-110998282D01*
X137874500Y-111002127D01*
X137874500Y-111694174D01*
X137874501Y-112271000D01*
X137854816Y-112338039D01*
X137802013Y-112383794D01*
X137750501Y-112395000D01*
X134224500Y-112395000D01*
X134157461Y-112375315D01*
X134111706Y-112322511D01*
X134100500Y-112271000D01*
X134100499Y-111002129D01*
X134100498Y-111002123D01*
X134100497Y-111002116D01*
X134094091Y-110942517D01*
X134043796Y-110807669D01*
X134043795Y-110807668D01*
X134043793Y-110807664D01*
X133957547Y-110692455D01*
X133957544Y-110692452D01*
X133842335Y-110606206D01*
X133842328Y-110606202D01*
X133707482Y-110555908D01*
X133707483Y-110555908D01*
X133647883Y-110549501D01*
X133647881Y-110549500D01*
X133647873Y-110549500D01*
X133647864Y-110549500D01*
X131327129Y-110549500D01*
X131327123Y-110549501D01*
X131267516Y-110555908D01*
X131132671Y-110606202D01*
X131132664Y-110606206D01*
X131017455Y-110692452D01*
X131017452Y-110692455D01*
X130931206Y-110807664D01*
X130931202Y-110807671D01*
X130880908Y-110942517D01*
X130874913Y-110998282D01*
X130874500Y-111002127D01*
X130874500Y-111694174D01*
X130874501Y-112271000D01*
X130854816Y-112338039D01*
X130802013Y-112383794D01*
X130750501Y-112395000D01*
X127224500Y-112395000D01*
X127157461Y-112375315D01*
X127111706Y-112322511D01*
X127100500Y-112271000D01*
X127100499Y-111002129D01*
X127100498Y-111002123D01*
X127100497Y-111002116D01*
X127094091Y-110942517D01*
X127043796Y-110807669D01*
X127043795Y-110807668D01*
X127043793Y-110807664D01*
X126957547Y-110692455D01*
X126957544Y-110692452D01*
X126842335Y-110606206D01*
X126842328Y-110606202D01*
X126707482Y-110555908D01*
X126707483Y-110555908D01*
X126647883Y-110549501D01*
X126647881Y-110549500D01*
X126647873Y-110549500D01*
X126647864Y-110549500D01*
X124327129Y-110549500D01*
X124327123Y-110549501D01*
X124267516Y-110555908D01*
X124132671Y-110606202D01*
X124132664Y-110606206D01*
X124017455Y-110692452D01*
X124017452Y-110692455D01*
X123931206Y-110807664D01*
X123931202Y-110807671D01*
X123880908Y-110942517D01*
X123874913Y-110998282D01*
X123874500Y-111002127D01*
X123874500Y-111694174D01*
X123874501Y-112271000D01*
X123854816Y-112338039D01*
X123802013Y-112383794D01*
X123750501Y-112395000D01*
X120483821Y-112395000D01*
X120416782Y-112375315D01*
X120371027Y-112322511D01*
X120361083Y-112253353D01*
X120365890Y-112232682D01*
X120416757Y-112076130D01*
X120416757Y-112076127D01*
X120450000Y-111866246D01*
X120450000Y-111653753D01*
X120416757Y-111443872D01*
X120416757Y-111443869D01*
X120351095Y-111241782D01*
X120254624Y-111052449D01*
X120215270Y-110998282D01*
X120215269Y-110998282D01*
X119582962Y-111630589D01*
X119565925Y-111567007D01*
X119500099Y-111452993D01*
X119407007Y-111359901D01*
X119292993Y-111294075D01*
X119229409Y-111277037D01*
X119861716Y-110644728D01*
X119807547Y-110605373D01*
X119807547Y-110605372D01*
X119798500Y-110600763D01*
X119747706Y-110552788D01*
X119730912Y-110484966D01*
X119753451Y-110418832D01*
X119798508Y-110379793D01*
X119807816Y-110375051D01*
X119887007Y-110317515D01*
X119979786Y-110250109D01*
X119979788Y-110250106D01*
X119979792Y-110250104D01*
X120057052Y-110172844D01*
X121025000Y-110172844D01*
X121031401Y-110232372D01*
X121031403Y-110232379D01*
X121081645Y-110367086D01*
X121081649Y-110367093D01*
X121167809Y-110482187D01*
X121167812Y-110482190D01*
X121282906Y-110568350D01*
X121282913Y-110568354D01*
X121417620Y-110618596D01*
X121417627Y-110618598D01*
X121477155Y-110624999D01*
X121477172Y-110625000D01*
X122175000Y-110625000D01*
X122675000Y-110625000D01*
X123372828Y-110625000D01*
X123372844Y-110624999D01*
X123432372Y-110618598D01*
X123432379Y-110618596D01*
X123567086Y-110568354D01*
X123567093Y-110568350D01*
X123682187Y-110482190D01*
X123682190Y-110482187D01*
X123768350Y-110367093D01*
X123768354Y-110367086D01*
X123818596Y-110232379D01*
X123818598Y-110232372D01*
X123824999Y-110172844D01*
X128025000Y-110172844D01*
X128031401Y-110232372D01*
X128031403Y-110232379D01*
X128081645Y-110367086D01*
X128081649Y-110367093D01*
X128167809Y-110482187D01*
X128167812Y-110482190D01*
X128282906Y-110568350D01*
X128282913Y-110568354D01*
X128417620Y-110618596D01*
X128417627Y-110618598D01*
X128477155Y-110624999D01*
X128477172Y-110625000D01*
X129175000Y-110625000D01*
X129675000Y-110625000D01*
X130372828Y-110625000D01*
X130372844Y-110624999D01*
X130432372Y-110618598D01*
X130432379Y-110618596D01*
X130567086Y-110568354D01*
X130567093Y-110568350D01*
X130682187Y-110482190D01*
X130682190Y-110482187D01*
X130768350Y-110367093D01*
X130768354Y-110367086D01*
X130818596Y-110232379D01*
X130818598Y-110232372D01*
X130824999Y-110172844D01*
X135025000Y-110172844D01*
X135031401Y-110232372D01*
X135031403Y-110232379D01*
X135081645Y-110367086D01*
X135081649Y-110367093D01*
X135167809Y-110482187D01*
X135167812Y-110482190D01*
X135282906Y-110568350D01*
X135282913Y-110568354D01*
X135417620Y-110618596D01*
X135417627Y-110618598D01*
X135477155Y-110624999D01*
X135477172Y-110625000D01*
X136175000Y-110625000D01*
X136675000Y-110625000D01*
X137372828Y-110625000D01*
X137372844Y-110624999D01*
X137432372Y-110618598D01*
X137432379Y-110618596D01*
X137567086Y-110568354D01*
X137567093Y-110568350D01*
X137682187Y-110482190D01*
X137682190Y-110482187D01*
X137768350Y-110367093D01*
X137768354Y-110367086D01*
X137818596Y-110232379D01*
X137818598Y-110232372D01*
X137824999Y-110172844D01*
X142025000Y-110172844D01*
X142031401Y-110232372D01*
X142031403Y-110232379D01*
X142081645Y-110367086D01*
X142081649Y-110367093D01*
X142167809Y-110482187D01*
X142167812Y-110482190D01*
X142282906Y-110568350D01*
X142282913Y-110568354D01*
X142417620Y-110618596D01*
X142417627Y-110618598D01*
X142477155Y-110624999D01*
X142477172Y-110625000D01*
X143175000Y-110625000D01*
X143675000Y-110625000D01*
X144372828Y-110625000D01*
X144372844Y-110624999D01*
X144432372Y-110618598D01*
X144432379Y-110618596D01*
X144567086Y-110568354D01*
X144567093Y-110568350D01*
X144682187Y-110482190D01*
X144682190Y-110482187D01*
X144768350Y-110367093D01*
X144768354Y-110367086D01*
X144818596Y-110232379D01*
X144818598Y-110232372D01*
X144824999Y-110172844D01*
X144825000Y-110172827D01*
X144825000Y-110075000D01*
X143675000Y-110075000D01*
X143675000Y-110625000D01*
X143175000Y-110625000D01*
X143175000Y-110075000D01*
X142025000Y-110075000D01*
X142025000Y-110172844D01*
X137824999Y-110172844D01*
X137825000Y-110172827D01*
X137825000Y-110075000D01*
X136675000Y-110075000D01*
X136675000Y-110625000D01*
X136175000Y-110625000D01*
X136175000Y-110075000D01*
X135025000Y-110075000D01*
X135025000Y-110172844D01*
X130824999Y-110172844D01*
X130825000Y-110172827D01*
X130825000Y-110075000D01*
X129675000Y-110075000D01*
X129675000Y-110625000D01*
X129175000Y-110625000D01*
X129175000Y-110075000D01*
X128025000Y-110075000D01*
X128025000Y-110172844D01*
X123824999Y-110172844D01*
X123825000Y-110172827D01*
X123825000Y-110075000D01*
X122675000Y-110075000D01*
X122675000Y-110625000D01*
X122175000Y-110625000D01*
X122175000Y-110075000D01*
X121025000Y-110075000D01*
X121025000Y-110172844D01*
X120057052Y-110172844D01*
X120130104Y-110099792D01*
X120130106Y-110099788D01*
X120130109Y-110099786D01*
X120238387Y-109950753D01*
X120245349Y-109941169D01*
X120255051Y-109927816D01*
X120351557Y-109738412D01*
X120417246Y-109536243D01*
X120450500Y-109326287D01*
X120450500Y-109324500D01*
X120450692Y-109323844D01*
X120450883Y-109321424D01*
X120451391Y-109321464D01*
X120470185Y-109257461D01*
X120522989Y-109211706D01*
X120574500Y-109200500D01*
X120933791Y-109200500D01*
X121000830Y-109220185D01*
X121046585Y-109272989D01*
X121056529Y-109342147D01*
X121049973Y-109367834D01*
X121031402Y-109417623D01*
X121031401Y-109417627D01*
X121025000Y-109477155D01*
X121025000Y-109575000D01*
X123825000Y-109575000D01*
X123825000Y-109477172D01*
X123824999Y-109477155D01*
X123818598Y-109417627D01*
X123818597Y-109417623D01*
X123800027Y-109367834D01*
X123795043Y-109298142D01*
X123828528Y-109236819D01*
X123889851Y-109203334D01*
X123916209Y-109200500D01*
X127933791Y-109200500D01*
X128000830Y-109220185D01*
X128046585Y-109272989D01*
X128056529Y-109342147D01*
X128049973Y-109367834D01*
X128031402Y-109417623D01*
X128031401Y-109417627D01*
X128025000Y-109477155D01*
X128025000Y-109575000D01*
X130825000Y-109575000D01*
X130825000Y-109477172D01*
X130824999Y-109477155D01*
X130818598Y-109417627D01*
X130818597Y-109417623D01*
X130800027Y-109367834D01*
X130795043Y-109298142D01*
X130828528Y-109236819D01*
X130889851Y-109203334D01*
X130916209Y-109200500D01*
X134933791Y-109200500D01*
X135000830Y-109220185D01*
X135046585Y-109272989D01*
X135056529Y-109342147D01*
X135049973Y-109367834D01*
X135031402Y-109417623D01*
X135031401Y-109417627D01*
X135025000Y-109477155D01*
X135025000Y-109575000D01*
X137825000Y-109575000D01*
X137825000Y-109477172D01*
X137824999Y-109477155D01*
X137818598Y-109417627D01*
X137818597Y-109417623D01*
X137800027Y-109367834D01*
X137795043Y-109298142D01*
X137828528Y-109236819D01*
X137889851Y-109203334D01*
X137916209Y-109200500D01*
X141933791Y-109200500D01*
X142000830Y-109220185D01*
X142046585Y-109272989D01*
X142056529Y-109342147D01*
X142049973Y-109367834D01*
X142031402Y-109417623D01*
X142031401Y-109417627D01*
X142025000Y-109477155D01*
X142025000Y-109575000D01*
X144825000Y-109575000D01*
X144825000Y-109477172D01*
X144824999Y-109477155D01*
X144818598Y-109417627D01*
X144818597Y-109417623D01*
X144768350Y-109282907D01*
X144762228Y-109274729D01*
X144737809Y-109209265D01*
X144752659Y-109140992D01*
X144762223Y-109126111D01*
X144768796Y-109117331D01*
X144819091Y-108982483D01*
X144825500Y-108922873D01*
X144825499Y-108227128D01*
X144819091Y-108167517D01*
X144768796Y-108032669D01*
X144762539Y-108024312D01*
X144738121Y-107958851D01*
X144752970Y-107890578D01*
X144762534Y-107875695D01*
X144768796Y-107867331D01*
X144819091Y-107732483D01*
X144825500Y-107672873D01*
X144825499Y-106977128D01*
X144819091Y-106917517D01*
X144800559Y-106867832D01*
X144795576Y-106798142D01*
X144829061Y-106736819D01*
X144890384Y-106703334D01*
X144916742Y-106700500D01*
X146404548Y-106700500D01*
X146471587Y-106720185D01*
X146492229Y-106736819D01*
X147764205Y-108008796D01*
X147797690Y-108070119D01*
X147798141Y-108072286D01*
X147820261Y-108183489D01*
X147820264Y-108183501D01*
X147880602Y-108329172D01*
X147880609Y-108329185D01*
X147968210Y-108460288D01*
X147968213Y-108460292D01*
X148079707Y-108571786D01*
X148079711Y-108571789D01*
X148210814Y-108659390D01*
X148210827Y-108659397D01*
X148312687Y-108701588D01*
X148356503Y-108719737D01*
X148511153Y-108750499D01*
X148511156Y-108750500D01*
X148511158Y-108750500D01*
X148668844Y-108750500D01*
X148668845Y-108750499D01*
X148823497Y-108719737D01*
X148969179Y-108659394D01*
X149100289Y-108571789D01*
X149211789Y-108460289D01*
X149299394Y-108329179D01*
X149359737Y-108183497D01*
X149390500Y-108028842D01*
X149390500Y-107871158D01*
X149390500Y-107871155D01*
X149390499Y-107871153D01*
X149362916Y-107732486D01*
X149359737Y-107716503D01*
X149357089Y-107710109D01*
X149299397Y-107570827D01*
X149299390Y-107570814D01*
X149211789Y-107439711D01*
X149211786Y-107439707D01*
X149100292Y-107328213D01*
X149100288Y-107328210D01*
X148969185Y-107240609D01*
X148969172Y-107240602D01*
X148823501Y-107180264D01*
X148823489Y-107180261D01*
X148712286Y-107158141D01*
X148650375Y-107125756D01*
X148648796Y-107124205D01*
X147209524Y-105684934D01*
X147200859Y-105676269D01*
X147200858Y-105676267D01*
X147113733Y-105589142D01*
X147088185Y-105572071D01*
X147080899Y-105565294D01*
X147067933Y-105543465D01*
X147051656Y-105523989D01*
X147050393Y-105513934D01*
X147045218Y-105505222D01*
X147046112Y-105479849D01*
X147042949Y-105454664D01*
X147047322Y-105445523D01*
X147047679Y-105435396D01*
X147062147Y-105414536D01*
X147073103Y-105391637D01*
X147081724Y-105386311D01*
X147087500Y-105377984D01*
X147110949Y-105368258D01*
X147132546Y-105354917D01*
X147148196Y-105352809D01*
X147152038Y-105351216D01*
X147155458Y-105351831D01*
X147165350Y-105350499D01*
X147647872Y-105350499D01*
X147707483Y-105344091D01*
X147842331Y-105293796D01*
X147957546Y-105207546D01*
X148043796Y-105092331D01*
X148094091Y-104957483D01*
X148100500Y-104897873D01*
X148100499Y-103402128D01*
X148094091Y-103342517D01*
X148056648Y-103242128D01*
X148043797Y-103207671D01*
X148043793Y-103207664D01*
X147957547Y-103092455D01*
X147957544Y-103092452D01*
X147842335Y-103006206D01*
X147842328Y-103006202D01*
X147707482Y-102955908D01*
X147707483Y-102955908D01*
X147647883Y-102949501D01*
X147647881Y-102949500D01*
X147647873Y-102949500D01*
X147647864Y-102949500D01*
X145327129Y-102949500D01*
X145327123Y-102949501D01*
X145267516Y-102955908D01*
X145132671Y-103006202D01*
X145132664Y-103006206D01*
X145017455Y-103092452D01*
X145017452Y-103092455D01*
X144931206Y-103207664D01*
X144931202Y-103207671D01*
X144880908Y-103342517D01*
X144874501Y-103402116D01*
X144874501Y-103402123D01*
X144874500Y-103402135D01*
X144874500Y-104897870D01*
X144874501Y-104897876D01*
X144880908Y-104957483D01*
X144931202Y-105092328D01*
X144931206Y-105092335D01*
X145017452Y-105207544D01*
X145017453Y-105207544D01*
X145017454Y-105207546D01*
X145030803Y-105217539D01*
X145042418Y-105226234D01*
X145060810Y-105250804D01*
X145080900Y-105273989D01*
X145081550Y-105278510D01*
X145084288Y-105282168D01*
X145086476Y-105312774D01*
X145090844Y-105343147D01*
X145088946Y-105347302D01*
X145089272Y-105351860D01*
X145074566Y-105378789D01*
X145061819Y-105406703D01*
X145057974Y-105409173D01*
X145055786Y-105413182D01*
X145028857Y-105427885D01*
X145003041Y-105444477D01*
X144996839Y-105445368D01*
X144994462Y-105446667D01*
X144968106Y-105449500D01*
X144765954Y-105449500D01*
X144698915Y-105429815D01*
X144689842Y-105422504D01*
X144689645Y-105422768D01*
X144567335Y-105331206D01*
X144567328Y-105331202D01*
X144432482Y-105280908D01*
X144432483Y-105280908D01*
X144372883Y-105274501D01*
X144372881Y-105274500D01*
X144372873Y-105274500D01*
X144372865Y-105274500D01*
X144174500Y-105274500D01*
X144107461Y-105254815D01*
X144061706Y-105202011D01*
X144050500Y-105150500D01*
X144050500Y-102630451D01*
X144070185Y-102563412D01*
X144086814Y-102542775D01*
X145758319Y-100871269D01*
X145819642Y-100837785D01*
X145889334Y-100842769D01*
X145945267Y-100884641D01*
X145969684Y-100950105D01*
X145970000Y-100958951D01*
X145970000Y-101071246D01*
X146003242Y-101281127D01*
X146003242Y-101281130D01*
X146068904Y-101483217D01*
X146165375Y-101672550D01*
X146204728Y-101726716D01*
X146837037Y-101094408D01*
X146854075Y-101157993D01*
X146919901Y-101272007D01*
X147012993Y-101365099D01*
X147127007Y-101430925D01*
X147190590Y-101447962D01*
X146558282Y-102080269D01*
X146558282Y-102080270D01*
X146612449Y-102119624D01*
X146801782Y-102216095D01*
X147003870Y-102281757D01*
X147213754Y-102315000D01*
X147426246Y-102315000D01*
X147636127Y-102281757D01*
X147636130Y-102281757D01*
X147838217Y-102216095D01*
X148027554Y-102119622D01*
X148081716Y-102080270D01*
X148081717Y-102080270D01*
X147449408Y-101447962D01*
X147512993Y-101430925D01*
X147627007Y-101365099D01*
X147720099Y-101272007D01*
X147785925Y-101157993D01*
X147802962Y-101094409D01*
X148435270Y-101726717D01*
X148435270Y-101726716D01*
X148474622Y-101672554D01*
X148571095Y-101483217D01*
X148636757Y-101281130D01*
X148636757Y-101281127D01*
X148670000Y-101071246D01*
X148670000Y-100858753D01*
X148636757Y-100648872D01*
X148636757Y-100648869D01*
X148571095Y-100446782D01*
X148474624Y-100257449D01*
X148435270Y-100203282D01*
X148435269Y-100203282D01*
X147802962Y-100835590D01*
X147785925Y-100772007D01*
X147720099Y-100657993D01*
X147627007Y-100564901D01*
X147512993Y-100499075D01*
X147449408Y-100482037D01*
X148081716Y-99849728D01*
X148027547Y-99810373D01*
X148027547Y-99810372D01*
X148018500Y-99805763D01*
X147967706Y-99757788D01*
X147950912Y-99689966D01*
X147973451Y-99623832D01*
X148018508Y-99584793D01*
X148027816Y-99580051D01*
X148107007Y-99522515D01*
X148199786Y-99455109D01*
X148199788Y-99455106D01*
X148199792Y-99455104D01*
X148350104Y-99304792D01*
X148350106Y-99304788D01*
X148350109Y-99304786D01*
X148475048Y-99132820D01*
X148475047Y-99132820D01*
X148475051Y-99132816D01*
X148571557Y-98943412D01*
X148637246Y-98741243D01*
X148670500Y-98531287D01*
X148670500Y-98318713D01*
X148637246Y-98108757D01*
X148571557Y-97906588D01*
X148475051Y-97717184D01*
X148475049Y-97717181D01*
X148475048Y-97717179D01*
X148350109Y-97545213D01*
X148199786Y-97394890D01*
X148027820Y-97269951D01*
X148027115Y-97269591D01*
X148019054Y-97265485D01*
X147968259Y-97217512D01*
X147951463Y-97149692D01*
X147973999Y-97083556D01*
X148019054Y-97044515D01*
X148027816Y-97040051D01*
X148108199Y-96981650D01*
X148199786Y-96915109D01*
X148199788Y-96915106D01*
X148199792Y-96915104D01*
X148350104Y-96764792D01*
X148350106Y-96764788D01*
X148350109Y-96764786D01*
X148475048Y-96592820D01*
X148475047Y-96592820D01*
X148475051Y-96592816D01*
X148571557Y-96403412D01*
X148637246Y-96201243D01*
X148670500Y-95991287D01*
X148670500Y-95778713D01*
X148637246Y-95568757D01*
X148571557Y-95366588D01*
X148475051Y-95177184D01*
X148475049Y-95177181D01*
X148475048Y-95177179D01*
X148350109Y-95005213D01*
X148236569Y-94891673D01*
X148203084Y-94830350D01*
X148208068Y-94760658D01*
X148249940Y-94704725D01*
X148280915Y-94687810D01*
X148412331Y-94638796D01*
X148527546Y-94552546D01*
X148613796Y-94437331D01*
X148664091Y-94302483D01*
X148670500Y-94242873D01*
X148670499Y-92447128D01*
X148664091Y-92387517D01*
X148651787Y-92354529D01*
X148613797Y-92252671D01*
X148613793Y-92252664D01*
X148527547Y-92137455D01*
X148527544Y-92137452D01*
X148412335Y-92051206D01*
X148412328Y-92051202D01*
X148277482Y-92000908D01*
X148277483Y-92000908D01*
X148217883Y-91994501D01*
X148217881Y-91994500D01*
X148217873Y-91994500D01*
X148217864Y-91994500D01*
X146422129Y-91994500D01*
X146422123Y-91994501D01*
X146362516Y-92000908D01*
X146227671Y-92051202D01*
X146227664Y-92051206D01*
X146112455Y-92137452D01*
X146112452Y-92137455D01*
X146026206Y-92252664D01*
X146026202Y-92252671D01*
X145975908Y-92387517D01*
X145969501Y-92447116D01*
X145969501Y-92447123D01*
X145969500Y-92447135D01*
X145969500Y-94242870D01*
X145969501Y-94242876D01*
X145975908Y-94302483D01*
X146026202Y-94437328D01*
X146026206Y-94437335D01*
X146112452Y-94552544D01*
X146112455Y-94552547D01*
X146227664Y-94638793D01*
X146227671Y-94638797D01*
X146359082Y-94687810D01*
X146415016Y-94729681D01*
X146439433Y-94795145D01*
X146424582Y-94863418D01*
X146403431Y-94891673D01*
X146289889Y-95005215D01*
X146164951Y-95177179D01*
X146068444Y-95366585D01*
X146002753Y-95568760D01*
X145969500Y-95778713D01*
X145969500Y-95991286D01*
X145997242Y-96166446D01*
X146002754Y-96201243D01*
X146058428Y-96372590D01*
X146068444Y-96403414D01*
X146164951Y-96592820D01*
X146289890Y-96764786D01*
X146440213Y-96915109D01*
X146612182Y-97040050D01*
X146620946Y-97044516D01*
X146671742Y-97092491D01*
X146688536Y-97160312D01*
X146665998Y-97226447D01*
X146620946Y-97265484D01*
X146612182Y-97269949D01*
X146440213Y-97394890D01*
X146289890Y-97545213D01*
X146164951Y-97717179D01*
X146068444Y-97906585D01*
X146002753Y-98108760D01*
X145969500Y-98318713D01*
X145969500Y-98531286D01*
X146002753Y-98741241D01*
X146007821Y-98756837D01*
X146009816Y-98826678D01*
X145977571Y-98882837D01*
X143026270Y-101834139D01*
X142939144Y-101921264D01*
X142939138Y-101921272D01*
X142870692Y-102023705D01*
X142870684Y-102023719D01*
X142837347Y-102104207D01*
X142831823Y-102117543D01*
X142823537Y-102137545D01*
X142823535Y-102137553D01*
X142799500Y-102258389D01*
X142799500Y-105150500D01*
X142779815Y-105217539D01*
X142727011Y-105263294D01*
X142675501Y-105274500D01*
X142477130Y-105274500D01*
X142477123Y-105274501D01*
X142417516Y-105280908D01*
X142282671Y-105331202D01*
X142282664Y-105331206D01*
X142160355Y-105422768D01*
X142158560Y-105420370D01*
X142110404Y-105446666D01*
X142084046Y-105449500D01*
X141006894Y-105449500D01*
X140939855Y-105429815D01*
X140894100Y-105377011D01*
X140884156Y-105307853D01*
X140913181Y-105244297D01*
X140932582Y-105226234D01*
X140957546Y-105207546D01*
X141043796Y-105092331D01*
X141094091Y-104957483D01*
X141100500Y-104897873D01*
X141100499Y-103402128D01*
X141094091Y-103342517D01*
X141056648Y-103242128D01*
X141043797Y-103207671D01*
X141043793Y-103207664D01*
X140957547Y-103092455D01*
X140957544Y-103092452D01*
X140842335Y-103006206D01*
X140842328Y-103006202D01*
X140707482Y-102955908D01*
X140707483Y-102955908D01*
X140647883Y-102949501D01*
X140647881Y-102949500D01*
X140647873Y-102949500D01*
X140647864Y-102949500D01*
X138327129Y-102949500D01*
X138327123Y-102949501D01*
X138267516Y-102955908D01*
X138132671Y-103006202D01*
X138132664Y-103006206D01*
X138017455Y-103092452D01*
X138017452Y-103092455D01*
X137931206Y-103207664D01*
X137931202Y-103207671D01*
X137880908Y-103342517D01*
X137874501Y-103402116D01*
X137874501Y-103402123D01*
X137874500Y-103402135D01*
X137874500Y-104897870D01*
X137874501Y-104897876D01*
X137880908Y-104957483D01*
X137931202Y-105092328D01*
X137931206Y-105092335D01*
X138017452Y-105207544D01*
X138017453Y-105207544D01*
X138017454Y-105207546D01*
X138030803Y-105217539D01*
X138042418Y-105226234D01*
X138060810Y-105250804D01*
X138080900Y-105273989D01*
X138081550Y-105278510D01*
X138084288Y-105282168D01*
X138086476Y-105312774D01*
X138090844Y-105343147D01*
X138088946Y-105347302D01*
X138089272Y-105351860D01*
X138074566Y-105378789D01*
X138061819Y-105406703D01*
X138057974Y-105409173D01*
X138055786Y-105413182D01*
X138028857Y-105427885D01*
X138003041Y-105444477D01*
X137996839Y-105445368D01*
X137994462Y-105446667D01*
X137968106Y-105449500D01*
X137765954Y-105449500D01*
X137698915Y-105429815D01*
X137689842Y-105422504D01*
X137689645Y-105422768D01*
X137567335Y-105331206D01*
X137567328Y-105331202D01*
X137432482Y-105280908D01*
X137432483Y-105280908D01*
X137372883Y-105274501D01*
X137372881Y-105274500D01*
X137372873Y-105274500D01*
X137372864Y-105274500D01*
X135477129Y-105274500D01*
X135477123Y-105274501D01*
X135417516Y-105280908D01*
X135282671Y-105331202D01*
X135282664Y-105331206D01*
X135160355Y-105422768D01*
X135158560Y-105420370D01*
X135110404Y-105446666D01*
X135084046Y-105449500D01*
X134006894Y-105449500D01*
X133939855Y-105429815D01*
X133894100Y-105377011D01*
X133884156Y-105307853D01*
X133913181Y-105244297D01*
X133932582Y-105226234D01*
X133957546Y-105207546D01*
X134043796Y-105092331D01*
X134094091Y-104957483D01*
X134100500Y-104897873D01*
X134100499Y-103402128D01*
X134094091Y-103342517D01*
X134056648Y-103242128D01*
X134043797Y-103207671D01*
X134043793Y-103207664D01*
X133957547Y-103092455D01*
X133957544Y-103092452D01*
X133842335Y-103006206D01*
X133842328Y-103006202D01*
X133707482Y-102955908D01*
X133707483Y-102955908D01*
X133647883Y-102949501D01*
X133647881Y-102949500D01*
X133647873Y-102949500D01*
X133647864Y-102949500D01*
X131327129Y-102949500D01*
X131327123Y-102949501D01*
X131267516Y-102955908D01*
X131132671Y-103006202D01*
X131132664Y-103006206D01*
X131017455Y-103092452D01*
X131017452Y-103092455D01*
X130931206Y-103207664D01*
X130931202Y-103207671D01*
X130880908Y-103342517D01*
X130874501Y-103402116D01*
X130874501Y-103402123D01*
X130874500Y-103402135D01*
X130874500Y-104897870D01*
X130874501Y-104897876D01*
X130880908Y-104957483D01*
X130931202Y-105092328D01*
X130931206Y-105092335D01*
X131017452Y-105207544D01*
X131017453Y-105207544D01*
X131017454Y-105207546D01*
X131030803Y-105217539D01*
X131042418Y-105226234D01*
X131060810Y-105250804D01*
X131080900Y-105273989D01*
X131081550Y-105278510D01*
X131084288Y-105282168D01*
X131086476Y-105312774D01*
X131090844Y-105343147D01*
X131088946Y-105347302D01*
X131089272Y-105351860D01*
X131074566Y-105378789D01*
X131061819Y-105406703D01*
X131057974Y-105409173D01*
X131055786Y-105413182D01*
X131028857Y-105427885D01*
X131003041Y-105444477D01*
X130996839Y-105445368D01*
X130994462Y-105446667D01*
X130968106Y-105449500D01*
X130765954Y-105449500D01*
X130698915Y-105429815D01*
X130689842Y-105422504D01*
X130689645Y-105422768D01*
X130567335Y-105331206D01*
X130567328Y-105331202D01*
X130432482Y-105280908D01*
X130432483Y-105280908D01*
X130372883Y-105274501D01*
X130372881Y-105274500D01*
X130372873Y-105274500D01*
X130372865Y-105274500D01*
X130289500Y-105274500D01*
X130222461Y-105254815D01*
X130176706Y-105202011D01*
X130165500Y-105150500D01*
X130165500Y-97994499D01*
X130185185Y-97927460D01*
X130237989Y-97881705D01*
X130289500Y-97870499D01*
X130437871Y-97870499D01*
X130437872Y-97870499D01*
X130497483Y-97864091D01*
X130632331Y-97813796D01*
X130747546Y-97727546D01*
X130833796Y-97612331D01*
X130882810Y-97480916D01*
X130924681Y-97424984D01*
X130990145Y-97400566D01*
X131058418Y-97415417D01*
X131086673Y-97436569D01*
X131200213Y-97550109D01*
X131372179Y-97675048D01*
X131372181Y-97675049D01*
X131372184Y-97675051D01*
X131561588Y-97771557D01*
X131763757Y-97837246D01*
X131973713Y-97870500D01*
X131973714Y-97870500D01*
X132186286Y-97870500D01*
X132186287Y-97870500D01*
X132396243Y-97837246D01*
X132598412Y-97771557D01*
X132787816Y-97675051D01*
X132874138Y-97612335D01*
X132959786Y-97550109D01*
X132959788Y-97550106D01*
X132959792Y-97550104D01*
X133110104Y-97399792D01*
X133110106Y-97399788D01*
X133110109Y-97399786D01*
X133235048Y-97227820D01*
X133235047Y-97227820D01*
X133235051Y-97227816D01*
X133239514Y-97219054D01*
X133287488Y-97168259D01*
X133355308Y-97151463D01*
X133421444Y-97173999D01*
X133460486Y-97219056D01*
X133464951Y-97227820D01*
X133589890Y-97399786D01*
X133740213Y-97550109D01*
X133912179Y-97675048D01*
X133912181Y-97675049D01*
X133912184Y-97675051D01*
X134101588Y-97771557D01*
X134303757Y-97837246D01*
X134513713Y-97870500D01*
X134513714Y-97870500D01*
X134726286Y-97870500D01*
X134726287Y-97870500D01*
X134936243Y-97837246D01*
X135138412Y-97771557D01*
X135327816Y-97675051D01*
X135414138Y-97612335D01*
X135499786Y-97550109D01*
X135499788Y-97550106D01*
X135499792Y-97550104D01*
X135650104Y-97399792D01*
X135650106Y-97399788D01*
X135650109Y-97399786D01*
X135775048Y-97227820D01*
X135775047Y-97227820D01*
X135775051Y-97227816D01*
X135779514Y-97219054D01*
X135827488Y-97168259D01*
X135895308Y-97151463D01*
X135961444Y-97173999D01*
X136000486Y-97219056D01*
X136004951Y-97227820D01*
X136129890Y-97399786D01*
X136280213Y-97550109D01*
X136452179Y-97675048D01*
X136452181Y-97675049D01*
X136452184Y-97675051D01*
X136641588Y-97771557D01*
X136843757Y-97837246D01*
X137053713Y-97870500D01*
X137053714Y-97870500D01*
X137266286Y-97870500D01*
X137266287Y-97870500D01*
X137476243Y-97837246D01*
X137678412Y-97771557D01*
X137867816Y-97675051D01*
X137954138Y-97612335D01*
X138039786Y-97550109D01*
X138039788Y-97550106D01*
X138039792Y-97550104D01*
X138190104Y-97399792D01*
X138190106Y-97399788D01*
X138190109Y-97399786D01*
X138315048Y-97227820D01*
X138315047Y-97227820D01*
X138315051Y-97227816D01*
X138319514Y-97219054D01*
X138367488Y-97168259D01*
X138435308Y-97151463D01*
X138501444Y-97173999D01*
X138540486Y-97219056D01*
X138544951Y-97227820D01*
X138669890Y-97399786D01*
X138820213Y-97550109D01*
X138992179Y-97675048D01*
X138992181Y-97675049D01*
X138992184Y-97675051D01*
X139181588Y-97771557D01*
X139383757Y-97837246D01*
X139593713Y-97870500D01*
X139593714Y-97870500D01*
X139806286Y-97870500D01*
X139806287Y-97870500D01*
X140016243Y-97837246D01*
X140218412Y-97771557D01*
X140407816Y-97675051D01*
X140494138Y-97612335D01*
X140579786Y-97550109D01*
X140579788Y-97550106D01*
X140579792Y-97550104D01*
X140730104Y-97399792D01*
X140730106Y-97399788D01*
X140730109Y-97399786D01*
X140815890Y-97281717D01*
X140855051Y-97227816D01*
X140859793Y-97218508D01*
X140907763Y-97167711D01*
X140975583Y-97150911D01*
X141041719Y-97173445D01*
X141080763Y-97218500D01*
X141085373Y-97227547D01*
X141124728Y-97281716D01*
X141757037Y-96649408D01*
X141774075Y-96712993D01*
X141839901Y-96827007D01*
X141932993Y-96920099D01*
X142047007Y-96985925D01*
X142110590Y-97002962D01*
X141478282Y-97635269D01*
X141478282Y-97635270D01*
X141532449Y-97674624D01*
X141721782Y-97771095D01*
X141923870Y-97836757D01*
X142133754Y-97870000D01*
X142346246Y-97870000D01*
X142556127Y-97836757D01*
X142556130Y-97836757D01*
X142758217Y-97771095D01*
X142947554Y-97674622D01*
X143001716Y-97635270D01*
X143001717Y-97635270D01*
X142369408Y-97002962D01*
X142432993Y-96985925D01*
X142547007Y-96920099D01*
X142640099Y-96827007D01*
X142705925Y-96712993D01*
X142722962Y-96649408D01*
X143355270Y-97281717D01*
X143355270Y-97281716D01*
X143394622Y-97227554D01*
X143491095Y-97038217D01*
X143556757Y-96836130D01*
X143556757Y-96836127D01*
X143590000Y-96626246D01*
X143590000Y-96413753D01*
X143556757Y-96203872D01*
X143556757Y-96203869D01*
X143491095Y-96001782D01*
X143394624Y-95812449D01*
X143355270Y-95758282D01*
X143355269Y-95758282D01*
X142722962Y-96390590D01*
X142705925Y-96327007D01*
X142640099Y-96212993D01*
X142547007Y-96119901D01*
X142432993Y-96054075D01*
X142369409Y-96037037D01*
X143001716Y-95404728D01*
X142947550Y-95365375D01*
X142758217Y-95268904D01*
X142556129Y-95203242D01*
X142346246Y-95170000D01*
X142133754Y-95170000D01*
X141923872Y-95203242D01*
X141923869Y-95203242D01*
X141721782Y-95268904D01*
X141532439Y-95365380D01*
X141478282Y-95404727D01*
X141478282Y-95404728D01*
X142110591Y-96037037D01*
X142047007Y-96054075D01*
X141932993Y-96119901D01*
X141839901Y-96212993D01*
X141774075Y-96327007D01*
X141757037Y-96390591D01*
X141124728Y-95758282D01*
X141124727Y-95758282D01*
X141085380Y-95812440D01*
X141085376Y-95812446D01*
X141080760Y-95821505D01*
X141032781Y-95872297D01*
X140964959Y-95889087D01*
X140898826Y-95866543D01*
X140859794Y-95821493D01*
X140855051Y-95812184D01*
X140855049Y-95812181D01*
X140855048Y-95812179D01*
X140730109Y-95640213D01*
X140579786Y-95489890D01*
X140407820Y-95364951D01*
X140218414Y-95268444D01*
X140218413Y-95268443D01*
X140218412Y-95268443D01*
X140016243Y-95202754D01*
X140016241Y-95202753D01*
X140016240Y-95202753D01*
X139854770Y-95177179D01*
X139806287Y-95169500D01*
X139593713Y-95169500D01*
X139565006Y-95174046D01*
X139383757Y-95202753D01*
X139368158Y-95207822D01*
X139298317Y-95209816D01*
X139242161Y-95177571D01*
X138799976Y-94735386D01*
X138766491Y-94674063D01*
X138768472Y-94646362D01*
X138765000Y-94646362D01*
X138765000Y-94595000D01*
X139265000Y-94595000D01*
X139362828Y-94595000D01*
X139362844Y-94594999D01*
X139422372Y-94588598D01*
X139422379Y-94588596D01*
X139557086Y-94538354D01*
X139557093Y-94538350D01*
X139672187Y-94452190D01*
X139672190Y-94452187D01*
X139758350Y-94337093D01*
X139758354Y-94337086D01*
X139808596Y-94202379D01*
X139808598Y-94202372D01*
X139814999Y-94142844D01*
X139815000Y-94142827D01*
X139815000Y-93445000D01*
X139265000Y-93445000D01*
X139265000Y-94595000D01*
X138765000Y-94595000D01*
X138765000Y-92945000D01*
X139265000Y-92945000D01*
X139815000Y-92945000D01*
X139815000Y-92247172D01*
X139814999Y-92247155D01*
X139808598Y-92187627D01*
X139808596Y-92187620D01*
X139758354Y-92052913D01*
X139758350Y-92052906D01*
X139672190Y-91937812D01*
X139672187Y-91937809D01*
X139557093Y-91851649D01*
X139557086Y-91851645D01*
X139422379Y-91801403D01*
X139422372Y-91801401D01*
X139362844Y-91795000D01*
X139265000Y-91795000D01*
X139265000Y-92945000D01*
X138765000Y-92945000D01*
X138765000Y-91795000D01*
X138667155Y-91795000D01*
X138607627Y-91801401D01*
X138607616Y-91801404D01*
X138557832Y-91819972D01*
X138488140Y-91824956D01*
X138426818Y-91791470D01*
X138393333Y-91730146D01*
X138390500Y-91703790D01*
X138390500Y-88972135D01*
X139739500Y-88972135D01*
X139739500Y-91292870D01*
X139739501Y-91292876D01*
X139745908Y-91352483D01*
X139796202Y-91487328D01*
X139796206Y-91487335D01*
X139882452Y-91602544D01*
X139882455Y-91602547D01*
X139997664Y-91688793D01*
X139997671Y-91688797D01*
X140132517Y-91739091D01*
X140132516Y-91739091D01*
X140139444Y-91739835D01*
X140192127Y-91745500D01*
X141687872Y-91745499D01*
X141747483Y-91739091D01*
X141882331Y-91688796D01*
X141997546Y-91602546D01*
X142083796Y-91487331D01*
X142134091Y-91352483D01*
X142140500Y-91292873D01*
X142140499Y-88972128D01*
X142134091Y-88912517D01*
X142083796Y-88777669D01*
X142083795Y-88777668D01*
X142083793Y-88777664D01*
X141997547Y-88662455D01*
X141997544Y-88662452D01*
X141882335Y-88576206D01*
X141882328Y-88576202D01*
X141747482Y-88525908D01*
X141747483Y-88525908D01*
X141687883Y-88519501D01*
X141687881Y-88519500D01*
X141687873Y-88519500D01*
X141687864Y-88519500D01*
X140192129Y-88519500D01*
X140192123Y-88519501D01*
X140132516Y-88525908D01*
X139997671Y-88576202D01*
X139997664Y-88576206D01*
X139882455Y-88662452D01*
X139882452Y-88662455D01*
X139796206Y-88777664D01*
X139796202Y-88777671D01*
X139745908Y-88912517D01*
X139739501Y-88972116D01*
X139739501Y-88972123D01*
X139739500Y-88972135D01*
X138390500Y-88972135D01*
X138390500Y-87686209D01*
X138410185Y-87619170D01*
X138462989Y-87573415D01*
X138532147Y-87563471D01*
X138557834Y-87570027D01*
X138607623Y-87588597D01*
X138607627Y-87588598D01*
X138667155Y-87594999D01*
X138667172Y-87595000D01*
X138765000Y-87595000D01*
X139265000Y-87595000D01*
X139362828Y-87595000D01*
X139362844Y-87594999D01*
X139422372Y-87588598D01*
X139422379Y-87588596D01*
X139557086Y-87538354D01*
X139557093Y-87538350D01*
X139672187Y-87452190D01*
X139672190Y-87452187D01*
X139758350Y-87337093D01*
X139758354Y-87337086D01*
X139808596Y-87202379D01*
X139808598Y-87202372D01*
X139814999Y-87142844D01*
X139815000Y-87142827D01*
X139815000Y-86445000D01*
X139265000Y-86445000D01*
X139265000Y-87595000D01*
X138765000Y-87595000D01*
X138765000Y-85945000D01*
X139265000Y-85945000D01*
X139815000Y-85945000D01*
X139815000Y-85247172D01*
X139814999Y-85247155D01*
X139808598Y-85187627D01*
X139808596Y-85187620D01*
X139758354Y-85052913D01*
X139758350Y-85052906D01*
X139672190Y-84937812D01*
X139672187Y-84937809D01*
X139557093Y-84851649D01*
X139557086Y-84851645D01*
X139422379Y-84801403D01*
X139422372Y-84801401D01*
X139362844Y-84795000D01*
X139265000Y-84795000D01*
X139265000Y-85945000D01*
X138765000Y-85945000D01*
X138765000Y-84795000D01*
X138667155Y-84795000D01*
X138607627Y-84801401D01*
X138607620Y-84801403D01*
X138472913Y-84851645D01*
X138472912Y-84851646D01*
X138464725Y-84857775D01*
X138399260Y-84882190D01*
X138330987Y-84867337D01*
X138316106Y-84857773D01*
X138307331Y-84851204D01*
X138307327Y-84851202D01*
X138172486Y-84800910D01*
X138172485Y-84800909D01*
X138172483Y-84800909D01*
X138112873Y-84794500D01*
X138112863Y-84794500D01*
X137417129Y-84794500D01*
X137417123Y-84794501D01*
X137357516Y-84800908D01*
X137222671Y-84851202D01*
X137222662Y-84851207D01*
X137214307Y-84857462D01*
X137148842Y-84881877D01*
X137080570Y-84867023D01*
X137065693Y-84857462D01*
X137057337Y-84851207D01*
X137057328Y-84851202D01*
X136922486Y-84800910D01*
X136922485Y-84800909D01*
X136922483Y-84800909D01*
X136862873Y-84794500D01*
X136862863Y-84794500D01*
X136167129Y-84794500D01*
X136167123Y-84794501D01*
X136107516Y-84800908D01*
X135972671Y-84851202D01*
X135972662Y-84851207D01*
X135964307Y-84857462D01*
X135898842Y-84881877D01*
X135830570Y-84867023D01*
X135815693Y-84857462D01*
X135807337Y-84851207D01*
X135807328Y-84851202D01*
X135672486Y-84800910D01*
X135672485Y-84800909D01*
X135672483Y-84800909D01*
X135612873Y-84794500D01*
X135612863Y-84794500D01*
X134917129Y-84794500D01*
X134917123Y-84794501D01*
X134857516Y-84800908D01*
X134722671Y-84851202D01*
X134722662Y-84851207D01*
X134714307Y-84857462D01*
X134648842Y-84881877D01*
X134580570Y-84867023D01*
X134565693Y-84857462D01*
X134557337Y-84851207D01*
X134557328Y-84851202D01*
X134422486Y-84800910D01*
X134422485Y-84800909D01*
X134422483Y-84800909D01*
X134362873Y-84794500D01*
X134362863Y-84794500D01*
X133667129Y-84794500D01*
X133667123Y-84794501D01*
X133607514Y-84800909D01*
X133557832Y-84819439D01*
X133488140Y-84824423D01*
X133426817Y-84790937D01*
X133393333Y-84729613D01*
X133390500Y-84703257D01*
X133390500Y-81972135D01*
X139739500Y-81972135D01*
X139739500Y-84292870D01*
X139739501Y-84292876D01*
X139745908Y-84352483D01*
X139796202Y-84487328D01*
X139796206Y-84487335D01*
X139882452Y-84602544D01*
X139882455Y-84602547D01*
X139997664Y-84688793D01*
X139997671Y-84688797D01*
X140132517Y-84739091D01*
X140132516Y-84739091D01*
X140139444Y-84739835D01*
X140192127Y-84745500D01*
X141687872Y-84745499D01*
X141747483Y-84739091D01*
X141882331Y-84688796D01*
X141997546Y-84602546D01*
X142083796Y-84487331D01*
X142134091Y-84352483D01*
X142140500Y-84292873D01*
X142140499Y-81972128D01*
X142134091Y-81912517D01*
X142132530Y-81908333D01*
X142083797Y-81777671D01*
X142083793Y-81777664D01*
X141997547Y-81662455D01*
X141997544Y-81662452D01*
X141882335Y-81576206D01*
X141882328Y-81576202D01*
X141747482Y-81525908D01*
X141747483Y-81525908D01*
X141687883Y-81519501D01*
X141687881Y-81519500D01*
X141687873Y-81519500D01*
X141687864Y-81519500D01*
X140192129Y-81519500D01*
X140192123Y-81519501D01*
X140132516Y-81525908D01*
X139997671Y-81576202D01*
X139997664Y-81576206D01*
X139882455Y-81662452D01*
X139882452Y-81662455D01*
X139796206Y-81777664D01*
X139796202Y-81777671D01*
X139745908Y-81912517D01*
X139739501Y-81972116D01*
X139739501Y-81972123D01*
X139739500Y-81972135D01*
X133390500Y-81972135D01*
X133390500Y-80124500D01*
X133410185Y-80057461D01*
X133462989Y-80011706D01*
X133514500Y-80000500D01*
X149921607Y-80000500D01*
X149982029Y-79988481D01*
X150042452Y-79976463D01*
X150075792Y-79962652D01*
X150156286Y-79929312D01*
X150207509Y-79895084D01*
X150258733Y-79860858D01*
X150345858Y-79773733D01*
X150345858Y-79773731D01*
X150356066Y-79763524D01*
X150356067Y-79763521D01*
X152885857Y-77233734D01*
X152954311Y-77131286D01*
X153001463Y-77017452D01*
X153025500Y-76896607D01*
X153025500Y-76773394D01*
X153025500Y-74932980D01*
X153045185Y-74865941D01*
X153093208Y-74822494D01*
X153107818Y-74815050D01*
X153279786Y-74690109D01*
X153279788Y-74690106D01*
X153279792Y-74690104D01*
X153430104Y-74539792D01*
X153430106Y-74539788D01*
X153430109Y-74539786D01*
X153515890Y-74421717D01*
X153555051Y-74367816D01*
X153559793Y-74358508D01*
X153607763Y-74307711D01*
X153675583Y-74290911D01*
X153741719Y-74313445D01*
X153780763Y-74358500D01*
X153785373Y-74367547D01*
X153824728Y-74421716D01*
X154457037Y-73789408D01*
X154474075Y-73852993D01*
G37*
%TD.AperFunction*%
%TD*%
M02*
