%TF.GenerationSoftware,KiCad,Pcbnew,9.0.1*%
%TF.CreationDate,2025-06-01T13:31:13+09:00*%
%TF.ProjectId,DevTool,44657654-6f6f-46c2-9e6b-696361645f70,rev?*%
%TF.SameCoordinates,Original*%
%TF.FileFunction,Paste,Top*%
%TF.FilePolarity,Positive*%
%FSLAX46Y46*%
G04 Gerber Fmt 4.6, Leading zero omitted, Abs format (unit mm)*
G04 Created by KiCad (PCBNEW 9.0.1) date 2025-06-01 13:31:13*
%MOMM*%
%LPD*%
G01*
G04 APERTURE LIST*
G04 Aperture macros list*
%AMRoundRect*
0 Rectangle with rounded corners*
0 $1 Rounding radius*
0 $2 $3 $4 $5 $6 $7 $8 $9 X,Y pos of 4 corners*
0 Add a 4 corners polygon primitive as box body*
4,1,4,$2,$3,$4,$5,$6,$7,$8,$9,$2,$3,0*
0 Add four circle primitives for the rounded corners*
1,1,$1+$1,$2,$3*
1,1,$1+$1,$4,$5*
1,1,$1+$1,$6,$7*
1,1,$1+$1,$8,$9*
0 Add four rect primitives between the rounded corners*
20,1,$1+$1,$2,$3,$4,$5,0*
20,1,$1+$1,$4,$5,$6,$7,0*
20,1,$1+$1,$6,$7,$8,$9,0*
20,1,$1+$1,$8,$9,$2,$3,0*%
G04 Aperture macros list end*
%ADD10R,1.400000X2.225000*%
%ADD11R,0.600000X1.800000*%
%ADD12RoundRect,0.225000X0.225000X0.250000X-0.225000X0.250000X-0.225000X-0.250000X0.225000X-0.250000X0*%
%ADD13R,2.225000X1.400000*%
%ADD14R,1.800000X0.600000*%
%ADD15R,1.300000X1.550000*%
G04 APERTURE END LIST*
D10*
%TO.C,J12*%
X130840000Y-60272500D03*
X140940000Y-60272500D03*
D11*
X132765000Y-63335000D03*
X134015000Y-63335000D03*
X135265000Y-63335000D03*
X136515000Y-63335000D03*
X137765000Y-63335000D03*
X139015000Y-63335000D03*
%TD*%
D10*
%TO.C,J6*%
X130840000Y-90132500D03*
X140940000Y-90132500D03*
D11*
X132765000Y-93195000D03*
X134015000Y-93195000D03*
X135265000Y-93195000D03*
X136515000Y-93195000D03*
X137765000Y-93195000D03*
X139015000Y-93195000D03*
%TD*%
D10*
%TO.C,J15*%
X147330000Y-67272500D03*
X154930000Y-67272500D03*
D11*
X149255000Y-70335000D03*
X150505000Y-70335000D03*
X151755000Y-70335000D03*
X153005000Y-70335000D03*
%TD*%
D12*
%TO.C,C1*%
X113170000Y-80930000D03*
X111620000Y-80930000D03*
%TD*%
D13*
%TO.C,J7*%
X132487500Y-104150000D03*
X132487500Y-111750000D03*
D14*
X129425000Y-106075000D03*
X129425000Y-107325000D03*
X129425000Y-108575000D03*
X129425000Y-109825000D03*
%TD*%
D10*
%TO.C,J16*%
X130840000Y-67272500D03*
X140940000Y-67272500D03*
D11*
X132765000Y-70335000D03*
X134015000Y-70335000D03*
X135265000Y-70335000D03*
X136515000Y-70335000D03*
X137765000Y-70335000D03*
X139015000Y-70335000D03*
%TD*%
D10*
%TO.C,J22*%
X147330000Y-60207500D03*
X154930000Y-60207500D03*
D11*
X149255000Y-63270000D03*
X150505000Y-63270000D03*
X151755000Y-63270000D03*
X153005000Y-63270000D03*
%TD*%
D13*
%TO.C,J9*%
X125487500Y-104150000D03*
X125487500Y-111750000D03*
D14*
X122425000Y-106075000D03*
X122425000Y-107325000D03*
X122425000Y-108575000D03*
X122425000Y-109825000D03*
%TD*%
D15*
%TO.C,SW1*%
X110145000Y-78910000D03*
X110145000Y-70950000D03*
X114645000Y-78910000D03*
X114645000Y-70950000D03*
%TD*%
D13*
%TO.C,J3*%
X146487500Y-104150000D03*
X146487500Y-111750000D03*
D14*
X143425000Y-106075000D03*
X143425000Y-107325000D03*
X143425000Y-108575000D03*
X143425000Y-109825000D03*
%TD*%
D10*
%TO.C,J4*%
X130840000Y-83132500D03*
X140940000Y-83132500D03*
D11*
X132765000Y-86195000D03*
X134015000Y-86195000D03*
X135265000Y-86195000D03*
X136515000Y-86195000D03*
X137765000Y-86195000D03*
X139015000Y-86195000D03*
%TD*%
D13*
%TO.C,J5*%
X139487500Y-104150000D03*
X139487500Y-111750000D03*
D14*
X136425000Y-106075000D03*
X136425000Y-107325000D03*
X136425000Y-108575000D03*
X136425000Y-109825000D03*
%TD*%
D13*
%TO.C,J2*%
X111007500Y-67915000D03*
X111007500Y-57815000D03*
D14*
X114070000Y-65990000D03*
X114070000Y-64740000D03*
X114070000Y-63490000D03*
X114070000Y-62240000D03*
X114070000Y-60990000D03*
X114070000Y-59740000D03*
%TD*%
M02*
